<svg id="Слой_1" data-name="Слой 1" xmlns="http://www.w3.org/2000/svg" viewBox="0 0 223 312.49"><defs><style>.cls-1{fill:#fff;}.cls-2{fill:#057c69;}</style></defs><g id="_3" data-name="3"><path class="cls-1" d="M199.42,283.54l.5,1.72h1.76l-1.52-2.75C199.89,282.9,199.64,283.24,199.42,283.54Z"/><path class="cls-1" d="M87.11,168.08h0a50.77,50.77,0,0,0,10-9.48A50.77,50.77,0,0,1,87.11,168.08Z"/><path class="cls-1" d="M190.51,219.48s2.58,1,6.07,2.7c.36-4.54.36-17-7.31-33.92a73.94,73.94,0,0,0-7.61-13c6.48,23.42,5.2,41.07,4.72,45.53Z"/><path class="cls-1" d="M49.94,196.42a21.57,21.57,0,0,1-2.52.35v0h3.5l-.54-.47Z"/><path class="cls-1" d="M212.42,231.92c.52-5.06.79-21.81-13.15-48.82-11.18-21.68-19.12-30.78-23.22-34.47l-1,.44a50.55,50.55,0,0,1,11,14.73,48.1,48.1,0,0,1,4.6,9.52c5.35,15.3,7.09,24.41,12.79,31.45s7.32,16,7.91,20.41a27.8,27.8,0,0,1,.16,6Z"/><path class="cls-1" d="M220.73,243.12l-.48-.65Z"/><path class="cls-1" d="M219.5,252.77l1.23-9.65c-17.66-18.45-30.18-19.77-30.18-19.77a18.94,18.94,0,0,1,6.57,1.27c-3.67-1.75-6.31-2.72-6.31-2.72l-7.06,2.27L180.87,240H197s5.67,5.19,7.24,9.47a19.77,19.77,0,0,1,1.49,6.65l-2.54-.69c0,.21,0,.43-.05.65l3.43,1.32a37.84,37.84,0,0,0-.82-6.8c-.81-4-4.73-8.32-4.73-8.32l4.62,3.85-6.37-6.64,8.66,6.37-8-7.53,9.13,6.32L201,237.56l8.19,5.47L201,236l10.35,6.38-10.18-7.95,10.53,6.67-10.82-8.8,11.28,7.41-10.52-8.81L213.75,239l-10.35-8.44a59.06,59.06,0,0,1,9.36,5.95,37.3,37.3,0,0,1,6.86,6.86l-1.16,8.81a18.89,18.89,0,0,1-5.41,6.61,17.7,17.7,0,0,1-7.91,3.68l-2.65-1.88c-.06.3-.13.61-.2.92l2.83,1.81a16,16,0,0,0,8.11-3A26.27,26.27,0,0,0,219.5,252.77Z"/><path class="cls-1" d="M121.83,230.46l-3.49-.55-3,2.63a3,3,0,0,1,2.78,1.26c.82,1.49-5.38,15.46-9.73,23,1.7-2,3-3.63,3.19-3.87A64.73,64.73,0,0,0,116,245c4-8.68,3.09-11.17,3.09-11.17s1.45,3.64-.41,9.11,1.8,4.79,2.91.54-.7-10.32-.7-10.32a18.78,18.78,0,0,1,2.48,6.53C123.19,233.62,121.83,230.46,121.83,230.46Z"/><path class="cls-1" d="M175.61,167.86A92.38,92.38,0,0,0,162.55,156l-.78.54c6.39,4.46,13.52,12.24,13.52,12.24s1,3.37,4.36,14.75,1.66,24.14,1.66,24.14l-1-15.85-.79,12.93-1-17.67L177,200V183.82l-1.74,10.66V182.91l-1.66,10.93s1.57-12.48-2.27-22.86a19.94,19.94,0,0,0-8.21-10c-2.69,2.43-14.64,14-16,28.17-1.57,16,4.1,1.73,4.1,1.73s.87,4.82-1.31,8.19.61,7.93,3.23,3.37,6.54-.72,6.54-.72-4.89-1.92-7,6.65,7.15,7.28,7.15,3.55a10,10,0,0,0-1.74-5.92s3.31,3.28,2.79,6.78-2.14,4.6-4.1,3.83-1.48,1.43-.67,1.79l.38-.62-.52-1.19,1.22,1.28,0,0,.06.07h0c.29.35,1.12,1.74-.36,4.38-1.74,3.09-2.22,7.15,3.18,6.37s6.37-4.73,6.37-4.73-.09,4.91-4.58,6,.92,2.1,5,.78a4.91,4.91,0,0,0,3.49-5.29s2,6.1-3.22,7.87l.91.95v.08a17,17,0,0,1,10.19,3.28,158.68,158.68,0,0,0,4.53-30C183.62,190.91,178.4,175,175.61,167.86Z"/><path class="cls-1" d="M170.32,250.8c6,5.16,9.36,8.08,9.36,8.08l-3.49-1.7,4.13,4.31-4-2.55,3.9,3.32c.13-.12.27-.24.4-.38a16.1,16.1,0,0,0,3.46-5.37l-17.69-13.73C166,244,165.76,246.91,170.32,250.8Z"/><path class="cls-1" d="M131.56,217.46a36.24,36.24,0,0,1-6.71,13.81,29.9,29.9,0,0,1,.92,11c1.28-1.9,3.57-5.81,2.63-8.48-1.28-3.65,1.8-7.9,1.8-7.9s-1.69,5.17.7,3.77.29-7.83.29-7.83,2.27,2.79,2.62-.43A3.75,3.75,0,0,0,131.56,217.46Z"/><path class="cls-1" d="M7,84.05C5.94,83.33,5.31,83,5.31,83c-4.53,1.82-2.55,18.7.7,25.38a39.36,39.36,0,0,0,2,3.59H8s-4.69-11.05-4.11-18.4S7,84.06,7,84.05Z"/><polygon class="cls-1" points="41.51 82.45 41.5 82.45 41.5 82.46 41.51 82.45"/><path class="cls-1" d="M31,81.08C22.15,80,14.82,75,9.67,76.35S2.57,77.85-.44,90s4.79,21.22,10.81,31.15a28.23,28.23,0,0,1,3.41,8.05s1.52,5.89,3.7,5.16-2.79-5.74-2.79-5.74a15.06,15.06,0,0,0-1.56-5.93l-.41-.79h0q-.36-.62-.57-1a71.84,71.84,0,0,0-5.52-8.28c-9.17-12-5.38-27.81-3.4-31.21,1.49-2.56,4.81.17,10.22,5.29l.13,0s1.58-.69.23-4.49A4.57,4.57,0,0,0,9,78.9s5.4-1,11.8,4.79A62,62,0,0,0,34.13,92.6a123.48,123.48,0,0,1-12.33-9c-8.38-6.88-13-5.28-13-5.28,1.38-3.18,12,.72,16.7,2.77s13.91,2.19,13.91,2.19l2.08-.83C41.1,82.39,38.9,82.07,31,81.08Z"/><path class="cls-1" d="M152.65,160.78c-10.31,7.95-14.54,19.7-14.54,19.7s0-9.1,9.42-19.91,22.56-17,22.56-17l-7.1-3.28L173.92,136l-7.56-4.13,8.61-3.77-3.61-2.43s-3.83-5.22-2.09-15.18.47-17.36.47-11.41-3,8.26-3,8.26,1.4-3.28,1.4-9.84-1.86-16.88-4.19-12,2.33,12.87,2.33,12.87-2.1-.85-4.07-7.89,1.16-14.33,1.16-14.33l-4.65,10.44,1.45-6.8c1.46-6.8,0-16.94-3.66-13.12s0,14.7,0,14.7-5.81-9.6-.93-18.22,4.07-21.37,4.07-21.37.8-.66,2.28.88h0c1.33,1.38,3.2,4.49,5.54,11.35,5,14.58-.17,25.51,9.16,32.06s24.2,4.6,25.9-7S200,57.4,193.69,47.47,180.35,27.62,179,26.25s-15.79-1-18.75-1-8.81,3.64-17,9.56-14.39,16.85-14.39,16.85a133.05,133.05,0,0,0-19-.09c-7.68,5-32.28,22.2-41.79,44.82C56.77,123.35,85,93.65,85,93.65s-17.44,22.77-6.1,36.44,26,14.57,26,14.57a16.25,16.25,0,0,1-.47-1.61c-4.08-1.17-19.65-6.2-24.59-15.88a22.41,22.41,0,0,1,.47-21c-3.49,9.23,1.86,21.74,9.3,21.25s1.16-19.67,1.16-19.67,8,11.9,4,21.37c-3.2,7.46,5.06,8.6,8.72,8.74a88.68,88.68,0,0,1-.81-12.5c0-13.12,8.9-29.33,8.9-29.33s-8.2,20.22-5.06,34.07c1.78,7.86,3.34,10.81,4.35,11.9,0-.12,0-.24,0-.37,0-.43,0-.88,0-1.33h0v-1c.27-48.95,21-59.27,21-59.27s-10.35,8.63-14.66,26.81c3.76-9.59,9.39-18,17.33-22,18.49-9.11,29.77,18,31.75,25.26,1.41,5.21-.5,12.58-1.71,16.37h0s-1.93,14.73-21.84,19.2h0a12.41,12.41,0,0,1-6.38,2.08c-4.07.27,2.45,2.55,2.45,2.55s-5.12-.79-7.91.45S136.1,153,136.1,153s-7.35-.43-6.16,3.1,7.06-.82,7.06-.82-3,4.15-6.16,5.52-4.91,1.31-3.63-2.37a4.7,4.7,0,0,0-1.72-5.57,3.51,3.51,0,0,1,1.13,2A5.64,5.64,0,0,1,126,158h0c-1.39,3.44-7.65,11-8.83,12.4A9.39,9.39,0,0,1,121,173c3,3.16,8.15,2.09,19.67-10.75s21.45-15.12,21.45-15.12-13.69,6.92-22,18.58a35.41,35.41,0,0,1-8.59,9,38.25,38.25,0,0,0-3.44,9.25c-1.49,6.55-2.44,16.06-2.44,16.06l-1.07.09,2.33.1a53.65,53.65,0,0,1,.44-8.92,65.1,65.1,0,0,1,2-9.75s-2,16.08,2.31,17.31,1.35-7.24,1.35-7.24a8.26,8.26,0,0,1,2.18,4.05c.31,2.19,1.92-1,.31-4.46s.35-7.11.35-7.11-1.19,3.87,1.49,6.12c.72-7.47,3.36-17,12.76-26.81C151,162.46,151.8,161.6,152.65,160.78ZM173.2,61.05c0,13.75,4.18,18.76,4.18,18.76a21.94,21.94,0,0,1-2.09-7.74,30.37,30.37,0,0,1,.78-9.75,36.55,36.55,0,0,0,3.32,17c4.1,8.93,15.35,7.93,15.35,7.93s-7.85,2.73-14.92-1.37-8.37-10.11-8.37-22a33,33,0,0,0-6-19.4S173.2,51.21,173.2,61.05ZM141.13,45.68c0,6,3.49,7.78,3.49,7.78l-14-1.43s7.06-14.57,22.24-21.77C152.88,30.26,141.13,39.73,141.13,45.68ZM128.85,171.85c-3.36,2.23-5.36,2.05-6.72.63a20.19,20.19,0,0,0-3.57-2.73l5.71-7.1-2.18,3.55,2.7-2.32-3.18,4.1,3.27-2.55-2.83,3.41,2.74-2.46s-1.92,3.46.31,4.46,10-4.73,10-4.73A34.22,34.22,0,0,1,128.85,171.85Zm32.51-33.26C155.43,146.24,142,147,142,147s12.2-3.53,17.79-9.35,7.55-14.7,7.55-14.7A28.06,28.06,0,0,1,161.36,138.59Z"/><path class="cls-1" d="M101,160.77l0,.06v0A.06.06,0,0,1,101,160.77Z"/><path class="cls-1" d="M108.8,182.37c2.19-1.65,3.11-5.65,3.5-8.48h0c.55-5.51-10.53-4.91-11.4-10.1a7.67,7.67,0,0,1,.12-3h0s-2.44,8.06,3.61,9.7,5.52,7.4.64,8.13c-3.81.57-10.23.07-13.38-2.43a9.67,9.67,0,0,0,5.27,3c10.81,2.82,12.9-.91,12.9-.91s-.78,6.37-13.25,3.82-17.41-3.15-24.62-2.21c0,0-4.54.76-7,2.3a31.36,31.36,0,0,0-3.94,2.91c.85-.51,9.5-5.45,23.53-3.69C94.87,182.66,105.27,185,108.8,182.37Z"/><path class="cls-1" d="M101,160.76a11,11,0,0,1,.36-1.24l.37-1.27A24.9,24.9,0,0,0,101,160.76Z"/><path class="cls-1" d="M225,283.52l-19-13.26c-.17.8-.38,1.65-.64,2.51l17.43,15.89h0l.33.31h2.42v-3.4Z"/><path class="cls-1" d="M206,280.86c.52,3.58,9.12,7.71,9.12,7.71l-5.46-.73a9.41,9.41,0,0,0,1.79,1.13h10l-4.28-3.15C213,283,205.64,278.28,206,280.86Z"/><polygon class="cls-1" points="207.7 278.06 219.94 287.75 219.94 287.76 221.47 288.96 222.72 288.96 218.28 285.53 207.7 278.06"/><path class="cls-1" d="M198.81,270.87a36.8,36.8,0,0,1-2.12,3.28l1.76,6.06c.16-.23.32-.48.49-.75a15.1,15.1,0,0,0,1.26-5.53C200.24,271.65,199.41,271,198.81,270.87Z"/><rect class="cls-1" x="46.59" y="201.01" width="3.57" height="3.57"/><rect class="cls-1" x="40.74" y="201.01" width="3.57" height="3.57"/><rect class="cls-1" x="40.74" y="217.46" width="3.57" height="3.57"/><rect class="cls-1" x="56.69" y="225.74" width="3.57" height="3.57"/><rect class="cls-1" x="63.97" y="225.74" width="3.57" height="3.57"/><path class="cls-1" d="M70.84,225.74V228l2-2.09-.06-.12Z"/><rect class="cls-1" x="27.13" y="225.74" width="3.57" height="3.57"/><rect class="cls-1" x="33.3" y="234.64" width="3.57" height="3.57"/><rect class="cls-1" x="16.36" y="242.17" width="3.57" height="3.57"/><rect class="cls-1" x="16.36" y="251.12" width="3.57" height="3.57"/><rect class="cls-1" x="16.36" y="257.57" width="3.57" height="3.57"/><rect class="cls-1" x="22.34" y="251.12" width="3.57" height="3.57"/><rect class="cls-1" x="22.34" y="257.57" width="3.57" height="3.57"/><rect class="cls-1" x="40.74" y="266.48" width="3.57" height="3.57"/><rect class="cls-1" x="58.31" y="260.98" width="3.57" height="3.57"/><rect class="cls-1" x="66.17" y="267.85" width="3.57" height="3.57"/><rect class="cls-1" x="58.31" y="279.61" width="3.57" height="3.57"/><rect class="cls-1" x="78.83" y="279.61" width="3.57" height="3.57"/><rect class="cls-1" x="66.17" y="260.98" width="3.57" height="3.57"/><path class="cls-1" d="M43,80.21A123,123,0,0,1,55,70,32.39,32.39,0,0,1,66,64.6a3.5,3.5,0,0,1,.82-.18l-5.4-5.64,10.72-1.56L60.43,54.85,82.5,53,69.68,48l16,3a39.47,39.47,0,0,0-67.2,23.62,13.54,13.54,0,0,1,2.92,1.15C27.34,79.06,38.24,80,43,80.21Z"/><path class="cls-1" d="M202,96.66v13.52l-.83-11.43v11.71l-.78-9c0,8.51.26,18,.26,18l-1.14-13.75.53,18.12-1.4-14.48.44,13.93s-1.07-4.81-1.75-10.82c.14,6.7.66,12.94,1.81,14.13,1.85,1.94,8.2,1.23,10.93.82a183.35,183.35,0,0,0-.53-30.72,5.3,5.3,0,0,0-3.17-4.1l-.67-.29a8.54,8.54,0,0,0-2.5,1.38l-.42,13.12Z"/><path class="cls-1" d="M115.42,199l.08.24.42,0c-.14-1.28-.69-6.61-.89-13.31a94.32,94.32,0,0,1,.55-13.09l-.1,0c-1.75,8.86-.87,19.93-.55,23.18Z"/><path class="cls-1" d="M112.14,181.11a15.14,15.14,0,0,0-.86,8.73c.92,4.36,3,5.8,3.53,6.1-.45-2.37-1.36-9.16-.38-22l-.94,3.08a29.82,29.82,0,0,1-1.08,3.48l-.07.18h0Z"/><path class="cls-1" d="M110.67,151.58c-4,1.25-6.33,6.44-6.84,9.39a14.12,14.12,0,0,1,2-3.83,18.81,18.81,0,0,1,5.06-4.86l-4.48,6.53,5.26-6.11-3.37,5.35,4.77-5.62-3.61,5.28,4.6-5.07L111,158l5.06-5.35-3.22,5.26,4.65-5.13-2,3.88,3.35-3.82-2.65,5.25,3.66-4.59-1.68,3.77,2.85-3.58-3.32,6.1,3.84-5.44-4.25,7.81,5-7.08-4.62,8.78,6.19-8.6L121.27,160c2.56-3.59,3.09-4.58,3.09-4.58s.28,1.59-4.83,8.66c-.55.76-1,1.37-1.32,1.86,3-3.51,7.36-8.93,7-10.43C124.71,153.22,115.64,150,110.67,151.58Z"/><path class="cls-1" d="M113.85,234.22a5.69,5.69,0,0,1-.48,1.64s-2.82-19.13-6.43-22.22c-2.81-2.42-8.15-.24-10.35.82,0,2.93-.33,4.8-.17,8.17A49.82,49.82,0,0,0,98.86,235s-3.54-2.31-3.89-13.54-.7-20.92-5.41-23.29c-2.07-1-5.53-.9-8.94.27,3.94-.66,8.66-.22,6.21,6.63-4,11-7.91,22.46-2.33,33.51s.23-7.53.23-7.53l5.93,10.57L88.34,229.3s3.84,11.91,8.25,16.52-1.39-9.47-1.39-9.47,8.2,15.24,10.46,12.87,4-7.65,4-7.65-2,12.68-6,18.7a3.94,3.94,0,0,0,.79-.79c2.85-3.7,11.46-23.19,11.46-24.65C115.9,233.78,114.58,234,113.85,234.22Zm-14.41-2.79-1.33-5,.69,6A49.83,49.83,0,0,1,97.06,215s3.66-2.36,4.42-1-2.5,3.52-2.5,8.5A86,86,0,0,0,99.44,231.43Z"/><path class="cls-1" d="M195.32,269.32c-.82,3.32-3.56,7.5-5.3,9.91a41,41,0,0,0,11.35-30c-.2-.53-.43-1.09-.7-1.66-2.1-4.37-4.54-5.55-4.54-5.55h-2.92L186,250.72l3-4.41-3.93,4.1,2.75-4.2-3.84,4.29,2.53-4.1-4.36,4,3.75-4.51-4.45,4.23,3.54-4.55-5.1,4.48,1.95,1.38s2.23-1.4,4.32,2.24a4.92,4.92,0,0,1,.38.81h0c1.75,3.27-.59,5.65.11,6.38s3.78-2.49,3.78-2.49-3.84,5.1-2.56,7.29,5.75-3.53,5.75-3.53-4.65,9.78-1,7.72,2.79-9.35,2.79-9.35A17.67,17.67,0,0,1,195.32,269.32Z"/><polygon class="cls-1" points="187.01 242.03 186.42 242.03 177.52 248.43 178.17 248.89 187.01 242.03"/><path class="cls-1" d="M78.44,168.85s12.21-8.39,15-17.29h0a146.07,146.07,0,0,1-37.77-9.81c-12.67-5-13.72,9-1.39,24.17C62.15,175.61,72.21,172.42,78.44,168.85Zm.13-18.3A58.74,58.74,0,0,0,91,152.31a19.1,19.1,0,0,1-3.43,6.92c-2.91,4-9.89,8.56-9.89,8.56a31,31,0,0,1-1.39-8.8A17.82,17.82,0,0,1,78.57,150.55ZM65.9,171.32s-8.15-.25-14.54-11.48c-6.08-10.69-5.18-16.17-2.67-17.55,3.33-1.83,4.82,1,12.44,3.1a25.68,25.68,0,0,0-5.47,13.72c-.46,7.88.82,5,1.69-.12a41.92,41.92,0,0,1,3.26-10s-1.86,6.44-1.86,10.63,1.45-2.74,3.14-7S65,146.78,65,146.78l2.91.92s-3.89,3.46-5.06,11.41-.4,10.69-.4,10.69.17-8.62,3.08-13.42a58.08,58.08,0,0,1,5.93-8.14s-4.25,6.92-5.41,13.3S65.9,171.32,65.9,171.32Z"/><path class="cls-1" d="M139.36,240.52c.61,2,9,0,9,0s-8.46,3.23-7.76,5,12.3-3.78,12.3-3.78-8.94,4.83-7,6.88,8.81-5,8.81-5-5.24,5.51-3,6.74c1.45.8,3.84-1.43,5.32-3.07L155,245.09l6.28-8.13,3.38,2.38,1.15-5.12-21.54,2.1S138.75,238.52,139.36,240.52Z"/><path class="cls-1" d="M157.24,251.27c1,.36,1.88-.36,2.58-1.2l-2.49-2.56C156.66,249,156.09,250.84,157.24,251.27Z"/><path class="cls-1" d="M128.71,176.22a8.27,8.27,0,0,1-6.39.25c-3.57,1.6-4.54,11.06-4.81,16,.55,4.29,1.44,4.76,1.44,4.76l5,.85-6.57.52a33.72,33.72,0,0,1-.44-5,56.86,56.86,0,0,1,.18-6.92c0,.72,0,1.38.07,2,0-2.08,0-4.43.1-6.72a28,28,0,0,1,1.34-8.12,9.18,9.18,0,0,0-1-.62,100.91,100.91,0,0,0-.61,25.9l7.42-.64s.35-3.34,1.28-10.63A53.15,53.15,0,0,1,128.71,176.22Z"/><path class="cls-1" d="M136.6,141.87c11.92-3.24,17.3-7.76,19.69-10.82.49-.83,1.16-2,1.84-3.38h0c1.7-3.46,3.5-8.29,3.12-12.64-.7-7.9-11.4-34.25-27.56-23.56-13.87,9.16-17.29,40.76-18,49.56C115.7,141,118.88,146.67,136.6,141.87Zm-15.64.36c-2.88-.91-3.64-2.64-3.64-2.64s.45-21.33,9.92-38.47c0,0-6.11,16.21-1.14,25.78s24.51.82,24.51.82S141.19,135,135.87,135s1.92,4.92,10.29-.18a29.83,29.83,0,0,0,11.51-13.11A22.43,22.43,0,0,1,143,138.37C130.29,142.75,123.83,143.14,121,142.23Z"/></g><g id="_2" data-name="2"><path class="cls-2" d="M213.16,287.51c-2.58-1.45-6.78-4.18-7.14-6.65s7,2.12,11.15,5L204,276.13c-.47,1-1,1.95-1.55,2.87l4,8.41Z"/><path class="cls-2" d="M197.57,287.31l-2.72-10.52.21-.51c-.58.71-1.16,1.38-1.72,2l2.22,9Z"/><path class="cls-2" d="M130.75,287.1l2.5-9.28.26,4.46,2.88-1.54L134,284.38l3.93-1.55-3.49,3.64h6.71l-2.23.61h14.9l.23-2.16.62-5.71,1.39,7.87c9,0,17.9.06,26.19.11l-2.85-9.13-9.38-5-5.06-9.92,1.21-1.91-4.93.54,2.56-4.19H153.63l-1.3,10.66,0,.33-.73-12.84-3.92.22-1.31.07v15.59l5.59,2.82v1l-6.46-2.37-.83-16.94-.41,0-6.82.45-8,30.49Z"/><path class="cls-2" d="M188.89,130.63l-11.6,1.82,16.23,6.74L178,141.56l1.12.83,4.81,3.54s-1,.22-2.72.77c2,2.46,5.86,4.91,13.18,4.06,13.72-1.58,14.48-13.1,14.48-13.1h0c-4.44,2.47-13.19,1.36-15.87-.64-3.25-2.43-4.53-3.16-5.46-24.29-.64-14.38.89-19.31,1.92-21h-.54c-3.24,4.61-2.49,19.35-2.49,19.35l-1.33-11.35-.82,10.14-.93-9.66-.81,10-.18-9.84-1.1,8.75-.58-9.23-1,9-.52-8.62-.76,6.86-.29-7.28-1,6.25V99.3A22.19,22.19,0,0,1,178.87,90l-.74-.33h0c-3.34,1-1.17,33.16-1.17,33.16ZM199.45,140a35.62,35.62,0,0,0,5.75-.36l-4.42,1.58,3.32-.12-5.47,2.12,4.6-.18-7.39,2.73h5.87l-7.5,1.76h5.59l-8,1.7h4.53a11.58,11.58,0,0,1-6.8.73c-3.89-.73-4.59-1.88-4.59-1.88s9.88-2.19,9.3-9.78C194.27,138.28,195.67,140,199.45,140Z"/><path class="cls-2" d="M190.73,96.62c-1.64,9.54-.5,28.57,1,34.19,1.8,7,13.09,7.15,16.46,4.11-7,2.87-11.75.18-11.75.18l4.76.36-4.54-1,4.89.36-5-1,5.28-.09-4.45-.73,4.89.09-4.32-1H202l-3.84-.82h4.23l-3.49-.91,3.36.23-2.05-.87s3,.89,9.64-.27l.06-.45c-2.52.39-7.72,1-10.5-.21L194,133.61l2.15-2.8-2.44,1.46,4.33-4.52a2.59,2.59,0,0,1-.26-.46c-1.53-3.65-3.89-29.45.08-35.71-1.72-.18-5.72.07-6.65,5.84a89.64,89.64,0,0,0-.89,14.87c0,.47,0,.73,0,.73s0-.26,0-.73A135.12,135.12,0,0,1,190.73,96.62Z"/><path class="cls-2" d="M70.08,198.21c6.36-4.17,7.33-11.5,7.48-13.9l-1-.13a22.2,22.2,0,0,1-6.17,12.27c-3.62,3.67-9.69,1.63-13.68-.37a36.57,36.57,0,0,1-3.44-2l-.55-.38h.06l7.73,1.45-5.58-2.92,8.14,2-5.64-2.79,7.91,1.21-5.59-2.43,5.76.36-5.12-1.45,5.88-.67-3.84-.67,5.81-1H63.76a46.38,46.38,0,0,0-8.65,4.25l3.66-6.92-9.41,4.1,4.35-6.95-6.19,1.76,4.28-6.2a114.3,114.3,0,0,1-8.14-8A47.68,47.68,0,0,1,35.41,156l1,4.51-4.53-11.79,2.26,10.84-4-10.89,2.44,10.57L28.42,149,31,158.46l-4.19-9.61,2.27,8.38a36.37,36.37,0,0,1-3.53-9.88,49.37,49.37,0,0,1-1.23-10l-.39.2c0,3.46.63,11.52,5,22.43a97,97,0,0,0,7.44,14.72C50.66,198,62.41,203.26,70.08,198.21Z"/><path class="cls-2" d="M166.81,240.88l4.11,2.89,4.57,3.23c.21-.61,1-3,2.07-6.82,0-.17.09-.33.13-.5a19.57,19.57,0,0,0-10-3.55Z"/><path class="cls-2" d="M128.57,219.83a33.57,33.57,0,0,0,2.16-8.81h-2.5v3.48H126.1v-3.22h-2.72v3.22h-1.06v5h-2.57v8.25l3.28.43.55.07A34.82,34.82,0,0,0,128.57,219.83Z"/><path class="cls-2" d="M3.92,93.53C3.34,100.88,8,111.93,8,111.93H8c3.18,5,7.16,9.36,9,14.4,1.21,3.41,4.74,3,7.67,1.91-1.87-.37-4.79-1.85-7.75-6.91-4.92-8.42-5.58-9.93-5.58-9.93L17,118.7,9.33,106.77l9.28,9.7-10-13.53,10.29,9.93L8.37,99.3,19.7,109.5,8.8,96.2l10.82,10.11L7.32,91.56,17,99.94,6.27,88.19,18.05,97.3l-7.68-8.93s3,1.87,6.31,4.43A55,55,0,0,0,7,84.05S4.5,86.19,3.92,93.53Z"/><path class="cls-2" d="M17.48,134.37c-2.18.73-3.7-5.16-3.7-5.16,1.23,5,.44,7.94,2.87,8.85,1.35.5,3.65-.38,6-1.66l1.35-.78c2-1.19,3.87-2.55,5.06-3.44-.11-1.08-.21-2.16-.28-3.27a18.22,18.22,0,0,1-8.6,2c-3.76,0-4-2.42-7-8.24a15.06,15.06,0,0,1,1.56,5.93S19.66,133.64,17.48,134.37Z"/><path class="cls-2" d="M12.14,120.88q.21.41.57,1Z"/><path class="cls-2" d="M20.84,83.69C14.44,77.87,9,78.9,9,78.9a4.57,4.57,0,0,1,4.76,3.34c1.35,3.8-.23,4.49-.23,4.49l-.13,0c1.79,1.69,3.81,3.65,6.06,5.76,6.63,6.22,9.11,11.26,10.78,22.94h0c.61,4.29,1.11,9.46,1.66,15.92,2.59,30.12,22.43,43.55,22.43,43.55l-.13,2.87,4.61-1.53A24.19,24.19,0,0,1,54,172.28a42.13,42.13,0,0,1-6-6.61c-10.58-14.21-7.79-24.29-2.21-28.48,5.31-4,8.9.94,23.07,5.19a86.56,86.56,0,0,1-11.27-5.74,108.06,108.06,0,0,0,18.55,6.74c1,.26,2.14.53,3.28.79a92.76,92.76,0,0,1-17.06-8.89s10,5.87,39.48,13.43a1.9,1.9,0,0,1,.36.09h0c1.11.35,1.75,1.32-.25,3.81-1.46,1.83-3.08,3.9-4.85,6a50.77,50.77,0,0,1-10,9.48h0c-1.37,1-3.26,2.28-5.87,3.92l0,0h0l-2.3,1.42c-.72.44-1.43.85-2.15,1.22a48.12,48.12,0,0,0,11.57-5.23s-4.77,5-15.23,8.75c-5.4,1.94-10.32.31-13.82-1.73l-2.35,4.7,7.25-2-3.06,5.95.07,0a31.36,31.36,0,0,1,3.94-2.91c2.5-1.54,7-2.3,7-2.3a42.8,42.8,0,0,0,12.44-6.07,70.41,70.41,0,0,0,7.61-6.38s-3.36,5.09-.35,8.8c3.15,2.5,9.57,3,13.38,2.43,4.88-.73,5.41-6.49-.64-8.13s-3.61-9.7-3.61-9.7l0-.06h0a24.9,24.9,0,0,1,.73-2.51l-.37,1.27c1.43-4,5.19-7.94,8.14-9.21,3.39-1.46,12.67-.53,16,2.59a4.7,4.7,0,0,1,1.72,5.57c-1.28,3.68.46,3.74,3.63,2.37s6.16-5.52,6.16-5.52-5.87,4.34-7.06.82,6.16-3.1,6.16-3.1-8-1-5.23-2.22,7.91-.45,7.91-.45-6.52-2.28-2.45-2.55a12.41,12.41,0,0,0,6.38-2.08h0a46.68,46.68,0,0,1-5.06.86c-24.1,2.85-26.87,1.64-26.81-4.61-1-1.09-2.57-4-4.35-11.9C103.34,116.24,111.54,96,111.54,96s-8.9,16.21-8.9,29.33a88.68,88.68,0,0,0,.81,12.5c-3.66-.14-11.92-1.28-8.72-8.74,4.07-9.47-4-21.37-4-21.37s6.28,19.19-1.16,19.67-12.79-12-9.3-21.25a22.41,22.41,0,0,0-.47,21c4.94,9.68,20.51,14.71,24.59,15.88a16.25,16.25,0,0,0,.47,1.61s-14.65-.91-26-14.57S85,93.65,85,93.65s-28.25,29.7-16.91,2.74c9.51-22.62,34.11-39.85,41.79-44.82l-1,.09A54.42,54.42,0,0,0,94.1,55l-5.8-3.09,1.7,2.5-5-1.55,3.93,3.47L73.73,55.17l8.68,3.23L65.84,59.77l6.68,4.74s-1.35.3-3.41,1c0,0-13.88,6.44-22,14.49-1.79,2-3.29,3.8-4.53,5.36-4.35,5.52-5.53,8.31-5.53,8.31s.43-5.55,2-7.88a24.92,24.92,0,0,1,2.48-3.31h0l-2.08.83s-1.22.59-2.44,3.51a17.32,17.32,0,0,0-.83,7s-.7-.4-2-1.19A62,62,0,0,1,20.84,83.69Zm33.43,48.46a59.45,59.45,0,0,1-5.7-16C46.83,107.13,53,98,53,98c-8.26,21.61,6.39,35.09,6.39,35.09ZM58,74.08h0a78.19,78.19,0,0,1,19.21-10l-14,8,15-6.56L62.87,75.07l12.3-5.55L60.61,78.81l12.9-6.11L57.64,83.09l11-5.56L55.72,87.46l7.59-3.28s-15.87,9.75-16.72,29.23a49.85,49.85,0,0,0,6,18.68s-8.89-2.55-12.21,4.74a23.79,23.79,0,0,0-1.22,14.75s-10.09-23.39-3.54-48.43C39.52,88.22,51.6,78.38,58,74.08Z"/><polygon class="cls-2" points="112.34 180.66 112.34 180.66 112.34 180.66 112.34 180.66"/><path class="cls-2" d="M107.48,184.6c-.44,8.87,2.81,13.87,3.52,14.83l.45.15.23,0a33.28,33.28,0,0,1-3.85-14.42l3-1.68a11.27,11.27,0,0,0-1.4,8c1,4.42,5.59,6.28,5.59,6.28l.39,1.28-.49-3c.06.6.1.93.1.93a9,9,0,0,1-.22-1c-.53-.3-2.61-1.74-3.53-6.1a15.14,15.14,0,0,1,.86-8.73A6.67,6.67,0,0,1,107.48,184.6Z"/><path class="cls-2" d="M96.41,186.92a34.94,34.94,0,0,0-6-2.6L88.34,184c-.52-.09-1-.16-1.54-.22,14.06,4.13,17.86,12.54,18.74,15.26.06-.15.11-.3.16-.43h0a14.06,14.06,0,0,0,.7-4.45c0-.32,0-.64,0-.95a19,19,0,0,0-.18-2.14q-.15-.72-.27-1.38l.19,3.46-1.87-4.6,1.13,4.87-2.31-5,1.79,5-3.32-5.15,1.83,3.92-3.4-4,3,4.45A20.06,20.06,0,0,0,96.41,186.92Z"/><path class="cls-2" d="M135.83,184.05s-2,3.6-.35,7.11,0,6.65-.31,4.46a8.26,8.26,0,0,0-2.18-4.05s3,8.47-1.35,7.24-2.31-17.31-2.31-17.31a65.1,65.1,0,0,0-2,9.75,53.65,53.65,0,0,0-.44,8.92l-2.33-.1-8.68.73a89.71,89.71,0,0,0,9-.17l-4.89.86h6.15l-6.63.91,7.24-.18L120,203.73l6.93-.41-6.32,1.23h5.67l-5.24.81h6.11s-13.91,2.33-17.05.23c-2.35-1.57-1.43-4.49-.81-5.86-.14-.2-.27-.43-.42-.69l-.75,1.79c-.92,3-1,5.66,3.24,6,5.7.53,25.7,0,25.7-7.57a87,87,0,0,1,.26-9.14C134.64,187.92,135.83,184.05,135.83,184.05Z"/><polygon class="cls-2" points="101.02 160.81 101.01 160.83 101.02 160.82 101.02 160.81"/><path class="cls-2" d="M133.86,231a46.69,46.69,0,0,0,4.28-18.46l-1,4V212l-.78,7.1-.62-8.38-.61,7.2v-7.2L134,216.61v-6.55l-1,4.37.36-6.33-.38.08a42.14,42.14,0,0,1-1.32,9.28,3.75,3.75,0,0,1,2.25,3.95c-.35,3.22-2.62.43-2.62.43s2.09,6.43-.29,7.83-.7-3.77-.7-3.77-3.08,4.25-1.8,7.9c.94,2.67-1.35,6.58-2.63,8.48,0,.36-.06.73-.1,1.11s-.08.66-.11,1C126.76,243.22,129.55,239.88,133.86,231Z"/><path class="cls-2" d="M121.13,257.51s2.27-9.38,2.27-16.4c0-.48,0-.94,0-1.39a18.78,18.78,0,0,0-2.48-6.53s1.8,6.07.7,10.32-4.77,4.92-2.91-.54.41-9.11.41-9.11S120,236.35,116,245a64.73,64.73,0,0,1-4.38,7.93l0,0-3.31,6.38,5.76-6-4.95,7,6.92-5.83-5.35,6.74,7.39-5.83-6,6.87,7.85-6-6.28,6,6.63-5-4.67,4.87C120.17,258.75,121.13,257.51,121.13,257.51Z"/><path class="cls-2" d="M139.21,204c.29,1.06.55,2.12.78,3.16h0a65.25,65.25,0,0,1-.36,28.38l.57-.06c2.49-10.09,1.6-16.56,1.6-16.56l.92,4.55.61-6.69.26,6.56.7-8.2.21,9.06.66-6.69.13,6.74.52-4.33.44,9,1.26-7v9.11l.79-4.74V232l.48-3,.43,4.37.57-3.78.61,4.28-6.92,1.28,23.13-2.4.54.56c5.23-1.77,3.22-7.87,3.22-7.87a4.91,4.91,0,0,1-3.49,5.29c-4.05,1.32-9.46.27-5-.78s4.58-6,4.58-6-1,4-6.37,4.73-4.92-3.28-3.18-6.37c1.48-2.64.65-4,.36-4.38l-1.59,3.63-2.65-2.85,1.4-3.19-.18,2.58,1.22,1.31.64-1c-.81-.36-1.29-2.57.67-1.79s3.58-.32,4.1-3.83-2.79-6.78-2.79-6.78a10,10,0,0,1,1.74,5.92c0,3.73-9.24,5-7.15-3.55s7-6.65,7-6.65-3.93-3.83-6.54.72-5.41,0-3.23-3.37,1.31-8.19,1.31-8.19-5.67,14.3-4.1-1.73c1.39-14.21,13.34-25.74,16-28.17-.26-.17-.53-.33-.78-.47-2.53,1.3-7.58,4.56-12.63,11.63-7.16,10-8.38,18-8.38,18s-.08-12.72,10.52-25.57C137.07,178.3,140.39,197.24,139.21,204Z"/><path class="cls-2" d="M180.21,262.26l-3.9-3.32,4,2.55-4.13-4.31,3.49,1.7s-3.32-2.92-9.36-8.08c-4.56-3.89-4.33-6.81-3.94-8l-1.06-.82-4.06,7.28,13.64,14.24A5.38,5.38,0,0,0,180.21,262.26Zm-18.48-12.95,2.35-4,7.59,7.92-7-6.51,8.33,9.29-8.59-8,9.86,10.29-9.77-8.83,9.92,10.36-9.62-8.9,10.9,10.79L167,254l7.85,8.65Z"/><path class="cls-2" d="M203.46,204.77c-5.7-7-7.44-16.15-12.79-31.45a48.1,48.1,0,0,0-4.6-9.52l0,.08-9.33-9.57,6.63,10.39L174.24,155l5.93,8.11-7.93-6.65,4.18,5.28-10-8.2-.86.53a71.45,71.45,0,0,1,13.35,12.16h0A96.59,96.59,0,0,1,190,182.18c11.76,20.81,10.52,36.06,9.52,41.46l.67.34a26.66,26.66,0,0,0,.88-6.77A67,67,0,0,0,200,207.05l1.62,6.74-.13-5,1.17,6.24.31-4.74.7,7.29.43-5.06.87,6.88,1.44-5.47.35,8.25.66-6.06.74,7.88.87-4.56v7l1.31-3.83-.21,7.43c.47.36.93.73,1.39,1.1a27.8,27.8,0,0,0-.16-6C210.78,220.8,209.16,211.82,203.46,204.77Z"/><path class="cls-2" d="M155.55,63.17c-4.88,8.62.93,18.22.93,18.22s-3.66-10.87,0-14.7,5.12,6.32,3.66,13.12l-1.45,6.8,4.65-10.44s-3.14,7.28-1.16,14.33,4.07,7.89,4.07,7.89-4.65-8-2.33-12.87,4.19,5.46,4.19,12-1.4,9.84-1.4,9.84,3-2.31,3-8.26,1.28,1.46-.47,11.41,2.09,15.18,2.09,15.18l3.61,2.43-8.61,3.77,7.56,4.13L163,140.29l7.1,3.28s-13.14,6.19-22.56,17-9.42,19.91-9.42,19.91,4.23-11.75,14.54-19.7a89.33,89.33,0,0,1,7.44-6.48h0l0,0c.84-.66,1.66-1.27,2.46-1.84l.08-.06h0c2-1.41,3.8-2.58,5.43-3.54a69.47,69.47,0,0,0-27.85,25.47s7.25-20.18,34.27-30.5l-4.47-3.32,11.33-3.37-11.6-5,10.56-3.1L173,124.38s-.46-4.62-.46-17.73,1.19-19.9,1.19-19.9h0c-3.63-3.3-6-8.43-6-15.93,0-1.87-.1-3.67-.27-5.4l-1.94,6.74V58.8l-1.63,9.59V57.1l-1.51,7.16V53.94L161,59.65V52l-1.87,4.37,1.15-13.48c-.42-.71-.68-1.09-.68-1.09S160.43,54.55,155.55,63.17Z"/><polygon class="cls-2" points="161.9 42.68 161.9 42.68 161.9 42.69 161.9 42.68"/><path class="cls-2" d="M61.13,145.39c-7.62-2.13-9.11-4.93-12.44-3.1-2.51,1.38-3.41,6.86,2.67,17.55,6.39,11.23,14.54,11.48,14.54,11.48s-1-3.4.17-9.78,5.41-13.3,5.41-13.3a58.08,58.08,0,0,0-5.93,8.14c-2.91,4.8-3.08,13.42-3.08,13.42s-.76-2.73.4-10.69,5.06-11.41,5.06-11.41L65,146.78s-1.45,1.52-3.13,5.83-3.14,11.24-3.14,7S60.61,149,60.61,149a41.92,41.92,0,0,0-3.26,10c-.87,5.1-2.15,8-1.69.12A25.68,25.68,0,0,1,61.13,145.39Z"/><path class="cls-2" d="M87.53,159.23A19.1,19.1,0,0,0,91,152.31a58.74,58.74,0,0,1-12.39-1.76A17.82,17.82,0,0,0,76.25,159a31,31,0,0,0,1.39,8.8S84.62,163.24,87.53,159.23Z"/><path class="cls-2" d="M117.32,139.59s.76,1.73,3.64,2.64,9.33.52,22.06-3.86a22.43,22.43,0,0,0,14.65-16.66,29.83,29.83,0,0,1-11.51,13.11c-8.37,5.1-15.61.18-10.29.18s14.74-7.28,14.74-7.28-19.54,8.74-24.51-.82,1.14-25.78,1.14-25.78C117.77,118.26,117.32,139.59,117.32,139.59Z"/><path class="cls-2" d="M64.62,238.66c-.39,2.59,2.9,10.32,9.53,16s20.89,8.06,20.93,8.07c2.92-.27,6.57-.92,8.57-2.49,4-6,6-18.7,6-18.7s-1.69,5.28-4,7.65S95.2,236.35,95.2,236.35s5.81,14.09,1.39,9.47-8.25-16.52-8.25-16.52l2.32,12.27L84.73,231s5.35,18.59-.23,7.53S82.87,216.07,86.83,205c2.45-6.85-2.27-7.29-6.21-6.63-4.34,1.49-8.59,4.63-9.81,9.12-2.18,8,7.79,27.59,10.09,33.33A110.93,110.93,0,0,1,74,228.43C72.68,229.55,65,236.28,64.62,238.66Zm7.09-30.85s3.14-6.44,8.72-7.53-1.63,7.95-1.63,19.37,3.55,18.94,3.55,18.94L79,232l3,8.25S69.69,217.72,71.71,207.81Zm4.38,31.71-3-4s-2.48,4.28,3.62,12.11,16.31,11.48,16.31,11.48l-3.66-3.42,5.8,3.1-4.45-3.78L97,258.47l-3.42-3.58,5.65,3.17-4-3.42,5.75,3.14-2.09-3.5,4.71,2.82s.18,2.37-1.39,3-6.37,2-9.16,1.32-14.22-2.73-20.41-9.64S65,240.48,65.72,238.41s8-8.59,8-8.59l5,9.56L74,233.6Z"/><path class="cls-2" d="M188.72,280.46s.5-.42,1.3-1.23c1.74-2.41,4.48-6.59,5.3-9.91a17.67,17.67,0,0,0,0-8.8s.81,7.28-2.79,9.35,1-7.72,1-7.72-4.47,5.71-5.75,3.53,2.56-7.29,2.56-7.29-3.09,3.22-3.78,2.49,1.64-3.11-.11-6.38h0c1.31,3.43-1.28,7.12-5,9.49a10.11,10.11,0,0,1-2,1h0c-5.24,2.41-11.45-2.05-11.45-2.05l1.56-2.88-.53-.54-2.1,3.45,4.27,8.66ZM185,263.61l-.61,2.28,3,13-4.66-13Z"/><path class="cls-2" d="M203.74,268.4l-2.26,5.26L203,269l-1.74,4.28L202.7,268l-2,4.16,1.57-5.22L200.2,271l1.8-5.1-1.94,3.79,1.76-5.26-.24-.12a35.63,35.63,0,0,1-1.38,3.84,25.45,25.45,0,0,1-1.39,2.76c.6.16,1.43.78,1.39,3.06a15.1,15.1,0,0,1-1.26,5.53A35.41,35.41,0,0,0,203.74,268.4Z"/><path class="cls-2" d="M204.5,275c-.05.13-.11.26-.17.4l3.37,2.66,10.58,7.47L204.54,274.9A.69.69,0,0,1,204.5,275Z"/><path class="cls-2" d="M122.32,176.47A7.57,7.57,0,0,1,120,175a14,14,0,0,0-1.41-1.17,28,28,0,0,0-1.34,8.12c-.1,2.29-.12,4.64-.1,6.72.08,1.51.19,2.76.32,3.79C117.78,187.53,118.75,178.07,122.32,176.47Z"/><path class="cls-2" d="M20,159.71a.43.43,0,0,0,0,.11c.85,4.31,3.45,10.31,7.55,19.57,2.46,5.54,5.34,9.11,8.21,11.39a16.67,16.67,0,0,0,8.9,3.7c-2.43-2.61-7.8-8.88-14.64-19.85-6.46-10.38-8.32-18.4-8.86-22.41a8.47,8.47,0,0,0-1.34,6.52Z"/><path class="cls-2" d="M47.6,194.49c.28,0,.54-.05.77-.09a106,106,0,0,1-13.52-17.8c-6.76-10.76-9.92-19.94-11.34-26.79a5.81,5.81,0,0,0-.46.38C27.43,173.64,43.35,190.37,47.6,194.49Z"/><path class="cls-2" d="M161.77,252.08l-2-2c-.7.84-1.62,1.56-2.58,1.2-1.15-.43-.58-2.29.09-3.76l-.31-.31c-1.48,1.64-3.87,3.87-5.32,3.07-2.23-1.23,3-6.74,3-6.74s-6.85,7.06-8.81,5,7-6.88,7-6.88-11.6,5.51-12.3,3.78,7.76-5,7.76-5-8.37,2.05-9,0,4.88-4.2,4.88-4.2l-5,.48v0H139l-1.46.15-.16,17.48,24.25-1.6Z"/><polygon class="cls-2" points="136.22 237.1 135.39 237.18 135.78 254.2 136.22 237.1"/></g><g id="_1" data-name="1"><path d="M164.54,126.54h0c1.21-3.79,3.12-11.16,1.71-16.37-2-7.29-13.26-34.37-31.75-25.26-7.94,3.91-13.57,12.36-17.33,22,4.31-18.18,14.66-26.81,14.66-26.81s-20.73,10.32-21,59.27v1h0c0,.45,0,.9,0,1.33,0,.13,0,.25,0,.37-.06,6.25,2.71,7.46,26.81,4.61a46.68,46.68,0,0,0,5.06-.86C162.61,141.27,164.54,126.54,164.54,126.54ZM136.6,141.87c-17.72,4.8-20.9-.84-20.9-.84.7-8.8,4.12-40.4,18-49.56,16.16-10.69,26.86,15.66,27.56,23.56.38,4.35-1.42,9.18-3.12,12.64h0c-.68,1.38-1.35,2.55-1.84,3.38C153.9,134.11,148.52,138.63,136.6,141.87Z"/><path d="M190.3,112.29c0,.47,0,.73,0,.73S190.31,112.76,190.3,112.29Z"/><polygon points="184.97 263.61 182.75 265.93 187.41 278.91 184.36 265.89 184.97 263.61"/><path d="M157.21,217.83,156,216.55l.52,1.19-.38.62-.64,1-1.22-1.31.18-2.58-1.4,3.19,2.65,2.85,1.59-3.63h0l-.06-.07Z"/><path d="M79,232l3.37,6.55s-3.55-7.52-3.55-18.94,7.21-20.46,1.63-19.37-8.72,7.53-8.72,7.53c-2,9.91,10.29,32.48,10.29,32.48Z"/><polygon points="134.39 286.47 137.88 282.83 133.95 284.38 136.39 280.74 133.51 282.28 133.25 277.82 130.47 288.14 130.25 288.96 139.77 288.96 135.43 288.02 141.1 286.47 134.39 286.47"/><path d="M159.74,137.62C154.15,143.44,142,147,142,147s13.48-.73,19.41-8.38a28.06,28.06,0,0,0,5.93-15.67S165.32,131.79,159.74,137.62Z"/><path d="M91.88,176.23c-3-3.71.35-8.8.35-8.8a70.41,70.41,0,0,1-7.61,6.38,42.8,42.8,0,0,1-12.44,6.07c7.21-.94,12.15-.34,24.62,2.21s13.25-3.82,13.25-3.82-2.09,3.73-12.9.91A9.67,9.67,0,0,1,91.88,176.23Z"/><path d="M98.89,254.28l2.09,3.5-5.75-3.14,4,3.42-5.65-3.17L97,258.47l-6.23-3.42,4.45,3.78-5.8-3.1,3.66,3.42s-10.21-3.64-16.31-11.48-3.62-12.11-3.62-12.11l3,4L74,233.6l4.8,5.78-5-9.56s-7.32,6.53-8,8.59.73,6.52,6.92,13.42,17.62,9,20.41,9.64,7.59-.64,9.16-1.32,1.39-3,1.39-3Z"/><path d="M63.22,72.07l14-8A78.19,78.19,0,0,0,58,74.08h0c-6.37,4.3-18.45,14.14-22.36,29.07-6.55,25,3.54,48.43,3.54,48.43a23.79,23.79,0,0,1,1.22-14.75c3.32-7.29,12.21-4.74,12.21-4.74a49.85,49.85,0,0,1-6-18.68c.85-19.48,16.72-29.23,16.72-29.23l-7.59,3.28,12.91-9.93-11,5.56L73.51,72.7l-12.9,6.11,14.56-9.29-12.3,5.55,15.35-9.56Z"/><path d="M185,148.06s.7,1.15,4.59,1.88a11.58,11.58,0,0,0,6.8-.73h-4.53l8-1.7h-5.59l7.5-1.76h-5.87l7.39-2.73-4.6.18,5.47-2.12-3.32.12,4.42-1.58a35.62,35.62,0,0,1-5.75.36c-3.78,0-5.18-1.7-5.18-1.7C194.85,145.87,185,148.06,185,148.06Z"/><path d="M36.1,93.79a17.32,17.32,0,0,1,.83-7c1.22-2.92,2.44-3.51,2.44-3.51s-9.2-.14-13.91-2.19-15.32-6-16.7-2.77c0,0,4.66-1.6,13,5.28a123.48,123.48,0,0,0,12.33,9C35.4,93.39,36.1,93.79,36.1,93.79Z"/><path d="M125.1,170.84c-2.23-1-.31-4.46-.31-4.46l-2.74,2.46,2.83-3.41L121.61,168l3.18-4.1-2.7,2.32,2.18-3.55-5.71,7.1a20.19,20.19,0,0,1,3.57,2.73c1.36,1.42,3.36,1.6,6.72-.63a34.22,34.22,0,0,0,6.28-5.74S127.32,171.85,125.1,170.84Z"/><path d="M179.82,85.91c7.07,4.1,14.92,1.37,14.92,1.37s-11.25,1-15.35-7.93a36.55,36.55,0,0,1-3.32-17,30.37,30.37,0,0,0-.78,9.75,21.94,21.94,0,0,0,2.09,7.74s-4.18-5-4.18-18.76c0-9.84-7.77-16.58-7.77-16.58a33,33,0,0,1,6,19.4C171.45,75.8,172.76,81.81,179.82,85.91Z"/><path d="M141.13,45.68c0-6,11.75-15.42,11.75-15.42C137.7,37.46,130.64,52,130.64,52l14,1.43S141.13,51.63,141.13,45.68Z"/><path d="M99,222.5c0-5,3.25-7.1,2.5-8.5s-4.42,1-4.42,1A49.83,49.83,0,0,0,98.8,232.4l-.69-6,1.33,5A86,86,0,0,1,99,222.5Z"/><path d="M221.72,278.3V254.4l.05-.08,1.57-12s-.59-.65-1.62-1.72V34.29H187.4c-1-1.35-1.84-2.59-2.66-3.7-2.22-3-3.85-5.07-4.31-5.55a3.36,3.36,0,0,0-1.52-.7c-4.29-1.11-15.28-.76-17.66-.76a12.13,12.13,0,0,0-4.07.76c-2.53.86-6.12,2.65-11.63,6.25-1.08.71-2.24,1.48-3.49,2.34-.66.46-1.29.91-1.89,1.36H7.52V75.21A17.18,17.18,0,0,0,3.77,77,5.87,5.87,0,0,0,1,80.05c-.93,3.89-8.14,18.83,1.4,31.58.48.64.93,1.26,1.36,1.86,1.49,2.09,2.73,4,3.75,5.73V196.8H10v-6.5H15.8v-2.66h2.65v2.66h1.21v6.5h8.71v-5.38h3.94c.26.31.51.62.77.91,2.08,2.36,4.25,3.92,6.42,4.18q1.05.13,2,.21a36.85,36.85,0,0,0,5.91.05,21.57,21.57,0,0,0,2.52-.35l.44-.09.54.47c.78.69,1.55,1.32,2.32,1.89v18.77h3.45v-8H64v8h3.52v-3.9H69a50.73,50.73,0,0,0,3.8,12.18l.06.12-2,2.09-3.49,3.72-.54.58a2.73,2.73,0,0,0-.23.25h0c-1.94,2.14-3.58,4.41-3.58,6a21,21,0,0,0,3.82,10.7,29.33,29.33,0,0,0,6.88,7.28c.5.38,1,.73,1.55,1.08a38.32,38.32,0,0,0,8.43,3.92,56,56,0,0,0,7.44,1.91l1,1.23,6.35,7.83a20.23,20.23,0,0,0,2.08-.32A36.31,36.31,0,0,0,109,269.3l.71-.34a39.82,39.82,0,0,0,4.91-3,90.73,90.73,0,0,0,8.44-6.85c.35-.32.54-.51.54-.51s.75-3.65,1.68-11.47c1.93-1.66,10.95-10.13,13.87-26.78,0,.45,0,.89-.08,1.33a115.77,115.77,0,0,1-2.1,14.14l-1.57.16-1.45.16.33,19.52L127.47,262l2.73,3.95-4.34,19.61L125.1,289h3.83l8.47-32.36,6.82-.45.41,0,.83,16.94,6.46,2.37v-1l-5.59-2.82V256l1.31-.07,3.92-.22.73,12.84,0-.33,1.3-10.66h10.12l-2.56,4.19,4.93-.54-1.21,1.91,5.06,9.92,9.38,5,3.35,10.74-1.6.16H196l-2.63-10.69c.56-.62,1.14-1.29,1.72-2l-.21.51L198,289h3l-1.08-3.71-.5-1.72c.22-.3.47-.64.74-1l1.52,2.75,2,3.71h3.46l-4.74-10c.55-.92,1.08-1.89,1.55-2.87l13.17,9.69,4.28,3.15h0l-1.53-1.21h0l-12.24-9.7-3.37-2.66c.06-.14.12-.27.17-.4a.69.69,0,0,0,0-.1l13.74,10.63,4.44,3.44h.33l-.33-.31h0l-17.43-15.89c.26-.86.47-1.71.64-2.51l19,13.26.52,2.05V281Zm-85.94-24.1-.39-17,.83-.08ZM209,226.5v-7l-.87,4.56-.74-7.88-.66,6.06-.35-8.25L205,219.44l-.87-6.88-.43,5.06-.7-7.29-.31,4.74-1.17-6.24.13,5L200,207.05a67,67,0,0,1,1.09,10.16,26.66,26.66,0,0,1-.88,6.77l-.67-.34c1-5.4,2.24-20.65-9.52-41.46a96.59,96.59,0,0,0-11.17-15.91h0a71.45,71.45,0,0,0-13.35-12.16l.86-.53,10,8.2-4.18-5.28,7.93,6.65L174.24,155l9.16,9.66-6.63-10.39,9.33,9.57,0-.08a50.55,50.55,0,0,0-11-14.73l1-.44c4.1,3.69,12,12.79,23.22,34.47,13.94,27,13.67,43.76,13.15,48.82l-.89-.72c-.46-.37-.92-.74-1.39-1.1l.21-7.43Zm-27.38-51.23a73.94,73.94,0,0,1,7.61,13c7.67,17,7.67,29.38,7.31,33.92-3.49-1.66-6.07-2.7-6.07-2.7l-4.13,1.32C186.86,216.34,188.14,198.69,181.66,175.27ZM186.42,242H187l-8.84,6.86-.65-.46Zm-10.93,5-4.57-3.23-4.11-2.89.88-4.75a19.57,19.57,0,0,1,10,3.55c0,.17-.09.33-.13.5C176.53,244,175.7,246.39,175.49,247ZM168,234.3v-.08l-.91-.95-.54-.56-23.13,2.4,6.92-1.28-.61-4.28-.57,3.78-.43-4.37-.48,3v-5.65l-.79,4.74v-9.11l-1.26,7-.44-9-.52,4.33-.13-6.74-.66,6.69-.21-9.06-.7,8.2-.26-6.56-.61,6.69-.92-4.55s.89,6.47-1.6,16.56l-.57.06a65.25,65.25,0,0,0,.36-28.38h0c-.23-1-.49-2.1-.78-3.16,1.18-6.73-2.14-25.67,12.67-39.46-10.6,12.85-10.52,25.57-10.52,25.57s1.22-8,8.38-18c5-7.07,10.1-10.33,12.63-11.63.25.14.52.3.78.47a19.94,19.94,0,0,1,8.21,10c3.84,10.38,2.27,22.86,2.27,22.86l1.66-10.93v11.57L177,183.82V200l1.49-12.94,1,17.67.79-12.93,1,15.85s1.65-12.75-1.66-24.14-4.36-14.75-4.36-14.75-7.13-7.78-13.52-12.24l.78-.54a92.38,92.38,0,0,1,13.06,11.84c2.79,7.18,8,23,7.15,39.71a158.68,158.68,0,0,1-4.53,30A17,17,0,0,0,168,234.3Zm10-134.45.29,7.28.76-6.86.52,8.62,1-9,.58,9.23,1.1-8.75.18,9.84.81-10,.93,9.66.82-10.14,1.33,11.35s-.75-14.74,2.49-19.35h.54c-1,1.69-2.56,6.62-1.92,21,.93,21.13,2.21,21.86,5.46,24.29,2.68,2,11.43,3.11,15.87.64h0s-.76,11.52-14.48,13.1c-7.32.85-11.18-1.6-13.18-4.06,1.74-.55,2.72-.77,2.72-.77l-4.81-3.54-1.12-.83,15.53-2.37-16.23-6.74,11.6-1.82L177,122.8s-2.17-32.11,1.17-33.16h0l.74.33a22.19,22.19,0,0,0-1.81,9.33v6.8Zm13.14-2.43c.93-5.77,4.93-6,6.65-5.84-4,6.26-1.61,32.06-.08,35.71a2.59,2.59,0,0,0,.26.46l-4.33,4.52,2.44-1.46-2.15,2.8,5.45-4.82c2.78,1.2,8,.6,10.5.21l-.06.45c-6.68,1.16-9.64.27-9.64.27l2.05.87-3.36-.23,3.49.91h-4.23l3.84.82h-4.1l4.32,1-4.89-.09,4.45.73-5.28.09,5,1-4.89-.36,4.54,1-4.76-.36s4.77,2.69,11.75-.18c-3.37,3-14.66,2.86-16.46-4.11-1.45-5.62-2.59-24.65-1-34.19a135.12,135.12,0,0,0-.43,15.67A89.64,89.64,0,0,1,191.19,97.42Zm7.47,11.9,1.4,14.48-.53-18.12,1.14,13.75s-.24-9.5-.26-18l.78,9V98.75l.83,11.43V96.66l.78,10.11.42-13.12a8.54,8.54,0,0,1,2.5-1.38l.67.29a5.3,5.3,0,0,1,3.17,4.1,183.35,183.35,0,0,1,.53,30.72c-2.73.41-9.08,1.12-10.93-.82-1.15-1.19-1.67-7.43-1.81-14.13.68,6,1.75,10.82,1.75,10.82Zm-141-69.9A39.35,39.35,0,0,1,85.64,51l-16-3L82.5,53,60.43,54.85l11.69,2.37L61.4,58.78l5.4,5.64a3.5,3.5,0,0,0-.82.18A32.39,32.39,0,0,0,55,70,123,123,0,0,0,43,80.21C38.24,80,27.34,79.06,21.36,75.8a13.54,13.54,0,0,0-2.92-1.15A39.48,39.48,0,0,1,57.68,39.42Zm-22,151.36c-2.87-2.28-5.75-5.85-8.21-11.39-4.1-9.26-6.7-15.26-7.55-19.57a.43.43,0,0,1,0-.11l-.16-1a8.47,8.47,0,0,1,1.34-6.52c.54,4,2.4,12,8.86,22.41,6.84,11,12.21,17.24,14.64,19.85A16.67,16.67,0,0,1,35.73,190.78Zm11.87,3.71c-4.25-4.12-20.17-20.85-24.55-44.3a5.81,5.81,0,0,1,.46-.38c1.42,6.85,4.58,16,11.34,26.79a106,106,0,0,0,13.52,17.8C48.14,194.44,47.88,194.47,47.6,194.49ZM36.36,174.66a97,97,0,0,1-7.44-14.72c-4.36-10.91-5-19-5-22.43l.39-.2a49.37,49.37,0,0,0,1.23,10,36.37,36.37,0,0,0,3.53,9.88l-2.27-8.38L31,158.46,28.42,149l4.1,10.16-2.44-10.57,4,10.89-2.26-10.84,4.53,11.79-1-4.51a47.68,47.68,0,0,0,8.25,12.91,114.3,114.3,0,0,0,8.14,8l-4.28,6.2,6.19-1.76-4.35,6.95,9.41-4.1-3.66,6.92a46.38,46.38,0,0,1,8.65-4.25h4.46l-5.81,1,3.84.67-5.88.67,5.12,1.45-5.76-.36,5.59,2.43-7.91-1.21,5.64,2.79-8.14-2,5.58,2.92-7.73-1.45H52.7l.55.38a36.57,36.57,0,0,0,3.44,2c4,2,10.06,4,13.68.37a22.2,22.2,0,0,0,6.17-12.27l1,.13c-.15,2.4-1.12,9.73-7.48,13.9C62.41,203.26,50.66,198,36.36,174.66ZM100,188.29l3.4,4-1.83-3.92,3.32,5.15-1.79-5,2.31,5-1.13-4.87,1.87,4.6-.19-3.46q.12.66.27,1.38a19,19,0,0,1,.18,2.14c0,.31,0,.63,0,.95a14.06,14.06,0,0,1-.7,4.45h0c0,.13-.1.28-.16.43-.88-2.72-4.68-11.13-18.74-15.26.51.06,1,.13,1.54.22l2.07.31a34.94,34.94,0,0,1,6,2.6,20.06,20.06,0,0,1,6.53,5.82Zm9.43-30.58,3.61-5.28-4.77,5.62,3.37-5.35-5.26,6.11,4.48-6.53a18.81,18.81,0,0,0-5.06,4.86,14.12,14.12,0,0,0-2,3.83c.51-2.95,2.81-8.14,6.84-9.39,5-1.55,14,1.64,14.56,3.92.34,1.5-4,6.92-7,10.43.34-.49.77-1.1,1.32-1.86,5.11-7.07,4.83-8.66,4.83-8.66s-.53,1-3.09,4.58l2.56-4.74-6.19,8.6,4.62-8.78-5,7.08,4.25-7.81-3.84,5.44,3.32-6.1-2.85,3.58,1.68-3.77-3.66,4.59,2.65-5.25-3.35,3.82,2-3.88-4.65,5.13,3.22-5.26L111,158l3-5.35Zm2.93,22.95.07-.18a29.82,29.82,0,0,0,1.08-3.48l.94-3.08c-1,12.86-.07,19.65.38,22a9,9,0,0,0,.22,1s0-.33-.1-.93c-.32-3.25-1.2-14.32.55-23.18l.1,0a94.32,94.32,0,0,0-.55,13.09c.2,6.7.75,12,.89,13.31l-.42,0-.08-.24-.39-1.28s-4.63-1.86-5.59-6.28a11.27,11.27,0,0,1,1.4-8l-3,1.68a33.28,33.28,0,0,0,3.85,14.42l-.23,0-.45-.15c-.71-1-4-6-3.52-14.83a6.67,6.67,0,0,0,4.66-3.49l.2-.45Zm-8.69,79.61c-2,1.57-5.65,2.22-8.57,2.49,0,0-14.31-2.37-20.93-8.07s-9.92-13.44-9.53-16c.36-2.38,8.06-9.11,9.36-10.23a110.93,110.93,0,0,0,6.92,12.41c-2.3-5.74-12.27-25.32-10.09-33.33,1.22-4.49,5.47-7.63,9.81-9.12,3.41-1.17,6.87-1.31,8.94-.27,4.71,2.37,5.06,12.06,5.41,23.29S98.86,235,98.86,235a49.82,49.82,0,0,1-2.44-12.32c-.16-3.37.18-5.24.17-8.17,2.2-1.06,7.54-3.24,10.35-.82,3.61,3.09,6.43,22.22,6.43,22.22a5.69,5.69,0,0,0,.48-1.64c.73-.21,2.05-.44,2.05.61,0,1.46-8.61,20.95-11.46,24.65A3.94,3.94,0,0,1,103.65,260.27Zm17.48-2.76s-1,1.24-5.48,4.6l4.67-4.87-6.63,5,6.28-6-7.85,6,6-6.87-7.39,5.83,5.35-6.74-6.92,5.83,4.95-7-5.76,6,3.31-6.38,0,0c-.19.24-1.49,1.9-3.19,3.87,4.35-7.57,10.55-21.54,9.73-23a3,3,0,0,0-2.78-1.26l3-2.63,3.49.55s1.36,3.16,1.55,9.26c0,.45,0,.91,0,1.39C123.4,248.13,121.13,257.51,121.13,257.51Zm1.9-29.33-3.28-.43V219.5h2.57v-5h1.06v-3.22h2.72v3.22h2.13V211h2.5a33.57,33.57,0,0,1-2.16,8.81,34.82,34.82,0,0,1-5,8.42ZM133.86,231c-4.31,8.88-7.1,12.22-8.3,13.37,0-.32.07-.64.11-1s.07-.75.1-1.11a29.9,29.9,0,0,0-.92-11,36.24,36.24,0,0,0,6.71-13.81,42.14,42.14,0,0,0,1.32-9.28l.38-.08-.36,6.33,1-4.37v6.55l1.13-5.92v7.2l.61-7.2.62,8.38.78-7.1v4.55l1-4A46.69,46.69,0,0,1,133.86,231Zm3.46-40.83a87,87,0,0,0-.26,9.14c0,7.57-20,8.1-25.7,7.57-4.21-.39-4.16-3.08-3.24-6l.75-1.79c.15.26.28.49.42.69-.62,1.37-1.54,4.29.81,5.86,3.14,2.1,17.05-.23,17.05-.23H121l5.24-.81h-5.67l6.32-1.23-6.93.41,6.84-1.51-7.24.18,6.63-.91h-6.15l4.89-.86a89.71,89.71,0,0,1-9,.17l8.68-.73,1.07-.09s1-9.51,2.44-16.06a38.25,38.25,0,0,1,3.44-9.25,35.41,35.41,0,0,0,8.59-9c8.29-11.66,22-18.58,22-18.58s-9.94,2.28-21.45,15.12S124,176.15,121,173a9.39,9.39,0,0,0-3.83-2.62c1.18-1.41,7.44-9,8.83-12.4h0a5.64,5.64,0,0,0,.61-3.1,3.51,3.51,0,0,0-1.13-2c-3.29-3.12-12.57-4.05-16-2.59-3,1.27-6.71,5.17-8.14,9.21a11,11,0,0,0-.36,1.24h0a.06.06,0,0,0,0,0h0a7.67,7.67,0,0,0-.12,3c.87,5.19,11.95,4.59,11.4,10.1h0c-.39,2.83-1.31,6.83-3.5,8.48-3.53,2.67-13.93.29-24.07-1-14-1.76-22.68,3.18-23.53,3.69l-.07,0,3.06-5.95-7.25,2,2.35-4.7c3.5,2,8.42,3.67,13.82,1.73,10.46-3.77,15.23-8.75,15.23-8.75a48.12,48.12,0,0,1-11.57,5.23c.72-.37,1.43-.78,2.15-1.22l2.3-1.42h0l0,0c2.61-1.64,4.5-2.93,5.87-3.92h0a50.77,50.77,0,0,0,10-9.48c1.77-2.09,3.39-4.16,4.85-6,2-2.49,1.36-3.46.25-3.81h0a1.9,1.9,0,0,0-.36-.09c-29.44-7.56-39.48-13.43-39.48-13.43a92.76,92.76,0,0,0,17.06,8.89c-1.14-.26-2.25-.53-3.28-.79a108.06,108.06,0,0,1-18.55-6.74,86.56,86.56,0,0,0,11.27,5.74c-14.17-4.25-17.76-9.18-23.07-5.19-5.58,4.19-8.37,14.27,2.21,28.48a42.13,42.13,0,0,0,6,6.61,24.19,24.19,0,0,0,4.88,3.91l-4.61,1.53.13-2.87S34.53,161.42,31.94,131.3c-.55-6.46-1.05-11.63-1.66-15.92h0C28.61,103.7,26.13,98.66,19.5,92.44c-2.25-2.11-4.27-4.07-6.06-5.76C8,81.56,4.71,78.83,3.22,81.39c-2,3.4-5.77,19.21,3.4,31.21a71.84,71.84,0,0,1,5.52,8.28l.57,1h0l.41.79c3.07,5.82,3.28,8.24,7,8.24a18.22,18.22,0,0,0,8.6-2c.07,1.11.17,2.19.28,3.27-1.19.89-3.07,2.25-5.06,3.44l-1.35.78c-2.34,1.28-4.64,2.16-6,1.66-2.43-.91-1.64-3.87-2.87-8.85a28.23,28.23,0,0,0-3.41-8.05c-6-9.93-13.83-19-10.81-31.15s5-12.3,10.11-13.66S22.15,80,31,81.08c8,1,10.15,1.31,10.5,1.36h0A24.92,24.92,0,0,0,39,85.77c-1.53,2.33-2,7.88-2,7.88s1.18-2.79,5.53-8.31C43.83,83.78,45.33,82,47.12,80c8.11-8,21.95-14.47,22-14.49,2.06-.68,3.41-1,3.41-1l-6.68-4.74L82.41,58.4l-8.68-3.23,15.18,1.19L85,52.89l5,1.55-1.7-2.5L94.1,55a54.42,54.42,0,0,1,14.82-3.37l1-.09a133.05,133.05,0,0,1,19,.09s6.19-10.93,14.39-16.85,14-9.56,17-9.56,17.44-.36,18.75,1,8.37,11.3,14.65,21.22,10.51,20,8.81,31.61-16.57,13.57-25.9,7S172.41,68.61,167.44,54c-2.34-6.86-4.21-10-5.54-11.35h0c-1.48-1.54-2.28-.88-2.28-.88s.26.38.68,1.09l-1.15,13.48L161,52v7.65l1.39-5.71V64.26l1.51-7.16V68.39l1.63-9.59V72.16l1.94-6.74c.17,1.73.27,3.53.27,5.4,0,7.5,2.34,12.63,6,15.93h0s-1.19,6.78-1.19,19.9.46,17.73.46,17.73l7.36,4.61-10.56,3.1,11.6,5-11.33,3.37,4.47,3.32c-27,10.32-34.27,30.5-34.27,30.5a69.47,69.47,0,0,1,27.85-25.47c-1.63,1-3.46,2.13-5.43,3.54h0l-.08.06c-.8.57-1.62,1.18-2.46,1.84l0,0h0a89.33,89.33,0,0,0-7.44,6.48c-.85.82-1.7,1.68-2.57,2.58C140.68,173.18,138,182.7,137.32,190.17Zm-19.69-17a9.18,9.18,0,0,1,1,.62A14,14,0,0,1,120,175a7.57,7.57,0,0,0,2.28,1.48,8.27,8.27,0,0,0,6.39-.25,53.15,53.15,0,0,0-3,11.61c-.93,7.29-1.28,10.63-1.28,10.63l-7.42.64A100.91,100.91,0,0,1,117.63,173.2Zm-63.36-7.29C41.94,150.73,43,136.77,55.66,141.74a146.07,146.07,0,0,0,37.77,9.81h0c-2.77,8.9-15,17.27-15,17.29C72.21,172.42,62.15,175.61,54.27,165.91ZM18.05,97.3,6.27,88.19,17,99.94,7.32,91.56l12.3,14.75L8.8,96.2l10.9,13.3L8.37,99.3l10.55,13.57L8.63,102.94l10,13.53-9.28-9.7L17,118.7l-5.67-7.29s.66,1.51,5.58,9.93c3,5.06,5.88,6.54,7.75,6.91-2.93,1.07-6.46,1.5-7.67-1.91-1.8-5-5.78-9.37-9-14.4a39.36,39.36,0,0,1-2-3.59C2.76,101.67.78,84.79,5.31,83c0,0,.63.36,1.66,1.08a55,55,0,0,1,9.71,8.75c-3.3-2.56-6.31-4.43-6.31-4.43ZM161.6,252.86l-24.25,1.6.16-17.48,1.46-.15h.3v0l5-.48,21.54-2.1-1.15,5.12L161.25,237,155,245.09,157,247.2l.31.31,2.49,2.56,2,2Zm-.34-3.62,4.06-7.28,1.06.82,17.69,13.73a16.1,16.1,0,0,1-3.46,5.37c-.13.14-.27.26-.4.38a5.38,5.38,0,0,1-5.31,1.22Zm28.76,30c-.8.81-1.3,1.23-1.3,1.23l-17.53-8.83L166.92,263l2.1-3.45.53.54L168,262.94s6.21,4.46,11.45,2.05h0a10.11,10.11,0,0,0,2-1c3.72-2.37,6.31-6.06,5-9.49a4.92,4.92,0,0,0-.38-.81c-2.09-3.64-4.32-2.24-4.32-2.24l-1.95-1.38,5.1-4.48-3.54,4.55,4.45-4.23-3.75,4.51,4.36-4-2.53,4.1,3.84-4.29-2.75,4.2,3.93-4.1-3,4.41,7.24-8.69h2.92s2.44,1.18,4.54,5.55c.27.57.5,1.13.7,1.66A41,41,0,0,1,190,279.23Zm8.92.23c-.17.27-.33.52-.49.75l-1.76-6.06a36.8,36.8,0,0,0,2.12-3.28,25.45,25.45,0,0,0,1.39-2.76,35.63,35.63,0,0,0,1.38-3.84l.24.12-1.76,5.26,1.94-3.79-1.8,5.1,2.07-4.07-1.57,5.22,2-4.16-1.48,5.32L203,269l-1.48,4.67,2.26-5.26A35.41,35.41,0,0,1,198.94,279.46Zm6.18-16.12-2.83-1.81c.07-.31.14-.62.2-.92l2.65,1.88a17.7,17.7,0,0,0,7.91-3.68,18.89,18.89,0,0,0,5.41-6.61l1.16-8.81a37.3,37.3,0,0,0-6.86-6.86,59.06,59.06,0,0,0-9.36-5.95L213.75,239l-12.15-8.08,10.52,8.81-11.28-7.41,10.82,8.8-10.53-6.67,10.18,7.95L201,236l8.25,7L201,237.56l8.08,7.11L200,238.35l8,7.53-8.66-6.37,6.37,6.64L201,242.3s3.92,4.28,4.73,8.32a37.84,37.84,0,0,1,.82,6.8l-3.43-1.32c0-.22,0-.44.05-.65l2.54.69a19.77,19.77,0,0,0-1.49-6.65C202.67,245.21,197,240,197,240H180.87l2.88-15.85,7.06-2.27s2.64,1,6.31,2.72a18.94,18.94,0,0,0-6.57-1.27s12.52,1.32,30.18,19.77l-.48-.65.48.65-1.23,9.65a26.27,26.27,0,0,1-6.27,7.56A16,16,0,0,1,205.12,263.34Z"/><polygon points="154 284.93 153.56 288.96 156.34 288.96 154.62 279.22 154 284.93"/><polygon points="175.72 261.79 164.82 251 174.44 259.9 164.52 249.54 174.29 258.38 164.43 248.08 173.02 256.05 164.69 246.76 171.67 253.27 164.08 245.35 161.73 249.31 174.85 262.61 167 253.96 175.72 261.79"/><path d="M53,98s-6.16,9.1-4.42,18.09a59.45,59.45,0,0,0,5.7,16l5.11,1S44.73,119.64,53,98Z"/><path d="M117.51,192.45c-.13-1-.24-2.28-.32-3.79,0-.63,0-1.29-.07-2a56.86,56.86,0,0,0-.18,6.92,33.72,33.72,0,0,0,.44,5l6.57-.52-5-.85S118.06,196.74,117.51,192.45Z"/></g></svg>