<svg id="Слой_1" data-name="Слой 1" xmlns="http://www.w3.org/2000/svg" viewBox="0 0 223 312.49"><defs><style>.cls-1{fill:#dc88b8;}.cls-2{fill:#fff;}</style></defs><g id="_3" data-name="3"><path class="cls-1" d="M84.37,222.62A36.22,36.22,0,0,0,88.76,225l.27-7.8a14.46,14.46,0,0,1-4.82,1.07s5.15-1,10.42-8.73c6.05-8.9,17.73-7.27,22.94.21a22,22,0,0,0,4.73,4.71c.29.2.57.4.85.62a34.28,34.28,0,0,0,4.53,2.72,19.78,19.78,0,0,1-3.17-.81h0c-.3-.11-.62-.22-.94-.35l-.24,6.18-.79-6.61-.4-.19-.3-.11.67,8.9a135.85,135.85,0,0,0,17.8-8.68,34.16,34.16,0,0,0,12.17-12.82l.61-8.77.3,7.11c.76-1.46,1.47-3,2.11-4.56l.2-10.68.6,8.58c.57-1.56,1.07-3.17,1.52-4.82v-.07a72.84,72.84,0,0,0-1.43-41.6v0c-3.91-11.33-10.94-21.64-21.65-28.7a109.43,109.43,0,0,0-21.83-5.64,83.24,83.24,0,0,0-28.85,1.29,50.46,50.46,0,0,0-5,1.87c-20.2,13.27-21.27,44.13-20.75,55.28.41,8.75,4.57,26.12,14.42,39.12l.84-5.52.07,6.69a47.16,47.16,0,0,0,6.45,6.65c3.44,2.4,5.79,3.71,5.79,3.71S85.34,223,84.37,222.62Zm7.68-11.52a9.53,9.53,0,0,1,3.1-5.95,10.78,10.78,0,0,1,6.11-2.37A13.42,13.42,0,0,0,95.47,206,15.34,15.34,0,0,0,92.05,211.1Zm-8.13-31.5a32,32,0,0,1-1.72-2.81l-.47,8.1-.63-10.36a31.6,31.6,0,0,1-2.68-12.77,42.72,42.72,0,0,1,.44-6.82h0l1.69-19.55v13.72a32.43,32.43,0,0,1,6.92-9.5l.58-.57,1-19.3.74,15.57,1.78-11.57.36,12.12a31,31,0,0,1,7.27-3.71l.85-7.26,1,6.68a30.72,30.72,0,0,1,19.31.88l1-6.4v6.81q.86.38,1.68.78h0L122.83,122l1.56,12.41a30.78,30.78,0,0,1,6.86,5.25,31.21,31.21,0,0,1,6.3,9.21l.76-10.88,1.55,18.49a32.21,32.21,0,0,1,.45,5.33,31.48,31.48,0,0,1-8.51,21.58l-.55,10.07-1-8.55a30.77,30.77,0,0,1-9.54,6l-.53,11.87-1.42-11.17-.79.25-.21,6.08-1.14-5.72a30.68,30.68,0,0,1-7.28.88h0a30.66,30.66,0,0,1-21.89-9.19c-.42-.43-.83-.87-1.22-1.32l-.57,10.19Z"/><path class="cls-1" d="M105.76,229.37a54.77,54.77,0,0,0,8.11-1.66,84.06,84.06,0,0,1-18.16-1.3,125.92,125.92,0,0,0,24.55-1.11c.15-2.05.41-7.39.53-9.78a44.34,44.34,0,0,0-28.85.41l-.28,7,0,.78,0-.28h0l-1-6.94-.23.1-.41.2.73,9.05A33.11,33.11,0,0,0,94.66,227C98.76,228.05,102.45,228.81,105.76,229.37Zm-5.4-9.87s7.14,2.73,13-.87a8.56,8.56,0,0,1-5.53,3.16C104,222.46,100.36,219.5,100.36,219.5Zm-7.94-.72a36.68,36.68,0,0,1,14.15-3.58,29.35,29.35,0,0,1,13.53,2.21s-6-1.76-8.42-.16-6.53,1.74-9.9.53S92.42,218.78,92.42,218.78Z"/><path class="cls-1" d="M133.83,289.88c3,.2,5.71-1.12,8.27-3,4.87,1.87,17.64,5.59,27.52-2h22.8l6.71,6.32H125.28A16.36,16.36,0,0,1,133.83,289.88Z"/><path class="cls-1" d="M90.64,291.21H82.45a20,20,0,0,0,4.75-2.71A11.74,11.74,0,0,0,90.64,291.21Z"/><path class="cls-1" d="M207.06,169.37c.42-.42.85-.86,1.28-1.34v16.49a12.7,12.7,0,0,0-1-1.11C203.42,179.48,205.14,173.45,207.06,169.37Z"/><polygon class="cls-1" points="202.02 264.94 208.34 263.48 208.34 291.2 206.88 291.2 202.02 282.88 202.02 264.94"/><path class="cls-1" d="M202,204.91a21.28,21.28,0,0,0,3.54-2.34,14,14,0,0,0,2.78-3.06v62.61c-1.24-1.63-3.63-4.8-6.32-8.52Z"/><path class="cls-1" d="M137.21,10.74h2.95c-.88.07-1.8.19-2.74.34Z"/><path class="cls-1" d="M202,59v-42H158.79a22.11,22.11,0,0,0-13.91-6.32h63.46V69.3a23.33,23.33,0,0,0-1.57-3.93A20.73,20.73,0,0,0,202,59Z"/><path class="cls-1" d="M208.34,131.06v.59c-.19-.19-.3-.28-.3-.28Z"/><path class="cls-1" d="M207.17,100.5A4.47,4.47,0,0,0,202,98.35v-3a40.85,40.85,0,0,0,6.32-13v29.75a7.25,7.25,0,0,0-3.23-1S210.32,105.63,207.17,100.5Z"/><path class="cls-1" d="M193,240.46c-.58-.93-1.08-1.8-1.5-2.62v-5.33a23.51,23.51,0,0,0,4.1-3.23v15.19C194.72,243.09,193.84,241.74,193,240.46Z"/><path class="cls-1" d="M56.51,278.94V279h-.15Z"/><polygon class="cls-1" points="37.45 254.38 37.45 257.88 33.34 266.09 33.34 254.2 37.45 254.38"/><path class="cls-1" d="M33.34,275.85l.67-.64A16.3,16.3,0,0,0,39.17,279H33.34Z"/><path class="cls-1" d="M195.64,55.87a15.06,15.06,0,0,0-4.1-.23V27.06H178.73a11.35,11.35,0,0,0-10.06-2.24A12.79,12.79,0,0,0,166.73,23h28.91Z"/><polygon class="cls-1" points="192.8 267.06 195.64 266.41 195.64 271.94 192.8 267.06"/><path class="cls-1" d="M157.71,84.11c1.29.78,2.57,1.59,3.8,2.4C160.26,85.71,159,84.9,157.71,84.11Z"/><path class="cls-1" d="M159.73,117.22c-.81-1.58-1.66-3.23-2.53-5a90.26,90.26,0,0,0-7-11.48,24,24,0,0,0,.07-3.46c-.21-5.52-9.26-21.9-9.26-21.9s4,1.81,9.17,4.49l14.05,9.93-18.94-11.2,21.08,14.44L145.67,81l21.55,14.53L148.28,84.4l19.18,13.26L148.83,87.24,167.7,100l-16.9-9.71,17,11.76-15.95-9L168,104.84l-16-8.76,17,11.76-15.63-8.6,16.66,11L152.7,100.9l15.79,9.78-11.29-4.81L169,112.34s-9.08-3.75-11.7-4.93a4,4,0,0,0-.69-.36c-.07,0,.2.13.69.36,2.79,1.58,13,7.93,13,7.93l-12.23-5.6,11.36,6.63-10-4,7.42,4.11L160,114.71l5,2.1a10.35,10.35,0,0,0-4.2,0,14.88,14.88,0,0,1,3.26.49C162.53,117.15,160.9,117.18,159.73,117.22Z"/><path class="cls-1" d="M72,108.78s8.92-3.79,10.89-17S62.35,74.05,62.35,74.05a67.13,67.13,0,0,1,36.58-.61,61.57,61.57,0,0,0-12.72-2,104.4,104.4,0,0,1,16.5,4.74L80.63,72l27.07,7.35L80.55,73.43,110.94,82,84.42,76.66l28.73,7.9L88.68,79.74l26.84,7.66L89.86,82.9l26.69,6.94L93.34,85.19l24.86,7-23.6-4.1,24.63,5.76-25-4,25,5.61L92.47,92,119,97.42,90.1,94l29.68,5.53-28.5-3.16L119,101.13,85.21,97.9l28.86,4.72h0c-2.92-.31-5.68-.46-8.23-.48l-22.4-1.32,12.16,1.81a56.45,56.45,0,0,0-7.08,1.16A84.43,84.43,0,0,1,105,104l3.45.52A104,104,0,0,0,72,108.78Z"/><path class="cls-1" d="M141.93,226a67.07,67.07,0,0,0,7.47-4.71l-5.86,5.86,14.53-10.26L143.54,229l16-10.49-18.35,13.62A13.08,13.08,0,0,0,141.93,226Z"/><path class="cls-1" d="M141.13,232.15l19.54-11.66L143.7,233l17.52-10-21.7,14.36,20.92-10.5-22.66,13.58L160,229.72l-19.73,11.37,19.81-8.76-14,7.5,13.58-5.13c-3.1,2.34-7.53,4.41-13.74,5.92a54.48,54.48,0,0,0-10.57,3.67c-3.58.37-6.1.51-6.1.51S138.25,239.85,141.13,232.15Z"/><path class="cls-1" d="M61.79,217.94,82.63,231l-7.43-5.54A68.62,68.62,0,0,0,85.07,230c.39,5,5.77,9.73,5.77,9.73s-3.68-.85-8.53-2.32c-1.91-.84-3.93-1.64-6.06-2.37A52.11,52.11,0,0,1,63,228.47l14.69,6-16.31-9.68L81.89,235,60,220.78l24.1,13.05Z"/><path class="cls-1" d="M157.75,49.55s-5.45-1.64-9.39,5.19a10,10,0,0,1,8.45,3.82c-.57.34-1.15.72-1.75,1.15a20.16,20.16,0,0,0-8.28-2.86A9.11,9.11,0,0,0,140,52c3-5.67,7-7.06,10.51-6.92A14.77,14.77,0,0,1,157.75,49.55Z"/><path class="cls-1" d="M186.48,109.45c1.93,6.52-5,10.58-5,10.58s9.25-.49,10.92,6.27c0,.11-.08.22-.13.33a5.79,5.79,0,0,1-2.09,2.5,15.6,15.6,0,0,0-6.6-.4,19.68,19.68,0,0,0-1.43-1.86h0a38.31,38.31,0,0,1-4.63-11.17c4.82,3,8.54-4.8,5.22-3.54-2.27.86-4.64-.93-6.23-2.57-.08-.77-.13-1.52-.17-2.26C179.05,106.23,185,104.48,186.48,109.45Z"/><path class="cls-1" d="M122.21,30.62s6.37-6.49,18.08-.81a8.23,8.23,0,0,1,1.66,2.7,16,16,0,0,0-1.08,2.25,14.83,14.83,0,0,0-9.39-.46,20.61,20.61,0,0,0-14.54.13c-7.31,2.64-10.22,7.09-11.15,8.94,0-.66.09-4.45,5-8.77-2-5-9.76-6.22-9.76-6.22A12.14,12.14,0,0,1,110.23,30l.25.33c0-.09-.09-.17-.13-.25a17.41,17.41,0,0,1,3.22,2.53A14.62,14.62,0,0,1,122.21,30.62Z"/><path class="cls-1" d="M96.65,12.57a14,14,0,0,1,2.78,2A13.84,13.84,0,0,0,99.22,18c-3.67-1-8.23-.9-13.7,1.71A27.69,27.69,0,0,0,80.23,23a25.08,25.08,0,0,0-2.6-1C79.09,19,84.55,10,96.65,12.57Z"/><path class="cls-1" d="M111.19,18.47a18.89,18.89,0,0,0-5.33,3.32l-.17-.28h0q-.27-.33-.51-.66c-3-6.26.37-9.2,3-10.48C107.64,11.72,106.83,15,111.19,18.47Z"/><path class="cls-1" d="M108.57,9.81l-.25.06.29-.12Z"/><path class="cls-1" d="M72.48,28.53A11.31,11.31,0,0,1,75,29.81a14.08,14.08,0,0,0-.64,7.66,21.24,21.24,0,0,0-16.76,1C58.3,37.26,64.08,28.47,72.48,28.53Z"/><path class="cls-1" d="M38.46,75.67a49.71,49.71,0,0,0-6.27,4.45,42.9,42.9,0,0,0-6.55,2.53c-.32-3.39-.4-13.22,8.61-18.08a8.57,8.57,0,0,1,2.65-.12c.34,1.22.7,2.27,1,3.08A28.13,28.13,0,0,0,38.46,75.67Z"/><path class="cls-1" d="M182,84.82l.44-.39-.44.4Z"/><path class="cls-1" d="M177.61,63.91c-.3.81-.52,1.31-.52,1.31,6.79,1.81,9.09,5,9.24,8.46a11.25,11.25,0,0,0-5-5.73c-6.68-4-13.42.37-13.42.37a14.91,14.91,0,0,1,11.74.21c6.46,2.79,4.84,11.76,4.84,11.78-.45.84-.94,1.62-1.42,2.34,1.11-2.78,2.23-7.6-1.63-10.7-3.26-2.62-8.7-1.83-12.76-.68a11.56,11.56,0,0,1,9.39,5.94c-2.09-1.89-6-3.64-13.23-2.9a18,18,0,0,0-2.37-7.12C164.68,66.09,171.32,63.14,177.61,63.91Z"/><path class="cls-1" d="M78.65,62a27,27,0,0,1,9.41-5.59,28.82,28.82,0,0,1,13.63-1.39c-.46.52-.7.85-.7.85S107.31,49,119.54,49l1.18,0c-.33,0-10.45.93-15.42,6.72,1.21.28,1.91.52,1.91.52s12.24-6.89,20.86,2c-4-1.56-9.63-2.29-16.46,1a30.35,30.35,0,0,0-6.59-.68c-10.51,0-17,2.92-20.07,4.81a73.64,73.64,0,0,0-8.47.31,5.3,5.3,0,0,1-1.7-4.9A7.57,7.57,0,0,0,78.65,62Z"/><path class="cls-1" d="M185.55,57.09a22.26,22.26,0,0,0-3.88,2,13.52,13.52,0,0,0,0-7.43c.25-.6.53-1.33.82-2.16A8.63,8.63,0,0,1,185.55,57.09Z"/><path class="cls-1" d="M202.59,128.35l-.62.35a14.29,14.29,0,0,0-1.9-.28c-1.14-4.59-3.16-7.27-5.3-8.81C197.87,120.11,203.39,121.91,202.59,128.35Z"/><path class="cls-1" d="M187.78,159.43a6,6,0,0,0-2.83-1.62,13.4,13.4,0,0,0-3.81-8.8,3.09,3.09,0,0,0,1-1C184.15,149.54,188.36,153.45,187.78,159.43Z"/><path class="cls-1" d="M197.94,158.14c-.05-12.76-10.59-15.77-10.59-15.77a14.49,14.49,0,0,1,2,1.63,14.62,14.62,0,0,0-3.68-1.56c-.38-.2-.77-.39-1.2-.57.16-.5.32-1,.49-1.58a17.62,17.62,0,0,0,.62-2.87C199.53,140.13,198.57,153.93,197.94,158.14Z"/><path class="cls-1" d="M62.44,64.21c-.34.7-.67,1.44-1,2.21a104.44,104.44,0,0,0-14.09,4.73c-.2-.88-.35-1.73-.46-2.56C49.22,66.68,55,62.82,62.44,64.21Z"/><path class="cls-1" d="M180.83,87.42l.93.54c-3.56-.87-7.08.67-8.89,1.69-1-.82-2.23-1.74-3.62-2.72A12.33,12.33,0,0,1,180.83,87.42Z"/><path class="cls-1" d="M120.5,273.5c.23-1,.47-2.06.75-3.2a27.65,27.65,0,0,1,3.35-3.21c.16.5.3,1,.42,1.49A30.63,30.63,0,0,0,120.5,273.5Z"/><path class="cls-1" d="M127.86,266.44c-.09-.45-.2-.91-.32-1.37A18.38,18.38,0,0,1,142,263.15a10.08,10.08,0,0,1,.91.47A19.56,19.56,0,0,0,127.86,266.44Z"/><path class="cls-1" d="M78.37,250.27a27.81,27.81,0,0,1,11.79,5.45,7.85,7.85,0,0,0-1.56,1.66A37.47,37.47,0,0,0,78.37,250.27Z"/><path class="cls-1" d="M91,260.35a17.35,17.35,0,0,0-1.36-1.83,6.07,6.07,0,0,1,1.93-1.47,17.6,17.6,0,0,1,1.69,2c4.1,5.83,10.68,6.12,14.43,5.72l.57,1c-5.55,2.49-11.29-.26-13.87-1.82A15.5,15.5,0,0,1,91,260.35Z"/><path class="cls-1" d="M57.6,240.41l-3.18-.48,1.85-3.75,4.17-5.31c.6.41,1.23.81,1.88,1.22Z"/><path class="cls-1" d="M37.77,273.27l-1.21-.47,6.7-6.32c.75.22,1.67.51,2.69.9l-7.31,6.23Z"/><path class="cls-1" d="M49.41,260.68l12.08-11.4-7.94,9.65,18.26-17.75a20.42,20.42,0,0,1,3-.47L71,244.47a8.61,8.61,0,0,0-1.42,1,7.9,7.9,0,0,1,.76-.39L53.21,261.88A23.28,23.28,0,0,0,49.41,260.68Z"/><path class="cls-1" d="M47.46,262.52l.93.12H47.33Z"/><path class="cls-1" d="M166.07,247.09a22,22,0,0,0,5.33-5.72,33.35,33.35,0,0,1-2.6,3.83l5.37,6.86-3.83.83-3.91-5.32Z"/><path class="cls-1" d="M165.38,254l-4.71,1,20,18.78-.07.07-20.11-17.51,17.79,19.18a10.2,10.2,0,0,1-2.6,1L156,255.64Z"/><path class="cls-1" d="M59.9,52.93c5.21-1.54,8.21,0,8.21,0s8.73-6.49,16.31-.93a18.73,18.73,0,0,0-17,5c-5.78-3.6-11.15-1-14.17,1.3C53.27,58.31,54.69,54.47,59.9,52.93Z"/></g><g id="_2" data-name="2"><path d="M57.65,259.67a28.18,28.18,0,0,1,15.72-1.84,14.68,14.68,0,0,1,9.24,5.79,21.49,21.49,0,0,1,3.7,8s-3.47-10.2-14-11.68-17.68,1.27-17.68,1.27A20.78,20.78,0,0,1,57.65,259.67Z"/><path d="M83.92,179.6l1.76,13.18.57-10.19c.39.45.8.89,1.22,1.32a30.66,30.66,0,0,0,21.89,9.19h0a30.68,30.68,0,0,0,7.28-.88l1.14,5.72.21-6.08.79-.25,1.42,11.17.53-11.87a30.77,30.77,0,0,0,9.54-6l1,8.55.55-10.07a31.48,31.48,0,0,0,8.51-21.58,32.21,32.21,0,0,0-.45-5.33l-1.55-18.49-.76,10.88a31.21,31.21,0,0,0-6.3-9.21,30.78,30.78,0,0,0-6.86-5.25L122.83,122l.21,11.69h0q-.83-.4-1.68-.78v-6.81l-1,6.4a30.72,30.72,0,0,0-19.31-.88l-1-6.68-.85,7.26a31,31,0,0,0-7.27,3.71l-.36-12.12-1.78,11.57-.74-15.57-1,19.3-.58.57a32.43,32.43,0,0,0-6.92,9.5V135.39l-1.69,19.55h0a42.72,42.72,0,0,0-.44,6.82,31.6,31.6,0,0,0,2.68,12.77l.63,10.36.47-8.1A32,32,0,0,0,83.92,179.6Zm-1.47-14.18.64-10.64c.1-.39.21-.78.32-1.17l.53,13.44,1-14.45v15.55l1-17.29L86,168.47l1.1-20,.71,14.76.74-19.19c.51-.62,1-1.23,1.62-1.8a26.87,26.87,0,0,1,38.38,0,27.82,27.82,0,0,1,0,39,26.86,26.86,0,0,1-32.74,4.39l-.76-17.07-.59,16.22c-.58-.38-1.14-.79-1.69-1.22l-.35-18-.93,17c-.45-.4-.89-.82-1.32-1.25A27.65,27.65,0,0,1,82.45,165.42Z"/><path d="M97.81,169.7a11.82,11.82,0,0,0,6.64,10.67l.81,5.78.28-5.34a11.44,11.44,0,0,0,3.77.66A11.64,11.64,0,0,0,120.8,169.7a11.79,11.79,0,0,0-6.19-10.43A10.44,10.44,0,0,0,116,158a10.42,10.42,0,0,0,0-14.36,9.66,9.66,0,0,0-14,0,10.42,10.42,0,0,0,0,14.36,10,10,0,0,0,1.66,1.39A11.83,11.83,0,0,0,97.81,169.7Zm16-13.85a6.49,6.49,0,0,1-9.45,0,7.25,7.25,0,0,1,0-10,7,7,0,0,1,.82-.72l.54,6.16.08-6.58.15-.08.93,12,.39-12.53a6.44,6.44,0,0,1,1.81-.26,6.54,6.54,0,0,1,4.73,2,7.28,7.28,0,0,1,0,10Zm-10.33,20,.27-12.5a8.19,8.19,0,0,1,5.6-2.22,8.09,8.09,0,0,1,4.54,1.39l.09,10.45.74-8,.31,8.53.77-9.21a7.68,7.68,0,0,1,.47.65l.34,7.61.32-6.39a8.78,8.78,0,0,1,.76,3.57,8.67,8.67,0,0,1-2.46,6.1,8.15,8.15,0,0,1-11.75,0ZM101,169.7a8.72,8.72,0,0,1,1.42-4.78l.94,10.77A8.72,8.72,0,0,1,101,169.7Z"/><path d="M14.67,147.27a19.2,19.2,0,0,0,5.1,9.75c-1,4-1,9.7-.61,16.82a89.31,89.31,0,0,0,1.49,11.93c1.34,6.63,3.46,11.6,6.31,12.52l.2.07.19,0c-1.55,7.12,2.25,12.9,6,16.67a32.48,32.48,0,0,0,4.11,3.51l.83.59a24.65,24.65,0,0,0,4.88,7.39l-5.71,8.6-4.11,6.18L27,251l-1.91,2.88,1.91.08,6.38.29,4.11.18,1.71.08-1.71,3.42-4.11,8.21L27,278.85l-2.85,5.71L27,281.87l6.38-6,.67-.64A16.3,16.3,0,0,0,39.17,279c6.63,3.07,14.1,1.08,17.19,0l.15-.06V279a10.89,10.89,0,0,1-.17,1.75,7.39,7.39,0,0,0,.41,4.14c1.09,2.73,3.79,4.92,7.28,6.32a25.8,25.8,0,0,0,18.42,0,20,20,0,0,0,4.75-2.71,11.74,11.74,0,0,0,3.44,2.71c2.8,1.48,7.15,2.53,13.8,1.58a12,12,0,0,0,9.66,6.61c5.11.65,8.65-3.38,11-8.11l.17-.08a16.36,16.36,0,0,1,8.55-1.33c3,.2,5.71-1.12,8.27-3,4.87,1.87,17.64,5.59,27.52-2,.46-.36.92-.74,1.37-1.14,6.88,1.52,13.67-2.05,16.31-3.68l5.12,4.82,6.71,6.32,17.19,16.19-9.44-16.19L202,282.87l-6.38-10.93-2.84-4.88,2.84-.65,6.38-1.47,6.32-1.46.88-.21-.88-1.15c-1.24-1.63-3.63-4.8-6.32-8.52-2.08-2.88-4.33-6.07-6.38-9.13-.92-1.38-1.8-2.73-2.6-4-.58-.93-1.08-1.8-1.5-2.62a24.63,24.63,0,0,1-1.8-4.32c.49-.24,1.1-.58,1.8-1a23.51,23.51,0,0,0,4.1-3.23,17.84,17.84,0,0,0,5.5-14.08,40.67,40.67,0,0,0-1.52-9.35,11.56,11.56,0,0,0,2.4-.94,21.28,21.28,0,0,0,3.54-2.34,14,14,0,0,0,2.78-3.06c2.78-4.12,3.89-10.11,0-15a12.7,12.7,0,0,0-1-1.11c-3.93-3.93-2.21-10-.29-14,.42-.42.85-.86,1.28-1.34a25.92,25.92,0,0,0,6.33-13.77c1.51-10.38-2.16-17.28-4.62-20.6h0a18,18,0,0,0-1.7-2c-.19-.19-.3-.28-.3-.28l.3-.31c1.24-1.29,5.85-6.63,4.27-12.8a9.27,9.27,0,0,0-4.27-6.13,7.25,7.25,0,0,0-3.23-1s5.21-5.53,2.06-10.66A4.47,4.47,0,0,0,202,98.35a11.51,11.51,0,0,0-4.17,2.07A43.09,43.09,0,0,0,202,95.35a40.85,40.85,0,0,0,6.32-13,24.29,24.29,0,0,0,0-13.08,23.33,23.33,0,0,0-1.57-3.93A20.73,20.73,0,0,0,202,59a13.58,13.58,0,0,0-6.38-3.16,15.06,15.06,0,0,0-4.1-.23l-.59.06c.68-5.87-5-9.45-7.28-10.66.83-4.09,1-9-1.26-13.29a15.21,15.21,0,0,0-3.68-4.69,11.35,11.35,0,0,0-10.06-2.24A12.79,12.79,0,0,0,166.73,23a11.64,11.64,0,0,0-5-2.25,20.1,20.1,0,0,0-2.94-3.64,22.11,22.11,0,0,0-13.91-6.32,27.52,27.52,0,0,0-4.72,0c-.88.07-1.8.19-2.74.34l-.21-.34A12.1,12.1,0,0,0,129,5.46c-4.48-.94-7.56,0-9.67,1.65a13.44,13.44,0,0,0-12.16-.7h0a12.51,12.51,0,0,0-5,2.94c-1.7-1.65-6.78-5.33-16-2.23a20.05,20.05,0,0,0-6.53,3.62,20.43,20.43,0,0,0-5,6.32,21.7,21.7,0,0,0-1.58,4A24.64,24.64,0,0,0,60.52,23c-.28.12-.56.24-.84.38a14.55,14.55,0,0,0-4.87,3.73,24.14,24.14,0,0,0-4.92,11.05c-6.69,1.54-10.46,4.77-12.44,8.6a20.7,20.7,0,0,0-1.74,11.85c-.83.19-1.62.4-2.37.64A20.92,20.92,0,0,0,27,62.47a19.14,19.14,0,0,0-6.31,8.78c-2.17,5.87-1.81,12.16-1.39,15.43a25.5,25.5,0,0,0-8.1,11.22c-2.79,7.66-.59,14.34,2.73,19.41C-.94,127.75,11.11,143.24,14.67,147.27ZM15.88,120c.24.3.49.59.73.87-6.55,4.76-4.86,12.73-4.32,14.69.08.29.13.44.13.44s-1.23-9.55,6.3-12.88a37.13,37.13,0,0,0,5.39,4.44s-9.44,3.45-9.92,13.86c0,.19,0,.37,0,.56C11.07,138,4.79,127.54,15.88,120ZM27.14,85.24c-8.18,10.18-6.87,21.25-1,28.5,1.52,1.89,2.93,3.61,4.22,5.18a11.87,11.87,0,0,0-1.19,2,11.46,11.46,0,0,0-.93,6c-4-2.35-15.32-10-15.11-22.42a16.31,16.31,0,0,0,2.62,4.81,21.62,21.62,0,0,0,5,4.7S9.9,104.26,17.49,92.21A25.53,25.53,0,0,1,27.14,85.24Zm9.24,95.83c-.16-1.36-.28-2.8-.36-4.3l5.58-.52c.17,1.28.38,2.55.63,3.8Zm6.24.84c.29,1.28.61,2.56,1,3.81l-6.14,1.72c-.32-1.39-.6-2.89-.83-4.49Zm-6.68-7c0-.88,0-1.79,0-2.72v-1.78l5.16-.26c.06,1.43.16,2.85.31,4.26Zm0-6.4c0-1.85.1-3.55.18-5.12l5,.29c-.07,1.23-.11,2.47-.11,3.72,0,.29,0,.57,0,.85Zm.3-7c.11-1.59.25-3,.41-4.33l5,1.18c-.15,1.14-.28,2.29-.38,3.44Zm.67-6.22c.19-1.24.4-2.34.63-3.33l4.93,1.63c-.21,1-.39,1.92-.55,2.89Zm1.1-5.17a23.23,23.23,0,0,1,1.14-3.1l4.69,1.26c-.35,1.14-.66,2.29-.95,3.45Zm2-4.82c.5-.84,1-1.53,1.43-2.2,1.41-2.09,3.23-1.46,4.43-.67-.54,1.33-1,2.68-1.5,4Zm5.7,22.11a61.17,61.17,0,0,1,4-21.83L51,167.05l.91-22.42.67,18.31,1.8-26.88a62.87,62.87,0,0,1,19.41-20.33l.48-.14c-10.62,7.55-14.33,16.14-14.33,16.14a49.28,49.28,0,0,1,19.18-14.46,50.46,50.46,0,0,1,5-1.87,83.24,83.24,0,0,1,28.85-1.29,109.43,109.43,0,0,1,21.83,5.64,113.47,113.47,0,0,1,15.05,6.86l1.56,7.76v-5.16l3.58,14.31,0-.31h0l-.38-13.88.14.09,1.74,19V134.89l2.1,18.63V138.58l1.27,20.63.63-16.74,1.05,19.47.63-16.21,1.06,17.9.72-14.87a78,78,0,0,1,0,40s7.87-12.49,4.52-34A68.51,68.51,0,0,1,170,177.84s3.27-17.34-2.44-34.29A61.33,61.33,0,0,1,158.69,206l-.85-15.88v.07L157,204.31,156.3,195l-.6-8.58-.2,10.68-.24,12.8c-.47.5-.95,1-1.43,1.46l0,0-.4-9.74-.3-7.11-.61,8.77-.71,10a63.64,63.64,0,0,1-42.72,16.31c-1.33,0-2.64,0-4-.13A63.9,63.9,0,0,1,90.83,227l-.09-1.15L90,216.75l.41-.2.23-.1,1,6.94h0l0,.28,0-.78.28-7a44.34,44.34,0,0,1,28.85-.41c-.12,2.39-.38,7.73-.53,9.78a125.92,125.92,0,0,1-24.55,1.11,84.06,84.06,0,0,0,18.16,1.3,50.33,50.33,0,0,0,14-2.41c14.05-4.81,21.47-11.76,21.47-11.76a70,70,0,0,1-22.1,10.26c-1.54.43-3.14.8-4.77,1.11v-.12l-.67-8.9.3.11.4.19.79,6.61.24-6.18c.32.13.64.24.94.35h0a19.78,19.78,0,0,0,3.17.81,34.28,34.28,0,0,1-4.53-2.72c-.28-.22-.56-.42-.85-.62a22,22,0,0,1-4.73-4.71c-5.21-7.48-16.89-9.11-22.94-.21-5.27,7.74-10.42,8.73-10.42,8.73A14.46,14.46,0,0,0,89,217.18l-.27,7.8,0,1.31a63.45,63.45,0,0,1-24.45-15A61.43,61.43,0,0,1,45.74,167.36ZM49.63,200a5,5,0,0,1-2.47,1.73c-1.52.5-3.85-.91-6-4.47l5.37-3.43A67.09,67.09,0,0,0,49.63,200ZM60,220.78l24.1,13.05L61.79,217.94,82.63,231l-7.43-5.54A68.62,68.62,0,0,0,85.07,230c.7.26,1.39.51,2.1.75a35.16,35.16,0,0,0,24.82,18S98,243,92.4,232.28q2.67.66,5.42,1.11l8.38,11.49-4.1-9.79,6.16,10.26-3.16-9.78,4.58,10.89-2.29-11.37,3.87,11.37L110.07,236l2.53,12.31L113.7,237v10.89l3.16-11.37L114.26,249l6.07-13-3.55,10.5,6.79-11-5.92,11.76L126.33,235,120,247.09a56.43,56.43,0,0,1-4.82,3.37s18.56-7.1,25.23-23.67c.52-.26,1-.54,1.55-.82a67.07,67.07,0,0,0,7.47-4.71l-5.86,5.86,14.53-10.26L143.54,229l16-10.49-18.35,13.62,0,0,0,0,19.54-11.66L143.7,233l17.52-10-21.7,14.36,20.92-10.5-22.66,13.58L160,229.72l-19.73,11.37,19.81-8.76-14,7.5,13.58-5.13c-3.1,2.34-7.53,4.41-13.74,5.92a54.48,54.48,0,0,0-10.57,3.67c-8.22,3.9-13,9.16-15.74,14l1.13-5.67-4.19,10,1.19-9.71-2.69,9-1.57-8.37v7.58L108.89,252l3.16,9.86-5.77-10.73,3.34,8.05c-4.94-7-13.38-15.63-27.31-21.74-1.91-.84-3.93-1.64-6.06-2.37A52.11,52.11,0,0,1,63,228.47l14.69,6-16.31-9.68L81.89,235Zm.44,10.09c.6.41,1.23.81,1.88,1.22a76.35,76.35,0,0,0,10.41,5.37h0c-6.33,0-9.38,2.44-10.5,3.65l-4.66-.71-3.18-.48,1.85-3.75Zm75.23,17.56a16.66,16.66,0,0,1-.49,4.38,17.66,17.66,0,0,1-4.52,8c-.15.16-.3.31-.47.47a18.61,18.61,0,0,0-7.23,3.12C125,258.68,128.49,252.58,135.67,248.43Zm-12.73-4.73,8.77-9.47c-2.86,5.35-8,9.94-11.74,12.86l8.57-12.47ZM95.55,212.36a17.82,17.82,0,0,1,3.07-3l.31,3c-1.58.34-3,.7-4.27,1.05C95,213.06,95.26,212.72,95.55,212.36Zm7.5-5.4,0,4.63c-1.16.16-2.29.36-3.37.57l-.22-3.44A15.25,15.25,0,0,1,103.05,207Zm1.5,3.74v-3.87l.27,3.14.11-3.5a11.22,11.22,0,0,1,2.38-.17v4.88c-1.16.06-2.3.17-3.42.3v-4.77l.29-.08Zm6.23-3.71.17,4.16c-.91,0-1.82,0-2.73,0l-.18-4.8A10.52,10.52,0,0,1,110.78,207Zm5.27,4.16c.21.28.43.56.66.82a26.78,26.78,0,0,0-4.94-.77l-.23-3.88A12,12,0,0,1,116.05,211.15Zm70.25-1.63s0,1.47-5,1.47c-3.39,0-7.72-1.34-10.11-2.18.22-.44.43-.89.65-1.37,7.65,2.79,12.38.1,12.38.1a19.39,19.39,0,0,1-5.53-.13l1-9.46L178,207.23a8.89,8.89,0,0,1-1.45-.51l2.84-14.89L176,203.57l2.89-13.16-3.79,12.69,3.1-11.62L176,196.77c1.12-3.28,2.27-6.91,3.48-10.83,2.62-8.53,4.84-16.24,5.43-22.63a2.6,2.6,0,0,1,.64-.14l-2.12,16.35,4.06-16,.31.17L186.05,172l2.29-7.89a27.11,27.11,0,0,1,4.72,4.86c-8.13,6.91-9.06,15.15-9.06,15.15s3.63-9.88,9.84-14.15c.18.22.34.44.51.66-15.43,10.75-10.68,34.33-10.68,34.33S183,179.88,196,172.84c.61.86,1,1.42,1,1.42s-5.37,2.21-8.63,14.42S186.3,209.52,186.3,209.52ZM162.09,119.1s12.76,1.61,19.37,19.65c-1.41,6.84-4.77,8.19-11-1.45l-.72-1.28,6.33,6.32-6.16-9,6.71,8-6.32-10.1,7.74,9.79L170.62,130l8.13,9.47-6.95-10.18L180,139.58l-6.87-11.37,6.71,9.39a43.4,43.4,0,0,0-5.36-9.55c-3.29-4.38-8.54-7.58-12.94-7.31-.59-1.13-1.2-2.31-1.82-3.52-.81-1.58-1.66-3.23-2.53-5a90.26,90.26,0,0,0-7-11.48A99,99,0,0,0,127.63,78l3.36-.62-4.42-.91,4.42-.43-6.16-.43,5.81-.79-6.87-.67,7-.48-8-.51,7.7-.91h-8.21l8.37-1.3-8.65.31,7.66-1-8.76.25a6,6,0,0,1,3.15-.67c1.36,0,2.5,0,3.47-.08h0l1.39-.06c1.21.07,2.76.53,2.76,2.41a12.59,12.59,0,0,0,2,6,7.29,7.29,0,0,1,.57-7.42l.2.16a3.9,3.9,0,0,0,1,.59c-1.2,2.17-.52,5.94-.52,5.94s.73-6.21,5.3-5.44h0a5.55,5.55,0,0,1,1.8.81c2.95,2,25.47,15.55,28.94,19s2.92,9.31,2.92,16.26a45.41,45.41,0,0,0,1.87,13.44L175,121l-.87-.54a56.29,56.29,0,0,1-1.79-13.17c0-7.48,1.4-12.34-5.47-17.24-1.55-1.1-3.39-2.33-5.32-3.57-1.25-.8-2.54-1.61-3.8-2.4-5.44-3.36-10.46-6.26-10.46-6.26l2.92,2.06,14.05,9.93-18.94-11.2,21.08,14.44L145.67,81l21.55,14.53L148.28,84.4l19.18,13.26L148.83,87.24,167.7,100l-16.9-9.71,17,11.76-15.95-9L168,104.84l-16-8.76,17,11.76-15.63-8.6,16.66,11L152.7,100.9l15.79,9.78-11.29-4.81L169,112.34s-9.08-3.75-11.7-4.93c2.79,1.58,13,7.93,13,7.93l-12.23-5.6,11.36,6.63-10-4,7.42,4.11L160,114.71l5,2.1a10.35,10.35,0,0,0-4.2,0,14.88,14.88,0,0,1,3.26.49,20.26,20.26,0,0,1,5.5,2.28c3.69,2.18,9.94,7.33,11.76,13.26C173.39,118.69,162.09,119.1,162.09,119.1Zm7.16-32.17a12.33,12.33,0,0,1,11.58.49l.93.54c-3.56-.87-7.08.67-8.89,1.69C171.86,88.83,170.64,87.91,169.25,86.93ZM134.41,62.27s-.28-.3-.8-.75a18.36,18.36,0,0,0-2-1.46h0c4.14-1.4,16.19-4.54,23.8,3.07,6.2,6.2,5.45,12.16,4.26,15.46a14.12,14.12,0,0,1-.73,1.67l-2.16-1.33c-.82-14.1-9.26-16.8-9.26-16.8s7.08,5.82.38,11.47c-3.44-2-6.16-3.63-7.33-4.36-4.52-2.85-1.79.84-4.52-.22s-1.27-2.52-5.27-1.47a24.28,24.28,0,0,1-6.2.32,17.15,17.15,0,0,0-4.73-5,21.3,21.3,0,0,0-4.85-2.59c5.43-3.05,11.5-1.57,15.37,0l.23.09-.45.26.55-.21A24.22,24.22,0,0,1,134.41,62.27Zm-37.6-.53s13.76-.07,16.11,7.85a72.69,72.69,0,0,0-26.55-6.22H86l.34-.14c4.2-1.75,11.57-4.08,19-2.89,8.63,1.38,12.66,5.54,14.1,7.46a10.61,10.61,0,0,0-1.51.16,23.62,23.62,0,0,0-13.85-6.47A22.63,22.63,0,0,0,96.81,61.74Zm80.28,105.62c0-1.21,0-2.42-.1-3.63l4.4,1.62c-.17,1.22-.4,2.54-.68,3.94l-3.63-1C177.08,168,177.09,167.67,177.09,167.36Zm3.23,3.79c-.29,1.34-.62,2.74-1,4.18l-2.66-.69c.16-1.45.27-2.93.34-4.41Zm-1.44,6c-.51,1.93-1,3.9-1.64,5.87l-1.86-.69q.66-2.86,1.07-5.8Zm-2.18,7.69c-.57,1.86-1.16,3.7-1.76,5.5l-1.71-.71c.64-1.78,1.21-3.6,1.69-5.45Zm-2.37,7.3c-.63,1.83-1.27,3.6-1.91,5.25l-2-1c.8-1.62,1.52-3.28,2.18-5ZM180.91,157l-5.22-3.19c-.19-.89-.39-1.78-.62-2.65A13.77,13.77,0,0,1,180.91,157Zm.78,2.69a9.89,9.89,0,0,1,.09,1.23,24,24,0,0,1-.15,2.53l-4.78-1.76q-.24-2.72-.69-5.38ZM169,204.45l-2.67-1c1.14-1.75,2.2-3.56,3.17-5.41l2.21,1.1c-.09.22-.18.45-.27.66A23.56,23.56,0,0,1,169,204.45ZM167.78,206a7.82,7.82,0,0,1-5.35,2.86q1.48-1.85,2.83-3.78ZM27.37,110.37C20.94,102.53,25.87,89.08,36,81L49,99.24,38.32,81l7.34,10.07L38.88,78.92a30.82,30.82,0,0,1,3.65-2C56.84,70.16,94.35,56,127,81.32a98.13,98.13,0,0,1,30,39.07q-1.77-1.42-3.55-2.72l-9.32-17.14,5.53,13.15L141.17,97.5l4.7,10.74a81.77,81.77,0,0,0-18.93-21,74.8,74.8,0,0,0-28-13.77,61.57,61.57,0,0,0-12.72-2,104.4,104.4,0,0,1,16.5,4.74L80.63,72l27.07,7.35L80.55,73.43,110.94,82,84.42,76.66l28.73,7.9L88.68,79.74l26.84,7.66L89.86,82.9l26.69,6.94L93.34,85.19l24.86,7-23.6-4.1,24.63,5.76-25-4,25,5.61L92.47,92,119,97.42,90.1,94l29.68,5.53-28.5-3.16L119,101.13,85.21,97.9l28.86,4.72h0c-2.92-.31-5.68-.46-8.23-.48l-22.4-1.32,12.16,1.81a56.45,56.45,0,0,0-7.08,1.16A84.43,84.43,0,0,1,105,104l3.45.52,5.62.83c11.84,2.32,26,7.37,38.47,18l-4.76-1.85c-23.94-18.77-54.95-15.71-54.95-15.71s27.48.93,40.35,10.18q-3-1.06-6.25-2.18c-21.16-7.15-50.18-5.76-64.07,3.08-13.53,8.61-14.78,20-15.5,20.66,2.19-11.68,10-19.14,16.09-23.33l.94-.62A40.46,40.46,0,0,1,71.23,110a40.18,40.18,0,0,0-7.12,3.14l-7.87-11.42,6.88,12a40.14,40.14,0,0,0-15.46,15.59C50.91,121.51,60,113.61,60,113.61s-9.56,5.92-14.21,15.7c-.33.69-.61,1.34-.87,2-1.2-3.38.62-7.38,1.76-9.39h0c.22-.4.42-.72.57-.94l.24-.36c-11.82-7.84-16.79-21.1-16.79-21.1A43.11,43.11,0,0,0,37.87,114a45,45,0,0,1-6.42-8c-4.82-8-.16-16.5-.16-16.5s-4.81,6.63-4.81,12.16S34,116.38,43.32,125.78a18.17,18.17,0,0,0-.88,1.63C40.59,125.46,33.9,118.33,27.37,110.37ZM37.9,67.53a28.13,28.13,0,0,0,.56,8.14,49.71,49.71,0,0,0-6.27,4.45,42.9,42.9,0,0,0-6.55,2.53c-.42.21-.85.43-1.28.67-.8.43-1.6.89-2.39,1.4-.6-3.09-1.44-10.21,1.93-15.82,3.59-6,9.9-7.74,12.13-8.18.07.4.15.79.23,1.17C25.08,63.07,24.38,73.63,24.35,75.45c0,.17,0,.26,0,.26S27.41,66,34.25,64.57a8.57,8.57,0,0,1,2.65-.12C37.24,65.67,37.6,66.72,37.9,67.53ZM49.41,41.16c0,.32-.07.64-.1.94-8.47,1.25-9.37,8.57-9.46,10.49,0,.3,0,.47,0,.47s1-8.85,9.37-9.67c-.09,1.33-.11,2.45-.1,3.26q-1,.85-2,1.83A32.44,32.44,0,0,0,40.05,58.8a28.1,28.1,0,0,0-1.57,4.85C37.18,58.63,35.1,45,49.41,41.16Zm27.8-15.22A14.7,14.7,0,0,0,76,27.65a15.65,15.65,0,0,0-12.18-.46A16.45,16.45,0,0,0,59,29.93s7.09-3.73,13.48-1.4A11.31,11.31,0,0,1,75,29.81a14.08,14.08,0,0,0-.64,7.66,21.24,21.24,0,0,0-16.76,1,15.55,15.55,0,0,0-2.17,1.33l-.27.21.27-.13c1.67-.72,10.75-4.29,19.36-.62a10.57,10.57,0,0,0,.66,1.69S66.73,36.59,55.94,42a29.49,29.49,0,0,0-2.78,1.58c-.19-2.14-.62-12,6.94-17.2C66.69,21.82,74.15,24.49,77.21,25.94ZM100.78,11.1a7.59,7.59,0,0,0-.44.79c-10.54-5.88-16.87.67-16.87.67l.1-.05c.84-.41,7.06-3.27,13.08.06a14,14,0,0,1,2.78,2A13.84,13.84,0,0,0,99.22,18c-3.67-1-8.23-.9-13.7,1.71A27.69,27.69,0,0,0,80.23,23a25.08,25.08,0,0,0-2.6-1l-.89-.25c-.48-.13-1-.25-1.53-.35C76.35,18.25,79.7,11,86.94,8.91A16.28,16.28,0,0,1,100.78,11.1ZM178.93,48c-.23-.16-.47-.32-.73-.47l0,0c4.93-16.23-6-20.34-6-20.34a6.47,6.47,0,0,1,1.23.84c2.24,1.85,6.47,7.08,3.42,18.86a9.39,9.39,0,0,0-9.15,1.29s6-11.52-4.9-18.78l-.27-.18h0c-5.73-4.49-10.79-3.79-14.29-2.13h-.08l-1.3.71c-10.39-7.45-19.1-1.73-19.1-1.73s11.15-2.89,16.88,3.34a10.21,10.21,0,0,0-1,1,11.47,11.47,0,0,0-8.36-4,17.58,17.58,0,0,0-4.51.25s6.11-.63,9.61,3.16a8.23,8.23,0,0,1,1.66,2.7,16,16,0,0,0-1.08,2.25,14.83,14.83,0,0,0-9.39-.46,20.61,20.61,0,0,0-14.54.13c-7.31,2.64-10.22,7.09-11.15,8.94-.1.2-.17.36-.23.49s-.15.36-.15.36,10-12.28,22.38-8.4c-.43.24-.83.48-1.22.73-4.5-1.88-9.17,0-11.5,1.24a14.74,14.74,0,0,0-1.5.9s5.59-3.71,10.05.15a19,19,0,0,0-2,2.14,25.51,25.51,0,0,1,2.25-1.59l.22-.13,3.81-2c3.6-1.59,8.23-2.69,12.42-.8-.22.78-.4,1.54-.53,2.25a24.2,24.2,0,0,0-.41,4.76s0-6.4,8-12.58h0c3.37-1.93,8.18-3,13.63.74a12,12,0,0,1,4.34,5.24c-4.89-5.63-12.71-1.93-12.71-1.93a18.63,18.63,0,0,1,4.79-.06c3.46.4,7.73,2,8.92,7.19a26.22,26.22,0,0,1-3.05,11.42s7.26-7,13.34-3.94c2.14,1.08,2.83,3.36,2.83,5.85a26.91,26.91,0,0,1-1.84,8.55c-.3.81-.52,1.31-.52,1.31,6.79,1.81,9.09,5,9.24,8.46a11.25,11.25,0,0,0-5-5.73c-6.68-4-13.42.37-13.42.37a14.91,14.91,0,0,1,11.74.21c6.46,2.79,4.84,11.76,4.84,11.78-.45.84-.94,1.62-1.42,2.34-.67,1-1.32,1.81-1.85,2.44-.27-.14-.55-.28-.83-.4-6.63-2.86-11.33-.75-13.46.67-1-.68-2-1.37-3.14-2.07.19-.53.39-1.2.58-2a21.57,21.57,0,0,0,.55-3.73c8.3-3.22,13.16.75,14.82,2.53a7.53,7.53,0,0,1,.65.78,7.33,7.33,0,0,0-2.32-3.69c-2.09-1.89-6-3.64-13.23-2.9a18,18,0,0,0-2.37-7.12,19.1,19.1,0,0,0-2-2.8,22.47,22.47,0,0,0-3-3c-.11-.1-.23-.19-.35-.28,5.34-4.94,9.45-4.16,11.73-2.93h0a7.33,7.33,0,0,1,2,1.55,8.08,8.08,0,0,0-7.76-3.52,15,15,0,0,0-6,2.13l-.3.18c-.57.34-1.15.72-1.75,1.15a20.16,20.16,0,0,0-8.28-2.86A9.11,9.11,0,0,0,140,52c3-5.67,7-7.06,10.51-6.92a16,16,0,0,1,7.4,2.39s-12.72-10.3-19.69,4.4a14.81,14.81,0,0,0-4.53.78c-2-2-6.32-5-14.15-5.25a22.79,22.79,0,0,0-17.85,7.67c-.46.52-.7.85-.7.85S107.31,49,119.54,49l1.18,0c6.81.21,10.7,2.2,12.71,3.75l-.47.18.56-.11a7.61,7.61,0,0,1,1.73,1.77,9.11,9.11,0,0,0-1.44-1.82,16.07,16.07,0,0,1,3.05-.18c.33,0,.67,0,1,.07l1.65.3a6.69,6.69,0,0,1,4.62,3.78,24.74,24.74,0,0,0-3,.2,30.66,30.66,0,0,0-9.69,3,19.64,19.64,0,0,0-3.35-1.71c-4-1.56-9.63-2.29-16.46,1a30.35,30.35,0,0,0-6.59-.68c-10.51,0-17,2.92-20.07,4.81a73.64,73.64,0,0,0-8.47.31,5.3,5.3,0,0,1-1.7-4.9,5.12,5.12,0,0,1,.9-2,1.33,1.33,0,0,0-.21.08A10.79,10.79,0,0,0,69,64.68c-.86.17-1.73.34-2.6.54h0c4.22-11.75,13.36-13,18.92-12.47a21.42,21.42,0,0,1,4.6.88A22.58,22.58,0,0,0,84.42,52a18.73,18.73,0,0,0-17,5c-5.78-3.6-11.15-1-14.17,1.3a17.08,17.08,0,0,0-2.53,2.27,19,19,0,0,1,4.09-2.33c3-1.26,7.21-2.08,11,.5a26.09,26.09,0,0,0-2.27,3.3c-.4.68-.79,1.4-1.16,2.16s-.67,1.44-1,2.21a104.44,104.44,0,0,0-14.09,4.73c-.2-.88-.35-1.73-.46-2.56C44.42,49.77,64,44.69,64,44.69s-.7.13-1.83.46c-5.56,1.6-21.71,8-18.15,27.51-.7.34-1.39.69-2.06,1-1.66-6.07-1.63-14.86,7.41-23.09,9.46-8.61,18-9,23.38-8a18,18,0,0,1,5.9,2.19,11.37,11.37,0,0,1,10.9-7.5c7.93,0,11.07,3.89,11.48,4.43l0,.06h0a8.86,8.86,0,0,0-1.26-1.74h0a12.54,12.54,0,0,0-1.47-1.37l0,0a13.88,13.88,0,0,0-8.85-2.86,15.22,15.22,0,0,0-9.25,3,15.45,15.45,0,0,0-2.6,2.43c-1.16-5.4-1.52-15.5,10.11-19.74,8.22-3,14.68.47,19.06,4.62a24,24,0,0,0-3.16-.59c-12-1.43-14.32,8.68-14.32,8.68a13.05,13.05,0,0,1,10.47-7.16c5.89-.45,9,1.51,10,2.39.14.18.27.36.41.53l.25.33c0-.09-.09-.17-.13-.25l-.1-.21h0l-.06-.12c-.51-1-1-2-1.57-3,7.8-10.34,18.42-5.58,18.42-5.58a12.8,12.8,0,0,0-4.24-1.4c-3.62-.58-9.15-.1-15,5.48l-.41-.76a16.36,16.36,0,0,1,8.42-5.61l4.5-.51h0a15.29,15.29,0,0,1,5,1s-.16-.1-.46-.25a16.75,16.75,0,0,0-5-1.59c-1.95-4.67,3.11-8.76,3.44-9h0l-.17,0a10.46,10.46,0,0,0-1.37.55,10.24,10.24,0,0,0-5.87,8.27,15.38,15.38,0,0,0-3,.55,13.6,13.6,0,0,0-1.73.59,18.89,18.89,0,0,0-5.33,3.32l-.17-.28h0q-.27-.33-.51-.66c-3-6.26.37-9.2,3-10.48a12.23,12.23,0,0,1,2.33-.83l.3-.07a13.43,13.43,0,0,0-2.32.33l-.25.06c-1.9.47-4.37,1.5-5.54,3.78.86-4.14,6.73-5.46,9.48-5.85a14.84,14.84,0,0,1,2.66-.06l3.16.54a14,14,0,0,0-3.19,7s2-9.6,11.68-8.29a10.92,10.92,0,0,1,4,1.33,8.2,8.2,0,0,0-3.13.44,12.43,12.43,0,0,0-4.77,3.12s6.66-4.41,11.54-.51A25.69,25.69,0,0,1,139,21.4a18,18,0,0,0,0-6,15.46,15.46,0,0,0-.66-2.43c12.13-1.72,19,4.73,21.26,7.44l-1.1,0c-6.18-7.78-15.05-6.15-16.89-5.71l-.35.09a17.66,17.66,0,0,1,15.34,5.7,15.56,15.56,0,0,0-7.49,2.72,10.65,10.65,0,0,0-1.9,1.68s4.74-3.68,13.16-2.73a13.18,13.18,0,0,1,7.06,3l-.06,0h.08a16.4,16.4,0,0,1,4.44,6,4.19,4.19,0,0,0-.12-.46,16.74,16.74,0,0,0-1.93-4.3,13.7,13.7,0,0,0-.87-1.22A13.64,13.64,0,0,1,180.83,33C183.31,37.91,180.31,45.15,178.93,48Zm9.19,8.24a22.77,22.77,0,0,0-2.57.85,22.26,22.26,0,0,0-3.88,2,13.52,13.52,0,0,0,0-7.43c.25-.6.53-1.33.82-2.16s.47-1.43.69-2.24C185.42,48.11,188.62,50.4,188.12,56.24Zm5.06,46.61a10.66,10.66,0,0,0-3.43-2.81c-.26-.14-.53-.28-.82-.41C183,97,178.6,97.88,176.31,98.76c0-2.88,0-5.12-.85-6.49a9.36,9.36,0,0,0-1.81-2c1.29-.9,3.72-1.9,7.49-.78,6.06,1.79,7.79,7.79,7.79,7.79l-.47-1.69a8,8,0,0,1,.47,1.69,19.13,19.13,0,0,0-1.4-5.06h0a14.18,14.18,0,0,0-6-7l.5-.43.44-.39c4.15-3.78,11.35-12.48,1.05-20.53.21-.24.43-.47.65-.69C195.1,71.3,187.63,82,187.63,82s9.87-8.71-2.13-19.92c4.89-3.6,10.91-2.38,10.91-2.38a7.81,7.81,0,0,0-1.76-.55c-2.38-.49-7-.55-12.44,3.8-.3-.2-.6-.4-.93-.6,4.1-2.47,10.41-5.34,15.39-3.44,8,3.08,13,16.38,7.58,28.42C199.56,97.75,193.93,101,193.18,102.85ZM206,130.25l-.51-.29c7.34-9.34,1.25-12.72,1.25-12.72s4.71,5.93-4.1,11.11l-.62.35a14.29,14.29,0,0,0-1.9-.28c-1.14-4.59-3.16-7.27-5.3-8.81a11,11,0,0,0-7.92-1.87c-.35.05-.55.1-.55.1s9.8.53,11,10.62l-.7.08c-1.48-8.47-6.86-8.7-6.86-8.7a9,9,0,0,1,1.49,1.5,5.17,5.17,0,0,1,1.12,5c0,.11-.08.22-.13.33a5.79,5.79,0,0,1-2.09,2.5,15.6,15.6,0,0,0-6.6-.4,19.68,19.68,0,0,0-1.43-1.86h0a38.31,38.31,0,0,1-4.63-11.17c4.82,3,8.54-4.8,5.22-3.54-2.27.86-4.64-.93-6.23-2.57-.08-.77-.13-1.52-.17-2.26s-.06-1.44-.07-2.14c0-1.45,0-2.81,0-4.09a16.5,16.5,0,0,1,4.45-1.06c9.27.16,11.88,7.47,12.61,11.56a16.89,16.89,0,0,1,.29,2.72s1-8.14-4-12.7C195.9,105,195,113.37,195,113.37a13.84,13.84,0,0,0-.59-8.45c4.2-3.35,7-3,8.37-2.37a3.5,3.5,0,0,1,1.1.75,3.58,3.58,0,0,0-4-2.55c1.8-.75,3.58-1,4.82.62,3.31,4.18-3.08,11.45-3.08,11.45a9.74,9.74,0,0,1,5.74,1.21,12.06,12.06,0,0,0-8.39,1c-.42.21-.66.36-.66.36s9-1.89,12,3.86c0,.18,0,.37.05.56A13,13,0,0,1,206,130.25Zm-6.88,41.27a13.5,13.5,0,0,0-1-1.6,23.82,23.82,0,0,0-1.74-2.1,31.77,31.77,0,0,0,1.64-9.68c-.05-12.76-10.59-15.77-10.59-15.77a14.49,14.49,0,0,1,2,1.63c3.18,3,8.54,10,4.06,20.87-1-1-1.89-1.89-2.68-2.66-1.21-1.19-2.18-2.1-3-2.78a6,6,0,0,0-2.83-1.62,13.4,13.4,0,0,0-3.81-8.8,3.09,3.09,0,0,0,1-1,7.28,7.28,0,0,0,.59-1,16.71,16.71,0,0,0,.7-1.73c5.8-.18,9.28,6.24,9.28,6.24a13.82,13.82,0,0,0-7-9.06c-.38-.2-.77-.39-1.2-.57.16-.5.32-1,.49-1.58a17.62,17.62,0,0,0,.62-2.87,12.6,12.6,0,0,0,0-3.58,11.75,11.75,0,0,0-.65-2.46c7.31-2.25,11.9,5.71,11.9,5.71a16.45,16.45,0,0,0-4.56-5.75,15.21,15.21,0,0,1,5.92,5.87,3.47,3.47,0,0,0-.11-.37,12.87,12.87,0,0,0-2.68-4.45,11.54,11.54,0,0,0-2.9-2.28,16.31,16.31,0,0,1,4.94-.25h0c3.75.41,8.24,2.32,11.87,8.08h0c2.52,4.09,4.75,9.86,3.38,16.4C210.37,165.46,201.45,170.39,199.07,171.52Zm-.55,31.2c-.11-.26-.21-.51-.32-.74,4.43-1.19,5.57-3.6,5.71-3.94l0,0a11.37,11.37,0,0,1-6.61,2.25,18.12,18.12,0,0,0-1.28-2q.66-2.26,1.42-5c2.75-10,3.66-15.15,2.66-19,.21-.09.55-.24,1-.46-.43,11.56,4.09,14.83,4.09,14.83l-.16-.33c-.78-1.64-4.15-9.23-2.27-15.45.39-.25.8-.52,1.23-.82a18.91,18.91,0,0,0-.53,6.65c.52,6.74,5.79,10,4.31,16.74C206.61,200.6,200.91,202.25,198.52,202.72Zm-9.06,29.72c-.1-.44-.17-.85-.22-1.24-.35-2.78.48-4,.48-4s-3.24,2.65-3.33,6.29l-2.56-4.74a30.63,30.63,0,0,0,.44-3.09c1.66-1.51,4.52-5.22,3.28-12.3,2.23-.53,3.64-1.55,5.33-5.59,4.55,7.87,2.92,13.91,1.22,17.18a14,14,0,0,1-1.36,2.14c-.3.38-.49.58-.49.58l.22-.2c1.46-1.4,9.29-9.79,1.56-22.78.19-.55.39-1.14.59-1.77C205.07,220,192.88,230.06,189.46,232.44Zm-16.21,25.28,12.87,16.1L168,255.93l12.4-.71-6.79-9.55.41-.54,8.69,11.49-5.31-8.42,4,5.15-5.73-10.72q.18-.28.36-.6l12.81,18.4-12.11-19.64c3.25-6,7.18-16.57,1.93-26.8l2,0a30.49,30.49,0,0,1-2.46,26.51,24.33,24.33,0,0,0,5.26-10.14l3.5,5.93a9.8,9.8,0,0,0,.47.9l1.22,2h0c4.26,6.88,13.54,21.8,13.54,21.8l-1.15.29-16.53-26.74,6.24,12-5.61-7.5,12.71,23-11.68,2.93,17.4,26.13-1.79-1.76-22.85-31.16Zm-29.62,28c1-.83,2-1.71,3-2.59,5.35-4.85,10.34-9.61,16.34-4.05-1.87,3.7-6.43,4.75-9.66,5a22.43,22.43,0,0,1-3.5,0s7,2.57,15.47-3a15.73,15.73,0,0,0,2.43,1.49A25.58,25.58,0,0,1,143.63,285.7Zm-56,2.49c.26-.22.53-.44.78-.68,4.63-4.29,10-3,14.31-.51a18.31,18.31,0,0,0,.86,3.64C96.14,294.17,90.26,290.49,87.58,288.19ZM46.29,263.63l1-1,.13-.12.93.12a22.85,22.85,0,0,1,2.72.57c8.91,2.41,11.36,9.14,11.36,9.14s-.72-7-9.26-10.47a23.28,23.28,0,0,0-3.8-1.2l12.08-11.4-7.94,9.65,18.26-17.75a20.42,20.42,0,0,1,3-.47,24.14,24.14,0,0,1,8,.75c1,.49,2,1,2.9,1.51-7.6-1.87-12.49.14-14.73,1.5a8.61,8.61,0,0,0-1.42,1,7.9,7.9,0,0,1,.76-.39c1.86-.85,7.06-2.64,14.54-.5-7-1.3-11.12,1.84-11.12,1.84A19.08,19.08,0,0,1,89.55,248a43.76,43.76,0,0,1,11.1,9.23,36,36,0,0,1,2.4,3,8.4,8.4,0,0,0-.91-3.51l-.11-.24.15.19c1.2,1.48,2.27,3,3.23,4.42-2,1.16-6.36,2.28-11.76-4-5.73-6.69-13.59-7.46-17.07-7.44a16,16,0,0,0-1.79.1,27.32,27.32,0,0,1,3.58.57,27.81,27.81,0,0,1,11.79,5.45,7.85,7.85,0,0,0-1.56,1.66c-3.17,4.49-1.13,11.29-1.13,11.29s-.92-6.64,2.17-10.15a6.07,6.07,0,0,1,1.93-1.47,17.6,17.6,0,0,1,1.69,2c4.1,5.83,10.68,6.12,14.43,5.72l.57,1c-5.55,2.49-11.29-.26-13.87-1.82a16.2,16.2,0,0,1-1.39-.94,16.45,16.45,0,0,0,8.63,5l-1.19,10.49,2.42-10.28a16.23,16.23,0,0,0,6.45-.46c3.68,7.27,5.14,12.54,8.26,11.76,1.48-.36,2.15-2.74,2.93-6.11.23-1,.47-2.06.75-3.2a27.65,27.65,0,0,1,3.35-3.21c.16.5.3,1,.42,1.49,2.45,10-3,19.37-5.43,23-.69,1-1.15,1.56-1.15,1.56s7.28-6.86,9.35-16.76a24.42,24.42,0,0,0,.07-9.91c-.09-.45-.2-.91-.32-1.37A18.38,18.38,0,0,1,142,263.15c.52.16.8.28.8.28a19,19,0,0,0-9.51-2.47,19.94,19.94,0,0,0,3.16-9.14,11.51,11.51,0,0,0-.36-3.65,32.63,32.63,0,0,1,3.08-1.49,17,17,0,0,1,.31,3.5,13.19,13.19,0,0,1-2.41,7.91s3-1.49,3.41-8.33a28.74,28.74,0,0,0,0-3.61,40.24,40.24,0,0,1,5.47-1.58c7.3-1.59,12.65-3.75,16.52-6.32-.1.33-.2.64-.31.94a15.13,15.13,0,0,1-5.42,7.08c-.47.32-.88.59-1.23.8a10.66,10.66,0,0,1-1.27.65l.25-.07h0s9.37-1.41,12.48-13.24c.41-.46.78-.93,1.13-1.41-1.56,11.54-13.73,18.09-13.73,18.09s16.16-3.63,16.52-24.05a26.41,26.41,0,0,0-.13-11.73,41.89,41.89,0,0,1,3.25,12.79,18.87,18.87,0,0,1-.06,4.36,26,26,0,0,0-.5-18.49l1.08,0c4.88,10.92.14,21.8-3.17,27.38a33.35,33.35,0,0,1-2.6,3.83l5.37,6.86-3.83.83-5,1.08-4.71,1,20,18.78-.07.07-20.11-17.51,17.79,19.18a10.2,10.2,0,0,1-2.6,1c-5.52,1.37-10.37-2.42-11.46-3.35l-.23-.21a11,11,0,0,0,.9,1,15.11,15.11,0,0,0,8,4.19,14.1,14.1,0,0,0,9.93-2.39l1,.92c-4.09,6.23-13.89,4.73-19.55-.93a17.81,17.81,0,0,0-7.22-4.29,25.22,25.22,0,0,0,.45-3.82,23.57,23.57,0,0,0-6.44-17.29A25.87,25.87,0,0,1,155,264a25.44,25.44,0,0,0-3.82-9.94s3,6.5,2.33,13.18a15.15,15.15,0,0,1-.2-1.86c-.39-8.06-6.63-13.35-6.63-13.35s.49.71,1.14,1.91c1.74,3.25,4.63,10.16,2.1,17-3.48,9.32-10.21,15.58-19.69,16.84a15,15,0,0,0-4,1.1c.36-.89.69-1.79,1-2.66,2.33-.16,10-1.17,15.57-7.31a18.12,18.12,0,0,0,4.6-14.33,10.42,10.42,0,0,0-.26-1.45c-1.21,18.75-15.08,20.59-19.17,20.72a52.14,52.14,0,0,0,1.33-5.91s-.11.32-.32.87c-1.44,3.78-7.51,18.5-14.31,18.5-4.19,0-7.16-4.8-8.69-8.08a35.82,35.82,0,0,1,5,4.76s-.34-.6-1-1.54c-2.24-3.41-8.07-11.33-14.23-11.78a7.09,7.09,0,0,0-2.57.28h0l-.07,0a4,4,0,0,0-.49.17c-13.87,4.83-22.86,2.82-27.49.8a15,15,0,0,1-3.77-2.24s1.57,4.45,8.2,6.32c3.63,1,8.78,1.28,16-.39-8.06,4.55-14.36,3.82-20.75,1.47C53.19,282.79,69.52,269.87,46.29,263.63Zm-10.23,9.65.5-.48,6.7-6.32c.75.22,1.67.51,2.69.9a26.76,26.76,0,0,1,3.42,1.56c1.54,5.23-2,7.1-2.07,7.13a10.93,10.93,0,0,1-3.1.15l-.42-.05h-.11l-.19,0a7.28,7.28,0,0,1-1.11-.25l.09.05c.61.37,4.57,2.38,13.38-.55a9.55,9.55,0,0,1,.51,1.7C51.84,278.33,38.86,281.16,36.06,273.28ZM46.3,228.46l3.41-4.9-9,19,11.73-18.68a35.68,35.68,0,0,0,2.74,2.79L41.47,246.22l9.71-10.57-5.6,8.92,11.21-12-3.87,5.52-3.45,3.86,13.79,2-1.36,1.29-7.32-1.52L37.45,267l14-11.78L33.26,272.46l12.21-21.68H32.32Zm-4.23-25.31a6.14,6.14,0,0,0,.62.54c-3.52,11.67,3.92,17.11,3.92,17.11s-5.29-7.5-1.81-15.9a8.26,8.26,0,0,0,1.7.46c-.62,3.2-.84,9.38,4.09,16.25l-2.88,2.64C45,222.28,37.15,215.28,42.07,203.15Zm-4.16-13.87,6.24-1.74c.49,1.53,1,3,1.63,4.52l-5.53,3.54A34.89,34.89,0,0,1,37.91,189.28ZM31,199.41l1,.28c-1.72,8.61,3.2,11.56,3.2,11.56a15.35,15.35,0,0,1,1.61-10.14l.93.27a23.91,23.91,0,0,0-.52,14.73C33.36,213.33,27.27,207.36,31,199.41Zm-6.54-44.52a30.92,30.92,0,0,1,4.09-3.19L30,163l-.21-11.2.68,7.78v-.16l.84-4.62a63.32,63.32,0,0,0,.52,11.73,48.27,48.27,0,0,1,2.79-18,4.34,4.34,0,0,1,.74-.14,88.34,88.34,0,0,0-2.48,17.44A70.8,70.8,0,0,0,34,184.21l-.57,2.49-1.18-11.92-.55,13.5-.4-17.92L30.11,187.1V172.65l-1.82,14.53.4-10s-2.67,9.38-1.35,13.11c1.07,3,7.62,4.51,10.06,5l.66,1.48c-2.87-.44-9.62-1.72-11.43-4.35-2.31-3.37,1.16-9.05.11-21.05S22,157.31,24.42,154.89ZM17.4,142c0-7.31,7.93-12.11,11-13.7.09.45.2.89.33,1.33-1.55.66-4.05,2.25-7.09,6.06-4.42,5.52-.87,12,.34,13.83.23.35.37.54.37.54s-3.47-7.43.24-12.32a11.25,11.25,0,0,1,7.55-4.6,28.6,28.6,0,0,0,4.47,6.36S30,132,31.4,124.79c1.66.9,6.32,3.9,6.58,9.38h0a11.68,11.68,0,0,0,1.9,5.59,10.53,10.53,0,0,0-2.29,2.87c-2.37.11-6.28,3-9.8,5.56-4.78-.58-4.55-8.29-4.55-8.29s-2.49,4,1.14,10.67l-.69.44a6.79,6.79,0,0,0-.76.52,7.63,7.63,0,0,0-1.84,2.17A19.12,19.12,0,0,1,17.4,142Z"/><path d="M201.88,79.32a21,21,0,0,0,.25-4.37c-1.12,11.16-8.54,15.92-8.54,15.92s10.58-10.58,6.17-25.5h0a26.33,26.33,0,0,0-2.09-3.89,14.72,14.72,0,0,1,4.79,4.89A17.58,17.58,0,0,1,205,75.85c0,12.9-10.25,20.57-11,21.12L194,97S200.3,88.79,201.88,79.32Z"/><path d="M73.65,212.84l0,1.76c2.34,1.93,4.55,3.57,6.43,4.89,3.44,2.4,5.79,3.71,5.79,3.71s-.55-.19-1.52-.58c-4.45-1.83-17.72-8-25.95-20.16-12.26-18.05-11-34.2-11-34.2s2.64,14.72,9.92,27.57L58,181.2l.84,17.05h0l.63-10.11,1.1,12.7.8,1.09a75.37,75.37,0,0,0,11.08,11.63l.29-1.9.84-5.52Z"/><path d="M82.23,281.34c1-2.7,2.59-9.15-1.13-14C76.29,261.14,68,261.3,68,261.3s8.84-2,14.36,4.89c4.8,6,2,12.33.31,15.05a13.17,13.17,0,0,1-.94,1.37S82,282.14,82.23,281.34Z"/><path d="M116.78,282.14c4.66,0,5.13-3.08,5.13-3.08a5.18,5.18,0,0,1-5.13,5.13c-5.21.48-8.13-10.58-8.13-10.58S112.12,282.14,116.78,282.14Z"/><path d="M210.48,146.68c-.9-6.1-5.19-10.37-8.5-12.82a25.86,25.86,0,0,0-4-2.49s11.84,3.71,13.82,15.23-8.29,19.58-8.29,19.58a30.12,30.12,0,0,0,2.5-3.3C208.35,159.29,211.45,153.19,210.48,146.68Z"/><path d="M150.3,60.9c5.68,3,7.72,8.48,8.45,11.65a16.54,16.54,0,0,1,.4,2.45s-2.43-10.14-10-13.47a19.17,19.17,0,0,0-14.05-.63l.28-.17A15.71,15.71,0,0,1,150.3,60.9Z"/><path d="M164.93,45.88a14.9,14.9,0,0,1-3.44,7.48,15.79,15.79,0,0,1-3.11,2.86s3.48-3.48,4.34-10.58-3.63-8.76-3.63-8.76a6,6,0,0,1,1.18.18C162.24,37.55,165.87,39.34,164.93,45.88Z"/><path d="M89.71,38.61a10.29,10.29,0,0,1,5.08.7,11.43,11.43,0,0,1,5,4.12,16.64,16.64,0,0,0-10.42-3.32c-6.63,0-10.26,6.48-10.26,6.48a8.86,8.86,0,0,1,2.24-4.24C82.91,40.69,85.47,39.07,89.71,38.61Z"/><path d="M115.83,45.24c10.35-1.57,16,3.24,16,3.24l.24.24a33.09,33.09,0,0,0-16-2.21c-9.12,1-15.55,7.65-15.55,7.65A23.63,23.63,0,0,1,115.83,45.24Z"/><path d="M80.08,38.06s-2.43-7.71,3.07-12.63a13.9,13.9,0,0,1,13.92-3.1l.06,0s-7.54-1.3-12.63,3.79a15.7,15.7,0,0,0-4.42,10.08A12.72,12.72,0,0,0,80.08,38.06Z"/><path d="M156.65,107.05a4,4,0,0,1,.69.36C156.85,107.18,156.58,107.05,156.65,107.05Z"/><path d="M207.72,150.71c.08-9.38-4.58-13.58-4.58-13.58s6.43,3.13,6.55,11.92c.18,12.59-8.36,15.71-8.36,15.71A18.25,18.25,0,0,0,207.72,150.71Z"/><path d="M131.25,163.73a44.14,44.14,0,0,0-.48-6.57l-.65,10.6-.55-13.34-.87,16.73-.23-19.65L127,167.84l-.16-20.76-1,15.15-.71-17.13-1.42,14.84-.06-19-.39-.39.39.21h0c2.08,1.21,12,7.88,10.93,25.21-1,17.11-21.05,20.11-21.05,20.11S131.25,179.73,131.25,163.73Z"/><path d="M106.57,215.2a29.35,29.35,0,0,1,13.53,2.21s-6-1.76-8.42-.16-6.53,1.74-9.9.53-9.36,1-9.36,1A36.68,36.68,0,0,1,106.57,215.2Z"/><path d="M95.15,205.15a10.78,10.78,0,0,1,6.11-2.37A13.42,13.42,0,0,0,95.47,206a15.34,15.34,0,0,0-3.42,5.06A9.53,9.53,0,0,1,95.15,205.15Z"/><path d="M69.63,282.4l-.24,0c-5.61-1.18-6.13-5.1-6.13-5.1a11.38,11.38,0,0,0,7.58,4.47,39.83,39.83,0,0,0,8.47.16L79,282A18.5,18.5,0,0,1,69.63,282.4Z"/><path d="M17.56,99.32c0,8.05,3.31,12.15,3.31,12.15s-4.74-3.15-4.74-11.92A11.73,11.73,0,0,1,23.4,88.27S17.56,91.27,17.56,99.32Z"/><path d="M58.4,73.16h0c.51-.18,1-.37,1.58-.55l0,0h0c8.64-2.92,21.9-5.87,36.48-3.58,25.37,4,41.05,25,41.05,25S119.26,75.43,96.31,71.22C83,68.77,69.46,71.08,60.45,73.45l7.13,15L58.83,73.89a83.15,83.15,0,0,0-9,3,64.08,64.08,0,0,1,8.61-3.74Z"/><path d="M113.39,218.63a8.56,8.56,0,0,1-5.53,3.16c-3.87.67-7.5-2.29-7.5-2.29S107.5,222.23,113.39,218.63Z"/></g><g id="_1" data-name="1"><path class="cls-2" d="M173.23,189.64c.64-1.78,1.21-3.6,1.69-5.45l1.78.66c-.57,1.86-1.16,3.7-1.76,5.5Z"/><path class="cls-2" d="M170.38,196.38c.8-1.62,1.52-3.28,2.18-5l1.77.73c-.63,1.83-1.27,3.6-1.91,5.25Z"/><path class="cls-2" d="M181.78,160.89a24,24,0,0,1-.15,2.53l-4.78-1.76q-.24-2.72-.69-5.38l5.53,3.38A9.89,9.89,0,0,1,181.78,160.89Z"/><path class="cls-2" d="M180.91,157l-5.22-3.19c-.19-.89-.39-1.78-.62-2.65A13.77,13.77,0,0,1,180.91,157Z"/><path class="cls-2" d="M181.39,165.35c-.17,1.22-.4,2.54-.68,3.94l-3.63-1c0-.3,0-.6,0-.91,0-1.21,0-2.42-.1-3.63Z"/><path class="cls-2" d="M175.38,182.34q.66-2.86,1.07-5.8l2.43.62c-.51,1.93-1,3.9-1.64,5.87Z"/><path class="cls-2" d="M176.69,174.64c.16-1.45.27-2.93.34-4.41l3.29.92c-.29,1.34-.62,2.74-1,4.18Z"/><path class="cls-2" d="M41.62,158.31c-.15,1.14-.28,2.29-.38,3.44l-5-.29c.11-1.59.25-3,.41-4.33Z"/><path class="cls-2" d="M42.46,153.54c-.21,1-.39,1.92-.55,2.89l-5-1.19c.19-1.24.4-2.34.63-3.33Z"/><path class="cls-2" d="M166.35,203.48c1.14-1.75,2.2-3.56,3.17-5.41l2.21,1.1c-.09.22-.18.45-.27.66a23.56,23.56,0,0,1-2.44,4.62Z"/><path class="cls-2" d="M41.11,163.64c-.07,1.23-.11,2.47-.11,3.72,0,.29,0,.57,0,.85l-5.08.26c0-1.85.1-3.55.18-5.12Z"/><path class="cls-2" d="M43.83,148.23c-.35,1.14-.66,2.29-.95,3.45L38,150.07a23.23,23.23,0,0,1,1.14-3.1Z"/><path class="cls-2" d="M36,176.77l5.58-.52c.17,1.28.38,2.55.63,3.8l-5.85,1C36.22,179.71,36.1,178.27,36,176.77Z"/><path class="cls-2" d="M45.9,142.38c-.54,1.33-1,2.68-1.5,4L40,145.25c.5-.84,1-1.53,1.43-2.2C42.88,141,44.7,141.59,45.9,142.38Z"/><path class="cls-2" d="M36.62,183l6-1c.29,1.28.61,2.56,1,3.81l-6.14,1.72C37.13,186.05,36.85,184.55,36.62,183Z"/><path class="cls-2" d="M35.9,172.15v-1.78l5.16-.26c.06,1.43.16,2.85.31,4.26l-5.43.5C35.91,174,35.9,173.08,35.9,172.15Z"/><path class="cls-2" d="M109,157.89a6.56,6.56,0,0,1-4.72-2,7.25,7.25,0,0,1,0-10,7,7,0,0,1,.82-.72l.54,6.16.08-6.58.15-.08.93,12,.39-12.53a6.44,6.44,0,0,1,1.81-.26,6.54,6.54,0,0,1,4.73,2,7.28,7.28,0,0,1,0,10A6.59,6.59,0,0,1,109,157.89Z"/><path class="cls-2" d="M47.16,201.73c-1.52.5-3.85-.91-6-4.47l5.37-3.43a67.09,67.09,0,0,0,3.1,6.17A5,5,0,0,1,47.16,201.73Z"/><path class="cls-2" d="M109.31,161.1a8.09,8.09,0,0,1,4.54,1.39l.09,10.45.74-8,.31,8.53.77-9.21a7.68,7.68,0,0,1,.47.65l.34,7.61.32-6.39a8.78,8.78,0,0,1,.76,3.57,8.67,8.67,0,0,1-2.46,6.1,8.15,8.15,0,0,1-11.75,0l.27-12.5A8.19,8.19,0,0,1,109.31,161.1Z"/><path class="cls-2" d="M103.32,175.69a8.77,8.77,0,0,1-.94-10.77Z"/><path class="cls-2" d="M162.43,208.87q1.48-1.85,2.83-3.78l2.52.92A7.82,7.82,0,0,1,162.43,208.87Z"/><path class="cls-2" d="M37.91,189.28l6.24-1.74c.49,1.53,1,3,1.63,4.52l-5.53,3.54A34.89,34.89,0,0,1,37.91,189.28Z"/><path class="cls-2" d="M147.57,62.11s8.44,2.7,9.26,16.8L159,80.24a14.12,14.12,0,0,0,.73-1.67c1.19-3.3,1.94-9.26-4.26-15.46-7.61-7.61-19.66-4.47-23.8-3.07h0a18.36,18.36,0,0,1,2,1.46c.52.45.8.75.8.75a24.22,24.22,0,0,0-3.66-1.9l-.55.21.45-.26-.23-.09c-3.87-1.59-9.94-3.07-15.37,0a21.3,21.3,0,0,1,4.85,2.59,17.15,17.15,0,0,1,4.73,5,24.28,24.28,0,0,0,6.2-.32c4-1,2.53.42,5.27,1.47s0-2.63,4.52.22c1.17.73,3.89,2.32,7.33,4.36C154.65,67.93,147.57,62.11,147.57,62.11ZM135.1,60.9l.28-.17a15.71,15.71,0,0,1,14.92.17c5.68,3,7.72,8.48,8.45,11.65a16.54,16.54,0,0,1,.4,2.45s-2.43-10.14-10-13.47A19.17,19.17,0,0,0,135.1,60.9Z"/><path class="cls-2" d="M112.92,69.59a72.69,72.69,0,0,0-26.55-6.22H86l.34-.14c4.2-1.75,11.57-4.08,19-2.89,8.63,1.38,12.66,5.54,14.1,7.46a10.61,10.61,0,0,0-1.51.16,23.62,23.62,0,0,0-13.85-6.47,22.63,22.63,0,0,0-7.27.27S110.57,61.67,112.92,69.59Z"/><path class="cls-2" d="M27.14,85.24a25.53,25.53,0,0,0-9.65,7c-7.59,12.05,3.25,21.84,3.25,21.84a21.62,21.62,0,0,1-5-4.7,16.31,16.31,0,0,1-2.62-4.81c-.21,12.39,11.07,20.07,15.11,22.42a11.46,11.46,0,0,1,.93-6,11.87,11.87,0,0,1,1.19-2c-1.29-1.57-2.7-3.29-4.22-5.18C20.27,106.49,19,95.42,27.14,85.24Zm-3.74,3s-5.84,3-5.84,11,3.31,12.15,3.31,12.15-4.74-3.15-4.74-11.92A11.73,11.73,0,0,1,23.4,88.27Z"/><path class="cls-2" d="M62.26,241.12l-4.66-.71,4.72-8.32a76.35,76.35,0,0,0,10.41,5.37h0C66.43,237.46,63.38,239.91,62.26,241.12Z"/><path class="cls-2" d="M206,130.25l-.51-.29c7.34-9.34,1.25-12.72,1.25-12.72s4.71,5.93-4.1,11.11c.8-6.44-4.72-8.24-7.82-8.74a11,11,0,0,0-7.92-1.87c-.35.05-.55.1-.55.1s9.8.53,11,10.62l-.7.08c-1.48-8.47-6.86-8.7-6.86-8.7a9,9,0,0,1,1.49,1.5,5.17,5.17,0,0,1,1.12,5c-1.67-6.76-10.92-6.27-10.92-6.27s6.95-4.06,5-10.58c-1.48-5-7.43-3.22-10.16-2.12,0-.73-.06-1.44-.07-2.14,0-1.45,0-2.81,0-4.09a16.5,16.5,0,0,1,4.45-1.06c9.27.16,11.88,7.47,12.61,11.56a16.89,16.89,0,0,1,.29,2.72s1-8.14-4-12.7C195.9,105,195,113.37,195,113.37a13.84,13.84,0,0,0-.59-8.45c4.2-3.35,7-3,8.37-2.37a3.5,3.5,0,0,1,1.1.75,3.58,3.58,0,0,0-4-2.55c1.8-.75,3.58-1,4.82.62,3.31,4.18-3.08,11.45-3.08,11.45a9.74,9.74,0,0,1,5.74,1.21,12.06,12.06,0,0,0-8.39,1c-.42.21-.66.36-.66.36s9-1.89,12,3.86c0,.18,0,.37.05.56A13,13,0,0,1,206,130.25Z"/><path class="cls-2" d="M185.55,57.09a8.63,8.63,0,0,0-3.09-7.62c.23-.68.47-1.43.69-2.24,2.27.88,5.47,3.17,5,9A22.77,22.77,0,0,0,185.55,57.09Z"/><path class="cls-2" d="M188.93,97.32l-.47-1.69A8,8,0,0,1,188.93,97.32Z"/><path class="cls-2" d="M71,244.47l3.85-3.76a24.14,24.14,0,0,1,8,.75c1,.49,2,1,2.9,1.51C78.13,241.1,73.24,243.11,71,244.47Z"/><path class="cls-2" d="M102.67,287a18.31,18.31,0,0,0,.86,3.64c-7.39,3.53-13.27-.15-16-2.45.26-.22.53-.44.78-.68C93,283.22,98.34,284.49,102.67,287Z"/><path class="cls-2" d="M186.39,233.49l-2.56-4.74a30.63,30.63,0,0,0,.44-3.09c1.66-1.51,4.52-5.22,3.28-12.3,2.23-.53,3.64-1.55,5.33-5.59,4.55,7.87,2.92,13.91,1.22,17.18a14,14,0,0,1-1.36,2.14c-.3.38-.49.58-.49.58l.22-.2c1.46-1.4,9.29-9.79,1.56-22.78.19-.55.39-1.14.59-1.77,10.45,17.06-1.74,27.14-5.16,29.52-.1-.44-.17-.85-.22-1.24-.35-2.78.48-4,.48-4S186.48,229.85,186.39,233.49Z"/><path class="cls-2" d="M162.94,279.06c-1.87,3.7-6.43,4.75-9.66,5a22.43,22.43,0,0,1-3.5,0s7,2.57,15.47-3a15.73,15.73,0,0,0,2.43,1.49,25.58,25.58,0,0,1-24.05,3.11c1-.83,2-1.71,3-2.59C152,278.26,156.94,273.5,162.94,279.06Z"/><path class="cls-2" d="M42.07,203.15a6.14,6.14,0,0,0,.62.54c-3.52,11.67,3.92,17.11,3.92,17.11s-5.29-7.5-1.81-15.9a8.26,8.26,0,0,0,1.7.46c-.62,3.2-.84,9.38,4.09,16.25l-2.88,2.64C45,222.28,37.15,215.28,42.07,203.15Z"/><path class="cls-2" d="M136.86,52.56c.33,0,.67,0,1,.07l1.65.3a6.69,6.69,0,0,1,4.62,3.78,24.74,24.74,0,0,0-3,.2,30.66,30.66,0,0,0-9.69,3,19.64,19.64,0,0,0-3.35-1.71c-8.62-8.89-20.86-2-20.86-2s-.7-.24-1.91-.52c5-5.79,15.09-6.69,15.42-6.72,6.81.21,10.7,2.2,12.71,3.75l-.47.18.56-.11a7.61,7.61,0,0,1,1.73,1.77,9.11,9.11,0,0,0-1.44-1.82A16.07,16.07,0,0,1,136.86,52.56Z"/><path class="cls-2" d="M183.09,82.65c-.67,1-1.32,1.81-1.85,2.44-.27-.14-.55-.28-.83-.4-6.63-2.86-11.33-.75-13.46.67-1-.68-2-1.37-3.14-2.07.19-.53.39-1.2.58-2a21.57,21.57,0,0,0,.55-3.73c8.3-3.22,13.16.75,14.82,2.53a7.53,7.53,0,0,1,.65.78,7.33,7.33,0,0,0-2.32-3.69,11.56,11.56,0,0,0-9.39-5.94c4.06-1.15,9.5-1.94,12.76.68C185.32,75.05,184.2,79.87,183.09,82.65Z"/><path class="cls-2" d="M32,199.69c-1.72,8.61,3.2,11.56,3.2,11.56a15.35,15.35,0,0,1,1.61-10.14l.93.27a23.91,23.91,0,0,0-.52,14.73c-3.82-2.78-9.91-8.75-6.22-16.7Z"/><path class="cls-2" d="M156.3,195c.57-1.56,1.07-3.17,1.52-4.82L157,204.31Z"/><path class="cls-2" d="M134.75,119.75a113.47,113.47,0,0,1,15.05,6.86l1.56,7.76v-5.16l3.58,14.31,0-.31h0l-.38-13.88.14.09,1.74,19C152.49,137.12,145.46,126.81,134.75,119.75Z"/><path class="cls-2" d="M109.05,229.57c-1.33,0-2.64,0-4-.13A63.9,63.9,0,0,1,90.83,227l-.09-1.15A33.11,33.11,0,0,0,94.66,227c4.1,1,7.79,1.78,11.1,2.34a54.77,54.77,0,0,0,8.11-1.66,50.33,50.33,0,0,0,14-2.41c14.05-4.81,21.47-11.76,21.47-11.76a70,70,0,0,1-22.1,10.26c-1.54.43-3.14.8-4.77,1.11v-.12a135.85,135.85,0,0,0,17.8-8.68,34.16,34.16,0,0,0,12.17-12.82l-.71,10A63.64,63.64,0,0,1,109.05,229.57Z"/><path class="cls-2" d="M156.41,134.89l2.1,18.63V138.58l1.27,20.63.63-16.74,1.05,19.47.63-16.21,1.06,17.9.72-14.87a78,78,0,0,1,0,40s7.87-12.49,4.52-34A68.51,68.51,0,0,1,170,177.84s3.27-17.34-2.44-34.29A61.33,61.33,0,0,1,158.69,206l-.85-15.88a72.84,72.84,0,0,0-1.43-41.6Z"/><path class="cls-2" d="M153.83,211.33l0,0-.4-9.74c.76-1.46,1.47-3,2.11-4.56l-.24,12.8C154.79,210.37,154.31,210.86,153.83,211.33Z"/><path class="cls-2" d="M171.24,208.81c.22-.44.43-.89.65-1.37,7.65,2.79,12.38.1,12.38.1a19.39,19.39,0,0,1-5.53-.13l1-9.46L178,207.23a8.89,8.89,0,0,1-1.45-.51l2.84-14.89L176,203.57l2.89-13.16-3.79,12.69,3.1-11.62L176,196.77c1.12-3.28,2.27-6.91,3.48-10.83,2.62-8.53,4.84-16.24,5.43-22.63a2.6,2.6,0,0,1,.64-.14l-2.12,16.35,4.06-16,.31.17L186.05,172l2.29-7.89a27.11,27.11,0,0,1,4.72,4.86c-8.13,6.91-9.06,15.15-9.06,15.15s3.63-9.88,9.84-14.15c.18.22.34.44.51.66-15.43,10.75-10.68,34.33-10.68,34.33S183,179.88,196,172.84c.61.86,1,1.42,1,1.42s-5.37,2.21-8.63,14.42-2,20.84-2,20.84,0,1.47-5,1.47C178,211,173.63,209.65,171.24,208.81Z"/><path class="cls-2" d="M116.71,212a26.78,26.78,0,0,0-4.94-.77l-.23-3.88a12,12,0,0,1,4.51,3.83C116.26,211.43,116.48,211.71,116.71,212Z"/><path class="cls-2" d="M181.46,138.75c-1.41,6.84-4.77,8.19-11-1.45l-.72-1.28,6.33,6.32-6.16-9,6.71,8-6.32-10.1,7.74,9.79L170.62,130l8.13,9.47-6.95-10.18L180,139.58l-6.87-11.37,6.71,9.39a43.4,43.4,0,0,0-5.36-9.55c-3.29-4.38-8.54-7.58-12.94-7.31-.59-1.13-1.2-2.31-1.82-3.52,1.17,0,2.8-.07,4.28,0a20.26,20.26,0,0,1,5.5,2.28c3.69,2.18,9.94,7.33,11.76,13.26-7.88-14.1-19.18-13.69-19.18-13.69S174.85,120.71,181.46,138.75Z"/><path class="cls-2" d="M175,121l-.87-.54a56.29,56.29,0,0,1-1.79-13.17c0-7.48,1.4-12.34-5.47-17.24-1.55-1.1-3.39-2.33-5.32-3.57-1.23-.81-2.51-1.62-3.8-2.4-5.44-3.36-10.46-6.26-10.46-6.26l2.92,2.06C145,77.23,141,75.42,141,75.42s9.05,16.38,9.26,21.9a24,24,0,0,1-.07,3.46A99,99,0,0,0,127.63,78l3.36-.62-4.42-.91,4.42-.43-6.16-.43,5.81-.79-6.87-.67,7-.48-8-.51,7.7-.91h-8.21l8.37-1.3-8.65.31,7.66-1-8.76.25a6,6,0,0,1,3.15-.67c1.36,0,2.5,0,3.47-.08h0l1.39-.06c1.21.07,2.76.53,2.76,2.41a12.59,12.59,0,0,0,2,6,7.29,7.29,0,0,1,.57-7.42l.2.16a3.9,3.9,0,0,0,1,.59c-1.2,2.17-.52,5.94-.52,5.94s.73-6.21,5.3-5.44h0a5.55,5.55,0,0,1,1.8.81c2.95,2,25.47,15.55,28.94,19s2.92,9.31,2.92,16.26a45.41,45.41,0,0,0,1.87,13.44Z"/><path class="cls-2" d="M98.62,209.35l.31,3c-1.58.34-3,.7-4.27,1.05.3-.31.6-.65.89-1A17.82,17.82,0,0,1,98.62,209.35Z"/><path class="cls-2" d="M99.72,212.16l-.22-3.44a15.25,15.25,0,0,1,3.55-1.76l0,4.63C101.93,211.75,100.8,212,99.72,212.16Z"/><path class="cls-2" d="M104.82,210l.11-3.5a11.22,11.22,0,0,1,2.38-.17v4.88c-1.16.06-2.3.17-3.42.3v-4.77l.29-.08.37,4.07v-3.87Z"/><path class="cls-2" d="M111,211.15c-.91,0-1.82,0-2.73,0l-.18-4.8a10.52,10.52,0,0,1,2.74.65Z"/><path class="cls-2" d="M120,247.09l8.57-12.47-5.6,9.08,8.77-9.47C128.85,239.58,123.76,244.17,120,247.09Z"/><path class="cls-2" d="M82.31,237.43c4.85,1.47,8.53,2.32,8.53,2.32S85.46,235,85.07,230c.7.26,1.39.51,2.1.75a35.16,35.16,0,0,0,24.82,18S98,243,92.4,232.28q2.67.66,5.42,1.11l8.38,11.49-4.1-9.79,6.16,10.26-3.16-9.78,4.58,10.89-2.29-11.37,3.87,11.37L110.07,236l2.53,12.31L113.7,237v10.89l3.16-11.37L114.26,249l6.07-13-3.55,10.5,6.79-11-5.92,11.76L126.33,235,120,247.09a56.43,56.43,0,0,1-4.82,3.37s18.56-7.1,25.23-23.67c.52-.26,1-.54,1.55-.82a13.08,13.08,0,0,1-.79,6.17l0,0,0,0c-2.88,7.7-11.81,12.65-11.81,12.65s2.52-.14,6.1-.51c-8.22,3.9-13,9.16-15.74,14l1.13-5.67-4.19,10,1.19-9.71-2.69,9-1.57-8.37v7.58L108.89,252l3.16,9.86-5.77-10.73,3.34,8.05C104.68,252.16,96.24,243.54,82.31,237.43Z"/><path class="cls-2" d="M94.46,184.79l.59-16.22.76,17.07a26.86,26.86,0,0,0,32.74-4.39,27.82,27.82,0,0,0,0-39,26.87,26.87,0,0,0-38.38,0c-.57.57-1.11,1.18-1.62,1.8l-.74,19.19L87.1,148.5l-1.1,20-.08-17.61-1,17.29V152.6l-1,14.45-.53-13.44c-.11.39-.22.78-.32,1.17l-.64,10.64a27.65,27.65,0,0,0,7.72,15.83c.43.43.87.85,1.32,1.25l.93-17,.35,18C93.32,184,93.88,184.41,94.46,184.79Zm19,1.26s17.78-6.32,17.78-22.32a44.14,44.14,0,0,0-.48-6.57l-.65,10.6-.55-13.34-.87,16.73-.23-19.65L127,167.84l-.16-20.76-1,15.15-.71-17.13-1.42,14.84-.06-19-.39-.39.39.21h0c2.08,1.21,12,7.88,10.93,25.21C133.49,183.05,113.47,186.05,113.47,186.05ZM97.81,169.7a11.83,11.83,0,0,1,5.9-10.27,10,10,0,0,1-1.66-1.39,10.42,10.42,0,0,1,0-14.36,9.66,9.66,0,0,1,14,0A10.42,10.42,0,0,1,116,158a10.44,10.44,0,0,1-1.43,1.23,11.79,11.79,0,0,1,6.19,10.43,11.64,11.64,0,0,1-11.49,11.77,11.44,11.44,0,0,1-3.77-.66l-.28,5.34-.81-5.78A11.82,11.82,0,0,1,97.81,169.7Z"/><path class="cls-2" d="M46.3,228.46l3.41-4.9-9,19,11.73-18.68a35.68,35.68,0,0,0,2.74,2.79L41.47,246.22l9.71-10.57-5.6,8.92,11.21-12-3.87,5.52-3.45,3.86,13.79,2-1.36,1.29-7.32-1.52L37.45,267l14-11.78L33.26,272.46l12.21-21.68H32.32Z"/><path class="cls-2" d="M168,255.93l12.4-.71-6.79-9.55.41-.54,8.69,11.49-5.31-8.42,4,5.15-5.73-10.72q.18-.28.36-.6l12.81,18.4-12.11-19.64c3.25-6,7.18-16.57,1.93-26.8l2,0a30.49,30.49,0,0,1-2.46,26.51,24.33,24.33,0,0,0,5.26-10.14l3.5,5.93a9.8,9.8,0,0,0,.47.9l1.22,2h0c4.26,6.88,13.54,21.8,13.54,21.8l-1.15.29-16.53-26.74,6.24,12-5.61-7.5,12.71,23-11.68,2.93,17.4,26.13-1.79-1.76-22.85-31.16-5.68-.42,12.87,16.1Z"/><path class="cls-2" d="M27.37,110.37c6.53,8,13.22,15.09,15.07,17a18.17,18.17,0,0,1,.88-1.63c-9.32-9.4-16.84-18.7-16.84-24.09s4.81-12.16,4.81-12.16S26.63,98,31.45,106a45,45,0,0,0,6.42,8,43.11,43.11,0,0,1-7.13-14.56s5,13.26,16.79,21.1l-.24.36c-.15.22-.35.54-.57.94h0c-1.14,2-3,6-1.76,9.39.26-.62.54-1.27.87-2,4.65-9.78,14.21-15.7,14.21-15.7s-9.12,7.9-12.37,15.65a40.14,40.14,0,0,1,15.46-15.59l-6.88-12,7.87,11.42A40.18,40.18,0,0,1,71.23,110a40.46,40.46,0,0,0-6.83,3.66l-.94.62c-6.1,4.19-13.9,11.65-16.09,23.33.72-.61,2-12.05,15.5-20.66,13.89-8.84,42.91-10.23,64.07-3.08q3.27,1.11,6.25,2.18c-12.87-9.25-40.35-10.18-40.35-10.18s31-3.06,54.95,15.71l4.76,1.85c-12.47-10.65-26.63-15.7-38.47-18l-5.62-.83A104,104,0,0,0,72,108.78s8.92-3.79,10.89-17S62.35,74.05,62.35,74.05a67.13,67.13,0,0,1,36.58-.61,74.8,74.8,0,0,1,28,13.77,81.77,81.77,0,0,1,18.93,21l-4.7-10.74,8.56,16.18-5.53-13.15,9.32,17.14q1.78,1.29,3.55,2.72a98.13,98.13,0,0,0-30-39.07C94.35,56,56.84,70.16,42.53,76.9a30.82,30.82,0,0,0-3.65,2l6.78,12.15L38.32,81,49,99.24,36,81C25.87,89.08,20.94,102.53,27.37,110.37ZM49.79,76.9a64.08,64.08,0,0,1,8.61-3.74h0c.51-.18,1-.37,1.58-.55l0,0h0c8.64-2.92,21.9-5.87,36.48-3.58,25.37,4,41.05,25,41.05,25S119.26,75.43,96.31,71.22C83,68.77,69.46,71.08,60.45,73.45l7.13,15L58.83,73.89A83.15,83.15,0,0,0,49.79,76.9Z"/><path class="cls-2" d="M24.42,154.89a30.92,30.92,0,0,1,4.09-3.19L30,163l-.21-11.2.68,7.78v-.16l.84-4.62a63.32,63.32,0,0,0,.52,11.73,48.27,48.27,0,0,1,2.79-18,4.34,4.34,0,0,1,.74-.14,88.34,88.34,0,0,0-2.48,17.44A70.8,70.8,0,0,0,34,184.21l-.57,2.49-1.18-11.92-.55,13.5-.4-17.92L30.11,187.1V172.65l-1.82,14.53.4-10s-2.67,9.38-1.35,13.11c1.07,3,7.62,4.51,10.06,5l.66,1.48c-2.87-.44-9.62-1.72-11.43-4.35-2.31-3.37,1.16-9.05.11-21.05S22,157.31,24.42,154.89Z"/><path class="cls-2" d="M83.47,12.56l.1-.05c.84-.41,7.06-3.27,13.08.06C84.54,10,79.09,19,77.63,22l-.89-.25c-.48-.13-1-.25-1.53-.35C76.35,18.25,79.7,11,86.94,8.91a16.28,16.28,0,0,1,13.84,2.19,7.59,7.59,0,0,0-.44.79C89.8,6,83.47,12.56,83.47,12.56Z"/><path class="cls-2" d="M76,27.65a15.65,15.65,0,0,0-12.18-.46A16.45,16.45,0,0,0,59,29.93s7.09-3.73,13.48-1.4c-8.4-.06-14.18,8.73-14.91,9.89a15.55,15.55,0,0,0-2.17,1.33l-.27.21.27-.13c1.67-.72,10.75-4.29,19.36-.62a10.57,10.57,0,0,0,.66,1.69S66.73,36.59,55.94,42a29.49,29.49,0,0,0-2.78,1.58c-.19-2.14-.62-12,6.94-17.2,6.59-4.56,14.05-1.89,17.11-.44A14.7,14.7,0,0,0,76,27.65Z"/><path class="cls-2" d="M24.35,75.45c0,.17,0,.26,0,.26S27.41,66,34.25,64.57c-9,4.86-8.93,14.69-8.61,18.08-.42.21-.85.43-1.28.67-.8.43-1.6.89-2.39,1.4-.6-3.09-1.44-10.21,1.93-15.82,3.59-6,9.9-7.74,12.13-8.18.07.4.15.79.23,1.17C25.08,63.07,24.38,73.63,24.35,75.45Z"/><path class="cls-2" d="M39.85,52.59c0,.3,0,.47,0,.47s1-8.85,9.37-9.67c-.09,1.33-.11,2.45-.1,3.26q-1,.85-2,1.83A32.44,32.44,0,0,0,40.05,58.8a28.1,28.1,0,0,0-1.57,4.85c-1.3-5-3.38-18.61,10.93-22.49,0,.32-.07.64-.1.94C40.84,43.35,39.94,50.67,39.85,52.59Z"/><path class="cls-2" d="M178.2,47.53l0,0c4.93-16.23-6-20.34-6-20.34a6.47,6.47,0,0,1,1.23.84c2.24,1.85,6.47,7.08,3.42,18.86a9.39,9.39,0,0,0-9.15,1.29s6-11.52-4.9-18.78l-.27-.18h0c-5.73-4.49-10.79-3.79-14.29-2.13h-.08l-1.3.71c-10.39-7.45-19.1-1.73-19.1-1.73s11.15-2.89,16.88,3.34a10.21,10.21,0,0,0-1,1,11.47,11.47,0,0,0-8.36-4,17.58,17.58,0,0,0-4.51.25s6.11-.63,9.61,3.16c-11.71-5.68-18.08.81-18.08.81a14.62,14.62,0,0,0-8.64,2,17.41,17.41,0,0,0-3.22-2.53l-.1-.21h0l-.06-.12c-.51-1-1-2-1.57-3,7.8-10.34,18.42-5.58,18.42-5.58a12.8,12.8,0,0,0-4.24-1.4c-3.62-.58-9.15-.1-15,5.48l-.41-.76a16.36,16.36,0,0,1,8.42-5.61l4.5-.51h0a15.29,15.29,0,0,1,5,1s-.16-.1-.46-.25a16.75,16.75,0,0,0-5-1.59c-1.95-4.67,3.11-8.76,3.44-9h0l-.17,0a10.46,10.46,0,0,0-1.37.55,10.24,10.24,0,0,0-5.87,8.27,15.38,15.38,0,0,0-3,.55,13.6,13.6,0,0,0-1.73.59c-4.36-3.46-3.55-6.75-2.93-8.09a12.23,12.23,0,0,1,2.33-.83l.3-.07a13.43,13.43,0,0,0-2.32.33l0-.06-.29.12c-1.9.47-4.37,1.5-5.54,3.78.86-4.14,6.73-5.46,9.48-5.85a14.84,14.84,0,0,1,2.66-.06l3.16.54a14,14,0,0,0-3.19,7s2-9.6,11.68-8.29a10.92,10.92,0,0,1,4,1.33,8.2,8.2,0,0,0-3.13.44,12.43,12.43,0,0,0-4.77,3.12s6.66-4.41,11.54-.51A25.69,25.69,0,0,1,139,21.4a18,18,0,0,0,0-6,15.46,15.46,0,0,0-.66-2.43c12.13-1.72,19,4.73,21.26,7.44l-1.1,0c-6.18-7.78-15.05-6.15-16.89-5.71l-.35.09a17.66,17.66,0,0,1,15.34,5.7,15.56,15.56,0,0,0-7.49,2.72,10.65,10.65,0,0,0-1.9,1.68s4.74-3.68,13.16-2.73a13.18,13.18,0,0,1,7.06,3l-.06,0h.08a16.4,16.4,0,0,1,4.44,6,4.19,4.19,0,0,0-.12-.46,16.74,16.74,0,0,0-1.93-4.3,13.7,13.7,0,0,0-.87-1.22A13.64,13.64,0,0,1,180.83,33c2.48,4.9-.52,12.14-1.9,15C178.7,47.84,178.46,47.68,178.2,47.53Z"/><path class="cls-2" d="M163.28,53.45A26.22,26.22,0,0,0,166.33,42c-1.19-5.2-5.46-6.79-8.92-7.19a18.63,18.63,0,0,0-4.79.06s7.82-3.7,12.71,1.93A12,12,0,0,0,161,31.59c-5.45-3.77-10.26-2.67-13.63-.74h0c-8,6.18-8,12.58-8,12.58a24.2,24.2,0,0,1,.41-4.76c.13-.71.31-1.47.53-2.25-4.19-1.89-8.82-.79-12.42.8l-3.81,2-.22.13A25.51,25.51,0,0,0,121.6,41a19,19,0,0,1,2-2.14c-4.46-3.86-10.05-.15-10.05-.15a14.74,14.74,0,0,1,1.5-.9c2.33-1.24,7-3.12,11.5-1.24.39-.25.79-.49,1.22-.73-12.34-3.88-22.38,8.4-22.38,8.4s0-.13.15-.36.13-.29.23-.49c0-.66.09-4.45,5-8.77-2-5-9.76-6.22-9.76-6.22A12.14,12.14,0,0,1,110.23,30c-.14-.17-.27-.35-.41-.53-1.07-.88-4.15-2.84-10-2.39a13.05,13.05,0,0,0-10.47,7.16s2.27-10.11,14.32-8.68a24,24,0,0,1,3.16.59C102.41,22,96,18.57,87.73,21.56,76.1,25.8,76.46,35.9,77.62,41.3a15.45,15.45,0,0,1,2.6-2.43,15.22,15.22,0,0,1,9.25-3,13.88,13.88,0,0,1,8.85,2.86l0,0a12.54,12.54,0,0,1,1.47,1.37h0a8.86,8.86,0,0,1,1.26,1.74h0l0-.06c-.41-.54-3.55-4.43-11.48-4.43a11.37,11.37,0,0,0-10.9,7.5,18,18,0,0,0-5.9-2.19c-5.38-1.09-13.92-.66-23.38,8-9,8.23-9.07,17-7.41,23.09.67-.35,1.36-.7,2.06-1-3.56-19.5,12.59-25.91,18.15-27.51,1.13-.33,1.83-.46,1.83-.46s-19.58,5.08-17.1,23.9c2.32-1.91,8.07-5.77,15.54-4.38.37-.76.76-1.48,1.16-2.16a26.09,26.09,0,0,1,2.27-3.3c-3.83-2.58-8-1.76-11-.5a19,19,0,0,0-4.09,2.33,17.08,17.08,0,0,1,2.53-2.27s1.42-3.84,6.63-5.38,8.21,0,8.21,0,8.73-6.49,16.31-.93a22.58,22.58,0,0,1,5.47,1.64,21.42,21.42,0,0,0-4.6-.88c-5.56-.48-14.7.72-18.92,12.47h0c.87-.2,1.74-.37,2.6-.54a10.79,10.79,0,0,1,6.45-7.91,1.33,1.33,0,0,1,.21-.08,5.12,5.12,0,0,0-.9,2A7.57,7.57,0,0,0,78.65,62a27,27,0,0,1,9.41-5.59,28.82,28.82,0,0,1,13.63-1.39,22.79,22.79,0,0,1,17.85-7.67c7.83.3,12.11,3.23,14.15,5.25a14.81,14.81,0,0,1,4.53-.78c7-14.7,19.69-4.4,19.69-4.4a16,16,0,0,0-7.4-2.39,14.77,14.77,0,0,1,7.24,4.49s-5.45-1.64-9.39,5.19a10,10,0,0,1,8.45,3.82l.3-.18a15,15,0,0,1,6-2.13,8.08,8.08,0,0,1,7.76,3.52,7.33,7.33,0,0,0-2-1.55h0c-2.28-1.23-6.39-2-11.73,2.93.12.09.24.18.35.28a22.47,22.47,0,0,1,3,3,19.1,19.1,0,0,1,2,2.8c2.19-1.1,8.83-4,15.12-3.28a26.91,26.91,0,0,0,1.84-8.55c0-2.49-.69-4.77-2.83-5.85C170.54,46.43,163.28,53.45,163.28,53.45ZM84.5,26.14a15.7,15.7,0,0,0-4.42,10.08,12.72,12.72,0,0,0,0,1.84s-2.43-7.71,3.07-12.63a13.9,13.9,0,0,1,13.92-3.1l.06,0S89.59,21.05,84.5,26.14ZM94.79,39.31a11.43,11.43,0,0,1,5,4.12,16.64,16.64,0,0,0-10.42-3.32c-6.63,0-10.26,6.48-10.26,6.48a8.86,8.86,0,0,1,2.24-4.24c1.54-1.66,4.1-3.28,8.34-3.74A10.29,10.29,0,0,1,94.79,39.31Zm37.07,9.17.24.24a33.09,33.09,0,0,0-16-2.21c-9.12,1-15.55,7.65-15.55,7.65a23.63,23.63,0,0,1,15.31-8.92C126.18,43.67,131.86,48.48,131.86,48.48Zm29.63,4.88a15.79,15.79,0,0,1-3.11,2.86s3.48-3.48,4.34-10.58-3.63-8.76-3.63-8.76a6,6,0,0,1,1.18.18c2,.49,5.6,2.28,4.66,8.82A14.9,14.9,0,0,1,161.49,53.36Z"/><path class="cls-2" d="M204.25,87.32c5.4-12,.45-25.34-7.58-28.42-5-1.9-11.29,1-15.39,3.44.33.2.63.4.93.6,5.49-4.35,10.06-4.29,12.44-3.8a7.81,7.81,0,0,1,1.76.55s-6-1.22-10.91,2.38c12,11.21,2.13,19.92,2.13,19.92s7.47-10.69-3.46-18.78c-.22.22-.44.45-.65.69,10.3,8.05,3.1,16.75-1.05,20.53l-.44.4h0l-.5.43a14.18,14.18,0,0,1,6,7h0a19.13,19.13,0,0,1,1.4,5.06s-1.73-6-7.79-7.79c-3.77-1.12-6.2-.12-7.49.78a9.36,9.36,0,0,1,1.81,2c.81,1.37.89,3.61.85,6.49,2.29-.88,6.71-1.76,12.62.87.29.13.56.27.82.41a10.66,10.66,0,0,1,3.43,2.81C193.93,101,199.56,97.75,204.25,87.32ZM205,75.85c0,12.9-10.25,20.57-11,21.12L194,97s6.32-8.21,7.9-17.68a21,21,0,0,0,.25-4.37c-1.12,11.16-8.54,15.92-8.54,15.92s10.58-10.58,6.17-25.5h0a26.33,26.33,0,0,0-2.09-3.89,14.72,14.72,0,0,1,4.79,4.89A17.58,17.58,0,0,1,205,75.85Z"/><path class="cls-2" d="M212.69,154.34c1.37-6.54-.86-12.31-3.38-16.4h0c-3.63-5.76-8.12-7.67-11.87-8.08h0a16.31,16.31,0,0,0-4.94.25,11.54,11.54,0,0,1,2.9,2.28,12.87,12.87,0,0,1,2.68,4.45,3.47,3.47,0,0,1,.11.37,15.21,15.21,0,0,0-5.92-5.87,16.45,16.45,0,0,1,4.56,5.75s-4.59-8-11.9-5.71a11.75,11.75,0,0,1,.65,2.46,12.6,12.6,0,0,1,0,3.58c13.92,2.71,13,16.51,12.33,20.72a31.77,31.77,0,0,1-1.64,9.68,23.82,23.82,0,0,1,1.74,2.1,13.5,13.5,0,0,1,1,1.6C201.45,170.39,210.37,165.46,212.69,154.34Zm-5-3.63c.08-9.38-4.58-13.58-4.58-13.58s6.43,3.13,6.55,11.92c.18,12.59-8.36,15.71-8.36,15.71A18.25,18.25,0,0,0,207.72,150.71Zm-4.26,15.47a30.12,30.12,0,0,0,2.5-3.3c2.39-3.59,5.49-9.69,4.52-16.2-.9-6.1-5.19-10.37-8.5-12.82a25.86,25.86,0,0,0-4-2.49s11.84,3.71,13.82,15.23S203.46,166.18,203.46,166.18Z"/><path class="cls-2" d="M185.7,142.44a14.62,14.62,0,0,1,3.68,1.56c3.18,3,8.54,10,4.06,20.87-1-1-1.89-1.89-2.68-2.66-1.21-1.19-2.18-2.1-3-2.78.58-6-3.63-9.89-5.63-11.39a7.28,7.28,0,0,0,.59-1,16.71,16.71,0,0,0,.7-1.73c5.8-.18,9.28,6.24,9.28,6.24A13.82,13.82,0,0,0,185.7,142.44Z"/><path class="cls-2" d="M15.88,120c.24.3.49.59.73.87-6.55,4.76-4.86,12.73-4.32,14.69.08.29.13.44.13.44s-1.23-9.55,6.3-12.88a37.13,37.13,0,0,0,5.39,4.44s-9.44,3.45-9.92,13.86c0,.19,0,.37,0,.56C11.07,138,4.79,127.54,15.88,120Z"/><path class="cls-2" d="M28.42,128.32c.09.45.2.89.33,1.33-1.55.66-4.05,2.25-7.09,6.06-4.42,5.52-.87,12,.34,13.83.23.35.37.54.37.54s-3.47-7.43.24-12.32a11.25,11.25,0,0,1,7.55-4.6,28.6,28.6,0,0,0,4.47,6.36S30,132,31.4,124.79c1.66.9,6.32,3.9,6.58,9.38h0a11.68,11.68,0,0,0,1.9,5.59,10.53,10.53,0,0,0-2.29,2.87c-2.37.11-6.28,3-9.8,5.56-4.78-.58-4.55-8.29-4.55-8.29s-2.49,4,1.14,10.67l-.69.44a6.79,6.79,0,0,0-.76.52,7.63,7.63,0,0,0-1.84,2.17A19.12,19.12,0,0,1,17.4,142C17.4,134.71,25.33,129.91,28.42,128.32Z"/><path class="cls-2" d="M198.2,202c4.43-1.19,5.57-3.6,5.71-3.94l0,0a11.37,11.37,0,0,1-6.61,2.25,18.12,18.12,0,0,0-1.28-2q.66-2.26,1.42-5c2.75-10,3.66-15.15,2.66-19,.21-.09.55-.24,1-.46-.43,11.56,4.09,14.83,4.09,14.83l-.16-.33c-.78-1.64-4.15-9.23-2.27-15.45.39-.25.8-.52,1.23-.82a18.91,18.91,0,0,0-.53,6.65c.52,6.74,5.79,10,4.31,16.74-1.16,5.29-6.86,6.94-9.25,7.41C198.41,202.46,198.31,202.21,198.2,202Z"/><path class="cls-2" d="M135.67,248.43a16.66,16.66,0,0,1-.49,4.38,17.66,17.66,0,0,1-4.52,8c-.15.16-.3.31-.47.47a18.61,18.61,0,0,0-7.23,3.12C125,258.68,128.49,252.58,135.67,248.43Z"/><path class="cls-2" d="M37.77,273.27l.87.34L46,267.38a26.76,26.76,0,0,1,3.42,1.56c1.54,5.23-2,7.1-2.07,7.13a10.93,10.93,0,0,1-3.1.15l-.42-.05h-.11l-.19,0a7.28,7.28,0,0,1-1.11-.25l.09.05c.61.37,4.57,2.38,13.38-.55a9.55,9.55,0,0,1,.51,1.7c-4.51,1.25-17.49,4.08-20.29-3.8l.5-.48Z"/><path class="cls-2" d="M46.29,263.63c23.23,6.24,6.9,19.16,18.55,23.46,6.39,2.35,12.69,3.08,20.75-1.47-7.24,1.67-12.39,1.42-16,.39-6.63-1.87-8.2-6.32-8.2-6.32a15,15,0,0,0,3.77,2.24c4.63,2,13.62,4,27.49-.8a4,4,0,0,1,.49-.17l.07,0h0a7.09,7.09,0,0,1,2.57-.28c6.16.45,12,8.37,14.23,11.78.62.94,1,1.54,1,1.54a35.82,35.82,0,0,0-5-4.76c1.53,3.28,4.5,8.08,8.69,8.08,6.8,0,12.87-14.72,14.31-18.5.21-.55.32-.87.32-.87a52.14,52.14,0,0,1-1.33,5.91c4.09-.13,18-2,19.17-20.72a10.42,10.42,0,0,1,.26,1.45,18.12,18.12,0,0,1-4.6,14.33c-5.55,6.14-13.24,7.15-15.57,7.31-.29.87-.62,1.77-1,2.66a15,15,0,0,1,4-1.1c9.48-1.26,16.21-7.52,19.69-16.84,2.53-6.8-.36-13.71-2.1-17-.65-1.2-1.14-1.91-1.14-1.91s6.24,5.29,6.63,13.35a15.15,15.15,0,0,0,.2,1.86c.63-6.68-2.33-13.18-2.33-13.18A25.44,25.44,0,0,1,155,264a25.87,25.87,0,0,0-4.08-13.68,23.57,23.57,0,0,1,6.44,17.29,25.22,25.22,0,0,1-.45,3.82,17.81,17.81,0,0,1,7.22,4.29c5.66,5.66,15.46,7.16,19.55.93l-1-.92a14.1,14.1,0,0,1-9.93,2.39,15.11,15.11,0,0,1-8-4.19,11,11,0,0,1-.9-1l.23.21c1.09.93,5.94,4.72,11.46,3.35L156,255.64l9.41-1.67,5-1.08-3.91-5.32-.36-.48a22,22,0,0,0,5.33-5.72c3.31-5.58,8-16.46,3.17-27.38l-1.08,0a26,26,0,0,1,.5,18.49,18.87,18.87,0,0,0,.06-4.36,41.89,41.89,0,0,0-3.25-12.79,26.41,26.41,0,0,1,.13,11.73c-.36,20.42-16.52,24.05-16.52,24.05s12.17-6.55,13.73-18.09c-.35.48-.72.95-1.13,1.41-3.11,11.83-12.48,13.24-12.48,13.24h0l-.25.07a10.66,10.66,0,0,0,1.27-.65c.35-.21.76-.48,1.23-.8a15.13,15.13,0,0,0,5.42-7.08c.11-.3.21-.61.31-.94-3.87,2.57-9.22,4.73-16.52,6.32a40.24,40.24,0,0,0-5.47,1.58,28.74,28.74,0,0,1,0,3.61c-.45,6.84-3.41,8.33-3.41,8.33a13.19,13.19,0,0,0,2.41-7.91,17,17,0,0,0-.31-3.5,32.63,32.63,0,0,0-3.08,1.49,11.51,11.51,0,0,1,.36,3.65,19.94,19.94,0,0,1-3.16,9.14,19,19,0,0,1,9.51,2.47s-.28-.12-.8-.28a10.08,10.08,0,0,1,.91.47,19.56,19.56,0,0,0-15.08,2.82,24.42,24.42,0,0,1-.07,9.91c-2.07,9.9-9.35,16.76-9.35,16.76s.46-.56,1.15-1.56c2.48-3.6,7.88-12.93,5.43-23a30.63,30.63,0,0,0-4.52,4.92c-.78,3.37-1.45,5.75-2.93,6.11-3.12.78-4.58-4.49-8.26-11.76a16.23,16.23,0,0,1-6.45.46l-2.42,10.28,1.19-10.49a16.45,16.45,0,0,1-8.63-5,16.2,16.2,0,0,0,1.39.94A15.5,15.5,0,0,1,91,260.35a17.35,17.35,0,0,0-1.36-1.83c-3.09,3.51-2.17,10.15-2.17,10.15s-2-6.8,1.13-11.29a37.47,37.47,0,0,0-10.23-7.11,27.32,27.32,0,0,0-3.58-.57,16,16,0,0,1,1.79-.1c3.48,0,11.34.75,17.07,7.44,5.4,6.3,9.72,5.18,11.76,4-1-1.45-2-2.94-3.23-4.42l-.15-.19.11.24a8.4,8.4,0,0,1,.91,3.51,36,36,0,0,0-2.4-3A43.76,43.76,0,0,0,89.55,248a19.08,19.08,0,0,0-15.79-1.5s4.07-3.14,11.12-1.84c-7.48-2.14-12.68-.35-14.54.5L53.21,261.88c8.54,3.52,9.26,10.47,9.26,10.47s-2.45-6.73-11.36-9.14a22.85,22.85,0,0,0-2.72-.57H47.33Zm62.36,10s3.47,8.53,8.13,8.53,5.13-3.08,5.13-3.08a5.18,5.18,0,0,1-5.13,5.13C111.57,284.67,108.65,273.61,108.65,273.61Zm-22.34-2s-3.47-10.2-14-11.68-17.68,1.27-17.68,1.27a20.78,20.78,0,0,1,3-1.53,28.18,28.18,0,0,1,15.72-1.84,14.68,14.68,0,0,1,9.24,5.79A21.49,21.49,0,0,1,86.31,271.61Zm-4.58,11s.22-.47.5-1.27c1-2.7,2.59-9.15-1.13-14C76.29,261.14,68,261.3,68,261.3s8.84-2,14.36,4.89c4.8,6,2,12.33.31,15.05A13.17,13.17,0,0,1,81.73,282.61Zm-18.47-5.36a11.38,11.38,0,0,0,7.58,4.47,39.83,39.83,0,0,0,8.47.16L79,282a18.5,18.5,0,0,1-9.39.41l-.24,0C63.78,281.17,63.26,277.25,63.26,277.25Z"/><path class="cls-2" d="M80.1,219.49c-1.88-1.32-4.09-3-6.43-4.89l0-1.76A47.16,47.16,0,0,0,80.1,219.49Z"/><path class="cls-2" d="M49.75,145.53,51,167.05l.91-22.42.67,18.31,1.8-26.88a62.87,62.87,0,0,1,19.41-20.33l.48-.14c-10.62,7.55-14.33,16.14-14.33,16.14a49.28,49.28,0,0,1,19.18-14.46c-20.2,13.27-21.27,44.13-20.75,55.28.41,8.75,4.57,26.12,14.42,39.12l-.29,1.9a75.37,75.37,0,0,1-11.08-11.63l-.8-1.09-1.1-12.7-.63,10.11h0L58,181.2l-.61,14.63c-7.28-12.85-9.92-27.57-9.92-27.57s-1.31,16.15,11,34.2c8.23,12.13,21.5,18.33,26,20.16A36.22,36.22,0,0,0,88.76,225l0,1.31a63.45,63.45,0,0,1-24.45-15,61.43,61.43,0,0,1-14.52-65.8Z"/></g></svg>