<svg id="Слой_1" data-name="Слой 1" xmlns="http://www.w3.org/2000/svg" viewBox="0 0 60 60"><defs><style>.cls-1{fill:#fff;}.cls-2{fill:#010101;}</style></defs><path class="cls-1" d="M47.12,32.24c-2.29,1.66-3.77-1.64-7-2.66s-4.81-.67-4.81-.67l.14-1.41a4.62,4.62,0,0,0,1.08.44c6.26-4.27,4.34-10,3.64-15.18-1.58.25-3.9.52-3.9.52L37,8.87,36,6.7s-2.47.12-3.28.73A4.79,4.79,0,0,0,31.5,9.51l.26.37-.63,1.18.18.28,0,1.55-1.39.41-3.33-1.79V11l1.15-4,1-1,.42,2,.7,0,.06-1.93,16.75-.46,1.63-.61-1.5-.71-16.91-.5,0-2-.56,0s-.38,1.76-.53,2.31c-.25-1.76-1-.75-1-.75l-.61-.11-1.7,1-.92.28s-1.77-2-2.37.38c.78,2.18,2,.47,2,.47l1.25-.09.23.91L24.09,9l-.81,3.4-1.69-.67,0-1.4L20.8,11l-.08-.74-1.1.91-2.1.59-.23,1a24.1,24.1,0,0,0-4.94,7.48c.1.6,1.19,1.47,1.19,1.47L15,20l.42.41-.9,1.17a1.76,1.76,0,0,0,1.6.1c.29-.12.18-.83.18-.83l.7-.54.07,2a14.63,14.63,0,0,0-1.67,3.56A7,7,0,0,0,13.51,29C10,28.51,10,26.62,8,28.83,7,32,6.36,33.11,5.15,34.4c.26,2.14-1.58,4.19,1,6.21.92-.67,1.07-1,1.08-1.15s0,0,0,0c0,.34.58,3.08,3.11,3,.11-.14,1.07-3.61-1.25-4.28C9.83,36.8,8,37,11.85,33.81a14,14,0,0,0,5.68,3.4c1.43.67,2,1.09,2.31-.14a1.72,1.72,0,0,1,1,.47l-.4.77s-.67,0-.91.33a1.15,1.15,0,0,0-.1.87,3.8,3.8,0,0,0-2.05.58A4.38,4.38,0,0,0,16,41.85l1.92-.2,2.28.68L20.5,42l2,.44V40.6l.66-.14s1.3,11.48,7.58,12.3a57.3,57.3,0,0,1-3.32-8.54H28s1.46,8.24,6.51,9c-1.15-2.57-3.4-9.12-3.4-9.12h.57s2.33,6.93,3.5,8.25c2.46-3.29-.94-10.58-.94-10.58l.92-.16s0,1.54,3,4.31c3.1,2.42,4.78,2.85.06,7.75-2.57.51-3.12,1.21-3.48,2.8.28.74,2.45.75,2.45.75s-.38.45.26.63c1.31.37,4.18.56,4.11-1.93a.76.76,0,0,0,.42-.35,3.72,3.72,0,0,0,1.88.37c1.11-7.71,3.73-7.5,3.35-9.14-.06-.24-3.78-2.93-3.78-2.93s1.11-1.73,1.42-1.69c1,4.93,4.72,1.19,4.72,1.19s-2.19.65-1.78-.89c.34-1.26,6.81-1.74,7.43-7.79.63-6.24-5.78-4.14-8.14-2.42ZM7.94,34.57c-.08-1.51,1.7-3.64,1.7-3.64l.77.23s-1.84,3.18-2.47,3.41Zm9.84-13,0-1.69.69-.38,1.4-.09-2.07,2.16Zm10.83-.33-1-3.61-1.21-2.42,1.78.65L29.38,21l-.77.2ZM40.5,54.46a35.92,35.92,0,0,1,2.89-4.05c-1,4.31-2.89,4.05-2.89,4.05Zm6.31-16.84-.68-3.44a2.58,2.58,0,0,0,2.78,0c.43.53.88,1,.88,1Z"/><path class="cls-2" d="M54.86,31.63c-.66-1.07-2.06-1.75-4.19-1.28-2.35.52-3.8,2.38-5.24,2.15-1.21-.18-3.17-2.59-6.19-3.39a14.16,14.16,0,0,0-3.72-.37c.06-.3.13-.73.15-1,.25.11.54.25.84.37,6.32-4.68,4.46-9.27,3.75-15.67l-3.75.65c-.52-1.3,1.89-3.84-.43-6.51-2.83,0-3.84.5-4.61,2.47,0,.11-.11.37-.17.54s.1.32.38.37c-.17.24-.46.69-.6.94s-.24.45.13.5a2.53,2.53,0,0,0-.15.52s0,.05.2.05a.48.48,0,0,1,0,.21,2.7,2.7,0,0,1-.05.39.52.52,0,0,0,0,.25,5.12,5.12,0,0,0-1.32.3,12.19,12.19,0,0,0-3-1.51,2.15,2.15,0,0,0-.33-.58A8.55,8.55,0,0,0,27,9.77l.37-.06a4.08,4.08,0,0,1,.82-3,2.56,2.56,0,0,0,.49-.42l.41,2.15h1.07v-2C32,6.33,46.3,5.93,46.49,5.9c.41-.08,2.35-.83,2.35-.83a21,21,0,0,0-2.38-.83c-.34,0-14.63-.33-16.3-.38V1.78h-1s-.23,1.15-.34,1.65a.61.61,0,0,0-.49-.35c-.47,0-.52.26-.53.28s-.12-.21-.5-.09-.35.25-.35.25-.18-.13-.5.11-.24.3-.24.3a.64.64,0,0,0-.49.12.63.63,0,0,0-.27.41H24.38l-.12-.18a1.24,1.24,0,0,0-1-.51A1.3,1.3,0,0,0,22,5.08a1.3,1.3,0,0,0,1.27,1.33,1.25,1.25,0,0,0,1-.53s.07-.12.09-.14h.9a.88.88,0,0,0,.22.66c-.33.44-1.08,1.58-1.8,2.77l.24.16a4.7,4.7,0,0,0-.55,2.17c-.09.31-.13.47-.19.71a8,8,0,0,0-1.46-.66,3.75,3.75,0,0,0,.1-1.27c0-.32,0-.32-.17-.22s-.45.32-.65.5a1.58,1.58,0,0,0-.06-.48,2,2,0,0,0-1.41,1.12,3.83,3.83,0,0,0-2.36.67c0,.27,0,.66,0,.94-1.09.89-4.55,5.07-4.92,7.6a2.11,2.11,0,0,0,.89,1.33c.31.18.74.18,1-.44A2,2,0,0,1,15,20.18l.17.24a1.86,1.86,0,0,0-.72.88.52.52,0,0,0,.38.69,2.43,2.43,0,0,0,1.38-.1.68.68,0,0,0,.36-.67.71.71,0,0,0-.07-.26l.28-.21a13.74,13.74,0,0,1,0,1.83,7.66,7.66,0,0,0-1.48,3.21,5.14,5.14,0,0,0-1.88,3,16.28,16.28,0,0,1-3.25-1.15A1.47,1.47,0,0,0,9,27.76c-.78.44-1.34.84-1.46,1.41-.9,4.08-2.45,4.38-2.54,5.37-.19,2.32-.54,3.19-.51,3.76a3.4,3.4,0,0,0,1.73,2.6,5.29,5.29,0,0,0,1-.93c0,.09,0,.17,0,.25.27,1.78,2,2.26,3.11,2.43,1.41-2.54-.32-4.55-.82-4.62-.13,0-.33.12-.36,0s0,0,.21-.14c.42-.22-.16-1.13-.05-1.39.22-.49,2-2.52,2.42-2.52S14,35.93,15.6,36.65A13.51,13.51,0,0,1,18.87,38a.67.67,0,0,0,1-.39c0-.09.07-.17.1-.25a1.89,1.89,0,0,1,.77.29l-.36.5H20.2a1,1,0,0,0-1,.95.58.58,0,0,0,0,.19,7.06,7.06,0,0,0-1,.24,5.26,5.26,0,0,0-1.29.66,3.33,3.33,0,0,0-1.2,1.62,3.58,3.58,0,0,0-.09.35l.27-.06a12.44,12.44,0,0,1,2.15-.28A2.05,2.05,0,0,0,18,42c.1,0,2,.46,2.45.57,0-.09.05-.23.09-.46a8.38,8.38,0,0,0,2.13.55c0-.29,0-1.39,0-2l.27-.1c.34,2.83,2.11,11.53,8,12.35-.18-1.82-2.16-3.69-3.26-8.65h.24s1.19,8.29,6.77,9.08c.22-1-2.52-5.53-3.27-9.11h.32s1.22,5.3,3.47,8.34c2.42-3,.56-7.56-.62-10.69l.17-.18.32,0A3.22,3.22,0,0,0,36.33,44a8.4,8.4,0,0,0,3.25,3,7.06,7.06,0,0,1,1.54,2.11c.12.51-.85,1.91-1.73,3.16a4.25,4.25,0,0,1-1.25,1.28c-.66.35-3.14-.26-3.57,3.12a3.31,3.31,0,0,0,2.48.62c0,.11,0,.31-.06.42a4,4,0,0,0,2.21.52c1.22,0,2.86-.73,2.55-2.21.28-.16.28-.29,1.23,0s1.14-.05,1.17-.53A9.83,9.83,0,0,1,44.6,53a26,26,0,0,1,2.75-5.6.73.73,0,0,0-.19-1c-.79-.55-2.71-1.93-3.33-2.47-.19-.17-.22-.23,0-.45s.73-.85,1-1.17a4.12,4.12,0,0,0,.54,1.52c.88,1.34,3,1.59,4.87-.92-.23.08-.42.16-.72.25-1.39.45-1.75-.29-1.22-1.14a15.72,15.72,0,0,0,3.14-1.43A11.57,11.57,0,0,0,54.86,37a6.09,6.09,0,0,0,0-5.38ZM23.27,6.05a.93.93,0,0,1-.9-1,.9.9,0,1,1,1.8,0A.93.93,0,0,1,23.27,6.05ZM41.68,30.56c.32.2.59.37.76.5a29.67,29.67,0,0,1-.69,3.81c-.15.6-.33,1.21-.54,1.82a.71.71,0,0,0-.56-.29h-.11l-.07,0c.2-.58.37-1.16.51-1.73a30.65,30.65,0,0,0,.69-3.88s0-.15,0-.21Zm4.64,3.9a2.21,2.21,0,0,0,2.4.1l.17-.09a2.16,2.16,0,0,1,.8.79,15.2,15.2,0,0,0-2.79,2.17,10.88,10.88,0,0,0-.58-3Zm-25.57,5.4a.94.94,0,0,0,.41-.78s0-.09,0-.13L24,34a4.17,4.17,0,0,1,1.61.05,7.13,7.13,0,0,1-2.15,3.71,5.94,5.94,0,0,0-1.55,2.52l-1.13.18a5.37,5.37,0,0,0,0-.57Zm2.8-2a7.36,7.36,0,0,0,2.2-3.77,1.79,1.79,0,0,1,.69.48c.06,1.21-.09,2.85-1.85,3.32-.17.09-2.12,2.25-2.13,2.27l-.39.07a5.77,5.77,0,0,1,1.48-2.37Zm.23-4.07a2.72,2.72,0,0,1-.17-1.34,2.42,2.42,0,0,1,1.32-.55A2.83,2.83,0,0,0,27.44,33a10,10,0,0,0-1,1.27c-.81-.86-2.71-.53-2.71-.53ZM17.13,20.66v-.11l.48-.3c0,.09,0,.22,0,.25a23.65,23.65,0,0,1,0,2.87s-.48,0-.55,0a18.17,18.17,0,0,0,0-2.69ZM19.73,13c0,.08,0,.18.06.15a3.25,3.25,0,0,1,.92-.66l.07,0a4.65,4.65,0,0,1-.52,1.35,8.34,8.34,0,0,0-1.19-1.15,1,1,0,0,0,.33-.07.69.69,0,0,0,.32-.31h.05a2,2,0,0,0,0,.66Zm7.32,10.32c-3.23.09-7.83.22-9.16,0,0-.15,0-.81,0-1.55l0,0c1.87-2.12,4.43-4.13,4-6.06,0-.11-.12-.15-.09,0a2.31,2.31,0,0,1-.54,1.88,4.18,4.18,0,0,0,0-.52A6.29,6.29,0,0,0,20.94,15a.41.41,0,0,0,0-.16.37.37,0,0,0,0-.11,5.78,5.78,0,0,0,.74-1.8A9.39,9.39,0,0,1,25.92,17,12,12,0,0,1,27,22.28v.47a1.15,1.15,0,0,0,0,.2c0,.11,0,.26,0,.41Zm-9.2-4,.37.15-.34.22v-.12a1,1,0,0,0,0-.25Zm2.5-3.91a.69.69,0,0,0,.44-.2,6.32,6.32,0,0,1,.28,1.89c0,.31,0,.65,0,.84s-.26.32-.42.5c0-.22,0-.49,0-.78a7.74,7.74,0,0,0-.31-2.25Zm-.6-.62c0-.59,1-.59,1,0S19.75,15.39,19.75,14.81Zm.49,1.07a7.87,7.87,0,0,1,.19,1.8,7.53,7.53,0,0,1-.06.94,1.53,1.53,0,0,1-.71.68,3.56,3.56,0,0,1-1.23.06h0a4.53,4.53,0,0,1-.57-.23A37,37,0,0,0,20.18,16l.06-.09Zm-.73,3.77c-.25.26-1.06,1.1-1.48,1.55,0-.05-.05-.81-.09-1.15l.58-.35a4.17,4.17,0,0,0,1-.05Zm1.33-5.22a.72.72,0,0,0-.34-.22l-.08-.12A5.71,5.71,0,0,0,21,12.62l.47.18A4.64,4.64,0,0,1,20.84,14.43Zm-2-1.83-.21-.16a2.68,2.68,0,0,1,.86-.08.69.69,0,0,1-.65.24Zm.2.44a8.13,8.13,0,0,1,1.13,1.14.74.74,0,0,0-.46.19,8,8,0,0,0-1.87-1.63,1.62,1.62,0,0,1,.49-.23C18.48,12.59,18.74,12.77,19.07,13Zm.67,2.2a.72.72,0,0,0,.36.18l.06.16-.17.27A36.15,36.15,0,0,1,17.66,19a.94.94,0,0,0-.48-.23,35.43,35.43,0,0,0,2.32-3.16l.24-.39Zm8.61,8.27h0c-.08,0-7.66,1.83-11.38,1.26,0-.14.07-1,.09-1.18a110.66,110.66,0,0,0,11.28-.08Zm1.34-.26a3.38,3.38,0,0,0,.23.7l.06.13-.23,0a.3.3,0,0,1-.24-.09,1.13,1.13,0,0,1-.13-.2,1.52,1.52,0,0,1-.16-.45,5.17,5.17,0,0,1-.07-1.24,2.65,2.65,0,0,1,.13-.88c.1.26.21.55.35.87a4.26,4.26,0,0,0,.06,1.18Zm0,4-.33-1.8,2.37-.29.16.15.18,1.5ZM32.12,27l.09.72-2.33.43-.13-.72ZM30,25l.12-.13a2.34,2.34,0,0,0,.17-.53,3.47,3.47,0,0,0,.72,0l0,0c.1.12.19.24.3.36l.08.08Zm.72-.87h-.35c-.12,0-.13-.05-.19-.15a3.26,3.26,0,0,1-.2-.48,4,4,0,0,1-.15-1,8.45,8.45,0,0,0,1,1.62Zm-2.11-.52a1.74,1.74,0,0,1,.42-.08.64.64,0,0,1,0,.07,1.44,1.44,0,0,0,.2.39v0H29a1,1,0,0,1-.34,0,.22.22,0,0,1-.13-.21.21.21,0,0,1,.08-.16Zm-.32-.28a.23.23,0,0,1-.18-.22.23.23,0,0,1,.2-.22l.61,0a3.55,3.55,0,0,0,.06.47l-.31,0a1.53,1.53,0,0,1-.38,0Zm.35-2.23a12.46,12.46,0,0,0-.89-3.73,8.52,8.52,0,0,0-1.15-2,8,8,0,0,0,1.5.68A39.6,39.6,0,0,0,29.19,21l0,.07A4.73,4.73,0,0,0,28.65,21.11Zm.35.18a1.67,1.67,0,0,0,0,.28,2.51,2.51,0,0,0,0,.27l-.5,0a.22.22,0,0,1-.24-.13.37.37,0,0,1,0-.24.74.74,0,0,1,.33-.14l.43-.08Zm-.71.83.63-.05a5.23,5.23,0,0,0,0,.56l-.66.05a.23.23,0,0,1-.23-.26c0-.21.21-.29.26-.3Zm0,1.58v.08a.56.56,0,0,0,.24.4h0a4.13,4.13,0,0,1-.49,1l-.06.07a2.44,2.44,0,0,1-.65-1.31l.94-.22Zm.1,1.36a3.83,3.83,0,0,0,.38-.82h.71a3.55,3.55,0,0,0,.47.06,2.66,2.66,0,0,1-.11.39l-.33.38-.19,0-.35.05.06.35,0,.1-.11.13c-.66.71-1.62,1.47-2.39,2.37a3,3,0,0,1,.67-1.49c.4-.54.83-1,1.17-1.54ZM29,26.14l.11-.14.55,3a47.1,47.1,0,0,0-3.32,3.67,2.65,2.65,0,0,1-1.21-.83C25.89,28.47,27.67,27.55,29,26.14Zm-2.48,6.58c.21-.26.68-.82,1.23-1.45s1.42-1.58,1.95-2.07L30.06,31l-.1.07c-1,.68-1.92,1.33-2.36,1.73A3.25,3.25,0,0,1,26.54,32.72ZM30,31.48l.09-.06.14.8a6.21,6.21,0,0,1-1.21-.06l1-.68Zm-.12-3.09L32.24,28l1.55,12.39a6.66,6.66,0,0,1-.31,3.08,7.33,7.33,0,0,1-1.3-2.72Zm2.87,1.18a7.53,7.53,0,0,0,1.56-1.37,3,3,0,0,0,.43-.89c.11.06.52.29.58.31a9,9,0,0,1-.16,1.07A4.29,4.29,0,0,1,33,31.63l-.26-2.07Zm0-.38h0l-.3-2.38.1,0a1.33,1.33,0,0,1,.49.39,1.79,1.79,0,0,1,0,1.71l-.33.24Zm1.49-1.42a3.88,3.88,0,0,1-.85.93,1.9,1.9,0,0,0,0-1.35,1.53,1.53,0,0,0-1-.79l-.11-.89h0a15.67,15.67,0,0,0,2.16,1.49,3,3,0,0,1-.23.61Zm-1.16,4.1a2.4,2.4,0,0,0,.61-.33,20.23,20.23,0,0,0-.37,2.27Zm.69.46,1.45,1.09c.39.28.83.59,1.29.9a.75.75,0,0,0-.42.65v0c-1-.68-1.89-1.33-2.47-1.78,0-.3.1-.61.15-.89Zm2.46,3.05a.71.71,0,0,0,.45.29l.24.15c-.15.38-.31.77-.5,1.18a1.66,1.66,0,0,1-.78.77,2,2,0,0,1,.06-1.11c.2-.44.37-.86.53-1.28Zm.57.07a.48.48,0,1,1,.48-.48A.49.49,0,0,1,36.79,35.45ZM37.5,35c.54.34,1.09.67,1.64,1,.38.21.75.41,1.12.58a.72.72,0,0,0-.32.58.78.78,0,0,0,0,.16c-.39-.19-.79-.39-1.21-.62S37.6,36,37,35.63A.73.73,0,0,0,37.5,35ZM40,37.56l.12.06a.69.69,0,0,0,.45.2l.16.07c-.13.33-.28.67-.43,1a1.62,1.62,0,0,1-.79.76,1.93,1.93,0,0,1,.07-1.1c.15-.33.29-.67.42-1Zm.61,0a.5.5,0,0,1-.48-.49.48.48,0,0,1,1,0A.5.5,0,0,1,40.65,37.6Zm.71-.49a.28.28,0,0,0,0-.09,8.67,8.67,0,0,0,3.12.7,4.56,4.56,0,0,0,2.1-.48,5.19,5.19,0,0,1-.08.9,5.28,5.28,0,0,1-2,.38h0A9.33,9.33,0,0,1,41,37.73a.72.72,0,0,0,.37-.62Zm-2-7.63a10.87,10.87,0,0,1,2.13.95c0,.08,0,.19,0,.32a28.56,28.56,0,0,1-.68,3.84c-.13.52-.29,1.09-.49,1.69-.33-.16-.67-.33-1-.53-.56-.31-1.14-.66-1.7-1a18.86,18.86,0,0,0,1-5.45c.26.05.52.12.77.19Zm-1-.23a18.57,18.57,0,0,1-1,5.31.72.72,0,0,0-.55-.3l-.16-.11a18,18,0,0,0,.9-5c.25,0,.52.06.79.11Zm-1-.13a16.71,16.71,0,0,1-.85,4.9c-.4-.27-.78-.54-1.12-.79l-1.53-1.15c.06-.29.12-.56.18-.79a5,5,0,0,0,1.34-2.18,12.39,12.39,0,0,1,2,0ZM40,12.88c.22,1.9.55,3.65.69,5.29.31,3.51-.19,6.53-4.2,9.57-4.9-2.06-6.45-4.86-7.26-8-.41-1.56-.63-3.2-1-4.87ZM31.68,9.49c.59-1.9,1.47-2.56,4.25-2.55,2,2.48-.22,4.81.23,6.22l-1.16.2a2.66,2.66,0,0,1-.52-.19,2.48,2.48,0,0,1-.91-.73c-.1-.94,1.35-2.81-1.16-2.72-.75,0-.79,0-.73-.23ZM31.34,11c.17-.3.44-.72.58-.95h0a.5.5,0,0,0,.13.07c0,.1-.06.29.07.35a.3.3,0,0,0,.35-.08c.15,0,.28.05.28,0a1.18,1.18,0,0,0-.32-.3L32.31,10c1.62,0,1.47.46,1.24,1.39-.12.46-.33,1-.14,1.29A5.45,5.45,0,0,1,32,13c-.42,0-.65-.21-.43-.65.06-.12,0-.2,0-.28s0-.1,0-.1a1.25,1.25,0,0,1,.74.21c.15.08.24.07.3,0a.27.27,0,0,0,0-.26,4,4,0,0,0-.44-.6.42.42,0,0,0-.21-.13,3.53,3.53,0,0,1-.55,0c-.07,0-.08-.13,0-.26Zm.95-.7a.07.07,0,1,1,.07.09A.08.08,0,0,1,32.29,10.25Zm-.93,1.42c0-.19.06-.21.09-.23a4.32,4.32,0,0,1,.51,0,.31.31,0,0,1,.12.09,2.13,2.13,0,0,1,.38.5c0,.1,0,.11-.06.08s-.35-.2-.48-.24a2.83,2.83,0,0,0-.4,0c-.18,0-.19,0-.16-.17Zm.12,1.48a.87.87,0,0,0,.58.08,6.42,6.42,0,0,0,1.52-.43,3.51,3.51,0,0,0,1,.65l-2.7.46a6.27,6.27,0,0,0-.63-.74l.27,0Zm-.72.09.15,0a4.07,4.07,0,0,1,.5.52l.18.23-1.28.21c0-.1.09-.24.16-.39a3.43,3.43,0,0,1,.29-.54Zm-.77.24c.1,0,.28-.11.45-.16l-.18.37a4.79,4.79,0,0,0-.2.53l-.51.09a2.68,2.68,0,0,1,.25-.55ZM26.8,12a11.47,11.47,0,0,1,3,1.45,2.83,2.83,0,0,0-.45.94l-1.5.25.21,1a10.9,10.9,0,0,1-1.77-.85c-.14-.09-.71-.68-1-1a2.61,2.61,0,0,1,.84-1.23,6.89,6.89,0,0,1,.6-.51ZM30,4.2s16.06.32,16.38.37,1.67.49,1.67.49-1.31.45-1.63.49S30,6.06,30,6.06ZM29,4.24l.46-2.13h.39v6h-.45L29,5.87c.76-.89.46-1.1,0-1.29,0-.09,0-.26,0-.34Zm-.86-.85a.51.51,0,0,1,.3,0c.22.09.24.8.23,1.07C28.43,4.34,28.1,4,28,4,28,3.83,27.87,3.48,28.11,3.39Zm0,.88c.13,0,.25.31.94.6.21.08.16.38-.3.93a1.39,1.39,0,0,1-1.12.72c-1,0-.69-.74-.43-.88.57-.3.79-.07.88,0a.47.47,0,0,0,.17.07c.12,0,.23,0,.11,0s-.17-.19,0-.24a1.26,1.26,0,0,0,.26-.09c.07,0,.12-.11.07-.15s-.25,0-.31,0c-.66-.5-.43-.88-.28-.88Zm-.94-.6c.05-.21.5-.23.57,0a2.65,2.65,0,0,1,.13.47A.75.75,0,0,0,28,5c.13.19,0,.24-.15.24s-.21-.09-.31-.25a2,2,0,0,1-.36-1.34Zm-.24.13a2.3,2.3,0,0,0,.52,1.41c.16.17-.29.24-.47.11a1.78,1.78,0,0,1-.52-1.13C26.44,3.78,26.81,3.69,26.91,3.8Zm-.7.4a2.29,2.29,0,0,0,.54,1.17s.24.21-.15.25c-.12,0-.48-.09-.81-.76-.24-.5.2-.76.42-.66ZM24.39,5.4a1.77,1.77,0,0,0,.05-.32,1.35,1.35,0,0,0,0-.29h1.13a2.59,2.59,0,0,0,.3.6Zm1.46,1.09.36,0c.36,0-.2,0-.32-.11a.56.56,0,0,1-.29-.6h.6a1.73,1.73,0,0,0,.41.15c-.07.4.2.86,1,.85h.15A4.12,4.12,0,0,0,27,9.4a8.12,8.12,0,0,1-.86,0c-.27,0-.54,0-.79,0a3.94,3.94,0,0,1-1.21-.34,29.07,29.07,0,0,1,1.7-2.58Zm-1.61,3,0-.07a4.7,4.7,0,0,0,1.06.26q.39,0,.81,0h.51v0a7.48,7.48,0,0,1-.38,1.37,3.81,3.81,0,0,1-1.84.53,2.47,2.47,0,0,1-.55-.06l-.14,0h0a4,4,0,0,1,.51-2Zm-.57,2.25a2.72,2.72,0,0,0,.77.11h0a4,4,0,0,0,1.92-.55,2.3,2.3,0,0,1,.29.52,8.23,8.23,0,0,0-.74.61A3.18,3.18,0,0,0,25,13.65c-.49-.43-1-.77-1.52-1.19a4.34,4.34,0,0,1,.15-.76Zm-1.15.54a10.47,10.47,0,0,1,5.38,6.55,13.14,13.14,0,0,1,.41,2.42.62.62,0,0,0-.23.16.54.54,0,0,0-.1.47.33.33,0,0,0,.09.16.44.44,0,0,0-.27.41.4.4,0,0,0,.23.4.39.39,0,0,0-.05.53l-.7,0a3.18,3.18,0,0,1,0-.41v-.19c0-.16,0-.32,0-.48a12.26,12.26,0,0,0-1.15-5.4A9.34,9.34,0,0,0,21,12.37a2.05,2.05,0,0,0,.53-.53,4.4,4.4,0,0,1,1,.4Zm-1-1.69c.08,1.63-1.08,1.76-1.56,2.21A3.43,3.43,0,0,1,21.51,10.55Zm-.83,0a1.86,1.86,0,0,1,0,.46,2.29,2.29,0,0,0-.27.27l-.47,0a1.49,1.49,0,0,1,.76-.69ZM17.55,12a4,4,0,0,1,2.59-.47,4.09,4.09,0,0,0-.3.59,3.46,3.46,0,0,0-2.31.48,2.83,2.83,0,0,1,0-.6Zm-2.27,3.43A18.35,18.35,0,0,1,17.49,13l.17-.13.24.15a7.74,7.74,0,0,1,1.7,1.54.71.71,0,0,0,0,.47c-.09.15-.19.31-.3.47A36.27,36.27,0,0,1,17,18.68a12.5,12.5,0,0,1-1.7-1.06,12.16,12.16,0,0,1-1-.78C14.61,16.4,14.93,15.94,15.28,15.47ZM14.18,17a15.12,15.12,0,0,0,2.57,1.78.79.79,0,0,0-.52.46c-.39-.23-.77-.48-1.1-.72s-.71-.54-.94-.73l-.32-.29.31-.5Zm2,2.8a3.32,3.32,0,0,0-.72.4L15.33,20a2.8,2.8,0,0,1,.87-.19ZM13.78,21.3c-.34.72-1.17-.66-1.15-.87a7.61,7.61,0,0,1,1.12-2.69,14,14,0,0,0,2.43,1.77v.11a5,5,0,0,0-.8.13,2.27,2.27,0,0,0-1.6,1.55Zm2.51-.58a1.42,1.42,0,0,0-.45-.1c-.15,0,.76.51.29.94-.18.16-1.33.29-1.34,0S15.6,20.4,16.28,20a.77.77,0,0,0,.49.36,2.86,2.86,0,0,1-.48.36Zm.11-1.13a.63.63,0,0,1,1.26,0A.63.63,0,0,1,16.4,19.59ZM15.61,26a7.69,7.69,0,0,1,1.29-3c-.06.67-.14,1.3-.17,1.95,2.95.52,8-.45,10.4-1a2.68,2.68,0,0,0,.75,1.45c-.29.37-.6.73-.86,1.08a5,5,0,0,0-.51.87,31.78,31.78,0,0,1-7.58,1.44q-.53,0-1.05,0a16.19,16.19,0,0,1-4-.47A4.45,4.45,0,0,1,15.61,26Zm-1.78,2.6a16.26,16.26,0,0,0,4,.48c.36,0,.71,0,1.06,0a30.14,30.14,0,0,0,7.47-1.41,1.35,1.35,0,0,0-.06.71c-.08.11-.2.29-.32.49a30.32,30.32,0,0,1-7.1,1.29q-.53,0-1.05,0a15.58,15.58,0,0,1-4.25-.54,6.58,6.58,0,0,1,.2-1ZM5.2,36.19c.12-.84.17-1.66.2-1.74.29-.86,1.53-1.31,2.47-5.05a1.52,1.52,0,0,1,.18-.46,2.47,2.47,0,0,1,.84-.69A1.25,1.25,0,0,1,10.1,28c.24.11.53.26,1,.44a22.28,22.28,0,0,0,2.27.7c-.07.51-.12,1.26-.13,1.71-.23-.13-.71-.43-.86-.48a1.88,1.88,0,0,0-1,0,2.35,2.35,0,0,0-1,.73,1.39,1.39,0,0,1-.45-.22c-.09-.06.35-.38.41-.44a1,1,0,0,0-.42.1,1.57,1.57,0,0,0-.49.4,10.62,10.62,0,0,0-1.54,2.95,3.28,3.28,0,0,0-.11.81,11.15,11.15,0,0,1-.92,1,1.61,1.61,0,0,1-.38,0c-.09,0-.17-.09-.2-.08s.12.15.21.18l.26,0s-.06,0-.07.06a1.06,1.06,0,0,0-.16.68.68.68,0,0,0-.31.07c-.07,0-.24.11,0,.1h.29a3.85,3.85,0,0,0,.06,1,3.66,3.66,0,0,1-1.62.7,8.59,8.59,0,0,1,.3-2.25Zm4.9-4.79c-.53.8-1.24,1.9-2,2.94a4.5,4.5,0,0,1,.16-.57,9.65,9.65,0,0,1,1.07-2.13c.09-.13.34-.48.41-.43a3.2,3.2,0,0,0,.38.19ZM6.22,40.49a3,3,0,0,1-1.29-1.82,3.29,3.29,0,0,0,.66-.2,3.3,3.3,0,0,0,1-.56c0,.21.52,1.43.55,1.6A3.34,3.34,0,0,1,6.22,40.49Zm3.16-2.06.18,0a3.11,3.11,0,0,1,.64,3.88A3.32,3.32,0,0,1,8,41.12a2.49,2.49,0,0,0,1-.83A3,3,0,0,0,9.38,38.43ZM20.11,37c.41-1,.4-1,.78-1.3.2-.16,0-.25-.51.13-.34.23-.81,2-1.18,2A16.2,16.2,0,0,0,16,36.44c-1-.25-3.15-2.26-3.83-2.67a.76.76,0,0,0-.8,0A11.44,11.44,0,0,0,9.2,36.16a.74.74,0,0,0-.18.58c.05.27.17.61.19.73s0,.43-.69.48c-.47,0-.51.08-.09.16.22,0,.44,0,.45.23s-.56.87-.3.67c.09-.06.28-.38.58-.52A2.26,2.26,0,0,1,7.85,40.9a5.28,5.28,0,0,1-.31-1.11c-.19-.72-.42-1.26-.67-2a3.84,3.84,0,0,1,0-1.66c3.15-3.22,3.21-4.78,4.45-5.35a1.42,1.42,0,0,1,1,0c.18.08.6.38.88.52,2.22,1.14,4.35,1,4.79,1.29a4.53,4.53,0,0,1,.87,1c.4.4-.41-1.09-.72-1.24-.68-.3-2.54-.27-4.58-1.21a10.77,10.77,0,0,1,0-1.17,15.78,15.78,0,0,0,4.27.54c.36,0,.71,0,1.06,0a30,30,0,0,0,6.9-1.23l-.26.44a10.91,10.91,0,0,0-.71,2,2.73,2.73,0,0,0-1.56.7,2.85,2.85,0,0,0,.16,1.64L21,37.29a7.33,7.33,0,0,0-.86-.34Zm3.08-2.27L21,38.53l-.12-.13a1.07,1.07,0,0,0-.28-.19Zm-4.61,5.1c.28-.07.62-.11.68-.12a8.67,8.67,0,0,0-.55.85l-.09.17a1.91,1.91,0,0,1-.18-.47s0-.28,0-.38l.17,0Zm-2.38,1.9a2.86,2.86,0,0,1,.56-.85,1.76,1.76,0,0,0,.22.73C16.72,41.59,16.45,41.63,16.2,41.68Zm1-.15A1.46,1.46,0,0,1,17,41a1.7,1.7,0,0,1,0-.39,3.34,3.34,0,0,1,.48-.36v0a2.19,2.19,0,0,0,.35,1.2l-.59.06Zm1-.09-.16,0-.1-.15a1.89,1.89,0,0,1-.24-.65,1.73,1.73,0,0,1,0-.51v0l0,0a4.6,4.6,0,0,1,.45-.19h0a1.69,1.69,0,0,0,.31,1l-.26.53Zm2,.71-1.72-.4a7.74,7.74,0,0,1,1.08-1.94,1,1,0,0,0,.62.22l.21,0A11.59,11.59,0,0,1,20.22,42.15Zm0-2.43a.64.64,0,1,1,.64-.64A.64.64,0,0,1,20.2,39.72Zm2.16,2.53a7.1,7.1,0,0,1-1.74-.48c0-.13.05-.39.07-.53l1.66-.47c0,.5,0,1.25,0,1.48ZM20.71,41a2.28,2.28,0,0,0,0-.26l3.6-.67Zm14.84,4.85c.58,2.07.8,4.36-.36,6.2A28.62,28.62,0,0,1,32,43.94H31c.76,3.73,2.93,7.39,3.29,9-3.52-.71-5.35-5.28-5.9-7.81A9.4,9.4,0,0,1,28.2,44s-.79,0-.93,0c.88,4.64,2.79,6.91,3.25,8.56-5.06-.91-6.91-9.18-7.21-12.06l2.62-.73a3.55,3.55,0,0,0,1,1.56A2.91,2.91,0,0,0,27,40.07a4.16,4.16,0,0,0,1.46-1,4.53,4.53,0,0,0-1.72-.2A4.7,4.7,0,0,0,26,37.86a4,4,0,0,0-.13,1.73L23.26,40a1.8,1.8,0,0,1,0-.22c.57-.66,1.43-1.58,1.51-1.62,1.94-.6,2.09-2.38,2-3.64a8.86,8.86,0,0,1,1-1.4,5.52,5.52,0,0,1,1-.8,7.72,7.72,0,0,0,1.52.1l1.52,8.33h0a7.55,7.55,0,0,0,1.37,2.88l.33.37.23-.44a4.41,4.41,0,0,0,.4-1.76c.22.58,1,2.74,1.37,4Zm-8.75-5a3.18,3.18,0,0,1-.61-1.17l.55-.15,0-.08-.57.09a3.68,3.68,0,0,1,0-1.15,4.57,4.57,0,0,1,.52.79,3.62,3.62,0,0,1,1.39,0,4,4,0,0,1-1.28.67A4.39,4.39,0,0,1,26.8,40.86Zm8.23.47a3.49,3.49,0,0,0-.45,0l-.2.14a2.58,2.58,0,0,1-.2-.33,2.81,2.81,0,0,0,0-.3,2.61,2.61,0,0,0,.88-.09C35.05,41,35,41.23,35,41.33Zm2.21,12.75c1.2-.15,1.62-.47,2.63-1.95,1.35-2,1.79-2.66,1.53-3.34a6.74,6.74,0,0,0-.94-1.31c1.54.71,3,1.33,3,2.06,0,.1-.06.26-.09.39a25.29,25.29,0,0,0-3.08,4.49,9.85,9.85,0,0,0-1,.17,1,1,0,0,1-.4-.21s-.14-.11-.07.09a.48.48,0,0,0,.19.21,2.51,2.51,0,0,0-1.28.88,2.85,2.85,0,0,1-2-.9,2.47,2.47,0,0,1,1.42-.58Zm6-3.34A10.15,10.15,0,0,1,41.47,54a1.11,1.11,0,0,1-.74.33,21.14,21.14,0,0,1,2.49-3.61ZM35,56.52a2.66,2.66,0,0,1,.64-1.68,2.92,2.92,0,0,0,2,.87,4,4,0,0,0-.54,1.21C36.51,57.14,35,56.77,35,56.52Zm4.47,1.36c-.27,0-2.16-.09-2.13-.4a2.93,2.93,0,0,1,.76-1.81,4.74,4.74,0,0,0,3.33.92C41.31,57.05,41,57.68,39.46,57.88Zm4-14.55a.56.56,0,0,0,.12.88c.59.49,3.19,2.37,3.38,2.52a.4.4,0,0,1,.09.46c-.4.75-1.17,1.89-1.86,3.33a14.7,14.7,0,0,0-1.36,4.23,4.16,4.16,0,0,1-.07.88c-.2.33-1.56-.11-2.12-.58-.11-.1-.12,0-.08,0a.79.79,0,0,1,.24.49c0,.09-.09.16-.27.16a1.5,1.5,0,0,1-.47-.17c-.37-.15-.4-.08-.23,0a1,1,0,0,1,.57.9,4.82,4.82,0,0,1-3.14-1,1.5,1.5,0,0,1,.44-.3,20.45,20.45,0,0,1,2.67-.65c.47-.16,2.16-2.86,2.33-4.87.15-1.84-5-2.14-7.18-5.91-2.22-1.67-.31-4-1.85-5.43-.19-.17-.29-.11-.18,0a3.65,3.65,0,0,1,.53,2.19,2.35,2.35,0,0,1-.58.1h-.31c0-.17,0-.28,0-.3l-.69-5.51c0-.41.08-.87.14-1.33.59.46,1.46,1.1,2.45,1.76-.16.43-.34.87-.54,1.33a2.33,2.33,0,0,0,0,1.5,1.89,1.89,0,0,0,1.16-1c.18-.39.34-.77.48-1.15.51.32,1,.63,1.54.91l1.19.62q-.18.48-.42,1a2.51,2.51,0,0,0,0,1.51,1.92,1.92,0,0,0,1.17-1c.16-.35.3-.69.43-1a9.42,9.42,0,0,0,3.49.78h0a5.71,5.71,0,0,0,2-.34,6.25,6.25,0,0,1-.18.69,12.33,12.33,0,0,1-2.78,4.23Zm1.61-1.41a8.25,8.25,0,0,0,1.79-4,15.13,15.13,0,0,1,2.88-2.31c.1.85-.71,1.84-1.7,2.87a9.6,9.6,0,0,0-2.29,3,3,3,0,0,0,.27,2.65A2.86,2.86,0,0,1,45.1,41.92Zm4.2,1.59c-.3.19-.57.4-.74.51a2.64,2.64,0,0,1-1.45.47,1.32,1.32,0,0,1-.38-1.33,2,2,0,0,1,1-.88C47.46,43,48,43.88,49.3,43.51Zm5.24-6.64a10.77,10.77,0,0,1-5.2,4.38c-1.36.48-2.37.83-2.78,1.45a1.39,1.39,0,0,0,.26,1.76,1.59,1.59,0,0,1-.55-.2c-1.2-2.17.16-3.88,1.92-5.6s2.83-3.3,1-4.37a3.13,3.13,0,0,1,2.15-.65c1.21.33,1.25,2,.47,3a8.58,8.58,0,0,1-3.15,2.28,8.53,8.53,0,0,0,3.62-1.53,2.8,2.8,0,0,0,1.19-3.46c0-.12-.15-.31-.14-.26a2.94,2.94,0,0,1-1,3.38,8,8,0,0,1-2.1,1.23l.17-.08a6.38,6.38,0,0,0,1.7-1.52c1.16-1.6.46-3.42-1.16-3.35a3.7,3.7,0,0,0-2.09.82c-1.27.85-2.1.27-3.14-.45a10.62,10.62,0,0,1,.86,3.14.88.88,0,0,1,0,.17,4.55,4.55,0,0,1-2.09.51,8.38,8.38,0,0,1-3-.7c.22-.67.4-1.3.55-1.88a30.51,30.51,0,0,0,.68-3.71l0,0c1.18.83,2.06,1.57,2.81,1.62,1.76.1,3-1.79,5.48-2.22,1.7-.29,2.91.17,3.49,1A5.6,5.6,0,0,1,54.54,36.87ZM13.27,19.59s-.12.1-.11.15a.52.52,0,0,1,.37-.13.11.11,0,0,1,.1.14.21.21,0,0,0-.14,0,1.08,1.08,0,0,0-.58.38.33.33,0,0,0,0,.43c.11.07.4.09.66-.28s.3-.62.15-.75-.28-.06-.48.07Zm.1.7c-.11.1-.23.12-.27.06s0-.27.18-.38.29-.13.31-.09S13.47,20.19,13.37,20.29ZM25.67,26c-2-1-5-.34-6.59.46A13.31,13.31,0,0,1,25.67,26ZM40.85,43.41c2.36,0,2.47-1.53,3.47-2.34C43.52,41.05,43.21,42.94,40.85,43.41ZM17.39,35.72a4.87,4.87,0,0,1-2.71-1.16,4.13,4.13,0,0,0-.77-.44c-.36,0,.31.3,1.52,1.22a5.56,5.56,0,0,0,1.78.59C17.33,36,17.59,35.76,17.39,35.72ZM45.25,47.17a1.13,1.13,0,0,1,.88.55s0-.56-.67-.75a4.25,4.25,0,0,0-1.53-1.43c0,.15,1.18,1.05,1.32,1.63ZM16.46,15.64c0-.06.05-.2.08-.21a.8.8,0,0,0,.45.16.71.71,0,0,0,.49-.16.55.55,0,0,0,.16-.3,1.71,1.71,0,0,0,.32,0c.21,0,.31-.16.25-.15h-.09a2.06,2.06,0,0,1-.42,0c-.12,0-.22-.12-.34-.16a1.08,1.08,0,0,0-.43,0c.05-.1.18-.28.2-.32s.11-.2,0-.08a4.5,4.5,0,0,0-.37.34,1.14,1.14,0,0,0-.3.39,1.8,1.8,0,0,0,0,.3c0,.16,0,.38,0,.38s.07-.06.08-.1Zm.6-.69c.18,0,.33.07.34.19s-.13.24-.31.25-.34-.09-.35-.21S16.87,15,17.06,15Z"/></svg>