<svg id="Слой_1" data-name="Слой 1" xmlns="http://www.w3.org/2000/svg" viewBox="0 0 60 60"><defs><style>.cls-1,.cls-5{fill:#fff;}.cls-1,.cls-2,.cls-4,.cls-5{fill-rule:evenodd;}.cls-2{fill:#e7333b;}.cls-3,.cls-6,.cls-7,.cls-8,.cls-9{fill:none;}.cls-3,.cls-4{stroke:#000;}.cls-3,.cls-4,.cls-6,.cls-7,.cls-9{stroke-miterlimit:11.34;}.cls-3{stroke-width:0.35px;}.cls-4{fill:#ffde0d;stroke-width:0.23px;}.cls-5{fill-opacity:0.75;}.cls-6,.cls-7,.cls-8,.cls-9{stroke:#fff;}.cls-6{stroke-width:0.7px;}.cls-7{stroke-linecap:round;stroke-width:0.39px;}.cls-8{stroke-linecap:square;stroke-linejoin:round;stroke-width:0.42px;}.cls-9{stroke-width:0.37px;}</style></defs><path class="cls-1" d="M24.12,31.64c-.3-.45,0-.8-1.2-1.06-.09-1.4-1.28-1.79-2.06-2.41a10.74,10.74,0,0,0-2.1-2.68,2.45,2.45,0,0,0,.7-1.59c0-.54-.14-.64-.14-.64a.92.92,0,0,0-1.11-.42c-.28.17-.33.7-.65,1.12-.11-.53-.29-1-.69-1.06s-.94,0-1,.78a1.29,1.29,0,0,0,.78,1s-.18.16-.53,0c-.61-.32-.88-.14-1.26.31-.49.7.09,1.11.59,1.31.74.31.84-.25,1.17-.25s.63.28.64.67c-.77.34-.53.86-.69,1.26.06.24.18.46,1,.33,0,0-.06-.36.45-.36s.38.25.39.89a5.32,5.32,0,0,1-.22,1.32c-.33.1-.36.43-.39.75A2,2,0,0,0,18.48,32,2.6,2.6,0,0,0,19,30.72s.21-.2.3,0a1.25,1.25,0,0,1,0,.8c-1,.88-.16,1.36.11,2A3.48,3.48,0,0,0,20,32.39a.92.92,0,0,0,.53,1c.4-.12.48-.47.59-.81,0,.66.17,1.23.73,1.37a23.46,23.46,0,0,1,2.28-2.34Z"/><path class="cls-2" d="M18,22.22a1.05,1.05,0,0,1,.38.67c0,.24-.09.56.47.56s.64-.19.62-.52c0-.52-.71-.69-1.47-.71Z"/><path class="cls-2" d="M15.23,22.6c.58-.2,1.4-.37,1.64.5.06.24-.19.52-.52.52a.47.47,0,0,1-.45-.55C15.92,22.82,15.5,22.73,15.23,22.6Z"/><path class="cls-2" d="M14.58,26.77a3.93,3.93,0,0,1-.05-1.19c.1-.36.3-.52.52-.52a.56.56,0,0,1,.5.49,1,1,0,0,1-.5.75,1.25,1.25,0,0,0-.47.47Z"/><path class="cls-2" d="M16.91,27.81a3.42,3.42,0,0,0-1,.6,1.47,1.47,0,0,0,.81.2.75.75,0,0,0,.68-.47c.09-.2-.1-.4-.48-.33Z"/><path class="cls-1" d="M31.24,42a18.44,18.44,0,0,1,2.05.45,5.65,5.65,0,0,1,1.36.59A3.58,3.58,0,0,0,34,45.08c-2.87-.12-3.41.35-2.94.9a.81.81,0,0,1,.13.9c-.07.11-.05.31.47.4a1.42,1.42,0,0,1-1,.41c-.53,0-.78-.14-.87-.34a.59.59,0,0,0,0,.58,1.62,1.62,0,0,1,1.79,1.28,1,1,0,0,0-.68.68c-.24-.41-.51-.81-1-.81s-.53.21-.53.21c-.38-.09-.75-.63-1.12-1.11-.12.16-.12.3,0,.57a1.23,1.23,0,0,0,1.18,1c.4,0,.56.23.71.56s.64.22,1.05.26c-.26.09-.41.16-.43.43-.07.95-1.23.57-1.76.39,1.43,1.14,1.31,1.64,1,2.09-.77-.67-.94.74-1.75,0a1,1,0,0,1-1.3,0c-.05.94.75,1.2.08,2.12a.88.88,0,0,1-1.41,0c-.58-.1-.29-.88-.69-1.11-.59.51.32.54-1,1.82-.45.56-.87.38-1.28,0-.29-.85.59-1.74,0-1.84a1.84,1.84,0,0,1-1.88.56c-.72-.06-.83-.69-.66-1.22.23-.75.76-1.32,1.79-.37.38.35.48.65,1.22.54.05-.4,0-.73-.39-.79-.74-.13-.5-.52-.51-.83,0-.62.58-.72,1-.71s.68.06.74.65c.11,1.14.94.72,1.36.15s.64-.21,1.05-.66c.78-.87.78-1.32-.08-2.25-2-.12-1.95-1.35-2.58-2.17-1.52,1.14-2.66,1.48-2.9-.13,1,.34,1.87-.41,1.74-1.72a1.82,1.82,0,0,0,1.11.25c-1.12-1.18-.7-1.78-.23-2.37a1.48,1.48,0,0,0,1.19,1.44,4.9,4.9,0,0,1,3.18-1.62C28.83,43.22,29.57,42,31.24,42Z"/><path class="cls-2" d="M21.35,51.71c-.11-.08,1.59-.74,1.75,0,.08.42-.4.55-.82.58s-.93-.6-.93-.6Z"/><path class="cls-2" d="M20.25,53.86a.53.53,0,0,1,.62.76,1.68,1.68,0,0,1-1.27.82S19.35,54.18,20.25,53.86Z"/><path class="cls-2" d="M22.71,56.3c.22-.46.91-.55,1.08-.07a3.44,3.44,0,0,1-.07,1.21C23.57,57.52,22.51,56.72,22.71,56.3Z"/><path class="cls-2" d="M25.22,56.39s.34-.75.73-.9c.6-.23.87,0,.9.33.07,1-1.46.73-1.63.57Z"/><path class="cls-2" d="M29.59,27.2c-.81-.42-.4-1.17-3.05-1.06a2.5,2.5,0,0,1-2.34-.51c-.75-.75-.27-1.31-2.33-2-.66,0-.84.27-.86.65.06.21-.36.5.76.53.16-.14.48.28,1.38,1,.29.24.34.65.76.77a10.65,10.65,0,0,0,2.92.1c1.06,0,1.84.08,2,.77l.52.24Z"/><path class="cls-1" d="M35,20.47c-.25.71-.63.8-2.48.45-.8-.14-1.83.81-2.58.83-.41,0-.34-.21-1.27,0,0-.14-.82.73-.73,1.33l-1.62-.2c-1.06-.13-1.66.18-1.71.77l.31.77a1.37,1.37,0,0,1,.95-.54c.76-.1.49.44.33.49a5.42,5.42,0,0,1-1.19.23,2.22,2.22,0,0,0,.39,1.46,5.06,5.06,0,0,0,3.55-.74c.69.3.57,1.18.39,2.09a20.09,20.09,0,0,0-3.92-.19,15.85,15.85,0,0,1,.33,1.59,2.39,2.39,0,0,1-.23,1,1.41,1.41,0,0,0,1.39-.69s.43-.66.73-.64.39.33.36.71-.18.74-.5.69a1.91,1.91,0,0,1-.78-.36c-.19,1,.07,1.64,1.16,1.69.79,0,1.86-1.22,2.06-1.57.39-.3.47.33.41.47s-.2,0-.69.47-1.31.94-1.31,1.5.34.63.34.63a2.51,2.51,0,0,1,1.61-.85c2.27-.54,2-1.42,2.16-1.54s.26-.13.3-.05a1.76,1.76,0,0,1,.12.37c1-.38,1.25-1.47,1.35-2.72a3.13,3.13,0,0,1-.09-.81c0-.32.15-.65.31-.38s.15,0,.13,1.38a3.72,3.72,0,0,1-2.84,3.6c-1.23.42-1.4.31-2.11.62s-.72.63-.72.63h-1a7.53,7.53,0,0,0-1.78,3.12c-.55,1.64-1,1.14-1.41,1.76a2.39,2.39,0,0,0,2.57-.67,7.27,7.27,0,0,0,1.11-2.68,1.8,1.8,0,0,1,.73-1.15c.14-.08.45.06.26.24a4.39,4.39,0,0,0-1,2.2c-.05.25.32-.2.55.72,0,.14-.06.36.16.5a2.49,2.49,0,0,1,.62-.92c.51-.42.83-.57,1.07-1a7.53,7.53,0,0,0,0-2c.42-.05.51.19.52,1.32,0,2.76,1.15,2.87,2,3S34.43,37,34.43,37c-.63-.29-.84-.47-.82-1.11a10.73,10.73,0,0,1,.07-3.36c0-.84.59-.73.4,0a6.24,6.24,0,0,0-.29,2c-.06,1.29,1.08,1.08,1.66,1.28a2.55,2.55,0,0,1-.29-2.27,7.91,7.91,0,0,0,.69-2.83,5,5,0,0,0-.22-1.39c-.1-.49.22-.79.37-.4a7.22,7.22,0,0,1,.2,1.86,5.38,5.38,0,0,1,0,1.17s.42.65.88.62,1-.76,1-.76c-.51-.26-.85-1.22-1.06-2.94A7.53,7.53,0,0,0,36,26c1.24.89,1.8.43,2.15-.46-1,.07-1.71-.15-1.73-1.21.64.09.61-.39.61-.85,0-.81-.51-.87-.85-1.15-.69-.63-.53-.68-.61-1.07s.27-.59.19-.94c-.06-.2-.5-.57-.75.13Z"/><path class="cls-3" d="M30.33,25.07a6.45,6.45,0,0,1-.6,3.28"/><path class="cls-3" d="M29.79,22.1l-1.05,1.4A2.63,2.63,0,0,1,29.89,23c.39,0,.59.17.6.52s-.24.47-.55.54-.62-.36-.62-.36"/><path class="cls-3" d="M33,22.64c0-.21,1.76-.94,2.37.09.73,1.25-1.06,2.09-1.19,1.92"/><path class="cls-3" d="M35.57,23.58a1.12,1.12,0,0,1,.66.64"/><path class="cls-4" d="M33.84,23a3.54,3.54,0,0,0-1,.92l.49.23a1.78,1.78,0,0,1,.61-.56c.21-.15.59-.22.6-.43S34.27,22.81,33.84,23Z"/><path class="cls-1" d="M36.55,26.78a6.47,6.47,0,0,1,.66,2.13.85.85,0,0,0,.7.66.84.84,0,0,0,.45-.34,2.62,2.62,0,0,1-.81-1.39c-.26-.71-.17-.49-.29-.81s-.17-.47-.17-.47Z"/><path class="cls-1" d="M27.77,31.62l.35,1.1a3,3,0,0,0-2.05,2c-.56,2.12-1.27,1.37-1.92,1.61a3.58,3.58,0,0,0,.67-1.65c.39-3,1.75-2.74,2.95-3Z"/><path class="cls-1" d="M24.42,34.46a9.48,9.48,0,0,0-2.9,1.87c-1.42,1.11-2,1.46-2.69,1.46s-.76-.18-.73-.73c0-.81-.45-1.1-.86-1.11a1.11,1.11,0,0,0-1.16,1c.12.21-.15.37.43.63.25.12.37.14.45.54a1.67,1.67,0,0,0-1.85.88c-.12.57.23.82.67,1,.86.16,1.13-.42,1.51-.86.25.09.18.39.15.77a1,1,0,0,0,.13,1.1A1.43,1.43,0,0,0,19,41a2.23,2.23,0,0,0,.27-.94c0-.54-.17-1,.28-1A2.07,2.07,0,0,1,20,40.09c0,1,.34.69.56.89.55.07.88-.22,1.06-.89s-.46-1.51-.24-1.59.52.29.62.76-.13.83.33.83c.31,0,.79-.58.94-1.05s0-.82.2-.92.12.51.12.51c.86,0,1,.29,1.25.69.43-.12.83-1-.41-1.53a4.6,4.6,0,0,0,1.08-1.13,6.33,6.33,0,0,0-1.89-.07l.83-1.46a.89.89,0,0,0,0-.67Z"/><path class="cls-2" d="M15.55,35.77c.67-.24,1.37-.13,1.59.37.11.27-.45.65-.81.55s-.34-.55-.78-.92Z"/><path class="cls-2" d="M15.42,39c-.77.08-1,.77-.6,1.46a1.92,1.92,0,0,0,1-.78A.47.47,0,0,0,15.42,39Z"/><path class="cls-2" d="M17.76,40.88c.27-.43,1-.4,1.1,0a4.55,4.55,0,0,1,0,1.2c-.11.13-1.38-.7-1.1-1.18Z"/><path class="cls-2" d="M20.69,40.33a.64.64,0,0,1,1,0c.24.44-.76,1.54-.86,1.48S20.5,40.67,20.69,40.33Z"/><path class="cls-1" d="M25.29,32.45c-1.21-1-1.86,0-2.41.78s-1.15,1.34-2,1.34c-.51,0-.57-.15-1.19-.16a.92.92,0,0,0-1,.8c.5-.11,1.25-.17,1.41,0,.42.51.58.87,1.08.87s.81-.53,1.62-1,1.71-1,1.71-1a10.1,10.1,0,0,1,.81-1.66Z"/><path class="cls-1" d="M39.75,37.35a2.25,2.25,0,0,1,.51-2.68,3.71,3.71,0,0,0,.7-1.9,1.44,1.44,0,0,0-.47-1.25c-.45-.44-.58-.48-.58-1a1,1,0,0,1,.92-1c.56,0,.87,1.06.8,2.6-.05,1.15.08,2.86-.36,3.14s-.66.38-.66,1.93a7.72,7.72,0,0,1-.21,2.18c.49-.24.92-.58.92,1.35s-.94,2.14-2.24.71a13,13,0,0,0-1.72-1.84,14.56,14.56,0,0,0-2.12-1.45,2.82,2.82,0,0,0-1.06-.45,3.66,3.66,0,0,1-1.13.22c-.87,0-1.24-.47-1.7-1.25-.27-.49-.6-1.53-1.52-.13-.18.29,0,.16-.47,1a5.82,5.82,0,0,1-.51-.36l-.52-.46a4.76,4.76,0,0,1-2.42,1.8A6.54,6.54,0,0,0,28.05,40,3.64,3.64,0,0,0,30,41.22c.56.14,1.25.44,2.52.7s1.49.37,2.07.5a4.32,4.32,0,0,1-.12-.94c.32,0,.45.16.46.38,0,.59.25,1.52-.13,1.7s-.33,1.29-.46,1.86.29.57.29,1c-.3.18-.63.37-1.23.7.23.25.34.53.93.53a1.73,1.73,0,0,0,.81-.32l0,.68c-2,.34-2,1.57-2,1.89,0,.51.45.77,1,.82-.06-.7.3-1,.71-1a1.77,1.77,0,0,0,1-.43c.31-.22.48-.09.48-.09-.44.4-.79.8-.62,1.15-.06.34,0,.63.27.76a.82.82,0,0,1,.69-.61l.5-.5a1.37,1.37,0,0,0,.77.73,7.72,7.72,0,0,1,2.48.06c.58.15,1,.46.91,1.05a1.23,1.23,0,0,1-1,1.14c-.9,0-.65-.9-1.4-.9h-.37a1.44,1.44,0,0,0-.53,1.4c1,0,1.22.1,1.21.31s-.49.17-.83.17-.64-.28-1.16-.28-.49.29-.48.7.13.83,1,.89c.62,0,.93.14,1.32-.26.6-.59,1,0,.81.05-.53.28-.18.64.27.85.94.29,1.22,0,1.36-.46a2.2,2.2,0,0,0-.2-1.18s.63.06.81-.13.28-.51.46-.31.7.37.75.28a.66.66,0,0,0,0-.65l-.17-.53c.46,0,.59.45.85.72.7-.63.23-1.1.15-1.57-.08-.13.15-.15.53-.41.21-.15.08-.44.08-.44-.29,0-.62.17-.89-.07a.35.35,0,0,1,.19-.63.76.76,0,0,1,.44.41.79.79,0,0,1,.61-.37c.11-.43-.18-.63-.48-.81-1.42-.85-.06-2,.13-2,.78,0,.88-1.17.75-1.35-.21.35-.4.66-.92.66-1,0-1.46.54-1.46.88,0,1.07-.5.71-.53.66.33-1.25-.29-1.24-.77-1.37a1.46,1.46,0,0,1,.2,1.14,1.33,1.33,0,0,1-1.2-1c0-.58.27-.09.27-1.15s-.17-1-.34-1.18a1.76,1.76,0,0,1-.59-1.56c.84,0,1.68-.07,2-.87A3.9,3.9,0,0,0,42.4,41,13.16,13.16,0,0,0,42,39l.67.06a2.57,2.57,0,0,1-.26-2.23A2.28,2.28,0,0,0,42.33,35s.14-1.47.14-3.18c0-3.12-1-3.32-1.76-3.32a1.44,1.44,0,0,0-1.54,1.65,1.77,1.77,0,0,1-.22,1.1,7.38,7.38,0,0,0-.14,2c-.13,1-.38,1-1.09,1.63-1.53,1.36-.9,2.76.62,3.42-.73-1.13-.29-1.41-.06-1.79a5,5,0,0,0,.53-1.72,1.85,1.85,0,0,1,0,.92c-.19.91.53,1.11,1,1.56Z"/><path class="cls-2" d="M37.09,52.75c-.13-.13.75-1,1.24-.76.27.14.23.77,0,1S37.07,53,37.09,52.75Z"/><path class="cls-2" d="M36.68,54.34c.22-.22.88.13.87.82a1.73,1.73,0,0,1-.36.83C36.43,55.67,36.07,55,36.68,54.34Z"/><path class="cls-2" d="M40.26,55.7a.83.83,0,0,1,1-.39c.43.11.65,1,.53,1.08C41.82,56.53,40.1,56.3,40.26,55.7Z"/><path class="cls-1" d="M27.08,8.14a.39.39,0,0,1-.18.33.37.37,0,0,1-.38,0,.37.37,0,0,1-.19-.33.36.36,0,0,1,.19-.32.37.37,0,0,1,.56.32Z"/><path class="cls-1" d="M26.12,8.06a.42.42,0,1,1-.42-.42A.42.42,0,0,1,26.12,8.06Z"/><path class="cls-1" d="M25.07,7.81a.46.46,0,0,1-.46.46.47.47,0,0,1-.46-.46.46.46,0,0,1,.46-.46A.45.45,0,0,1,25.07,7.81Z"/><path class="cls-1" d="M23.94,8a.6.6,0,0,1-.29.51.62.62,0,0,1-.59,0A.6.6,0,0,1,22.77,8a.58.58,0,0,1,.29-.51.57.57,0,0,1,.59,0A.58.58,0,0,1,23.94,8Z"/><path class="cls-1" d="M22.73,8.77a.55.55,0,0,1-.55.55.55.55,0,0,1-.54-.55.54.54,0,0,1,.54-.54A.55.55,0,0,1,22.73,8.77Z"/><path class="cls-1" d="M22.39,9.94a.5.5,0,1,1-.5-.5A.5.5,0,0,1,22.39,9.94Z"/><path class="cls-1" d="M22.52,11.12a.47.47,0,1,1-.46-.46A.46.46,0,0,1,22.52,11.12Z"/><path class="cls-1" d="M23.15,12.12a.51.51,0,0,1-.51.51.51.51,0,0,1,0-1A.51.51,0,0,1,23.15,12.12Z"/><path class="cls-1" d="M28.26,8c-1.25-.09-1.06,1.77-.72,2.6s.68,1.89.68,1.89a3,3,0,0,0,.06-2.2A7.35,7.35,0,0,1,28.26,8Z"/><path class="cls-1" d="M27.15,9.39c.22-.85-4-1.42-4.47.28A3.5,3.5,0,0,0,24.5,13c.32-.25-1.33-2.17-1-3.14S27.15,9.39,27.15,9.39Z"/><path class="cls-1" d="M22.69,13.27c.39,0,.46-.32.5-.6a.71.71,0,0,0,.75.24C24,13.94,23.25,13.79,22.69,13.27Z"/><path class="cls-1" d="M24.13,11.29a6.78,6.78,0,0,1,3.28-.66c.49,1.42.76,3.13-1,2.52C25.35,13.66,24.82,12.77,24.13,11.29Z"/><path class="cls-1" d="M20.34,10.08a.38.38,0,0,1-.39.39.39.39,0,0,1-.39-.39A.4.4,0,0,1,20,9.69.39.39,0,0,1,20.34,10.08Z"/><path class="cls-1" d="M19.29,10.05a.45.45,0,1,1-.45-.45A.46.46,0,0,1,19.29,10.05Z"/><path class="cls-1" d="M18.36,10.57a.45.45,0,1,1-.45-.46A.45.45,0,0,1,18.36,10.57Z"/><path class="cls-1" d="M17.67,11.26a.45.45,0,1,1-.45-.45A.45.45,0,0,1,17.67,11.26Z"/><path class="cls-1" d="M17.28,12.19a.4.4,0,0,1-.39.39.39.39,0,0,1-.39-.39.38.38,0,0,1,.39-.39A.39.39,0,0,1,17.28,12.19Z"/><path class="cls-1" d="M17.49,13.18a.48.48,0,0,1-.48.48.47.47,0,0,1-.48-.48A.48.48,0,0,1,17,12.7.49.49,0,0,1,17.49,13.18Z"/><path class="cls-1" d="M17.94,14.11a.48.48,0,0,1-.48.48.47.47,0,0,1-.48-.48.48.48,0,0,1,.48-.48A.49.49,0,0,1,17.94,14.11Z"/><path class="cls-1" d="M21.43,9c-.68,0-.86,1-.64,2.2a2.3,2.3,0,0,0,1.63,2.07c-.09-.69-.9-1-1.11-2.07A5.14,5.14,0,0,1,21.43,9Z"/><path class="cls-1" d="M20.38,11.18a.62.62,0,0,0-.28-.55c-2.23.26-3.52,1-1.89,3.44.87.48.68.1.68-.13-.67-1.44-1.09-2.61,1.49-2.76Z"/><path class="cls-1" d="M20.91,12.39a3.23,3.23,0,0,0-1.83,1.33c.34.73.74,1.52,2.14,1,1.94-.26.7-1.3-.31-2.29Z"/><path class="cls-1" d="M18.18,14.44a3.33,3.33,0,0,0,1.05,1.11,1.19,1.19,0,0,0,.07-.74C19.12,14.36,18.58,14.51,18.18,14.44Z"/><path class="cls-1" d="M19.9,16.05a.38.38,0,1,1-.38-.38A.38.38,0,0,1,19.9,16.05Z"/><path class="cls-1" d="M21.73,15.14a.38.38,0,1,1-.38-.38A.38.38,0,0,1,21.73,15.14Z"/><path class="cls-1" d="M24.29,14.23a.41.41,0,0,1-.41.4.41.41,0,0,1,0-.81A.41.41,0,0,1,24.29,14.23Z"/><path class="cls-1" d="M26.69,13.72a.41.41,0,1,1-.4-.4A.4.4,0,0,1,26.69,13.72Z"/><path class="cls-1" d="M20.66,15.34a1.61,1.61,0,0,1-.73-.35c.05.35-.45,1.07.79,1C20.54,15.71,20.65,15.54,20.66,15.34Z"/><path class="cls-1" d="M22.41,15a.88.88,0,0,1,.46-.86c.33.2.78.26.4,1.29A1.29,1.29,0,0,1,22.41,15Z"/><path class="cls-1" d="M25.32,14.51v-.79a1.8,1.8,0,0,1-.71-.45C24.43,13.76,24.08,14.28,25.32,14.51Z"/><path class="cls-1" d="M27.2,13.59c.43-.15.52-.47.71-.76a.79.79,0,1,1,0,1.57,1.29,1.29,0,0,0-.73-.81Z"/><path class="cls-1" d="M28.72,5c-.3,0-.55.39-.64.85h.7V5Zm-.67,1.09a1,1,0,0,0,0,.17,2.91,2.91,0,0,0,0,.3h.73V6.09Zm.05.71c.12.43.38.72.68.72V6.8Z"/><path class="cls-1" d="M20.3,18.17l1.47-.23L20.66,19.1Z"/><path class="cls-5" d="M22.39,16.86l.44,1.58"/><path class="cls-6" d="M22.39,16.86l.44,1.58"/><path class="cls-1" d="M23.5,17l.21.76,2.11-.53-.21-.82Z"/><path class="cls-5" d="M26.75,15.91,27,17.56"/><path class="cls-6" d="M26.75,15.91,27,17.57"/><path class="cls-5" d="M22.34,19a33.17,33.17,0,0,0,5.56.54"/><path class="cls-7" d="M22.34,19a33.17,33.17,0,0,0,5.56.54"/><path class="cls-1" d="M31.62,8.14a.37.37,0,0,0,.19.33.35.35,0,0,0,.37,0,.37.37,0,0,0,.19-.33.36.36,0,0,0-.19-.32.35.35,0,0,0-.37,0A.36.36,0,0,0,31.62,8.14Z"/><path class="cls-1" d="M32.58,8.06A.42.42,0,1,0,33,7.64.42.42,0,0,0,32.58,8.06Z"/><path class="cls-1" d="M33.63,7.81a.46.46,0,0,0,.46.46.47.47,0,0,0,.46-.46.46.46,0,0,0-.46-.46A.45.45,0,0,0,33.63,7.81Z"/><path class="cls-1" d="M34.76,8a.6.6,0,0,0,.29.51.62.62,0,0,0,.59,0A.6.6,0,0,0,35.93,8a.58.58,0,0,0-.29-.51.57.57,0,0,0-.59,0A.58.58,0,0,0,34.76,8Z"/><path class="cls-1" d="M36,8.77a.54.54,0,1,0,1.08,0,.54.54,0,0,0-1.08,0Z"/><path class="cls-1" d="M36.31,9.94a.51.51,0,1,0,.5-.5A.51.51,0,0,0,36.31,9.94Z"/><path class="cls-1" d="M36.19,11.12a.46.46,0,0,0,.46.46.47.47,0,0,0,.46-.46.46.46,0,0,0-.46-.46A.45.45,0,0,0,36.19,11.12Z"/><path class="cls-1" d="M35.56,12.12a.5.5,0,1,0,.5-.5A.5.5,0,0,0,35.56,12.12Z"/><path class="cls-1" d="M30.44,8c1.25-.09,1.06,1.77.72,2.6a19.17,19.17,0,0,0-.67,1.89,3,3,0,0,1-.07-2.2A7.35,7.35,0,0,0,30.44,8Z"/><path class="cls-1" d="M31.55,9.39c-.22-.85,4-1.42,4.48.28A3.5,3.5,0,0,1,34.2,13c-.32-.25,1.33-2.17,1-3.14s-3.63-.44-3.63-.44Z"/><path class="cls-1" d="M36,13.27c-.39,0-.46-.32-.5-.6a.71.71,0,0,1-.75.24C34.69,13.94,35.45,13.79,36,13.27Z"/><path class="cls-1" d="M34.57,11.29a6.76,6.76,0,0,0-3.28-.66c-.49,1.42-.75,3.13,1,2.52C33.35,13.66,33.88,12.77,34.57,11.29Z"/><path class="cls-1" d="M38.36,10.08a.38.38,0,0,0,.39.39.39.39,0,0,0,.39-.39.4.4,0,0,0-.39-.39A.39.39,0,0,0,38.36,10.08Z"/><path class="cls-1" d="M39.41,10.05a.45.45,0,1,0,.45-.45.46.46,0,0,0-.45.45Z"/><path class="cls-1" d="M40.34,10.57a.45.45,0,1,0,.45-.46A.45.45,0,0,0,40.34,10.57Z"/><path class="cls-1" d="M41,11.26a.46.46,0,1,0,.45-.45A.45.45,0,0,0,41,11.26Z"/><path class="cls-1" d="M41.42,12.19a.4.4,0,0,0,.79,0,.4.4,0,0,0-.79,0Z"/><path class="cls-1" d="M41.21,13.18a.49.49,0,1,0,.49-.48A.49.49,0,0,0,41.21,13.18Z"/><path class="cls-1" d="M40.76,14.11a.49.49,0,0,0,1,0,.49.49,0,0,0-1,0Z"/><path class="cls-1" d="M37.28,9c.67,0,.85,1,.63,2.2a2.3,2.3,0,0,1-1.63,2.07c.09-.69.91-1,1.12-2.07A5.32,5.32,0,0,0,37.28,9Z"/><path class="cls-1" d="M38.32,11.18a.62.62,0,0,1,.28-.55c2.23.26,3.52,1,1.89,3.44-.87.48-.68.1-.68-.13.67-1.44,1.1-2.61-1.49-2.76Z"/><path class="cls-1" d="M37.8,12.39a3.24,3.24,0,0,1,1.82,1.33c-.34.73-.74,1.52-2.13,1-2-.26-.71-1.3.31-2.29Z"/><path class="cls-1" d="M40.52,14.44a3.33,3.33,0,0,1-1.05,1.11,1.12,1.12,0,0,1-.06-.74C39.59,14.36,40.12,14.51,40.52,14.44Z"/><path class="cls-1" d="M38.8,16.05a.38.38,0,1,0,.38-.38A.38.38,0,0,0,38.8,16.05Z"/><path class="cls-1" d="M37,15.14a.38.38,0,1,0,.38-.38A.38.38,0,0,0,37,15.14Z"/><path class="cls-1" d="M34.42,14.23a.4.4,0,0,0,.4.4.41.41,0,1,0,0-.81A.4.4,0,0,0,34.42,14.23Z"/><path class="cls-1" d="M32,13.72a.41.41,0,1,0,.4-.4A.4.4,0,0,0,32,13.72Z"/><path class="cls-1" d="M29.35,13.8a.41.41,0,0,1,0-.81m0,.81a.41.41,0,1,0,0-.81"/><path class="cls-1" d="M38,15.34a1.61,1.61,0,0,0,.73-.35c-.05.35.45,1.07-.78,1C38.16,15.71,38.05,15.54,38,15.34Z"/><path class="cls-1" d="M36.29,15a.88.88,0,0,0-.46-.86c-.33.2-.78.26-.4,1.29A1.27,1.27,0,0,0,36.29,15Z"/><path class="cls-1" d="M33.38,14.51v-.79a1.72,1.72,0,0,0,.71-.45C34.27,13.76,34.62,14.28,33.38,14.51Z"/><path class="cls-1" d="M31.5,13.59c-.43-.15-.52-.47-.71-.76a.79.79,0,1,0,0,1.57,1.29,1.29,0,0,1,.73-.81Z"/><path class="cls-1" d="M29.35,12.73a.71.71,0,0,1-.78-.6.71.71,0,0,1,.78-.61m0,1.21c.43,0,.79-.27.79-.6a.72.72,0,0,0-.79-.61"/><path class="cls-1" d="M29.35,11.37a.59.59,0,0,1,0-1.17m0,1.17a.59.59,0,0,0,0-1.17"/><path class="cls-1" d="M29.35,9.42a.66.66,0,0,0-.56.73l.56-.15m0-.58c.41.11.63.41.56.73L29.35,10"/><path class="cls-1" d="M29.35,8.55c-.33.12-.61.27-.58.64l.58,0m0-.61c.33.12.62.27.58.64l-.58,0"/><path class="cls-1" d="M29.35,8.41c-.32,0-.58-.14-.58-.31s.26-.3.58-.3m0,.61c.32,0,.59-.14.59-.31s-.27-.3-.59-.3"/><path class="cls-1" d="M28.47,2.55l.52.9v.3l-1.41-.24V4.65L29,4.27V7.51h.72V4.27l1.41.38V3.51l-1.41.24v-.3l.52-.9Z"/><path class="cls-1" d="M30,5c.3,0,.55.39.65.85h-.71V5Zm.68,1.09v.17a2.91,2.91,0,0,1,0,.3h-.73V6.09Zm-.06.71c-.12.43-.38.72-.68.72V6.8Z"/><path class="cls-8" d="M29.35,17.49c-3.81,0-7.31,1-8.59,2l-.65-1.65a18.54,18.54,0,0,1,9.24-2.07,18.54,18.54,0,0,1,9.24,2.07l-.65,1.65C36.66,18.53,33.16,17.53,29.35,17.49Z"/><path class="cls-1" d="M38.4,18.17l-1.47-.23L38,19.1Z"/><path class="cls-5" d="M36.31,16.86l-.44,1.58"/><path class="cls-6" d="M36.31,16.86l-.44,1.58"/><path class="cls-1" d="M35.2,17,35,17.8l-2.11-.53.21-.82Z"/><path class="cls-1" d="M29.35,16.05l-1.73.59,1.73.48m0-1.07,1.73.59-1.73.48"/><path class="cls-5" d="M32,15.91l-.26,1.65"/><path class="cls-6" d="M32,15.91l-.26,1.66"/><path class="cls-1" d="M29.35,19c-2.85,0-5.16-.18-5.16-.41s2.31-.42,5.16-.42m0,.83c2.85,0,5.16-.18,5.16-.41s-2.31-.42-5.16-.42"/><path class="cls-5" d="M36.36,19a33.17,33.17,0,0,1-5.56.54"/><path class="cls-7" d="M36.36,19a33.17,33.17,0,0,1-5.56.54"/><path class="cls-1" d="M29.35,19.85a31.16,31.16,0,0,1-7.86-.7l-.85.37a2.55,2.55,0,0,0,1.26.68,62.42,62.42,0,0,0,7.45.42,62.63,62.63,0,0,0,7.46-.42,2.55,2.55,0,0,0,1.25-.68l-.84-.37A31.29,31.29,0,0,1,29.35,19.85Z"/><path class="cls-9" d="M19.67,16.33c.51.8,2.08.76,1.85-.94.6,1.06,2.45,1.05,2.53-.88,1.06,2,2.34.45,2.38-.48,1.42,2.28,2.82.42,2.92-.26M39,16.33c-.51.8-2.08.76-1.85-.94-.59,1-2.45,1.1-2.53-.88-1.06,2-2.34.45-2.38-.48-1.42,2.28-2.82.42-2.91-.26"/></svg>