<svg id="Слой_1" data-name="Слой 1" xmlns="http://www.w3.org/2000/svg" xmlns:xlink="http://www.w3.org/1999/xlink" viewBox="0 0 60 60"><defs><style>.cls-1{fill:none;}.cls-2{fill:#fff;}.cls-3{clip-path:url(#clip-path);}</style><clipPath id="clip-path"><circle class="cls-1" cx="30" cy="30" r="11.25"/></clipPath></defs><path class="cls-2" d="M3.33,30,30,47,56.67,30,30,13Z"/><circle cx="30" cy="30" r="11.25"/><g class="cls-3"><path class="cls-2" d="M-3.74,52.49a27.32,27.32,0,0,1,54.63,0H49.28a25.71,25.71,0,0,0-51.41,0Z"/></g><g id="αCMi"><g id="star1"><g id="star"><g id="c"><path id="t" class="cls-2" d="M20.82,27.5l-.15.46.23.07"/><path id="t-2" data-name="t" class="cls-2" d="M20.82,27.5,21,28l-.23.07"/></g><g id="c-2" data-name="c"><path id="t-3" data-name="t" class="cls-2" d="M21.28,27.83H20.8v.24"/><path id="t-4" data-name="t" class="cls-2" d="M21.28,27.83l-.39.28-.14-.19"/></g><g id="c-3" data-name="c"><path id="t-5" data-name="t" class="cls-2" d="M20.36,27.83l.39.28.14-.19"/><path id="t-6" data-name="t" class="cls-2" d="M20.36,27.83h.48v.24"/></g><g id="c-4" data-name="c"><path id="t-7" data-name="t" class="cls-2" d="M21.1,28.37,21,27.91l-.23.08"/><path id="t-8" data-name="t" class="cls-2" d="M21.1,28.37l-.39-.28.14-.2"/></g><g id="c-5" data-name="c"><path id="t-9" data-name="t" class="cls-2" d="M20.54,28.37l.39-.28-.15-.2"/><path id="t-10" data-name="t" class="cls-2" d="M20.54,28.37l.14-.46.23.08"/></g></g></g></g><g id="αCMa"><g id="star1-2" data-name="star1"><g id="star-2" data-name="star"><g id="c-6" data-name="c"><path id="t-11" data-name="t" class="cls-2" d="M21.81,32.23l-.15.45.23.08"/><path id="t-12" data-name="t" class="cls-2" d="M21.81,32.23l.15.45-.23.08"/></g><g id="c-7" data-name="c"><path id="t-13" data-name="t" class="cls-2" d="M22.27,32.56h-.48v.24"/><path id="t-14" data-name="t" class="cls-2" d="M22.27,32.56l-.39.28-.14-.19"/></g><g id="c-8" data-name="c"><path id="t-15" data-name="t" class="cls-2" d="M21.36,32.56l.39.28.14-.19"/><path id="t-16" data-name="t" class="cls-2" d="M21.36,32.56h.48v.24"/></g><g id="c-9" data-name="c"><path id="t-17" data-name="t" class="cls-2" d="M22.1,33.1,22,32.64l-.23.07"/><path id="t-18" data-name="t" class="cls-2" d="M22.1,33.1l-.39-.29.14-.19"/></g><g id="c-10" data-name="c"><path id="t-19" data-name="t" class="cls-2" d="M21.53,33.1l.39-.29-.14-.19"/><path id="t-20" data-name="t" class="cls-2" d="M21.53,33.1l.15-.46.23.07"/></g></g></g></g><g id="βCMa"><g id="star2"><g id="star-3" data-name="star"><g id="c-11" data-name="c"><path id="t-21" data-name="t" class="cls-2" d="M20.44,33.32l-.13.38.19.06"/><path id="t-22" data-name="t" class="cls-2" d="M20.44,33.32l.12.38-.19.06"/></g><g id="c-12" data-name="c"><path id="t-23" data-name="t" class="cls-2" d="M20.82,33.59h-.4v.2"/><path id="t-24" data-name="t" class="cls-2" d="M20.82,33.59l-.33.24-.11-.16"/></g><g id="c-13" data-name="c"><path id="t-25" data-name="t" class="cls-2" d="M20.05,33.59l.33.24.12-.16"/><path id="t-26" data-name="t" class="cls-2" d="M20.05,33.59h.41v.2"/></g><g id="c-14" data-name="c"><path id="t-27" data-name="t" class="cls-2" d="M20.67,34l-.12-.38-.19.06"/><path id="t-28" data-name="t" class="cls-2" d="M20.67,34l-.32-.23.12-.17"/></g><g id="c-15" data-name="c"><path id="t-29" data-name="t" class="cls-2" d="M20.2,34l.33-.23-.12-.17"/><path id="t-30" data-name="t" class="cls-2" d="M20.2,34l.12-.38.2.06"/></g></g></g></g><g id="γCMa"><g id="star4"><g id="star-4" data-name="star"><g id="c-16" data-name="c"><path id="t-31" data-name="t" class="cls-2" d="M22.92,31.79l-.08.22L23,32"/><path id="t-32" data-name="t" class="cls-2" d="M22.92,31.79,23,32l-.11,0"/></g><g id="c-17" data-name="c"><path id="t-33" data-name="t" class="cls-2" d="M23.13,32H22.9v.11"/><path id="t-34" data-name="t" class="cls-2" d="M23.13,32l-.18.13L22.88,32"/></g><g id="c-18" data-name="c"><path id="t-35" data-name="t" class="cls-2" d="M22.7,32l.18.13L23,32"/><path id="t-36" data-name="t" class="cls-2" d="M22.7,32h.23v.11"/></g><g id="c-19" data-name="c"><path id="t-37" data-name="t" class="cls-2" d="M23.05,32.21,23,32l-.11,0"/><path id="t-38" data-name="t" class="cls-2" d="M23.05,32.21l-.19-.14.07-.09"/></g><g id="c-20" data-name="c"><path id="t-39" data-name="t" class="cls-2" d="M22.78,32.21l.19-.14L22.9,32"/><path id="t-40" data-name="t" class="cls-2" d="M22.78,32.21l.07-.22L23,32"/></g></g></g></g><g id="δCMa"><g id="star2-2" data-name="star2"><g id="star-5" data-name="star"><g id="c-21" data-name="c"><path id="t-41" data-name="t" class="cls-2" d="M24.15,33.42l-.12.39.19.06"/><path id="t-42" data-name="t" class="cls-2" d="M24.15,33.42l.13.39-.19.06"/></g><g id="c-22" data-name="c"><path id="t-43" data-name="t" class="cls-2" d="M24.54,33.7h-.4v.2"/><path id="t-44" data-name="t" class="cls-2" d="M24.54,33.7l-.33.24-.12-.17"/></g><g id="c-23" data-name="c"><path id="t-45" data-name="t" class="cls-2" d="M23.77,33.7l.33.24.12-.17"/><path id="t-46" data-name="t" class="cls-2" d="M23.77,33.7h.4v.2"/></g><g id="c-24" data-name="c"><path id="t-47" data-name="t" class="cls-2" d="M24.39,34.15l-.12-.38-.19.06"/><path id="t-48" data-name="t" class="cls-2" d="M24.39,34.15l-.32-.24.11-.16"/></g><g id="c-25" data-name="c"><path id="t-49" data-name="t" class="cls-2" d="M23.92,34.15l.32-.24-.11-.16"/><path id="t-50" data-name="t" class="cls-2" d="M23.92,34.15l.12-.38.19.06"/></g></g></g></g><g id="εCMa"><g id="star3"><g id="star-6" data-name="star"><g id="c-26" data-name="c"><path id="t-51" data-name="t" class="cls-2" d="M23.82,34.62l-.1.31.15,0"/><path id="t-52" data-name="t" class="cls-2" d="M23.82,34.62l.1.31-.16,0"/></g><g id="c-27" data-name="c"><path id="t-53" data-name="t" class="cls-2" d="M24.12,34.84H23.8V35"/><path id="t-54" data-name="t" class="cls-2" d="M24.12,34.84l-.26.19-.09-.13"/></g><g id="c-28" data-name="c"><path id="t-55" data-name="t" class="cls-2" d="M23.51,34.84l.26.19.1-.13"/><path id="t-56" data-name="t" class="cls-2" d="M23.51,34.84h.32V35"/></g><g id="c-29" data-name="c"><path id="t-57" data-name="t" class="cls-2" d="M24,35.2l-.1-.3-.15.05"/><path id="t-58" data-name="t" class="cls-2" d="M24,35.2,23.75,35l.09-.13"/></g><g id="c-30" data-name="c"><path id="t-59" data-name="t" class="cls-2" d="M23.63,35.2l.26-.19-.09-.13"/><path id="t-60" data-name="t" class="cls-2" d="M23.63,35.2l.1-.3.15.05"/></g></g></g></g><g id="αVir"><g id="star1-3" data-name="star1"><g id="star-7" data-name="star"><g id="c-31" data-name="c"><path id="t-61" data-name="t" class="cls-2" d="M33.49,26l-.15.46.23.07"/><path id="t-62" data-name="t" class="cls-2" d="M33.49,26l.15.46-.23.07"/></g><g id="c-32" data-name="c"><path id="t-63" data-name="t" class="cls-2" d="M34,26.36h-.48v.24"/><path id="t-64" data-name="t" class="cls-2" d="M34,26.36l-.39.29-.14-.2"/></g><g id="c-33" data-name="c"><path id="t-65" data-name="t" class="cls-2" d="M33,26.36l.39.29.14-.2"/><path id="t-66" data-name="t" class="cls-2" d="M33,26.36h.48v.24"/></g><g id="c-34" data-name="c"><path id="t-67" data-name="t" class="cls-2" d="M33.77,26.9l-.15-.46-.23.08"/><path id="t-68" data-name="t" class="cls-2" d="M33.77,26.9l-.39-.28.14-.2"/></g><g id="c-35" data-name="c"><path id="t-69" data-name="t" class="cls-2" d="M33.21,26.9l.39-.28-.15-.2"/><path id="t-70" data-name="t" class="cls-2" d="M33.21,26.9l.14-.46.23.08"/></g></g></g></g><g id="αSco"><g id="star1-4" data-name="star1"><g id="star-8" data-name="star"><g id="c-36" data-name="c"><path id="t-71" data-name="t" class="cls-2" d="M37.88,33.47l-.15.45L38,34"/><path id="t-72" data-name="t" class="cls-2" d="M37.88,33.47l.15.45L37.8,34"/></g><g id="c-37" data-name="c"><path id="t-73" data-name="t" class="cls-2" d="M38.34,33.8h-.48V34"/><path id="t-74" data-name="t" class="cls-2" d="M38.34,33.8l-.39.28-.14-.19"/></g><g id="c-38" data-name="c"><path id="t-75" data-name="t" class="cls-2" d="M37.42,33.8l.39.28.14-.19"/><path id="t-76" data-name="t" class="cls-2" d="M37.42,33.8h.48V34"/></g><g id="c-39" data-name="c"><path id="t-77" data-name="t" class="cls-2" d="M38.16,34.34,38,33.88l-.22.07"/><path id="t-78" data-name="t" class="cls-2" d="M38.16,34.34l-.39-.29.15-.19"/></g><g id="c-40" data-name="c"><path id="t-79" data-name="t" class="cls-2" d="M37.6,34.34l.39-.29-.14-.19"/><path id="t-80" data-name="t" class="cls-2" d="M37.6,34.34l.15-.46L38,34"/></g></g></g></g><g id="βSco"><g id="star3-2" data-name="star3"><g id="star-9" data-name="star"><g id="c-41" data-name="c"><path id="t-81" data-name="t" class="cls-2" d="M39.44,33.73l-.1.31.15.05"/><path id="t-82" data-name="t" class="cls-2" d="M39.44,33.73l.1.31-.15.05"/></g><g id="c-42" data-name="c"><path id="t-83" data-name="t" class="cls-2" d="M39.75,34h-.32v.16"/><path id="t-84" data-name="t" class="cls-2" d="M39.75,34l-.26.18-.1-.13"/></g><g id="c-43" data-name="c"><path id="t-85" data-name="t" class="cls-2" d="M39.14,34l.26.18.09-.13"/><path id="t-86" data-name="t" class="cls-2" d="M39.14,34h.32v.16"/></g><g id="c-44" data-name="c"><path id="t-87" data-name="t" class="cls-2" d="M39.63,34.31l-.1-.3-.15.05"/><path id="t-88" data-name="t" class="cls-2" d="M39.63,34.31l-.26-.18.09-.13"/></g><g id="c-45" data-name="c"><path id="t-89" data-name="t" class="cls-2" d="M39.25,34.31l.26-.18L39.42,34"/><path id="t-90" data-name="t" class="cls-2" d="M39.25,34.31l.1-.3.15.05"/></g></g></g></g><g id="εSco"><g id="star2-3" data-name="star2"><g id="star-10" data-name="star"><g id="c-46" data-name="c"><path id="t-91" data-name="t" class="cls-2" d="M38.34,34.54l-.13.38.2.06"/><path id="t-92" data-name="t" class="cls-2" d="M38.34,34.54l.12.38-.19.06"/></g><g id="c-47" data-name="c"><path id="t-93" data-name="t" class="cls-2" d="M38.72,34.82h-.4V35"/><path id="t-94" data-name="t" class="cls-2" d="M38.72,34.82l-.32.23-.12-.16"/></g><g id="c-48" data-name="c"><path id="t-95" data-name="t" class="cls-2" d="M38,34.82l.32.23.12-.16"/><path id="t-96" data-name="t" class="cls-2" d="M38,34.82h.4V35"/></g><g id="c-49" data-name="c"><path id="t-97" data-name="t" class="cls-2" d="M38.58,35.27l-.13-.38-.19.06"/><path id="t-98" data-name="t" class="cls-2" d="M38.58,35.27,38.25,35l.12-.16"/></g><g id="c-50" data-name="c"><path id="t-99" data-name="t" class="cls-2" d="M38.1,35.27l.33-.24-.12-.16"/><path id="t-100" data-name="t" class="cls-2" d="M38.1,35.27l.13-.38.19.06"/></g></g></g></g><g id="θSco"><g id="star2-4" data-name="star2"><g id="star-11" data-name="star"><g id="c-51" data-name="c"><path id="t-101" data-name="t" class="cls-2" d="M35.63,36.9l-.12.38.19.06"/><path id="t-102" data-name="t" class="cls-2" d="M35.63,36.9l.12.38-.19.06"/></g><g id="c-52" data-name="c"><path id="t-103" data-name="t" class="cls-2" d="M36,37.17h-.4v.21"/><path id="t-104" data-name="t" class="cls-2" d="M36,37.17l-.32.24-.12-.16"/></g><g id="c-53" data-name="c"><path id="t-105" data-name="t" class="cls-2" d="M35.25,37.17l.32.24.12-.16"/><path id="t-106" data-name="t" class="cls-2" d="M35.25,37.17h.4v.21"/></g><g id="c-54" data-name="c"><path id="t-107" data-name="t" class="cls-2" d="M35.87,37.62l-.13-.38-.19.06"/><path id="t-108" data-name="t" class="cls-2" d="M35.87,37.62l-.33-.23.12-.16"/></g><g id="c-55" data-name="c"><path id="t-109" data-name="t" class="cls-2" d="M35.39,37.62l.33-.23-.12-.16"/><path id="t-110" data-name="t" class="cls-2" d="M35.39,37.62l.13-.38.19.06"/></g></g></g></g><g id="ιSco"><g id="star3-3" data-name="star3"><g id="star-12" data-name="star"><g id="c-56" data-name="c"><path id="t-111" data-name="t" class="cls-2" d="M35.62,38.11l-.1.31.15,0"/><path id="t-112" data-name="t" class="cls-2" d="M35.62,38.11l.09.31-.15,0"/></g><g id="c-57" data-name="c"><path id="t-113" data-name="t" class="cls-2" d="M35.92,38.33H35.6v.16"/><path id="t-114" data-name="t" class="cls-2" d="M35.92,38.33l-.26.19-.09-.13"/></g><g id="c-58" data-name="c"><path id="t-115" data-name="t" class="cls-2" d="M35.31,38.33l.26.19.09-.13"/><path id="t-116" data-name="t" class="cls-2" d="M35.31,38.33h.32v.16"/></g><g id="c-59" data-name="c"><path id="t-117" data-name="t" class="cls-2" d="M35.8,38.69l-.09-.3-.16,0"/><path id="t-118" data-name="t" class="cls-2" d="M35.8,38.69l-.26-.19.1-.13"/></g><g id="c-60" data-name="c"><path id="t-119" data-name="t" class="cls-2" d="M35.43,38.69l.26-.19-.1-.13"/><path id="t-120" data-name="t" class="cls-2" d="M35.43,38.69l.1-.3.15,0"/></g></g></g></g><g id="κSco"><g id="star3-4" data-name="star3"><g id="star-13" data-name="star"><g id="c-61" data-name="c"><path id="t-121" data-name="t" class="cls-2" d="M36.75,36.09l-.1.31.15.05"/><path id="t-122" data-name="t" class="cls-2" d="M36.75,36.09l.1.31-.16.05"/></g><g id="c-62" data-name="c"><path id="t-123" data-name="t" class="cls-2" d="M37.05,36.31h-.32v.16"/><path id="t-124" data-name="t" class="cls-2" d="M37.05,36.31l-.26.19-.09-.13"/></g><g id="c-63" data-name="c"><path id="t-125" data-name="t" class="cls-2" d="M36.44,36.31l.26.19.1-.13"/><path id="t-126" data-name="t" class="cls-2" d="M36.44,36.31h.32v.16"/></g><g id="c-64" data-name="c"><path id="t-127" data-name="t" class="cls-2" d="M36.94,36.67l-.1-.3-.16.05"/><path id="t-128" data-name="t" class="cls-2" d="M36.94,36.67l-.26-.19.09-.13"/></g><g id="c-65" data-name="c"><path id="t-129" data-name="t" class="cls-2" d="M36.56,36.67l.26-.19-.1-.13"/><path id="t-130" data-name="t" class="cls-2" d="M36.56,36.67l.1-.3.15.05"/></g></g></g></g><g id="λSco"><g id="star2-5" data-name="star2"><g id="star-14" data-name="star"><g id="c-66" data-name="c"><path id="t-131" data-name="t" class="cls-2" d="M37.65,35.44l-.12.39.19.06"/><path id="t-132" data-name="t" class="cls-2" d="M37.65,35.44l.12.39-.19.06"/></g><g id="c-67" data-name="c"><path id="t-133" data-name="t" class="cls-2" d="M38,35.72h-.4v.2"/><path id="t-134" data-name="t" class="cls-2" d="M38,35.72l-.32.24-.12-.17"/></g><g id="c-68" data-name="c"><path id="t-135" data-name="t" class="cls-2" d="M37.27,35.72l.32.24.12-.17"/><path id="t-136" data-name="t" class="cls-2" d="M37.27,35.72h.4v.2"/></g><g id="c-69" data-name="c"><path id="t-137" data-name="t" class="cls-2" d="M37.89,36.17l-.13-.38-.19.06"/><path id="t-138" data-name="t" class="cls-2" d="M37.89,36.17l-.33-.24.12-.16"/></g><g id="c-70" data-name="c"><path id="t-139" data-name="t" class="cls-2" d="M37.41,36.17l.33-.24-.12-.16"/><path id="t-140" data-name="t" class="cls-2" d="M37.41,36.17l.13-.38.19.06"/></g></g></g></g><g id="μSco"><g id="star3-5" data-name="star3"><g id="star-15" data-name="star"><g id="c-71" data-name="c"><path id="t-141" data-name="t" class="cls-2" d="M35.58,35.88l-.09.3.15,0"/><path id="t-142" data-name="t" class="cls-2" d="M35.58,35.88l.1.3-.15,0"/></g><g id="c-72" data-name="c"><path id="t-143" data-name="t" class="cls-2" d="M35.89,36.1h-.32v.16"/><path id="t-144" data-name="t" class="cls-2" d="M35.89,36.1l-.26.19-.09-.13"/></g><g id="c-73" data-name="c"><path id="t-145" data-name="t" class="cls-2" d="M35.28,36.1l.26.19.09-.13"/><path id="t-146" data-name="t" class="cls-2" d="M35.28,36.1h.32v.16"/></g><g id="c-74" data-name="c"><path id="t-147" data-name="t" class="cls-2" d="M35.77,36.46l-.1-.31-.15.05"/><path id="t-148" data-name="t" class="cls-2" d="M35.77,36.46l-.26-.19.1-.13"/></g><g id="c-75" data-name="c"><path id="t-149" data-name="t" class="cls-2" d="M35.4,36.46l.26-.19-.1-.13"/><path id="t-150" data-name="t" class="cls-2" d="M35.4,36.46l.1-.31.15.05"/></g></g></g></g><g id="αHya"><g id="star2-6" data-name="star2"><g id="star-16" data-name="star"><g id="c-76" data-name="c"><path id="t-151" data-name="t" class="cls-2" d="M25.72,30.06l-.13.38.19.06"/><path id="t-152" data-name="t" class="cls-2" d="M25.72,30.06l.12.38-.19.06"/></g><g id="c-77" data-name="c"><path id="t-153" data-name="t" class="cls-2" d="M26.1,30.33h-.4v.21"/><path id="t-154" data-name="t" class="cls-2" d="M26.1,30.33l-.33.24-.12-.16"/></g><g id="c-78" data-name="c"><path id="t-155" data-name="t" class="cls-2" d="M25.33,30.33l.33.24.12-.16"/><path id="t-156" data-name="t" class="cls-2" d="M25.33,30.33h.41v.21"/></g><g id="c-79" data-name="c"><path id="t-157" data-name="t" class="cls-2" d="M26,30.78l-.12-.38-.19.06"/><path id="t-158" data-name="t" class="cls-2" d="M26,30.78l-.32-.23.11-.16"/></g><g id="c-80" data-name="c"><path id="t-159" data-name="t" class="cls-2" d="M25.48,30.78l.32-.23-.11-.16"/><path id="t-160" data-name="t" class="cls-2" d="M25.48,30.78l.12-.38.19.06"/></g></g></g></g><g id="γHya"><g id="star3-6" data-name="star3"><g id="star-17" data-name="star"><g id="c-81" data-name="c"><path id="t-161" data-name="t" class="cls-2" d="M33.06,29.11l-.1.31.15,0"/><path id="t-162" data-name="t" class="cls-2" d="M33.06,29.11l.1.31-.15,0"/></g><g id="c-82" data-name="c"><path id="t-163" data-name="t" class="cls-2" d="M33.37,29.33H33v.17"/><path id="t-164" data-name="t" class="cls-2" d="M33.37,29.33l-.26.19-.1-.13"/></g><g id="c-83" data-name="c"><path id="t-165" data-name="t" class="cls-2" d="M32.75,29.33l.26.19.1-.13"/><path id="t-166" data-name="t" class="cls-2" d="M32.75,29.33h.33v.17"/></g><g id="c-84" data-name="c"><path id="t-167" data-name="t" class="cls-2" d="M33.25,29.69l-.1-.3-.15.05"/><path id="t-168" data-name="t" class="cls-2" d="M33.25,29.69,33,29.5l.09-.13"/></g><g id="c-85" data-name="c"><path id="t-169" data-name="t" class="cls-2" d="M32.87,29.69l.26-.19L33,29.37"/><path id="t-170" data-name="t" class="cls-2" d="M32.87,29.69l.1-.3.15.05"/></g></g></g></g><g id="αCru"><g id="star1-5" data-name="star1"><g id="star-18" data-name="star"><g id="c-86" data-name="c"><path id="t-171" data-name="t" class="cls-2" d="M30,34.57l-.15.46.23.07"/><path id="t-172" data-name="t" class="cls-2" d="M30,34.57l.15.46-.23.07"/></g><g id="c-87" data-name="c"><path id="t-173" data-name="t" class="cls-2" d="M30.46,34.9H30v.24"/><path id="t-174" data-name="t" class="cls-2" d="M30.46,34.9l-.39.28L29.93,35"/></g><g id="c-88" data-name="c"><path id="t-175" data-name="t" class="cls-2" d="M29.54,34.9l.39.28.14-.19"/><path id="t-176" data-name="t" class="cls-2" d="M29.54,34.9H30v.24"/></g><g id="c-89" data-name="c"><path id="t-177" data-name="t" class="cls-2" d="M30.28,35.44,30.13,35l-.22.08"/><path id="t-178" data-name="t" class="cls-2" d="M30.28,35.44l-.39-.28L30,35"/></g><g id="c-90" data-name="c"><path id="t-179" data-name="t" class="cls-2" d="M29.72,35.44l.39-.28L30,35"/><path id="t-180" data-name="t" class="cls-2" d="M29.72,35.44l.15-.46.22.08"/></g></g></g></g><g id="βCru"><g id="star2-7" data-name="star2"><g id="star-19" data-name="star"><g id="c-91" data-name="c"><path id="t-181" data-name="t" class="cls-2" d="M31.3,32.41l-.12.39.19.06"/><path id="t-182" data-name="t" class="cls-2" d="M31.3,32.41l.12.39-.19.06"/></g><g id="c-92" data-name="c"><path id="t-183" data-name="t" class="cls-2" d="M31.68,32.69h-.4v.2"/><path id="t-184" data-name="t" class="cls-2" d="M31.68,32.69l-.32.24-.12-.17"/></g><g id="c-93" data-name="c"><path id="t-185" data-name="t" class="cls-2" d="M30.92,32.69l.32.24.12-.17"/><path id="t-186" data-name="t" class="cls-2" d="M30.92,32.69h.4v.2"/></g><g id="c-94" data-name="c"><path id="t-187" data-name="t" class="cls-2" d="M31.54,33.14l-.13-.38-.19.06"/><path id="t-188" data-name="t" class="cls-2" d="M31.54,33.14l-.33-.24.12-.16"/></g><g id="c-95" data-name="c"><path id="t-189" data-name="t" class="cls-2" d="M31.06,33.14l.33-.24-.12-.16"/><path id="t-190" data-name="t" class="cls-2" d="M31.06,33.14l.13-.38.19.06"/></g></g></g></g><g id="γCru"><g id="star2-8" data-name="star2"><g id="star-20" data-name="star"><g id="c-96" data-name="c"><path id="t-191" data-name="t" class="cls-2" d="M30,31.4l-.12.39.19.06"/><path id="t-192" data-name="t" class="cls-2" d="M30,31.4l.12.39-.19.06"/></g><g id="c-97" data-name="c"><path id="t-193" data-name="t" class="cls-2" d="M30.38,31.68H30v.2"/><path id="t-194" data-name="t" class="cls-2" d="M30.38,31.68l-.32.24-.12-.16"/></g><g id="c-98" data-name="c"><path id="t-195" data-name="t" class="cls-2" d="M29.62,31.68l.32.24.12-.16"/><path id="t-196" data-name="t" class="cls-2" d="M29.62,31.68H30v.2"/></g><g id="c-99" data-name="c"><path id="t-197" data-name="t" class="cls-2" d="M30.24,32.13l-.13-.38-.19.06"/><path id="t-198" data-name="t" class="cls-2" d="M30.24,32.13l-.33-.24.12-.16"/></g><g id="c-100" data-name="c"><path id="t-199" data-name="t" class="cls-2" d="M29.76,32.13l.33-.24L30,31.73"/><path id="t-200" data-name="t" class="cls-2" d="M29.76,32.13l.13-.38.19.06"/></g></g></g></g><g id="δCru"><g id="star3-7" data-name="star3"><g id="star-21" data-name="star"><g id="c-101" data-name="c"><path id="t-201" data-name="t" class="cls-2" d="M28.87,32.49l-.1.31.15.05"/><path id="t-202" data-name="t" class="cls-2" d="M28.87,32.49l.1.31-.16.05"/></g><g id="c-102" data-name="c"><path id="t-203" data-name="t" class="cls-2" d="M29.17,32.72h-.32v.16"/><path id="t-204" data-name="t" class="cls-2" d="M29.17,32.72l-.26.18-.09-.12"/></g><g id="c-103" data-name="c"><path id="t-205" data-name="t" class="cls-2" d="M28.56,32.72l.26.18.1-.12"/><path id="t-206" data-name="t" class="cls-2" d="M28.56,32.72h.32v.16"/></g><g id="c-104" data-name="c"><path id="t-207" data-name="t" class="cls-2" d="M29.06,33.08l-.1-.31-.16,0"/><path id="t-208" data-name="t" class="cls-2" d="M29.06,33.08l-.26-.19.09-.13"/></g><g id="c-105" data-name="c"><path id="t-209" data-name="t" class="cls-2" d="M28.68,33.08l.26-.19-.1-.13"/><path id="t-210" data-name="t" class="cls-2" d="M28.68,33.08l.1-.31.15,0"/></g></g></g></g><g id="εCru"><g id="star4-2" data-name="star4"><g id="star-22" data-name="star"><g id="c-106" data-name="c"><path id="t-211" data-name="t" class="cls-2" d="M29.43,33.37l-.07.21.11,0"/><path id="t-212" data-name="t" class="cls-2" d="M29.43,33.37l.07.21-.1,0"/></g><g id="c-107" data-name="c"><path id="t-213" data-name="t" class="cls-2" d="M29.65,33.52h-.23v.12"/><path id="t-214" data-name="t" class="cls-2" d="M29.65,33.52l-.18.14-.07-.09"/></g><g id="c-108" data-name="c"><path id="t-215" data-name="t" class="cls-2" d="M29.22,33.52l.18.14.07-.09"/><path id="t-216" data-name="t" class="cls-2" d="M29.22,33.52h.23v.12"/></g><g id="c-109" data-name="c"><path id="t-217" data-name="t" class="cls-2" d="M29.57,33.78l-.07-.22-.11,0"/><path id="t-218" data-name="t" class="cls-2" d="M29.57,33.78l-.19-.13.07-.1"/></g><g id="c-110" data-name="c"><path id="t-219" data-name="t" class="cls-2" d="M29.3,33.78l.18-.13-.06-.1"/><path id="t-220" data-name="t" class="cls-2" d="M29.3,33.78l.07-.22.11,0"/></g></g></g></g><g id="αTrA"><g id="star2-9" data-name="star2"><g id="star-23" data-name="star"><g id="c-111" data-name="c"><path id="t-221" data-name="t" class="cls-2" d="M33.37,37.17l-.13.38.19.07"/><path id="t-222" data-name="t" class="cls-2" d="M33.37,37.17l.12.38-.19.07"/></g><g id="c-112" data-name="c"><path id="t-223" data-name="t" class="cls-2" d="M33.75,37.45h-.4v.2"/><path id="t-224" data-name="t" class="cls-2" d="M33.75,37.45l-.33.24-.11-.17"/></g><g id="c-113" data-name="c"><path id="t-225" data-name="t" class="cls-2" d="M33,37.45l.33.24.12-.17"/><path id="t-226" data-name="t" class="cls-2" d="M33,37.45h.41v.2"/></g><g id="c-114" data-name="c"><path id="t-227" data-name="t" class="cls-2" d="M33.6,37.9l-.12-.38-.19.06"/><path id="t-228" data-name="t" class="cls-2" d="M33.6,37.9l-.32-.24.12-.16"/></g><g id="c-115" data-name="c"><path id="t-229" data-name="t" class="cls-2" d="M33.13,37.9l.33-.24-.12-.16"/><path id="t-230" data-name="t" class="cls-2" d="M33.13,37.9l.12-.38.2.06"/></g></g></g></g><g id="βTrA"><g id="star3-8" data-name="star3"><g id="star-24" data-name="star"><g id="c-116" data-name="c"><path id="t-231" data-name="t" class="cls-2" d="M34.33,36.26l-.1.3.15,0"/><path id="t-232" data-name="t" class="cls-2" d="M34.33,36.26l.1.3-.15,0"/></g><g id="c-117" data-name="c"><path id="t-233" data-name="t" class="cls-2" d="M34.64,36.48h-.33v.16"/><path id="t-234" data-name="t" class="cls-2" d="M34.64,36.48l-.26.19-.1-.13"/></g><g id="c-118" data-name="c"><path id="t-235" data-name="t" class="cls-2" d="M34,36.48l.26.19.1-.13"/><path id="t-236" data-name="t" class="cls-2" d="M34,36.48h.33v.16"/></g><g id="c-119" data-name="c"><path id="t-237" data-name="t" class="cls-2" d="M34.52,36.84l-.1-.31-.15,0"/><path id="t-238" data-name="t" class="cls-2" d="M34.52,36.84l-.26-.19.09-.13"/></g><g id="c-120" data-name="c"><path id="t-239" data-name="t" class="cls-2" d="M34.14,36.84l.26-.19-.09-.13"/><path id="t-240" data-name="t" class="cls-2" d="M34.14,36.84l.1-.31.15,0"/></g></g></g></g><g id="γTrA"><g id="star3-9" data-name="star3"><g id="star-25" data-name="star"><g id="c-121" data-name="c"><path id="t-241" data-name="t" class="cls-2" d="M32.48,36l-.1.31.15.05"/><path id="t-242" data-name="t" class="cls-2" d="M32.48,36l.1.31-.15.05"/></g><g id="c-122" data-name="c"><path id="t-243" data-name="t" class="cls-2" d="M32.78,36.2h-.32v.17"/><path id="t-244" data-name="t" class="cls-2" d="M32.78,36.2l-.26.19-.09-.13"/></g><g id="c-123" data-name="c"><path id="t-245" data-name="t" class="cls-2" d="M32.17,36.2l.26.19.1-.13"/><path id="t-246" data-name="t" class="cls-2" d="M32.17,36.2h.32v.17"/></g><g id="c-124" data-name="c"><path id="t-247" data-name="t" class="cls-2" d="M32.67,36.56l-.1-.3-.15.05"/><path id="t-248" data-name="t" class="cls-2" d="M32.67,36.56l-.26-.18.09-.13"/></g><g id="c-125" data-name="c"><path id="t-249" data-name="t" class="cls-2" d="M32.29,36.56l.26-.18-.09-.13"/><path id="t-250" data-name="t" class="cls-2" d="M32.29,36.56l.1-.3.15.05"/></g></g></g></g><g id="αCar"><g id="star1-6" data-name="star1"><g id="star-26" data-name="star"><g id="c-126" data-name="c"><path id="t-251" data-name="t" class="cls-2" d="M25.49,35.49l-.15.45.23.08"/><path id="t-252" data-name="t" class="cls-2" d="M25.49,35.49l.15.45-.23.08"/></g><g id="c-127" data-name="c"><path id="t-253" data-name="t" class="cls-2" d="M25.94,35.82h-.48v.24"/><path id="t-254" data-name="t" class="cls-2" d="M25.94,35.82l-.39.28-.14-.19"/></g><g id="c-128" data-name="c"><path id="t-255" data-name="t" class="cls-2" d="M25,35.82l.39.28.14-.19"/><path id="t-256" data-name="t" class="cls-2" d="M25,35.82h.48v.24"/></g><g id="c-129" data-name="c"><path id="t-257" data-name="t" class="cls-2" d="M25.77,36.36l-.15-.46-.23.07"/><path id="t-258" data-name="t" class="cls-2" d="M25.77,36.36l-.39-.29.14-.19"/></g><g id="c-130" data-name="c"><path id="t-259" data-name="t" class="cls-2" d="M25.2,36.36l.39-.29-.14-.19"/><path id="t-260" data-name="t" class="cls-2" d="M25.2,36.36l.15-.46.23.07"/></g></g></g></g><g id="σOct"><g id="star5"><g id="star-27" data-name="star"><g id="c-131" data-name="c"><path id="t-261" data-name="t" class="cls-2" d="M30,38.64l-.05.15.08,0"/><path id="t-262" data-name="t" class="cls-2" d="M30,38.64l.05.15-.08,0"/></g><g id="c-132" data-name="c"><path id="t-263" data-name="t" class="cls-2" d="M30.15,38.75H30v.08"/><path id="t-264" data-name="t" class="cls-2" d="M30.15,38.75l-.13.09,0-.06"/></g><g id="c-133" data-name="c"><path id="t-265" data-name="t" class="cls-2" d="M29.85,38.75l.13.09,0-.06"/><path id="t-266" data-name="t" class="cls-2" d="M29.85,38.75H30v.08"/></g><g id="c-134" data-name="c"><path id="t-267" data-name="t" class="cls-2" d="M30.09,38.93,30,38.78l-.07,0"/><path id="t-268" data-name="t" class="cls-2" d="M30.09,38.93l-.13-.1.05-.06"/></g><g id="c-135" data-name="c"><path id="t-269" data-name="t" class="cls-2" d="M29.91,38.93l.13-.1L30,38.77"/><path id="t-270" data-name="t" class="cls-2" d="M29.91,38.93l.05-.15.07,0"/></g></g></g></g></svg>