<svg id="Слой_1" data-name="Слой 1" xmlns="http://www.w3.org/2000/svg" viewBox="0 0 60 60"><defs><style>.cls-1{fill:#fff;}</style></defs><path class="cls-1" d="M42.35,40.91,55,30.67l-2.85-1.33a.87.87,0,0,1-.46-1.06l2.5-7.69-7.28,1.55a.88.88,0,0,1-1-.51l-1.42-3.32-5.68,6.1a.88.88,0,0,1-1.24,0,.87.87,0,0,1-.25-.8L40.08,9.51l-4.4,2.54a.87.87,0,0,1-1.19-.32l0-.05L30,2.92l-4.46,8.76a.87.87,0,0,1-1.17.39l-.05,0-4.4-2.54,2.74,14.13a.87.87,0,0,1-1.49.77l-5.68-6.1-1.42,3.32a.88.88,0,0,1-1,.51L5.81,20.59l2.5,7.69a.87.87,0,0,1-.46,1.06L5,30.67,17.65,40.91a.87.87,0,0,1,.27,1l-1.56,4.3,11.54-2a1.29,1.29,0,0,1,1.48,1.05,2.45,2.45,0,0,1,0,.27l-.61,11.6h2.42l-.61-11.6a1.28,1.28,0,0,1,1.22-1.33,1.31,1.31,0,0,1,.28,0l11.54,2-1.56-4.3A.87.87,0,0,1,42.35,40.91Z"/></svg>