<svg id="Слой_1" data-name="Слой 1" xmlns="http://www.w3.org/2000/svg" viewBox="0 0 60 60"><defs><style>.cls-1,.cls-5{fill:#fff;}.cls-1,.cls-2,.cls-3,.cls-4,.cls-5{fill-rule:evenodd;}.cls-2,.cls-4{fill:#010101;}.cls-2,.cls-3,.cls-4,.cls-5{stroke:#010101;}.cls-2,.cls-5{stroke-miterlimit:3.95;}.cls-2,.cls-3,.cls-4{stroke-width:0.4px;}.cls-3,.cls-4{stroke-linecap:round;stroke-linejoin:round;}.cls-5{stroke-width:0.12px;}</style></defs><path class="cls-1" d="M51.66,37.07V1.94H8.34V37.07c0,11.3,11.17,21,21.66,21s21.66-9.69,21.66-21Z"/><path class="cls-2" d="M22.3,40.89c-.06-.4-1.56.1-1,.46.79.55.09,1.1.12,1.73a1.87,1.87,0,0,0,.92-2.19ZM17,44.38c0-.4,1.55-.14,1.1.3-.7.66.08,1.1.14,1.72a1.86,1.86,0,0,1-1.24-2Zm-4-2.33c.2-.35,1.4.68.79.82-.94.21-.5,1-.77,1.55a1.86,1.86,0,0,1,0-2.37Zm.68-3.37c.39-.11.54,1.46,0,1.13-.82-.5-1,.37-1.63.58A1.86,1.86,0,0,1,13.65,38.68Z"/><path class="cls-3" d="M23.92,35.17a17.67,17.67,0,0,1-5.58,3.14,8.91,8.91,0,0,1-4.15-.07c-.84-.14-.7.61-.65,1.15s-.75,1.09,1.81.8c-.68.67-2.44.88-2.58,1.78,0,.25.35.14.42.36.16.48.13.87.75.81,1.6-.84,2.54-1.28,2.83-1.9-.08,1.22-.49,2.63-.09,3.42.2.39.55-.13.89-.13s.54.6.71.34c1-1.42-.1-3.47,1.18-4.73.57.72,1.48,2.55,1.69,1.78s.7-1.11,1.29-1.11-1-1-1.58-1.51a21.91,21.91,0,0,0,4.12-3"/><path class="cls-2" d="M46.24,38.68c-.38-.11-.54,1.46,0,1.13.82-.5,1,.37,1.63.58A1.86,1.86,0,0,0,46.24,38.68Zm.68,3.37c-.2-.35-1.4.68-.79.82.94.21.5,1,.77,1.55a1.86,1.86,0,0,0,0-2.37Zm-4,2.33c0-.4-1.55-.14-1.09.3.69.66-.09,1.1-.15,1.72a1.86,1.86,0,0,0,1.24-2Zm-5.29-3.49c.06-.4,1.56.1,1,.46-.79.55-.09,1.1-.12,1.73a1.87,1.87,0,0,1-.92-2.19Z"/><path class="cls-3" d="M36,35.17a17.56,17.56,0,0,0,5.52,3.14,8.91,8.91,0,0,0,4.15-.07c.84-.14.7.61.65,1.15s.75,1.09-1.8.8c.67.67,2.43.88,2.57,1.78,0,.25-.35.14-.42.36-.16.48-.13.87-.75.81-1.6-.84-2.54-1.28-2.82-1.9.07,1.22.48,2.63.08,3.42-.19.39-.55-.13-.89-.13s-.54.6-.71.34c-1-1.42.1-3.47-1.18-4.73-.57.72-1.48,2.55-1.69,1.78s-.7-1.11-1.29-1.11,1-1,1.59-1.51a24.43,24.43,0,0,1-4.37-3.17"/><path class="cls-4" d="M37,14.1a6.26,6.26,0,0,1,2.11-2.9c-2-2.89,2.07-4,4-3.5,1.52.43,3,1.71,5.41,2.9-.58,6.06.75,12.62,1.5,18.13l-2.67-1.1-1.25-9.72c-.15-1.24-1.37-1.74-1,.79l2.53,18.61-2.91-.78L42.8,20.27c-.15-1.43-1.36-.7-1.26.3l1.57,16.14-2.42-1-1.2-14.63c-.07-.77-1.37-1.28-1.27.31l.72,12.27L37.37,32.3l-.54-10.22c0-1-1.35-.53-1.32.49l.3,8.16-1.63-1.46L34,25c-.07-1.47-.73-1.15-.88-.08-.25,1.67-.76,4.38-.06,5.16A31.26,31.26,0,0,0,39.12,35c.88.57-2.2.79-3.31.36.07,1.89-.22,3.81-.5,3.31-1.08-1.87-1.85-3.52-3.49-4.58,0,2.41,1.51,4.5,4.1,6.65a6.71,6.71,0,0,1-2.84.57,4.61,4.61,0,0,0,4.28,1.43l0,1.26c1.67.43,2.12,1.59,1.51,3.39-.42-1.14-1.11-1.92-2-1.18C37,49,33.2,44.56,31.54,43.86c.36,2.44,1.6,3.74,4.07,4.78-1,1-2.75,1.63-3.91.82.4,2.89-.29,4.2-2.61,5.26C30,52.25,27.48,52,27.87,49.1a2.55,2.55,0,0,1-3.48-.46c2.47-1,3.71-2.34,4.07-4.78-1.66.7-5.48,5.09-5.25,2.31-.92-.74-1.61,0-2,1.18-.61-1.8-.16-3,1.51-3.39l-.05-1.26a4.61,4.61,0,0,0,4.28-1.43,6.71,6.71,0,0,1-2.84-.57c2.59-2.15,4.11-4.24,4.1-6.65-1.64,1.06-2.41,2.71-3.49,4.58-.28.5-.57-1.42-.5-3.31-1.11.43-4.19.21-3.31-.36a31.26,31.26,0,0,0,6.06-4.84c.7-.78.19-3.49-.06-5.16-.15-1.07-.81-1.39-.88.08l-.18,4.23-1.63,1.46.3-8.16c0-1-1.27-1.54-1.32-.49L22.63,32.3l-1.57,1.39.72-12.27c.09-1.59-1.2-1.08-1.27-.31l-1.2,14.63-2.42,1,1.57-16.14c.1-1-1.11-1.73-1.26-.3L15.34,36.53l-2.91.78L15,18.7c.35-2.53-.87-2-1-.79l-1.25,9.72L10,28.73c.75-5.51,2.08-12.07,1.5-18.13,2.38-1.19,3.89-2.47,5.41-2.9,1.94-.55,6,.61,4,3.5a6.26,6.26,0,0,1,2.11,2.9,4.93,4.93,0,0,1,2.95.73,14.11,14.11,0,0,0,2.53-4.18c.68-.54,1-.92,1.66-.66-.58-1-1.42-3.37-2.09-4.55A3.33,3.33,0,0,0,26.9,4c3-1.27,4.69.63,7.71.47a3.5,3.5,0,0,1-1.78,1.13c1.51.26,1.1,2.74,1.18,4.26s1.18,3.47,0,5a4.93,4.93,0,0,1,3-.73Z"/><path class="cls-3" d="M27.58,4.63a18.29,18.29,0,0,1,2.26,5,3.53,3.53,0,0,1-2.31,1.2,1.9,1.9,0,0,1-1.87-1,8.8,8.8,0,0,0,4.18-.18c-1.81.71-5.8.29-6.49-.94,2.59.44,5.07.59,5.44-.13-1-1.8-3.32-2.25-4.47-.94C24.26,5.56,25,4.23,27.58,4.63Z"/><path class="cls-5" d="M28.82,4.64c.13.44.05.88.54,1.31a4.76,4.76,0,0,1,1.28-.83,3.26,3.26,0,0,0-1.82-.48Z"/></svg>