<svg id="Слой_1" data-name="Слой 1" xmlns="http://www.w3.org/2000/svg" xmlns:xlink="http://www.w3.org/1999/xlink" viewBox="0 0 60 60"><defs><style>.cls-1,.cls-5,.cls-8{fill:none;}.cls-2{fill-rule:evenodd;}.cls-3,.cls-4,.cls-7{fill:#fff;}.cls-3,.cls-5,.cls-7,.cls-8{stroke:#fff;}.cls-3{stroke-miterlimit:3.2;stroke-width:0.05px;}.cls-5,.cls-7,.cls-8{stroke-linecap:round;stroke-linejoin:round;}.cls-5{stroke-width:0.3px;}.cls-6{clip-path:url(#clip-path);}.cls-7{stroke-width:1.19px;}.cls-8{stroke-width:0.42px;}</style><clipPath id="clip-path"><path class="cls-1" d="M15.43,42V14.27H45V42c0,2.51-1.41,3.1-3.54,3.1a63.58,63.58,0,0,0-7.36.6,5.79,5.79,0,0,0-3.82,2.21,6.08,6.08,0,0,0-4-2.21,63.36,63.36,0,0,0-7.35-.6c-2.13,0-3.55-.58-3.55-3.1Z"/></clipPath></defs><g id="layer1"><g id="g872"><g id="g860"><path id="path827" class="cls-2" d="M31.48,2.43l.27.6.64,1.39L31.5,5l-1.16.73-.85.85-.59.3-.41.54.93.12s2.1.34,2.33.34,3.11.27,3.11.27l3.74.46,2.76.2.78.3,1.8,1.1.71,1,.52,1.46L46,14.28l.86,1.46,1.69,1.73L50,18.66l.8,1.66.59,2,0,2.31V26l-.82-.48a7.57,7.57,0,0,1-.67-.93l-.57-1.33L49,24l-.67,1.74.6,3.1.66,2.35,1.12,1.76s1.66,2.67,1.57,2.67S51,38.51,51,38.51l-.36.37-.57-.64-.41-1.08-.75,1.35-.85,1.85-1,1.55-.84,2.31s-.75,2.07-.75,2.21a3.49,3.49,0,0,1-.37.73l-1.69.71-1.48,1s-1.26,1.49-1.35,1.53A15.13,15.13,0,0,0,39.33,52a3.36,3.36,0,0,1-.78.66c-.16.09-1.39.37-1.39.37l-.62,0a23.17,23.17,0,0,0,2.06-2.33c0-.2.52-1.71.52-1.71l.48-.82s0-.32-.13-.25l-1,.8-2.15.5s-2.07.48-2.16.48S33.1,50,33,50s-1.74.77-1.74.77l-.95.6.07-.07-1.6-.82-2.7-.69-1.44-.12-.79-.36L22.11,49l-1.33-.61-.16.16.77,1.75,1.35,1.6-.07.47-1.62-.45-1.78-1.82L18.1,48.83l-1.73-1.08-1.51-.67-.41-1.58-.72-2.29-.79-1.76-1.68-2.79-.66-1.51-.47-1.06L9.55,38a7.7,7.7,0,0,1-.86-.5c-.07-.09-.79-1.73-.81-1.82s.38-1.53.38-1.53l1.51-2.59.92-1.83.5-1.62.16-1.73,0-2.39L11,22.14l-.83,1.19L8.71,24.9l-.18-3,.21-1.12L9.88,19l1.24-1.59,1.35-1.08,1.29-1.56,1-2.07.93-2.18,1.57-1.33,1.17-.45s2.46.22,2.61.22,2.25-.38,2.25-.38l2.44-1.24L27.44,6a14.27,14.27,0,0,0,1-1.33c.05-.16.28-1,.28-1l.4-.69.11-.54-.81.56-1.82.29-1.87.05-2.07.49-1.33.52-1.42.81L18.75,6.47l-.36.9L18.14,8l-1.21.75a9.14,9.14,0,0,1-1.15,1c0-.09.23-1.64.23-1.64L16,7l-.43.09L15,7.73,13.12,8.85l-1.35,1.2L10.54,11.4,9.48,13.76l-.54,3,.29,1-.31,1.17L8.37,20c0,.09-.54-.59-.54-.59l-.27-1.28-.2-1.06,0-.61-.77.81L4.37,21.42l-.61,3.24.65,2.92,1.35,1.94.32,1.21,0,1.63L5.88,33l-1-.95-.57-.88L4,30.37l-.15,1,0,.86-.52,1,.41,3.09L4.5,38.7l1.13,1.83,2.16,2L9,43.7l.74,1.22.41,1-1.31-.74-.29.22.49,1,.86,1.94,2,2.22,3.31,2.32,2.1.48,2.86,0s1.84-.18,2-.15,3.16.92,3.16.92l1.73.83.12,0-1.79.69-2,.5-1.46-.52.07.54,0,.62,1,.62a9.41,9.41,0,0,0,1.78.11c0-.11,3.49-1.39,3.49-1.39l2.46-.21,2,.51,2,1,.89.3a11.19,11.19,0,0,0,1.44-.36c.09-.1,1-.71,1-.71l.18-.73-.07-.3-.8.39-2,.07-2-.53s.36-.52.5-.57,1.69-.61,1.69-.61l2.19-.71,3.31-.25,2.1-.07c.09,0,1.23-.21,1.23-.21l1.6-.86L48,50.79l1.76-1.92,1.48-2,.51-1-.3-.14-.75.32-.57.18.68-.77,1.16-1.85,1.51-1.1,1.32-1.68,1-1.83.71-2.26.59-2.87.16-2.36L57,30.82l-.36.68-1.49,1.26-.86.94.18-1.78-.28-1.44s.92-1.83,1-1.87a15.19,15.19,0,0,0,.71-1.49l.34-2.48-.16-2.31-.57-1.44-.44-1-1.46-3.44-.34.13-.09.89-.75,1.67-.85,2.67L51.08,20l.09-1-.34-.3-.16-1.35,0-1.84-.35-1.94-1.25-2.49S48,9.85,47.91,9.8,46,8.41,46,8.41L44.26,7.34l.18,1.16a9,9,0,0,1,0,1.55c-.09,0-.94-.7-.94-.7l-.91-.94-.82-.61L40.72,6,39.19,4.62,37,3.85l-2.21-.32-1.44-.37-1.71-.61Z"/><path id="path4720" class="cls-3" d="M31.39,2.23c-.09,0-.13.09-.13.25a.56.56,0,0,0,.11.33c.5.53,1,1.32.82,1.41s-.31,0-.63-.17a1.62,1.62,0,0,0-.29-.13.82.82,0,0,1-.21-.12c-.11-.09-.18-.11-.27-.06s-.11.08-.11.11a2.14,2.14,0,0,0,.33.4,1.8,1.8,0,0,1,.34.43.11.11,0,0,0,.07.1c.13,0-.1.25-.48.44a3.37,3.37,0,0,0-.63.4,1.61,1.61,0,0,1-.35.24.07.07,0,0,0-.07.08,2.61,2.61,0,0,1-.83.77,2.62,2.62,0,0,0-.8.79s0,.06.11.06a.22.22,0,0,1,.16.06s.06,0,.11,0,.08,0,.14,0,.08,0,.11,0a.22.22,0,0,1,.3,0s-.09.13-.24.22-.37.31-.27.42.1,0,.2,0a10.72,10.72,0,0,1,2.5-.13c.26,0,.93.05,1.48.05a6,6,0,0,1,1.06.07,1.09,1.09,0,0,0,.47.06,3.48,3.48,0,0,1,1.11.18,4.86,4.86,0,0,0,.7.15,5.39,5.39,0,0,1,.68.16,2.73,2.73,0,0,0,.57.12A1.8,1.8,0,0,1,38,9a13.3,13.3,0,0,0,2.89,0C41,9,41,9,41,9s.06.05.12,0,.11,0,.21,0,.13.06.18,0,.07-.07.18,0,.16.3,0,.41a.52.52,0,0,0-.06.69c.16.2.42.34.51.27a.51.51,0,0,1,.21-.08c.15,0,.18-.06.33-.38a.42.42,0,0,1,.14-.2s.2.12.36.29a1.26,1.26,0,0,0,.41.3.09.09,0,0,1,.1.09c0,.05,0,.09.06.09s.5.46.53.66a.85.85,0,0,0,.11.31,1.46,1.46,0,0,1,.14.4,1.76,1.76,0,0,0,.16.39.86.86,0,0,1,.13.23,2.81,2.81,0,0,0,.25.52,4.89,4.89,0,0,1,.24.49,3.61,3.61,0,0,0,.22.42c.09.17.19.36.21.42s.05.1.08.1.06,0,.06.09a1,1,0,0,0,.18.31,1,1,0,0,1,.18.28,3.69,3.69,0,0,0,.63.83.53.53,0,0,1,.16.21.53.53,0,0,0,.15.22l.74.78a3.69,3.69,0,0,0,.67.62.15.15,0,0,1,.12.09.13.13,0,0,0,.12.09s.11.07.14.15.09.15.13.15a1.09,1.09,0,0,1,.48.47s0,.1.12.14.12.1.12.14a1,1,0,0,0,.15.31c.23.33.21.4-.16.4a.51.51,0,0,0-.51.21.58.58,0,0,0-.21.48c0,.23,0,.29.24.48a1.1,1.1,0,0,0,.32.22,1.2,1.2,0,0,0,.63-.25l.14-.13,0,.19c0,.1.06.19.09.19s.09.12.13.26a2.23,2.23,0,0,0,.14.38,1.92,1.92,0,0,1,.15.45,2.77,2.77,0,0,0,.13.44,12.8,12.8,0,0,1,.05,1.53c0,1.7,0,1.68-.68.93a3.41,3.41,0,0,1-1-1.74.36.36,0,0,0-.1-.25c-.08-.07-.11-.06-.2,0a2.36,2.36,0,0,0-.31,1,.51.51,0,0,1-.09.26c-.08.11-.09.1-.16-.06l-.12-.3a1.19,1.19,0,0,1-.07-.27c0-.23-.27-.25-.32,0a1,1,0,0,1-.11.25s0,.12,0,.23a.22.22,0,0,1,0,.27.71.71,0,0,0,0,.57,4.24,4.24,0,0,1,.09.85,3.89,3.89,0,0,0,.16,1.33,2.64,2.64,0,0,1,.18.79.81.81,0,0,0,.08.34,1.64,1.64,0,0,1,.12.42,2.5,2.5,0,0,0,.16.51c.06.14.13.33.16.43a1.6,1.6,0,0,0,.11.33,3.37,3.37,0,0,1,.19.49,4.78,4.78,0,0,0,.19.48,1,1,0,0,1,.08.22,2.16,2.16,0,0,0,.18.44,2.51,2.51,0,0,1,.18.42s0,.08.09.1.09.1.09.18a.28.28,0,0,0,.09.21,1,1,0,0,1,.19.38c.06.16.13.29.16.29s.05,0,.05.07a.72.72,0,0,0,.15.25.7.7,0,0,1,.15.28.76.76,0,0,0,.18.32.76.76,0,0,1,.18.28,3.14,3.14,0,0,0,.39.75,1.48,1.48,0,0,1,.22.59,1.86,1.86,0,0,1-.24.56,6,6,0,0,0-.42.89,8.11,8.11,0,0,1-.56,1.1s0,.06,0,.11-.11,0-.22-.21a1.57,1.57,0,0,0-.14-.26.8.8,0,0,1-.19-.47.4.4,0,0,0-.15-.31.54.54,0,0,1-.15-.23c0-.17-.25-.45-.38-.43s-.14,0-.07.59c0,.33-.08.75-.23.78s-.1,0-.14-.31a1,1,0,0,0-.12-.41.24.24,0,0,1-.09-.15c0-.05-.06-.09-.14-.09s-.14,0-.18.68a1.89,1.89,0,0,1-.13.77,1.34,1.34,0,0,0-.13.39c0,.16-.06.28-.09.29s-.06,0-.06.08a2,2,0,0,1-.25.58,1,1,0,0,0-.09.21,3.62,3.62,0,0,1-.18.38,1.3,1.3,0,0,0-.14.33,2.54,2.54,0,0,1-.15.39,1.82,1.82,0,0,0-.16.41.59.59,0,0,1-.08.2.52.52,0,0,0-.1.23,1,1,0,0,1-.11.33,3.11,3.11,0,0,0-.31.73s0,.07-.05.07-.19.35-.19.47a.74.74,0,0,1-.12.24,1.4,1.4,0,0,0-.16.41,1.18,1.18,0,0,1-.08.3,1.89,1.89,0,0,0-.16.39,3.88,3.88,0,0,1-.19.53,1.16,1.16,0,0,0-.08.26,1,1,0,0,1-.09.27,3.9,3.9,0,0,0-.15.58,2.76,2.76,0,0,1-.13.5,1,1,0,0,1-.4.2,1.51,1.51,0,0,0-.38.15.79.79,0,0,1-.26.12c-.13,0-.23.09-.23.12a.53.53,0,0,1-.26.12,1,1,0,0,0-.31.15,3,3,0,0,1-.57.35,7.69,7.69,0,0,0-2,1.9,11,11,0,0,1-.91,1.1,1.76,1.76,0,0,0-.24.29s-.16.19-.36.4a3.17,3.17,0,0,0-.37.41s-.13.11-.3.18a3.86,3.86,0,0,0-.64.3c.09,0,.16,0,.17,0s0,0-.07.06h.1a2.83,2.83,0,0,0,.66-.24,2.33,2.33,0,0,1,.43-.25c.29-.14.74-.56.74-.7a3,3,0,0,1,.28-.39,1.88,1.88,0,0,0,.27-.42,5,5,0,0,1,1.34-1.48c.25-.11.48-.34.48-.49s0-.2.39-.43a1.1,1.1,0,0,1,.84-.25l.29,0,.39-.41a2,2,0,0,1,.46-.4,1,1,0,0,0,.32-.12,2.23,2.23,0,0,1,1.25-.19.8.8,0,0,0,.35.07c.21,0,.24,0,.21.11a1.56,1.56,0,0,1-.26.4,1.14,1.14,0,0,0-.24.37.09.09,0,0,1-.09.09c-.06,0-.11.07-.13.18a.46.46,0,0,1-.09.22.19.19,0,0,0-.06.15c0,.06,0,.12,0,.12s-.2.29-.2.4a.14.14,0,0,1-.09.1.38.38,0,0,0-.15.19c0,.09-.1.15-.15.15a.2.2,0,0,0-.14.08.66.66,0,0,1-.4.23.11.11,0,0,0-.11.07s-.07.05-.13,0-.09,0,0-.21a.75.75,0,0,0,.09-.28.71.71,0,0,1,.09-.27,4,4,0,0,0,.18-.51,1.2,1.2,0,0,1,.19-.41c.12-.1.11-.24,0-.24s-.28.21-.34.46a4.45,4.45,0,0,1-.15.42,2.63,2.63,0,0,0-.3.83c0,.25-.36.6-.91.88A2.91,2.91,0,0,0,43,51a.82.82,0,0,1-.34.09.41.41,0,0,0-.31.14.7.7,0,0,1-.32.19c-.1,0-.19.07-.19.11s0,0-.05,0a.12.12,0,0,1,0-.16.38.38,0,0,0,0-.27.6.6,0,0,1,0-.35,1.5,1.5,0,0,0,.25-.79c0-.1-.06-.12-.13-.06a.24.24,0,0,0-.09.15,2.81,2.81,0,0,1-.28.72,1.44,1.44,0,0,0-.1.54c0,.38,0,.37-.4.54l-.49.22a2.32,2.32,0,0,1-.49.16c-.27,0-.51.28-.45.43s.08.09.23.06.21-.06.22-.1a.12.12,0,0,1,.11-.06,1.12,1.12,0,0,0,.33-.12,3.63,3.63,0,0,1,.46-.16.46.46,0,0,0,.23-.09.21.21,0,0,1,.15,0c.06,0,.12,0,.13-.07s.48-.08.54,0,.68.05.71,0,0-.08-.18-.08a2.32,2.32,0,0,1-.38-.05l-.18,0,.21-.14c.19-.12.26-.13.7-.1l.77.07c.18,0,.29,0,.29,0s-.18-.14-.67-.23c-.31,0-.37-.08-.27-.12a2.05,2.05,0,0,0,.26-.16A.53.53,0,0,1,43.6,51a.18.18,0,0,0,.15-.1c0-.08.09-.09.29-.06a.87.87,0,0,1,.29.08.69.69,0,0,0,.42.2.26.26,0,0,1,.18.09.41.41,0,0,0,.26.09c.17,0,.18,0,.14-.17s-.11-.27-.53-.27a1.71,1.71,0,0,1-.49-.05c-.14-.08-.13-.22,0-.27a2.28,2.28,0,0,0,.48-.28,2.11,2.11,0,0,1,.42-.23,1.69,1.69,0,0,0,.32-.21,1.24,1.24,0,0,1,.33-.22.11.11,0,0,0,.1-.07,2.8,2.8,0,0,1,1.22,0,.93.93,0,0,0,.67,0c.08,0,.14-.1.11-.12a4.39,4.39,0,0,0-.78,0,2.76,2.76,0,0,1-.75-.05c0-.08.13-.18.31-.22A.81.81,0,0,0,47,49a.4.4,0,0,1,.18-.12,1.37,1.37,0,0,0,.36-.22,4.3,4.3,0,0,1,.6-.38c.32-.16.45-.37.23-.37a.3.3,0,0,0-.19.1.24.24,0,0,1-.15.09,1.1,1.1,0,0,0-.33.18,1.25,1.25,0,0,1-.31.18.06.06,0,0,0-.06.06s0,.05-.11,0-.17,0-.28.15a.65.65,0,0,1-.25.18,1.23,1.23,0,0,0-.34.22c-.4.32-.54.28-.27-.09a1.18,1.18,0,0,0,.19-.43c0-.13.06-.24.09-.24s.06,0,.06-.08a.5.5,0,0,1,.14-.23,1.83,1.83,0,0,0,.41-.62.62.62,0,0,1,.13-.23c.12-.14.22-.18.62-.24a4.22,4.22,0,0,0,.61-.12,5.92,5.92,0,0,1,1.08-.15,1,1,0,0,0,.31-.08,2.37,2.37,0,0,1,.5-.16,1.56,1.56,0,0,0,.44-.15.75.75,0,0,1,.27-.12.9.9,0,0,0,.37-.19.32.32,0,0,1,.19-.12c.09,0,0,.26-.2.46a5.15,5.15,0,0,0-.64.83c0,.06-.07.11-.11.11a.06.06,0,0,0-.06.06,1.83,1.83,0,0,1-.3.46,2.14,2.14,0,0,0-.3.44c0,.13-.38.48-.55.51a1.06,1.06,0,0,0-.42.29c-.2.19-.25.28-.24.44s0,.24-.3.5a4.13,4.13,0,0,1-.46.41,1,1,0,0,0-.26.28c-.06.1-.13.18-.17.18a.33.33,0,0,0-.17.12A.68.68,0,0,1,47,51c-.27,0-.45.19-.45.38s-.43.47-.74.46a.48.48,0,0,0-.56.32.54.54,0,0,1-.22.26c-.06,0-.11,0-.11.09s-.14,0-.77,0c-.25,0-.51,0-.51.16a.47.47,0,0,1-.13.18c-.14.15-.4.17-1.66.17H40.81L40,53a5.22,5.22,0,0,0-1.72.22,1.61,1.61,0,0,1-.39.09,1.18,1.18,0,0,0-.42.12,1.42,1.42,0,0,1-.38.12,1.58,1.58,0,0,0-.47.18c-.28.2-.38.19-.38,0s.17-.37.6-.44a2.91,2.91,0,0,0,.48-.12,1.6,1.6,0,0,1,.4-.14l.22-.07c-.09,0-.12,0-.12-.08l0,0a.77.77,0,0,0-.45.11.45.45,0,0,1-.26.09C37,53,37,53,37,52.89a.25.25,0,0,1,.14-.16c.07,0,.12-.06.12-.09a1.3,1.3,0,0,1,.43-.47,3.75,3.75,0,0,0,.66-.66,2.32,2.32,0,0,1,.36-.44,3.21,3.21,0,0,0,.46-.58c0-.11.13-.2.18-.2a.08.08,0,0,0,.09-.07,2.83,2.83,0,0,1,.45-.54c.32-.33.46-.51.46-.62s-.13-.3-.31-.21a4.52,4.52,0,0,0-.82.65c-.06.08-.09.08-.15,0s0-.11,0-.26A.84.84,0,0,0,39.3,49a1.44,1.44,0,0,1,.18-.32.74.74,0,0,0,.17-.58c0-.44-.15-.43-.61,0-.3.31-.44.4-.62.44a1.31,1.31,0,0,0-.38.12,1.32,1.32,0,0,1-.42.12,1.43,1.43,0,0,0-.42.12,6.27,6.27,0,0,1-1.68.24,2.2,2.2,0,0,0-.56.09.83.83,0,0,1-.32.1,2.51,2.51,0,0,0-.47.11,3.38,3.38,0,0,1-.66.18,2.91,2.91,0,0,0-.54.15,1.06,1.06,0,0,1-.28.1,1.32,1.32,0,0,0-.39.15,2.31,2.31,0,0,1-.47.18c-.16,0-.29.1-.29.13s-.12.1-.26.16a1.33,1.33,0,0,0-.34.22.31.31,0,0,1-.17.1s-.08,0-.08.05-.37.14-.45.07a3.86,3.86,0,0,0-.88-.42,2.1,2.1,0,0,1-.45-.18,2.1,2.1,0,0,0-.6-.22,1.3,1.3,0,0,1-.32-.09,2.68,2.68,0,0,0-.51-.12,4.26,4.26,0,0,1-.55-.12,5.28,5.28,0,0,0-1.33-.24.66.66,0,0,1-.34-.06s-.13-.06-.24-.06-.7-.13-.7-.2a.6.6,0,0,0-.28-.08A6.86,6.86,0,0,1,22.78,49a2.76,2.76,0,0,0-.49-.12,1.18,1.18,0,0,1-.47-.16c0-.05-.07-.07-.1-.05s-.79-.32-.79-.5a.15.15,0,0,0-.09-.12.14.14,0,0,1-.09-.11c0-.15-.14-.17-.25,0s-.09.17,0,.41a1.71,1.71,0,0,0,.17.47.83.83,0,0,1,.12.24c0,.11-.19,0-.43-.19s-.46-.34-.51-.19,0,.19.13.34.21.28.26.36.3.38.56.69a4.66,4.66,0,0,1,.47.59.86.86,0,0,0,.15.2c.7.72,1,1.09,1,1.21s0,.13-.14,0a2.58,2.58,0,0,0-.62-.17c-.47-.07-.47-.07-.92-.5a5.71,5.71,0,0,1-.63-.69,7.72,7.72,0,0,0-.65-.74c-.81-.84-1.07-1.09-1.15-1.09s-.08,0-.1-.12-.07-.12-.12-.12a.86.86,0,0,1-.3-.18,1.08,1.08,0,0,0-.3-.19.71.71,0,0,1-.28-.21,1.34,1.34,0,0,0-.42-.28,1.5,1.5,0,0,1-.36-.15,3.55,3.55,0,0,0-1-.47c-.34-.08-.53-.37-.62-1a1.7,1.7,0,0,0-.13-.55,1.09,1.09,0,0,1-.09-.29,1.76,1.76,0,0,0-.12-.44c0-.1-.12-.37-.18-.61s-.14-.5-.18-.6a3.43,3.43,0,0,1-.12-.33,1,1,0,0,0-.12-.25,1.57,1.57,0,0,1-.16-.39,1.76,1.76,0,0,0-.19-.47.55.55,0,0,1-.11-.22,8.56,8.56,0,0,0-.52-1,.84.84,0,0,1-.09-.22.58.58,0,0,0-.15-.21,1.68,1.68,0,0,1-.31-.45,4.57,4.57,0,0,0-.52-.86,4.91,4.91,0,0,1-.35-.63,3.25,3.25,0,0,0-.34-.6.21.21,0,0,1-.08-.13,3.82,3.82,0,0,0-.22-.52c-.12-.26-.39-.84-.44-1a.54.54,0,0,0-.14-.21l-.05.09a1,1,0,0,0-.07.15,1.63,1.63,0,0,1,.19.5.74.74,0,0,0,0,.28l.2.42a.89.89,0,0,0,.2.32s.1.08.14.17l.15.32a1.81,1.81,0,0,1,.29.81c0,.36.35.88.6.88.06,0,.19.13.3.27s.19.31.16.48,0,.24.15.43a.77.77,0,0,0,.27.22s.16.15.25.35a1.59,1.59,0,0,1,.19.94v.61l.33.3c.39.36.42.45.44,1.23,0,.49,0,.58.17.76a.85.85,0,0,1,.16.28.1.1,0,0,0,.06.08.74.74,0,0,1,.07.36c0,.32,0,.33-.15.35a.8.8,0,0,1-.36-.07,2.64,2.64,0,0,0-.51-.14c-.18,0-.32-.06-.32-.09s0-.05-.09-.05a.33.33,0,0,1-.18-.1c-.13-.13-.07-.53.09-.71a.4.4,0,0,0,.12-.2.35.35,0,0,1,.12-.17.37.37,0,0,0,.12-.22.16.16,0,0,1,.09-.14.15.15,0,0,0,.09-.12.11.11,0,0,1,.07-.11s.06-.06,0-.09-.34,0-.34.16a.47.47,0,0,1-.15.24,1,1,0,0,0-.22.31c0,.1-.09.18-.12.18s-.06.08-.06.18-.14.24-.3,0-.15-.51.12-.88a1.26,1.26,0,0,0,.24-.38.83.83,0,0,1,.16-.26.83.83,0,0,0,.15-.39c0-.18,0-.19-.2-.19s-.21,0-.36.35a2.81,2.81,0,0,0-.17.4.83.83,0,0,1-.16.26l-.16.21-.14-.23a1,1,0,0,1,0-1,.85.85,0,0,0,.12-.28.84.84,0,0,1,.18-.33,1,1,0,0,0,.18-.29.24.24,0,0,1,.09-.13.52.52,0,0,0,.13-.29c0-.2,0-.23-.09-.23s-.13,0-.13.08a1.52,1.52,0,0,1-.25.4,2.25,2.25,0,0,0-.33.63c-.11.37-.27.37-.34,0a1.06,1.06,0,0,0-.11-.3c-.08-.08-.08-.58,0-.58s.05,0,0-.08,0-.11.08-.22a.47.47,0,0,0,.15-.26.68.68,0,0,1,.12-.27.48.48,0,0,0,.12-.24.48.48,0,0,1,.08-.19c.05-.09.05-.14,0-.21s-.08-.08-.18,0a1.18,1.18,0,0,0-.18.34,1.86,1.86,0,0,1-.2.4c-.06.09-.09.18-.07.2s0,0-.09,0-.12,0-.23-.72a1.16,1.16,0,0,1,.18-.8c.1-.07,0-.18-.19-.16s-.17,0-.29-.65c-.07-.37-.14-.71-.16-.76s-.06-.17-.09-.27c-.08-.27-.2-.27-.2,0a.85.85,0,0,0,.05.32,4.56,4.56,0,0,1,.22,1.19c0,.22.06.4.09.4a3.17,3.17,0,0,1,.13.67,2.85,2.85,0,0,0,.12.67,1.12,1.12,0,0,1,.08.41,5.16,5.16,0,0,0,.22,1.19,2.7,2.7,0,0,1,.12.52,3.31,3.31,0,0,0,.31.92.53.53,0,0,1,.05.2c0,.05,0,.09.05.09s.09.14.14.31a1.64,1.64,0,0,0,.28.56c.33.42.23.55-.26.36a.65.65,0,0,1-.34-.25c0-.08,0-.13,0-.13s.06,0,.06-.09a.08.08,0,0,0-.08-.09,1.28,1.28,0,0,1-.36-.27c-.37-.35-.71-1.12-.36-.8.15.13.19.13.15,0a.14.14,0,0,0-.11-.12.09.09,0,0,1-.09-.09.1.1,0,0,0-.09-.1.51.51,0,0,1-.24-.15l-.15-.16.21-.2c.28-.28.3-.53.07-.79a.45.45,0,0,0-.37-.17H9.86v-.44c0-.36,0-.44.07-.44s.12,0,0-.2a2.11,2.11,0,0,1,0-1.07s.07,0,.09.09.16.12.16,0a1.64,1.64,0,0,0-.23-.33,1.36,1.36,0,0,1-.36-.82c-.13-.55-.13-.56,0-.93a2.13,2.13,0,0,0,.12-.5.83.83,0,0,1,.09-.3,1.78,1.78,0,0,0,.13-.52c0-.19.06-.35.09-.35s0-.07,0-.14a1,1,0,0,1,.12-.35c-.08-.09,0-.26.08-.26l0,0c.15-.32.16-.42,0-.42s-.38.25-.44.78-.14.71-.25.64a.21.21,0,0,1,0-.17,1.79,1.79,0,0,0-.1-.93c-.17-.06-.32.15-.36.52,0,.19-.05.4-.06.46s0,.14,0,.17-.2,0-.26-.12a8,8,0,0,0-.49-1c-.1-.15-.12-.24-.09-.73a2,2,0,0,1,.15-.8c.07-.13.23-.44.35-.7A2.46,2.46,0,0,1,9,33.38.3.3,0,0,0,9,33.21a1.19,1.19,0,0,1,.2-.4,4.28,4.28,0,0,0,.32-.58,1,1,0,0,1,.19-.32.15.15,0,0,0,.08-.12A.78.78,0,0,1,10,31.5a2.58,2.58,0,0,0,.25-.42,1.25,1.25,0,0,1,.2-.33,1,1,0,0,0,.15-.31,2.73,2.73,0,0,1,.18-.48,3.38,3.38,0,0,0,.21-.7,2.72,2.72,0,0,1,.16-.55,1.81,1.81,0,0,0,.12-.53,1.16,1.16,0,0,1,.08-.37c.05,0,0,0,.11-1.06a13.76,13.76,0,0,0-.1-3.24,3.15,3.15,0,0,1-.13-.61,2,2,0,0,0-.36-1s-.11,0-.2,0-.16.07-.16.23a.49.49,0,0,0,.06.26c0,.05,0,.12,0,.24l-.11.17-.05-.27c0-.27-.12-.36-.3-.36s-.13.1-.2.31a4.09,4.09,0,0,1-.19.47.9.9,0,0,0-.08.23.24.24,0,0,1-.11.15.7.7,0,0,0-.19.32,1.48,1.48,0,0,1-.2.38c-.12.13-.13.13-.21,0a1.36,1.36,0,0,1-.08-.54,1,1,0,0,0-.05-.44,9.25,9.25,0,0,1,0-1.82c0-.08.1-.26.16-.39.53-1.18.62-1.29.7-.95a.45.45,0,0,0,.51.38c.3,0,.49-.06.49-.14a.72.72,0,0,1,.15-.25.43.43,0,0,0,0-.58,1.62,1.62,0,0,0-.63-.31c-.17,0,0-.17.71-.91a8,8,0,0,0,.85-.94.39.39,0,0,1,.16-.19,2.86,2.86,0,0,0,.81-.82c0-.06.09-.17.2-.24a1.49,1.49,0,0,0,.25-.23,2.46,2.46,0,0,1,.32-.36.93.93,0,0,0,.26-.35.32.32,0,0,1,.12-.19A.32.32,0,0,0,14,14.6a.68.68,0,0,1,.14-.27,3.86,3.86,0,0,0,.41-.71c.16-.36.29-.66.44-1a1.63,1.63,0,0,0,.16-.45.57.57,0,0,1,.08-.24,2.06,2.06,0,0,0,.19-.45,2,2,0,0,1,.48-.9,2.8,2.8,0,0,1,.76-.56s.07,0,.08-.11.43-.34.54-.28.05.06,0,.09,0,.1.09.27.36.35.64.31a.48.48,0,0,0,.4-.7,1.51,1.51,0,0,1-.13-.25A.44.44,0,0,0,18,9.21c-.18-.07-.18-.08-.07-.16a.7.7,0,0,1,.61,0,11.46,11.46,0,0,0,2.54.16C22,9.11,22.12,9.1,22.22,9s.13,0,.24,0a.27.27,0,0,0,.3,0A.5.5,0,0,1,23,8.89a2.53,2.53,0,0,0,.7-.28,1,1,0,0,1,.27-.08.7.7,0,0,0,.25-.12.53.53,0,0,1,.26-.12.23.23,0,0,0,.15-.09s.12-.11.22-.13a2,2,0,0,0,.54-.28,2.14,2.14,0,0,1,.37-.23,4,4,0,0,0,.76-.51.25.25,0,0,1,.15-.1,2.69,2.69,0,0,0,.52-.38,4.56,4.56,0,0,1,.6-.46c.07,0,.13-.11.13-.15s.32-.4.41-.4.1-.06.14-.13.09-.12.13-.12a1.66,1.66,0,0,0,.53-.49,1.93,1.93,0,0,1,.32-.37c.37-.38.52-.63.43-.72s-.09,0-.17.07a.38.38,0,0,1-.21.12.68.68,0,0,0-.28.12c-.23.16-.45.16-.45,0a.26.26,0,0,1,.09-.19.24.24,0,0,0,.09-.15,5.05,5.05,0,0,1,.56-1.06c.13-.18.14-.34,0-.39s-.26,0-.52.32a1,1,0,0,1-.39.28L28.34,3a3.56,3.56,0,0,1-.72.12,4.55,4.55,0,0,0-.73.12,5.42,5.42,0,0,1-1,.09,13,13,0,0,0-2.27.22c-.07,0-.36.09-.64.15a2.37,2.37,0,0,0-.57.15,2,2,0,0,1-.31.12,4,4,0,0,0-.79.32l-.36.2a4.36,4.36,0,0,0-.58.38,1.39,1.39,0,0,1-.44.25.09.09,0,0,0-.1.09.09.09,0,0,1-.08.09A2.73,2.73,0,0,0,19,6a.14.14,0,0,1-.09.11,2.69,2.69,0,0,0-.5,1,.7.7,0,0,1-.08.25.23.23,0,0,0-.06.17.57.57,0,0,1-.21.3c-.18.15-.23.16-.31.1a.26.26,0,0,1-.06-.25c0-.13,0-.2-.13-.32a.44.44,0,0,0-.77.21.41.41,0,0,1-.09.21c-.06,0,.06.33.13.33s.05,0,.05.09a.14.14,0,0,0,.12.11c.17.05.15.16,0,.23a.89.89,0,0,0-.29.22l-.38.35c-.21.05-.28-.17-.13-.42a1.42,1.42,0,0,0,.14-.35.61.61,0,0,1,.08-.25,1.49,1.49,0,0,0,.15-.67.45.45,0,0,0-.21,0c-.18,0-.18,0-.14-.25a.41.41,0,0,0,0-.33c-.15-.18-.34-.1-.72.3a1.91,1.91,0,0,1-.44.4,1.11,1.11,0,0,0-.33.24,2.12,2.12,0,0,1-.43.32l-.2.1-.5.28a2.92,2.92,0,0,0-.57.34.34.34,0,0,1-.17.11s-.11.07-.15.15-.12.16-.17.16-.08,0-.08.05-.09.11-.2.16a12.64,12.64,0,0,0-1.73,1.77,3.21,3.21,0,0,1-.34.47,1.69,1.69,0,0,0-.3.55.79.79,0,0,1-.08.27,1.63,1.63,0,0,0-.26.6.28.28,0,0,1-.09.19.26.26,0,0,0-.09.17.51.51,0,0,1-.09.24.7.7,0,0,0-.1.37.63.63,0,0,1-.06.29,2.86,2.86,0,0,0-.09.68,2.33,2.33,0,0,1-.09.65c-.07,0-.06.43,0,.48s0,.07,0,.12a.18.18,0,0,0,0,.2,4.87,4.87,0,0,1,.17,1,.81.81,0,0,1-.24,0c-.41-.13-.75.16-.75.64a.39.39,0,0,0,.43.43c.34,0,.4.12.21.47a1.7,1.7,0,0,0-.15.36.39.39,0,0,1-.13.17c-.11.11-.12.11-.21,0a.6.6,0,0,1-.09-.31A.45.45,0,0,0,8,19a.57.57,0,0,1-.12-.32,1.75,1.75,0,0,0-.13-.44,3.1,3.1,0,0,1-.15-.74,4.77,4.77,0,0,0-.13-.73,1.42,1.42,0,0,1-.08-.38c0-.18,0-.21-.17-.23s-.16,0-.2.26-.06.27-.09.27-.07.07-.09.16-.13.18-.11-.07c0-.51-.41-.58-.49-.08A2.78,2.78,0,0,1,6,17.3a3.37,3.37,0,0,0-.15.37,2.47,2.47,0,0,1-.15.34,1.42,1.42,0,0,0-.15.37,4.93,4.93,0,0,1-.25.54,3.84,3.84,0,0,0-.24.56.22.22,0,0,1-.09.14.89.89,0,0,0-.16.3,1.32,1.32,0,0,1-.14.31,1,1,0,0,0-.16.35c0,.14-.09.26-.12.26a.67.67,0,0,0-.12.28,1.52,1.52,0,0,1-.19.44.55.55,0,0,0-.11.27.57.57,0,0,1-.08.25,5,5,0,0,0-.3,1.42.72.72,0,0,1-.07.36,7.19,7.19,0,0,0,0,2,.37.37,0,0,1,.08.23,3.21,3.21,0,0,0,.27,1,2.22,2.22,0,0,1,.13.39.61.61,0,0,0,.17.34.43.43,0,0,1,.12.36c0,.15,0,.24.08.24a1,1,0,0,1,.38.34,1,1,0,0,0,.12.16,3.4,3.4,0,0,1,.55.7s0,.09.11.11.19.19.19.44,0,.14-.33.1-.51,0-.66.3-.11.23,0,.42c.17.35.3.43.66.39s.48,0,.38.18a1.7,1.7,0,0,0-.09.61c0,.38,0,.44-.11.44a1,1,0,0,1-.44-.49,1.32,1.32,0,0,0-.26-.35,3.5,3.5,0,0,1-.67-1.21c-.06-.34-.44-.56-.63-.37a.45.45,0,0,0,0,.46,2.27,2.27,0,0,1,.1.69c0,.54,0,.62,0,.56a1.22,1.22,0,0,1-.2-.43A1.93,1.93,0,0,0,3.23,31a.38.38,0,0,0-.48,0,.71.71,0,0,0,0,.57A5.91,5.91,0,0,1,3,33.19,4.73,4.73,0,0,0,3,34a6.75,6.75,0,0,1,.15,1,5.79,5.79,0,0,0,.16.94.4.4,0,0,1,.06.23,3.22,3.22,0,0,0,.18.86,4.53,4.53,0,0,1,.15.6,3.53,3.53,0,0,0,.14.55,1.56,1.56,0,0,1,.13.38,6.15,6.15,0,0,0,1.12,2,.31.31,0,0,1,.1.17s0,.08.06.08.09.08.14.17a3.91,3.91,0,0,0,.42.5,3.12,3.12,0,0,1,.35.39,6,6,0,0,0,1,.89,3.08,3.08,0,0,1,.61.39l.17.13-.17.16a.86.86,0,0,0-.21.75c0,.07.07.14.1.14a.51.51,0,0,1,.21.13.56.56,0,0,0,.72,0,.46.46,0,0,0,.14-.21s.06-.1.13-.12.24,0,.37.35c0,.09.1.17.13.17s0,0,0,.07a1.77,1.77,0,0,0,.25.54.53.53,0,0,1,.09.2l0,.17-.53-.27h0c0,.05,0,.1,0,.12h0a3.27,3.27,0,0,0,1.36.62,3.17,3.17,0,0,1,.55.1,2.84,2.84,0,0,0,.51.15,5.16,5.16,0,0,1,.55.16l.24.09a.66.66,0,0,1,.28.13,3.68,3.68,0,0,0,.45.27c.35.18.56.19.7,0s.27-.07.54.07a.63.63,0,0,0,.28.08.42.42,0,0,1,.24.12.61.61,0,0,0,.22.16c.06,0,.11.07.11.11s.31.38.51.46a.87.87,0,0,0,.43,0c.32,0,.37,0,.71.18s.3.24.32.36.19.29.47.29.28.08.87.68c.37.38.79.82.93,1s.39.44.55.6a2.45,2.45,0,0,1,.32.41.36.36,0,0,0,.18.16c.15.06.33.24.28.28s-.13,0-.27-.06a1.93,1.93,0,0,0-.37-.09c-.08,0-.14,0-.14,0s-.32-.17-.65-.22a1.39,1.39,0,0,1-1-.74.61.61,0,0,0-.16-.26c-.06-.05-.07,0,0,.22l0,.28-.18,0a2.49,2.49,0,0,1-.88-.47,1.37,1.37,0,0,1-.41-.81,2.32,2.32,0,0,0-.16-.52c0-.08-.11-.23-.15-.34s-.32-.41-.42-.37,0,.14.07.29a4.94,4.94,0,0,1,.45,1.21.45.45,0,0,0,.11.26c.12.09-.35,0-.54-.13a1.42,1.42,0,0,0-.34-.15,1.21,1.21,0,0,1-.68-.86,1.53,1.53,0,0,0-.13-.44,3.58,3.58,0,0,1-.19-.5c-.13-.41-.2-.51-.37-.52s-.17,0-.05.21a3.54,3.54,0,0,1,.16.44,2.08,2.08,0,0,0,.14.39,2.16,2.16,0,0,1,.18.75,1,1,0,0,1-.28-.11l-.47-.25a1.82,1.82,0,0,1-.73-.78,1.74,1.74,0,0,0-.14-.3,1,1,0,0,1-.13-.27.36.36,0,0,0-.15-.21c-.06,0-.07,0,0,.21s.06.24.1.25.08.42,0,.46-.09,0-.14-.06a1,1,0,0,0-.28-.18,2.53,2.53,0,0,1-.57-.45c-.27-.29-.38-.36-.47-.33s-.2,0-.41-.24a1.41,1.41,0,0,0-.36-.28,1.24,1.24,0,0,1-.34-.24c-.31-.27-.41-.3-.41-.13a1.44,1.44,0,0,0,.45.55.47.47,0,0,1,.16.12,1.15,1.15,0,0,0,.28.19,1.73,1.73,0,0,1,.35.29,1.24,1.24,0,0,0,.24.19,1.91,1.91,0,0,1,.36.28,2.58,2.58,0,0,0,.55.39,2.28,2.28,0,0,1,.49.32l.24.22H13a.49.49,0,0,1-.31-.07,1.9,1.9,0,0,0-1-.23h-.31l.24.15a1,1,0,0,0,.48.15.66.66,0,0,1,.35.1c.07.07.28.1.8.12.81,0,1.09.09,1.33.29s.26.32-1,.32a7.87,7.87,0,0,0-.95,0s.07.08.15.15.23.11,1,.07a7.28,7.28,0,0,0,.91-.09c.14-.11.44-.13.52,0a.24.24,0,0,0,.16.09,3.84,3.84,0,0,1,.64.29c.55.29.55.29.35.34a10.21,10.21,0,0,1-1.2.09c-.89,0-1,0-1,.15s0,.1.22.1a.47.47,0,0,1,.28.06,1.33,1.33,0,0,0,.79,0,2,2,0,0,1,.58-.13c.41-.06.55-.1.58-.18s.06-.1.28,0a1.73,1.73,0,0,1,.5.23,2.26,2.26,0,0,0,.83.36c.07,0,.11,0,.1.07s-.17.08-.39.09l-.95.08c-.33,0-.75.06-.94.06s-.56.09-.56.2.15,0,.33,0a.78.78,0,0,1,.37.06c.05.08.29.08.37,0a3.51,3.51,0,0,1,.66-.13,3.14,3.14,0,0,0,.69-.14c.07,0,.09,0,.11,0s.2.1.2,0,.06-.06.14-.06a.34.34,0,0,0,.2-.06c.08-.08.61,0,.76.16a.29.29,0,0,0,.18.08.42.42,0,0,1,.22.1,2.51,2.51,0,0,0,.58.18,3.08,3.08,0,0,1,.57.16c.17.08.45,0,.4-.17s.2-.12.25,0a.29.29,0,0,0,.21.06.52.52,0,0,1,.28.09c.08,0,.15.06.19,0s.19,0,.39.12a2.25,2.25,0,0,0,.91.3s.13,0,.2.08a.77.77,0,0,0,.27.14c.18,0,.31.14.31.22s-.28.06-.36,0a1.49,1.49,0,0,0-.77-.19.62.62,0,0,1-.29-.09.53.53,0,0,0-.23-.09L22,52.75a1.27,1.27,0,0,1-.41-.1,1.71,1.71,0,0,0-.78,0,5.66,5.66,0,0,1-1.05.11,3.18,3.18,0,0,0-1,.14,6,6,0,0,1-1.8,0,.34.34,0,0,0-.22-.06.5.5,0,0,1-.36-.18c-.17-.18-.38-.24-.46-.11s-.58,0-.82-.11a.52.52,0,0,1-.24-.27.29.29,0,0,0-.27-.21.54.54,0,0,0-.26,0c-.08,0-.34-.06-.58-.25a.6.6,0,0,1-.25-.4.67.67,0,0,0-.57-.53.31.31,0,0,1-.21-.06.26.26,0,0,0-.17-.06,2.21,2.21,0,0,1-.63-.53l-.69-.71c-.19-.19-.23-.33-.12-.44s.05-.1,0-.18a2.23,2.23,0,0,1-.16-.34c-.06-.15-.13-.22-.21-.22a.21.21,0,0,1-.15-.06.41.41,0,0,0-.21-.09c-.18,0-.2-.05-.52-.68-.07-.13-.18-.32-.25-.42a.7.7,0,0,1-.13-.32.55.55,0,0,0-.13-.28,2.83,2.83,0,0,1-.27-.47.9.9,0,0,0-.26-.37c-.13-.06-.11-.22,0-.22a.56.56,0,0,1,.27.1.5.5,0,0,0,.17.07c-.14-.1-.24-.17,0-.13a.43.43,0,0,0-.19-.16l-.27-.14c-.23-.16-.5.24-.36.51a2.3,2.3,0,0,0,.34.53c.07.07.1.14.09.16A2,2,0,0,1,8.3,46c-.14-.1-.31,0-.33.21s.1.29.53.78c.71.81.69.78.79,1a4.19,4.19,0,0,0,.49.61,4.78,4.78,0,0,1,.42.49,1.78,1.78,0,0,0,.27.31,1.53,1.53,0,0,1,.28.33s0,.06.08.06a.14.14,0,0,1,.12.09.15.15,0,0,0,.13.09.08.08,0,0,1,.09.07,8,8,0,0,0,1,1,7.67,7.67,0,0,1,1,.78.44.44,0,0,0,.2.13.25.25,0,0,1,.16.12c0,.07.1.13.12.13a2.76,2.76,0,0,1,.64.43s.06,0,.1,0a.6.6,0,0,1,.26.14,2.92,2.92,0,0,0,.78.46,3,3,0,0,0,1,.33,13,13,0,0,0,2.9,0,3.59,3.59,0,0,1,.75,0s0,.09,0,.14a.63.63,0,0,0,.22,1,.58.58,0,0,0,.82-.27.54.54,0,0,0,0-.74.64.64,0,0,1-.11-.27c0-.09.05-.1.49-.07s.75.14.56.21-.1.47,0,.56a.24.24,0,0,1,.09.16s.11.09.24.12c.61,0,.62-.26.91-.66,0,.07.45.2.67.2a.32.32,0,0,1,.22.07,3.67,3.67,0,0,0,.84.42.87.87,0,0,1,.23.08l.44.16a4.53,4.53,0,0,1,.57.23c.29.14.32.16.19.18a.88.88,0,0,0-.27.1,1.34,1.34,0,0,1-.4.13,1.28,1.28,0,0,0-.33.08,3.78,3.78,0,0,1-1,.22,1.34,1.34,0,0,0-.43.09l-.36.15a2.46,2.46,0,0,1-1.3-.24l-.16,0a.17.17,0,0,1,0,.11,1.52,1.52,0,0,0,.53.31.32.32,0,0,1,.18.06,1.49,1.49,0,0,0,.93.06,1,1,0,0,1,.48-.1,1.06,1.06,0,0,0,.45-.08.26.26,0,0,1,.37.06.35.35,0,0,0,.22.12.28.28,0,0,1,.18.09.32.32,0,0,0,.39,0,1.76,1.76,0,0,1,.8-.21c.22,0,0,.13-.2.11s-.2,0-.2.06-.05.09-.11.11a1.74,1.74,0,0,0-.45.26.94.94,0,0,1-.3.1.39.39,0,0,0-.26.13c0,.14-.28.11-.32,0s-.1-.13-.27-.16-.23-.06-.23-.09-.39-.06-.48,0-.1.05-.22,0-.17-.07-.29.05l-.13.13.13.13c.1.11.22.14.54.16a1.9,1.9,0,0,1,.45.07,1,1,0,0,0,.3.11c.25.06.23.06-.3.06A3.11,3.11,0,0,1,22.75,57l-.21-.11a1.43,1.43,0,0,1-.33-.28c-.2-.2-.2-.21-.07-.21a.71.71,0,0,1,.25.06c.07,0,.14,0,.16,0s-.22-.32-.38-.36A.17.17,0,0,1,22,55.9c0-.08,0-.15.06-.15s.06,0,.06-.07-.07-.07-.07-.09,0,0,0,0A.47.47,0,0,0,22,55.4c-.22-.17-.36-.17-.36,0s0,.12.06.12.06.05.06.11a.29.29,0,0,0,.07.18s.05.09,0,.11a1.19,1.19,0,0,1-.65-.2c-.14-.12-.24-.1-.24,0a1.85,1.85,0,0,0,.18.6,1,1,0,0,1,.1.26.55.55,0,0,0,.15.29l.42.2.48.24a4.05,4.05,0,0,0,1.22.2,1.19,1.19,0,0,1,.45.09,2,2,0,0,0,.87,0l.3-.15a.84.84,0,0,1,.31-.1,1.22,1.22,0,0,0,.36-.13,1.4,1.4,0,0,1,.34-.12c.05,0,.09,0,.09,0s.08-.07.17-.1a3.06,3.06,0,0,0,.48-.18,2.54,2.54,0,0,1,.57-.19,1.32,1.32,0,0,0,.39-.11,2.18,2.18,0,0,1,.36-.15,3.86,3.86,0,0,0,.45-.17,3.84,3.84,0,0,1,2.16,0,1.52,1.52,0,0,0,.38.12c.18,0,.32.1.32.13s.1.06.23.06a.69.69,0,0,1,.35.09.93.93,0,0,0,.34.09c.13,0,.23,0,.23.05s.17.09.37.13a2.78,2.78,0,0,1,.59.18,1.51,1.51,0,0,0,.48.16.64.64,0,0,1,.29.09.29.29,0,0,0,.2.06.55.55,0,0,1,.28.09.44.44,0,0,0,.23.09c.06,0,.11,0,.11,0s.09.08.19.12a1.69,1.69,0,0,0,1-.08,2.35,2.35,0,0,1,.53-.14,3.25,3.25,0,0,0,.67-.21,1.47,1.47,0,0,1,.46-.16c.07,0,.13,0,.13-.06a.07.07,0,0,1,.07-.06c.14,0,.29-.2.29-.4s0-.21.06-.21.08-.22,0-.27-.72,0-.72.17a1.69,1.69,0,0,1-.5.53A1.43,1.43,0,0,0,37,57a1.94,1.94,0,0,1-.43.22.78.78,0,0,0-.24.13,1.27,1.27,0,0,1-.4.12c-.24,0-.32,0-.38-.06s0-.14.41-.3a.87.87,0,0,0,.19-.1,1,1,0,0,1,.25-.09.71.71,0,0,0,.29-.14l.14-.11-.13-.14c-.13-.12-.18-.13-.48-.1s-1,.31-1,.43-.06.11-.22-.07a.39.39,0,0,0-.4-.13c-.22,0-.27,0-.32-.12a.22.22,0,0,0-.22-.14,2,2,0,0,1-.69-.18L33,56.11a.68.68,0,0,1-.29-.12.21.21,0,0,0-.15-.06c-.15,0-.22-.26-.13-.46s.11-.15.28-.15a.39.39,0,0,1,.24.06s.1.06.16.06a3.15,3.15,0,0,1,.85.25,3.15,3.15,0,0,0,.52.12,2.21,2.21,0,0,1,.52.13,7.82,7.82,0,0,0,1.63.17,2.35,2.35,0,0,0,1-.17s.36-.19.48-.19.07.07.07.16,0,.15.08.08a.56.56,0,0,0,.05-.57c-.08-.08-.11-.08-.32.06a1.14,1.14,0,0,1-.31.15.26.26,0,0,0-.16.07,7.14,7.14,0,0,1-2,0,3.06,3.06,0,0,0-.7-.17,4.29,4.29,0,0,1-.79-.19.73.73,0,0,0-.24-.09c-.12,0-.09-.08.06-.21a1.61,1.61,0,0,1,.82-.36,1.3,1.3,0,0,0,.44-.17s0-.05.11-.05.14,0,.16-.06a.26.26,0,0,1,.19-.06.57.57,0,0,0,.28-.08,1.92,1.92,0,0,1,.51-.16,1,1,0,0,0,.38-.12s.12-.06.26-.08l.42-.08c.14,0,.16,0,.2.16a.89.89,0,0,0,.64.61c.1,0,.18,0,.18-.07s0-.06.09-.06.33-.31.33-.47.21-.32.57-.36.42,0,.23.31-.11.46,0,.46.05,0,.05.08.5.32.73.22a.89.89,0,0,0,.36-.7v-.19h1A5.44,5.44,0,0,0,43,53.77a4.3,4.3,0,0,1,.62-.18,1.7,1.7,0,0,0,.5-.16.21.21,0,0,1,.15,0,4.2,4.2,0,0,0,1.19-.61.35.35,0,0,1,.18-.12s.08,0,.08,0,.1-.09.22-.13a1.19,1.19,0,0,0,.35-.2,4,4,0,0,1,1-.72.1.1,0,0,0,.11-.09s0-.09.06-.09a11,11,0,0,0,1.64-1.56.08.08,0,0,1,.07-.08,3.66,3.66,0,0,0,.78-.74,1.52,1.52,0,0,1,.22-.27,3.52,3.52,0,0,0,.38-.42c.08-.11.36-.44.62-.75a4.4,4.4,0,0,0,.47-.6.08.08,0,0,1,.08-.07c.12,0,.27-.18.32-.38s0-.17-.21-.14a.71.71,0,0,1-.25,0,1.55,1.55,0,0,1,.14-.29c.17-.32.15-.53,0-.53a.37.37,0,0,0-.25.12.35.35,0,0,1-.19.12,1.56,1.56,0,0,0-.34.12c-.34.17-.43.16-.38,0h0s-.06,0-.07,0,0,0,0-.1a.27.27,0,0,1,0-.07s0,0-.08.06-.35.08-.49,0-.1-.1,0-.18a.49.49,0,0,1,.25-.13c.15,0,.42-.3.42-.42a.9.9,0,0,1,.18-.22.64.64,0,0,0,.18-.24,1.43,1.43,0,0,1,.17-.35c.17-.29.17-.29.16-1.42a4.22,4.22,0,0,0-.07-1.21.41.41,0,0,1-.07-.25c0-.19-.16-.53-.25-.53s-.06-.24.07-.43.16-.17.2-.17.14-.11.11-.5a1.33,1.33,0,0,1,.29-1.16,1.34,1.34,0,0,0,.35-1.12c0-.35,0-.46.08-.52a.49.49,0,0,0,.14-.22,1.08,1.08,0,0,1,.14-.26,1.25,1.25,0,0,0,.16-.24.31.31,0,0,1,.21-.16,1,1,0,0,0,.38-.26c.19-.2.24-.29.24-.48a.94.94,0,0,1,.26-.58c.15-.19.34-.42.42-.5A.6.6,0,0,0,54,34c0-.08.28-.22.44-.22a.64.64,0,0,0,.46-.47c0-.09.12-.24.35-.45l.8-.75a4.06,4.06,0,0,1,.56-.47.44.44,0,0,0,.19-.24,1,1,0,0,1,.27-.34c0-.1,0-.17.08-.18l.07,0,0,0c0-.06,0-.12-.08-.2-.23-.26-.45-.1-.45.31a.51.51,0,0,1-.15.3l-.15.15V31c0-.42,0-.44-.14-.42s-.24.18-.34.56a2.37,2.37,0,0,1-.41.66,6.08,6.08,0,0,0-.44.59,3.57,3.57,0,0,1-.64.75c0-.32.05-1,.06-1.23h.18c.29,0,.36,0,.52-.17a.57.57,0,0,0,0-.88c-.21-.23-.4-.31-.47-.19a.39.39,0,0,1-.22.08c-.16,0-.18,0-.18-.11s0-.15.06-.17a1.72,1.72,0,0,0,.18-.3,3.8,3.8,0,0,1,.33-.55,1.37,1.37,0,0,0,.22-.37.75.75,0,0,1,.15-.27,1.78,1.78,0,0,0,.21-.35c0-.07.08-.13.11-.13s.08-.11.1-.23a1.34,1.34,0,0,1,.15-.41,1.46,1.46,0,0,0,.15-.46,1.08,1.08,0,0,1,.1-.33,5.38,5.38,0,0,0,.15-.94,6.24,6.24,0,0,1,.15-1c.09-.16.07-.72,0-.72s0,0,0-.07a.32.32,0,0,0,0-.41.18.18,0,0,1,0-.24c0-.07.05-.13,0-.13a.89.89,0,0,1-.1-.44A2.58,2.58,0,0,0,56.05,22a.76.76,0,0,1-.12-.34.49.49,0,0,0-.12-.29s-.09-.14-.11-.29a1.75,1.75,0,0,0-.16-.44,1.38,1.38,0,0,1-.15-.4,2.45,2.45,0,0,0-.2-.54l-.2-.46c0-.07-.09-.22-.14-.34a1,1,0,0,1-.1-.29s0-.07,0-.07a1.88,1.88,0,0,1-.38-.75,3.44,3.44,0,0,0-.15-.4,4,4,0,0,1-.18-.36c-.26-.6-.41-.75-.7-.67s-.15.06-.16.55a2.84,2.84,0,0,1-.07.63l-.12.28c0,.14-.06.14-.1,0a2.5,2.5,0,0,0-.09-.25,1.58,1.58,0,0,1-.09-.35c0-.27,0-.26-.18-.29s-.13,0-.17.61a4.39,4.39,0,0,1-.1.7,2.35,2.35,0,0,0-.1.58,2.91,2.91,0,0,1-.12.68,4.89,4.89,0,0,0-.19.85c-.11.69-.22.95-.29.69a1.07,1.07,0,0,1,0-.25,5.47,5.47,0,0,0-.12-.56,2,2,0,0,1-.15-.76.18.18,0,0,1,.14-.05.58.58,0,0,0,.28-.13.45.45,0,0,0,.16-.4.51.51,0,0,0-.53-.57.55.55,0,0,0-.27.06.21.21,0,0,1-.15.08h0l0,.15v-.13s0,.07,0,.17a.53.53,0,0,0,.07.24,2.38,2.38,0,0,1,.24.71c0,.06,0,.11,0,.11a1.09,1.09,0,0,1-.32-.47,2.51,2.51,0,0,0-.18-.42,2.61,2.61,0,0,1-.19-.46c0-.06,0-.11,0-.11s-.08-.06-.11-.13A.39.39,0,0,0,50,18c-.07,0-.13-.09-.13-.12a1.16,1.16,0,0,0-.47-.46,1.83,1.83,0,0,1-.51-.35c-.24-.19-.49-.39-.57-.44a7.3,7.3,0,0,1-1.06-.93l-.42-.42,0-.4v-.4l-.3-.14a1.48,1.48,0,0,1-.79-1.47c0-.33,0-.35-.18-.58a1,1,0,0,1-.22-.33.27.27,0,0,0,0-.15,1.47,1.47,0,0,1-.13-.42A1.9,1.9,0,0,0,45,11a3.06,3.06,0,0,1-.11-.46,1.42,1.42,0,0,1,0-.71c.07-.31.07-.33-.08-.49a1,1,0,0,1-.27-.71,1.87,1.87,0,0,0-.06-.39,4,4,0,0,1-.11-.43l-.07-.34.15.08a.67.67,0,0,1,.19.13,3.65,3.65,0,0,0,.73.5,9,9,0,0,1,1.15.74,2.15,2.15,0,0,1,.47.52c.18.27.24.32.44.35a.72.72,0,0,1,.43.24.62.62,0,0,0,.23.21s.09.07.13.17a3.4,3.4,0,0,0,.16.34l.16.34a.66.66,0,0,0,.29.25c.24.12.48.35.48.46a.23.23,0,0,0,.12.15.87.87,0,0,1,.19.47,1,1,0,0,0,.3.63c.21.21.23.26.25.65s.05.44.13.49a1.78,1.78,0,0,1,.22.94.72.72,0,0,0,.08.32.18.18,0,0,1,0,.24,2.24,2.24,0,0,0,0,1.15c.06.07.06.09,0,.11a3.81,3.81,0,0,0,.12,1.41.35.35,0,0,1,.07.2v0a.05.05,0,0,1,0,0c0-.11-.08-.85-.08-1.23a2.11,2.11,0,0,1,.08-.78c.06-.06.06-.08,0-.13s-.08-.08,0-.18.05-.12,0-.12a2,2,0,0,1-.06-.76,4.93,4.93,0,0,0-.25-1.88.69.69,0,0,1-.12-.3.49.49,0,0,0-.08-.25,1,1,0,0,1-.13-.31.61.61,0,0,0-.16-.31,2.77,2.77,0,0,1-.46-.77,12.07,12.07,0,0,0-.93-1.15l-.13-.14a17.69,17.69,0,0,0-1.83-1.61c-.1-.07-.33-.22-.5-.35a1.25,1.25,0,0,0-.4-.23.52.52,0,0,1-.23-.11,3.08,3.08,0,0,0-.43-.25,2.12,2.12,0,0,1-.51-.38c-.22-.23-.33-.29-.33-.17s0,.06-.09.06-.13.24,0,.34.18.57.12.6-.33-.12-.41-.27-.37-.17-.37,0a.41.41,0,0,0,.09.23,1.61,1.61,0,0,1,.19.47,3.33,3.33,0,0,0,.17.53c.1.18.06.39-.06.39a4.23,4.23,0,0,1-.93-.8s0-.07.11-.09.18-.19.18-.57-.11-.38-.41-.44a.43.43,0,0,0-.52.27c0,.1-.13.18-.17.18a.81.81,0,0,1-.35-.4.73.73,0,0,0-.15-.22.7.7,0,0,1-.15-.28,1.4,1.4,0,0,0-.27-.46,1.65,1.65,0,0,1-.27-.44.15.15,0,0,0-.1-.12A.14.14,0,0,1,40.74,6a5.36,5.36,0,0,0-1.1-1.15,1.92,1.92,0,0,1-.34-.28.27.27,0,0,0-.19-.11.26.26,0,0,1-.18-.09,1.3,1.3,0,0,0-.39-.18L38,4a1.84,1.84,0,0,0-.45-.13.92.92,0,0,1-.34-.1,5.25,5.25,0,0,0-1.08-.21,1.21,1.21,0,0,1-.37-.08,5,5,0,0,0-.73-.09,3.82,3.82,0,0,1-1.27-.21,3.6,3.6,0,0,0-.48-.12A3.86,3.86,0,0,1,32.83,3l-.4-.15a1.13,1.13,0,0,1-.36-.19.24.24,0,0,0-.13-.09,1,1,0,0,1-.26-.15.53.53,0,0,0-.29-.14ZM57.28,30.9a.52.52,0,0,1-.17.18h0a4.64,4.64,0,0,0,0,.67,1,1,0,0,1-.08.33,9.36,9.36,0,0,0-.14,1.31c-.06.92-.09,1.16-.17,1.25a1.86,1.86,0,0,0-.34.65,1,1,0,0,0,.11.29.56.56,0,0,1,.06.5,1.67,1.67,0,0,1-.34.79.67.67,0,0,0-.11.47A5.75,5.75,0,0,1,56,38c-.06.34-.32.91-.42.91a.57.57,0,0,0-.24.18.48.48,0,0,0-.16.41c0,.13,0,.28,0,.33a2.94,2.94,0,0,1-.79.95.64.64,0,0,0-.3.51,3.21,3.21,0,0,1-.69.76,15.36,15.36,0,0,0-1.87,2c-.05.09-.11.17-.15.17s-.14.18-.14.37c0,0,0,0,0,0a.5.5,0,0,1,.1-.12s.08,0,.08.06,0,0,0,.08a.11.11,0,0,1,0,.05c.1,0,0,.06,0,.2a.37.37,0,0,0,.17.31.46.46,0,0,0,.4.1.79.79,0,0,0,.27-.08.59.59,0,0,1,.16-.12c.09,0,.13-.14.14-.37s0-.32-.17-.46a1.84,1.84,0,0,0-.29-.22c-.09-.06-.08-.09.11-.25l.32-.27a.38.38,0,0,1,.16-.09A8.88,8.88,0,0,0,54,42.06a1.43,1.43,0,0,1,.3-.41,1.3,1.3,0,0,0,.3-.42.14.14,0,0,1,.09-.12c.08,0,.13-.11.37-.58.06-.12.2-.36.31-.53a1.77,1.77,0,0,0,.2-.37.7.7,0,0,1,.09-.23c.05-.1.1-.22.12-.27A1.51,1.51,0,0,1,55.9,39a4.76,4.76,0,0,0,.41-1c0-.11.06-.2.08-.2a1.12,1.12,0,0,0,.12-.44,2.71,2.71,0,0,1,.12-.5,2.5,2.5,0,0,0,.18-.82,4.08,4.08,0,0,1,.11-.48,10.35,10.35,0,0,0,.25-2,3.9,3.9,0,0,1,.08-.87c0-.06,0-.1,0-.15a.1.1,0,0,1,0-.13,2.14,2.14,0,0,0,.08-.61,2.77,2.77,0,0,0,0-.81ZM51.41,44.58c-.06-.08-.13,0-.16,0l-.41.58c-.07.09-.32.46-.4.6s.06.06,0,.15a5.36,5.36,0,0,0,.93-1.31ZM31.76,2.72l.11,0a1.34,1.34,0,0,1,.39.18,1.19,1.19,0,0,0,.42.18.69.69,0,0,1,.27.09,3.64,3.64,0,0,0,.86.21,2.34,2.34,0,0,1,.78.28c.3.14.49.16.6,0a1,1,0,0,1,.67,0A.18.18,0,0,0,36,3.8a.83.83,0,0,1,.32.17c.26.21.35.23.78.16a1,1,0,0,1,1,.31.68.68,0,0,0,.54.25c.29,0,.35.06.44.21s.13.17.17.17.08,0,.08,0,.1.07.22.09a1.19,1.19,0,0,1,.55.35,1.79,1.79,0,0,1,.32.39,7.3,7.3,0,0,0,.71,1,.68.68,0,0,1,.16.34.56.56,0,0,0,.13.29.58.58,0,0,1,.12.25.53.53,0,0,0,.41.36.65.65,0,0,1,.28.21.65.65,0,0,0,.28.21c.05,0,.12.07.15.16a.4.4,0,0,0,.17.19,4.17,4.17,0,0,1,.5.36,3.48,3.48,0,0,0,.55.4c.16.07.16.08.07.18a.34.34,0,0,1-.13.11l-.42-.36a3.31,3.31,0,0,0-.59-.46c-.11-.05-.21-.12-.21-.15s0-.06-.08-.06a.26.26,0,0,1-.16-.1,2.72,2.72,0,0,0-.48-.29l-.4-.19H39.85c-1.56,0-1.58,0-1.73-.13s-.3-.18-.41-.05-.39.11-.66-.15-.4-.28-1.09-.3a.38.38,0,0,1-.24,0,1.14,1.14,0,0,0-.33-.17c-.15-.06-.28-.15-.28-.19A.09.09,0,0,0,35,7.25s-.1-.06-.14-.13A.25.25,0,0,0,34.67,7c-.23,0-.66-.44-.66-.63s.07-.19,1-.26A2.92,2.92,0,0,0,35.56,6l.23-.09c.1,0,.1,0,0-.12a.24.24,0,0,0-.32,0s0,0-.75.11a1.34,1.34,0,0,0-.57.13c-.1.12-.25.09-.41-.08a2,2,0,0,0-.33-.25A1,1,0,0,1,32.89,5a.68.68,0,0,0-.15-.32.37.37,0,0,1-.12-.24.23.23,0,0,0-.09-.19,1,1,0,0,1-.17-.37,2.08,2.08,0,0,0-.22-.49A.72.72,0,0,1,32,3.14.24.24,0,0,0,31.92,3a1.08,1.08,0,0,1-.16-.2c0-.06,0-.09,0-.09ZM29,2.89c.13,0,.06.26-.09.33a.72.72,0,0,0-.41.52,1.13,1.13,0,0,1-.19.36c-.12.11-.11.3,0,.31s.08,0,0,0a.14.14,0,0,0-.07.12,2,2,0,0,1-.32.45c-.18.21-.35.42-.38.47-.19.3-.33.39-.95.64a1,1,0,0,0-.54.62c0,.15-.29.38-.79.62a1.47,1.47,0,0,1-.74.2c-.32,0-.35,0-.5.21a.57.57,0,0,1-.4.25.58.58,0,0,0-.27.09.32.32,0,0,1-.21.05.33.33,0,0,0-.21.06s-.11.06-.21.06-.19,0-.21-.06-.52-.06-.69.06a1,1,0,0,1-.4.13.73.73,0,0,0-.31.07,1.87,1.87,0,0,1-.91,0,3.66,3.66,0,0,0-2.07,0,.17.17,0,0,1-.14.08.21.21,0,0,0-.15.06.21.21,0,0,1-.15.06.33.33,0,0,0-.21.12c-.12.13-.34.17-.34.06a.07.07,0,0,1,.07-.06,1.24,1.24,0,0,0,.32-.2,2.6,2.6,0,0,1,.47-.3c.26-.12.42-.29.31-.33s-.08-.21.14-.45a1.25,1.25,0,0,0,.21-.3,3.27,3.27,0,0,1,.22-.53,2.81,2.81,0,0,1,.66-.9,3.64,3.64,0,0,1,.67-.53l.34-.16a.56.56,0,0,1,.2-.06,1.31,1.31,0,0,0,.42-.33c.22-.23.37-.33.47-.33a.33.33,0,0,0,.23-.1c.09-.11.4-.12.44,0s.05.06.16,0a.55.55,0,0,1,.19-.08.61.61,0,0,0,.23-.15,1,1,0,0,1,.91-.21A1.51,1.51,0,0,0,25,3.64c.42-.22.5-.24.66-.15l.37.13c.27.08.39.06.89-.15a4.47,4.47,0,0,1,.81-.16,2.32,2.32,0,0,0,.65-.13.18.18,0,0,1,.14-.05A.62.62,0,0,0,28.74,3,.5.5,0,0,1,29,2.89Zm3.94.7s0,0,0,0a2.65,2.65,0,0,0,.72.55.13.13,0,0,1,.11.08c.05.07.16.14.59.36a2.93,2.93,0,0,1,.41.26A1,1,0,0,0,35,5a.58.58,0,0,1,.25.12.24.24,0,0,0,.16.09,5.24,5.24,0,0,1,.66.3,3.1,3.1,0,0,0,.69.31c.06,0,.13,0,.15.06a1.07,1.07,0,0,0,.31.17c.19.09.27.16.27.25s0,.12-.23.12a1,1,0,0,0-.41.09,4.37,4.37,0,0,1-1,.13c-.67,0-.76.05-.69.12a2.85,2.85,0,0,0,1.33,0,.32.32,0,0,1,.2-.07,3.45,3.45,0,0,0,1-.28c.13-.12.28-.11.46,0a.85.85,0,0,0,.36.16.62.62,0,0,1,.27.12.29.29,0,0,0,.2.09.92.92,0,0,1,.34.13,2.42,2.42,0,0,0,.39.2c.32.11.25.2-.19.24-.93.09-1.18.17-1.08.33s.48.08.77-.07.3-.12.37-.08.16,0,.3,0,.3-.13.61.08a2.26,2.26,0,0,0,.31.19.5.5,0,0,1,.2.12c.18.14.38.16.38,0s-.34-.44-.58-.53-.21-.09-.21-.12-.09-.09-.19-.14L40.14,7a3.43,3.43,0,0,0-.75-.33c-.15,0-.39-.34-.67-.93a4.86,4.86,0,0,0-.34-.62c-.11-.07-.12.09,0,.28s.23.81.14.86a.75.75,0,0,1-.38-.13c-.29-.15-.35-.21-.53-.59-.33-.69-.34-.72-.4-.69s-.06.53,0,.64.06.11,0,.19-.1.08-.1,0,0-.07-.1-.07c-.24,0-.49-.29-.78-.91A1.65,1.65,0,0,0,36,4.4c-.1-.08-.1-.08-.07.06a2.43,2.43,0,0,1,.14.77s-.09,0-.15-.06A1,1,0,0,0,35.57,5a1.17,1.17,0,0,1-.41-.26.67.67,0,0,0-.33-.22A1.67,1.67,0,0,1,34,4.18a1.38,1.38,0,0,0-.36-.2.84.84,0,0,1-.27-.15,1.06,1.06,0,0,0-.46-.24Zm-5.09.27a.49.49,0,0,0-.23.15.51.51,0,0,1-.21.15,7.23,7.23,0,0,0-.74.34c-.57.29-.69.33-.8.27s-.15,0-.31.14a2.06,2.06,0,0,1-1.07.56c-.08,0-.09-.06,0-.11a.36.36,0,0,0,.07-.18A.59.59,0,0,1,24.55,5a3,3,0,0,1,.39-.66c.1-.12.11-.14,0-.14a.17.17,0,0,0-.14.12.16.16,0,0,1-.12.12c-.05,0-.1.06-.12.13a4.7,4.7,0,0,1-.28.48,2.54,2.54,0,0,0-.24.41c0,.19-.81.68-1.11.68s-.22-.13-.1-.21a.21.21,0,0,0,.06-.15A.2.2,0,0,1,23,5.57a.79.79,0,0,0,.18-.26c.2-.4.4-.66.51-.66s.08-.06.08-.12,0-.13-.08-.13-.51.45-.56.63a.41.41,0,0,1-.1.2.41.41,0,0,0-.11.17c0,.07-.14.25-.24.4a3.74,3.74,0,0,0-.24.4,1,1,0,0,1-.39.29c-.51.24-.62.2-.43-.17a.77.77,0,0,0,.09-.27.51.51,0,0,1,.12-.25A.62.62,0,0,0,22,5.55a.94.94,0,0,1,.15-.32c.11-.15.13-.22.07-.22s-.4.34-.4.45a2.25,2.25,0,0,1-.15.37,1.42,1.42,0,0,0-.15.37s-.06.11-.12.17a.64.64,0,0,0-.15.25.79.79,0,0,1-.6.42c-.21,0-.22,0-.22-.12s0-.06,0-.08a.05.05,0,0,1,0,0,.07.07,0,0,1,0,0,.26.26,0,0,0-.09.18c0,.18-.24.33-.85.52a1.86,1.86,0,0,0-.36.15,1.07,1.07,0,0,1-.23.14c-.11.06-.18.13-.16.16s.6.06.85-.09a1.06,1.06,0,0,1,.33-.15,1.35,1.35,0,0,0,.39-.16A3.18,3.18,0,0,1,21,7.19a4.43,4.43,0,0,0,.9-.36,2,2,0,0,1,.39-.16.79.79,0,0,0,.33-.17.46.46,0,0,1,.28-.12,1.52,1.52,0,0,0,.28-.09,2.12,2.12,0,0,1,.37-.16A3.23,3.23,0,0,0,24,6a2,2,0,0,1,.37-.15,1.42,1.42,0,0,0,.31-.13.69.69,0,0,1,.71-.06c.33.15,1.13.22,1.13.1s-.16-.13-.87-.19c-.26,0-.45-.06-.43-.09a1.2,1.2,0,0,1,.39-.16A1.21,1.21,0,0,0,26,5.13a1.83,1.83,0,0,1,.47-.28A4.72,4.72,0,0,0,27,4.51a.55.55,0,0,1,.24-.11,1,1,0,0,0,.37-.27c.16-.17.23-.27.17-.27Zm-7.54,3h0c.06,0,.08,0,.09,0s.19-.33.15-.37h0c-.05,0-.23.28-.23.35Zm12-2c.06,0,.11,0,.11.07a.85.85,0,0,0,.09.25,2,2,0,0,1,.13.39,1,1,0,0,0,.18.4c.2.23.19.44,0,.48a1.46,1.46,0,0,1-.7-.13,1.23,1.23,0,0,0-.42-.19c-.11,0-.06.18.07.25s.12.07,0,.15a1.2,1.2,0,0,1-.48.09c-.41,0-.76.06-.76.13s.09,0,.19,0,.77,0,1.47,0h1.28l.22.16a.87.87,0,0,0,.3.17.66.66,0,0,1,.24.12.46.46,0,0,0,.23.12.14.14,0,0,1,.11.09.5.5,0,0,0,.27.16c.26.08.41.21.32.29a6.39,6.39,0,0,1-2,.06,4.42,4.42,0,0,1-1.67-.18,9.44,9.44,0,0,0-1.34-.21,2.58,2.58,0,0,1-.39-.07c-.16-.06-.48-.07-.52,0a.48.48,0,0,1-.27,0c-.19,0-.24,0-.24-.11s.46-.53.68-.58a.91.91,0,0,0,.33-.26,3.63,3.63,0,0,1,1-.88c.15-.08.37-.2.49-.28a.83.83,0,0,1,.29-.13A1.11,1.11,0,0,0,31.8,5a.9.9,0,0,1,.47-.18ZM34.34,5c-.25,0-.6,0-.62.13s0,.11.12.13a.59.59,0,0,0,.23,0l.31-.06c.15,0,.24-.07.24-.12S34.5,5,34.34,5ZM31,6.16c-.21,0-.23,0-.17.1s.09.07.12,0,.08,0,.17,0,.24,0,.17-.06-.15-.07-.29-.07Zm-7.07.25c-.39,0-.43,0-.37.08a.43.43,0,0,0,.32.1,5,5,0,0,1,.53,0A4,4,0,0,0,25,6.7c.37,0,.38,0,.37-.13s0-.13-1-.15ZM38.5,7a.53.53,0,0,0-.27.09,1.21,1.21,0,0,1-.4.13.82.82,0,0,0-.32.09.8.8,0,0,1-.26.09s-.08,0-.08.06.83,0,1.23-.2.28-.15.19-.22a.15.15,0,0,0-.09,0Zm-14.94,0a1.16,1.16,0,0,0-.54.06c-.09.07-.64.06-.64,0s-.17,0-.24,0,0,.14.46.17c.18,0,.32,0,.32.06a.7.7,0,0,0,.32.06l.41,0A.72.72,0,0,0,24,7.35c.18-.11.21-.15.14-.21A1.48,1.48,0,0,0,23.56,7.07Zm-7.73.15a.11.11,0,0,1,.08,0s0,.13,0,.26a4.13,4.13,0,0,0-.21,1.12,5.47,5.47,0,0,1-.13,1,.82.82,0,0,0-.09.3.65.65,0,0,1-.18.35c-.11.09-.13.16-.13.57A1.3,1.3,0,0,1,14.7,12c-.2.2-.34.53-.26.61a.67.67,0,0,1,0,.59.57.57,0,0,1-.25.2c-.14.06-.18.11-.21.36a1.54,1.54,0,0,1-.16.46.58.58,0,0,0-.11.2,2.66,2.66,0,0,1-.26.37l-.32.44-.09.13a.36.36,0,0,0-.08.13.18.18,0,0,1-.19.11c-.22,0-.46.11-.46.2a.24.24,0,0,1-.09.16.33.33,0,0,0-.09.21c0,.13-.3.46-.41.46a15.34,15.34,0,0,0-1.89,1.89c0,.06,0,.11-.08.11s-.28.38-.28.54a.59.59,0,0,1-.16.26,1.34,1.34,0,0,0-.39.81.45.45,0,0,1-.07.26c-.11.1-.15.09-.26-.08s-.07-.16,0-.18A.24.24,0,0,0,8.62,20a.48.48,0,0,1,.09-.25.48.48,0,0,0,.09-.23c0-.06,0-.11.06-.11s.06-.05.06-.11a.49.49,0,0,1,.15-.25.46.46,0,0,0,.15-.28.25.25,0,0,1,.06-.18s.06-.1.06-.18a.25.25,0,0,1,.06-.18,1,1,0,0,0,.13-.36c.06-.27.06-.35,0-.43s-.06-.11,0-.15.07-.12,0-.31-.11-1.13-.11-1.27c0-.61.06-.73.22-.9s.22-.4.16-.82a1.06,1.06,0,0,1,.4-1,1.11,1.11,0,0,0,.39-1,.83.83,0,0,1,.09-.36l.14-.27a1.18,1.18,0,0,1,.65-.52c.24-.07.26-.09.3-.33s.1-.33.41-.63a1.4,1.4,0,0,1,.49-.37c.25,0,.39-.08.43-.22s.31-.45.46-.45a.16.16,0,0,0,.14-.09.14.14,0,0,1,.11-.09.74.74,0,0,0,.26-.14,2.54,2.54,0,0,1,.47-.28,3.2,3.2,0,0,0,.6-.47,1.49,1.49,0,0,1,.4-.32.09.09,0,0,0,.08-.09c0-.08.1-.14.18-.13Zm6.4.34h-.16c-.37,0-.48.15-.17.19s.44,0,.47-.1S22.36,7.56,22.23,7.56Zm-7.5,1.18s-.09,0-.2.14a6.15,6.15,0,0,0-.81,1.29.93.93,0,0,1-.18.26c-.13.11-.13.11-.17-.11s-.06-.23-.09-.24-.12.33-.12.71a.62.62,0,0,1-.15.48.68.68,0,0,0-.15.27c0,.12-.25.44-.35.44s-.08-.14-.08-.56a3.32,3.32,0,0,0-.06-.71l0-.15,0,.15c0,.08,0,.53,0,1,0,.78,0,.87-.14,1A1,1,0,0,0,12,13a.82.82,0,0,1-.13.23c-.21.3-.28.14-.33-.79,0-.61-.06-.8-.12-.8s-.1.17-.09,1.7a3.2,3.2,0,0,1-.07,1c-.13.26-.21.22-.26-.12a2,2,0,0,0-.24-.83c-.13-.19-.17.3-.06,1,0,.29,0,.34-.07.42s-.11.08,0,.17.11.12.06.37-.08.3-.19.31-.14.06-.14.35a.62.62,0,0,1-.07.37.77.77,0,0,0-.17.31A.78.78,0,0,1,10,17a1.23,1.23,0,0,0-.12.76c.07.18.22.1.28-.15a2.24,2.24,0,0,1,.18-.44l.2-.38c.35-.71.47-.91.6-1,.54-.26.75-.38.77-.45s-.31,0-.34.07-.11.06-.21.06-.17,0-.14-.1a.66.66,0,0,0,0-.21c0-.18.28-.4.62-.47a2.29,2.29,0,0,0,.43-.15,1,1,0,0,1,.35-.13c.24,0,.48-.19.48-.28s-.07,0-.16,0-.11,0,.12-.16.28-.21.23-.25-.13,0-.31.09a.93.93,0,0,1-.33.16.16.16,0,0,0-.12.06.46.46,0,0,1-.23.09l-.4.07c-.26.06-.26-.08,0-.47a1.39,1.39,0,0,0,.21-.35c0-.06.15-.15.55-.34l.43-.22a1.13,1.13,0,0,1,.3-.11,1.85,1.85,0,0,0,.6-.5c0-.1-.21,0-.41.13a1.57,1.57,0,0,1-.38.22.77.77,0,0,0-.24.12c-.11.1-.57.19-.53.12s.08-.19.16-.35.16-.28.19-.28.06-.05.06-.1a.7.7,0,0,1,.15-.28.66.66,0,0,0,.15-.26s.12-.11.26-.15a.79.79,0,0,0,.29-.13,2.43,2.43,0,0,1,.61-.36c.15-.08.34-.39.27-.46s-.15.06-.29.18a3.74,3.74,0,0,1-.5.32l-.29.13c-.12.07,0-.19.19-.45a4.44,4.44,0,0,0,.35-.54c.28-.54.34-.63.39-.63a.07.07,0,0,0,.06-.07,1,1,0,0,1,.15-.28.39.39,0,0,0,.12-.3s0,0,0,0Zm30.8.39s0,.09.09.21a.88.88,0,0,1,.16.3s0,.09.06.09a.07.07,0,0,1,.06.07,1,1,0,0,0,.21.32c.24.27.28.52.09.52a.88.88,0,0,1-.49-.2.15.15,0,0,0-.15,0c-.13.06-.15,0,.41.33.28.15.48.22.52.19s.2.08.47.58a5.7,5.7,0,0,0,.43.72,1.23,1.23,0,0,1,.2.35.72.72,0,0,0,.12.23,3.38,3.38,0,0,1,.46.9,1.29,1.29,0,0,1-.64-.21,1.38,1.38,0,0,0-.3-.15,1.51,1.51,0,0,1-.36-.18.53.53,0,0,0-.21-.11,1,1,0,0,1-.29-.15c-.29-.2-.37-.09-.13.16a2.86,2.86,0,0,0,1,.53,1,1,0,0,1,.26.12,2.18,2.18,0,0,0,.5.19c.32.07.56.27.56.46a.11.11,0,0,0,0,.09,4.38,4.38,0,0,1,.5,1s0,.09,0,.09.08.11.12.23a11.55,11.55,0,0,0,.53,1.11.59.59,0,0,1,.09.25.51.51,0,0,0,.12.25c.07.09.16.14.21.12s.12-.11,0-.16a.57.57,0,0,1-.09-.26A3.84,3.84,0,0,0,49.74,16c-.11-.22-.11-.75,0-.79s0,0-.14,0-.22,0-.3-.23a1,1,0,0,0-.13-.32c-.07-.08-.06-.28,0-.28s.07-.1.09-.23a1.13,1.13,0,0,1,.15-.39.56.56,0,0,0,.07-.39c0-.31-.17-.32-.22,0,0,.13-.06.24-.09.24a.56.56,0,0,0-.1.26c-.08.38-.21.37-.41,0A.86.86,0,0,1,48.6,13a2.2,2.2,0,0,0,.13-.63c0-.41,0-.49,0-.49s-.24.13-.24.39a1.12,1.12,0,0,1-.09.42.76.76,0,0,0-.09.25c0,.05,0,.09-.06.09s-.06,0-.06-.09a.17.17,0,0,0-.08-.14,1.16,1.16,0,0,1-.22-.35,1.49,1.49,0,0,1-.14-.93,6.06,6.06,0,0,0,0-.83c0-.17,0-.17-.1.09a.92.92,0,0,1-.14.37c-.06.06-.08.14-.06.17a.3.3,0,0,1,0,.2c0,.1-.06.11-.06,0a.21.21,0,0,0-.09-.13,2.19,2.19,0,0,1-.46-1,.19.19,0,0,0-.11-.2c-.22-.06-.29-.13-.47-.42s-.53-.69-.64-.69Zm.17,2.37s-.05,0-.05.11.37.43.52.43.09,0,.09.06,0,.06.08.06a.89.89,0,0,1,.28.13,2.6,2.6,0,0,0,.4.21c.23.09.27.09.27,0s-.23-.26-.83-.55c-.14-.07-.26-.16-.26-.19s0-.06-.08-.06a.48.48,0,0,1-.22-.12c-.1-.07-.16-.11-.2-.11Zm1.15,2.66c-.13,0,.11.18.37.28a3.66,3.66,0,0,1,.41.18,1.12,1.12,0,0,0,.31.11c.11,0,.2.07.2.1s0,.06.11.08.21,0,.24-.07-.16-.16-.39-.26a2.79,2.79,0,0,1-.44-.24A3.51,3.51,0,0,0,46.85,14.16Zm1,1.14c-.06,0-.09,0-.11,0s.16.27.35.27a.24.24,0,0,1,.17.07,1.16,1.16,0,0,0,.3.15c.59.21.71,0,.15-.25a1.76,1.76,0,0,1-.31-.15,1.33,1.33,0,0,0-.31-.1l-.24,0Zm5.56,1.44s0,0,.08.06a1.72,1.72,0,0,1,.21.48,1.91,1.91,0,0,0,.16.42A2.26,2.26,0,0,1,54,18a.76.76,0,0,0,.12.26.75.75,0,0,1,.12.27.7.7,0,0,0,.17.33c.08,0,.11.19.13.61s0,.57.19.67a.74.74,0,0,0,.27.13.34.34,0,0,1,.18.14.44.44,0,0,0,.12.16s0,.08,0,.14a.82.82,0,0,0,0,.76.33.33,0,0,0,.18.12c.11,0,.27.35.27.57a.46.46,0,0,0,.1.29,3.53,3.53,0,0,1,0,1.77c-.1.19-.11.26-.05.35a.44.44,0,0,1,.07.2A.24.24,0,0,0,56,25c.12.09.07.51-.08.73a.94.94,0,0,0-.14.73c0,.13,0,.37-.15,1.07a.57.57,0,0,1-.15.23.38.38,0,0,0-.11.22c0,.06,0,.11-.06.11s-.06.05-.06.11a.49.49,0,0,1-.15.25,1.76,1.76,0,0,0-.25.34c-.05.12-.12.21-.15.21s-.06,0-.06.08a.24.24,0,0,1-.09.16,1.33,1.33,0,0,0-.22.36,3.63,3.63,0,0,1-.18.38,1.32,1.32,0,0,0,0,.74,2,2,0,0,1,.16.85,1,1,0,0,0,0,.17h0l0,1.28h-.13c-.26.05-.34-.07-.21-.31a3.37,3.37,0,0,0,0-1.38.4.4,0,0,1-.07-.26,1.9,1.9,0,0,0-.28-1,.73.73,0,0,1-.14-.31,1.18,1.18,0,0,0-.4-.58.22.22,0,0,1-.09-.17.67.67,0,0,0-.15-.29,1,1,0,0,1-.19-.39.63.63,0,0,0-.08-.23,2.18,2.18,0,0,1-.24-1.05c0-.42,0-.44-.24-.67a.79.79,0,0,1-.28-.58,2.15,2.15,0,0,0-.1-.47c-.06-.12,0-.16.06-.28a.51.51,0,0,0,.13-.21.07.07,0,0,1,.06-.07c.09,0,.07-.38,0-.51a.45.45,0,0,1-.09-.22.73.73,0,0,0-.09-.26c-.1-.2-.12-.47,0-.47s.07-.11.09-.26,0-.38.07-.55a.77.77,0,0,1,.26-.5l.22-.22v-.5c0-.5.06-.68.14-.35a.79.79,0,0,0,.12.26,1.42,1.42,0,0,1,.14.3c.14.43.28.66.45.73a.42.42,0,0,0,.22,0c.09-.06,0-.29-.2-.48a2.8,2.8,0,0,1-.52-.92.63.63,0,0,0-.16-.24c-.15-.16-.16-.18-.09-.42a2.69,2.69,0,0,1,.14-.37,1.82,1.82,0,0,0,.12-.42,1,1,0,0,1,.14-.4.9.9,0,0,0,.16-.38,2.76,2.76,0,0,1,.15-.46,2.23,2.23,0,0,0,.13-.46.87.87,0,0,1,.08-.31,1.63,1.63,0,0,0,.08-.38c0-.2,0-.28.07-.28Zm-46.24.07a.05.05,0,0,1,0,0s0,.09,0,.1,0,.08,0,.19a1.11,1.11,0,0,1,.08.37,1.26,1.26,0,0,0,.12.44c.07.12.11.23.09.25a1.23,1.23,0,0,0,.06.41c.08.3.09.42,0,.54s0,.5.15.59a.5.5,0,0,1,.21.19.32.32,0,0,0,.08.13,1.25,1.25,0,0,1,.12.4,1,1,0,0,0,.13.39,3.69,3.69,0,0,1,0,1.48,1,1,0,0,0,.07.93c.13.13.14.19.13.94s-.07,1.13-.23,1.13-.13.48,0,.66.08.16,0,.21a.33.33,0,0,0-.07.18.7.7,0,0,1-.21.32c-.12.12-.2.24-.18.27a1.59,1.59,0,0,1-.07.95,3.15,3.15,0,0,0-.2.47,1,1,0,0,1-.12.28.56.56,0,0,0-.11.18L7,29.43a2,2,0,0,0-.28,1c0,.29,0,.56,0,.59a.14.14,0,0,1,0,.1,1.19,1.19,0,0,0-.08.6l.15-.06c.58-.29.62-.3.66-.21a.87.87,0,0,1-.17.51,3.67,3.67,0,0,0-.22.94.93.93,0,0,1-.07.3,1.19,1.19,0,0,0-.06.39c0,.38,0,.46-.21.34s-.11-.17-.11-.56a2.94,2.94,0,0,0,0-.52s-.07,0-.13.09-.27.08-.19-.26a8.2,8.2,0,0,0,.09-1.72c0-.9-.06-1.37-.2-1.49a.8.8,0,0,1-.14-.24,3.64,3.64,0,0,0-.23-.39,1,1,0,0,1-.12-.31.28.28,0,0,0-.12-.19.23.23,0,0,1-.12-.15,1.26,1.26,0,0,0-.25-.36,1.23,1.23,0,0,1-.24-.37,1.15,1.15,0,0,0-.15-.32.69.69,0,0,1-.11-.55,1,1,0,0,0-.23-.84.72.72,0,0,1-.15-.33,1.17,1.17,0,0,0-.1-.29s0-.15.08-.3a.79.79,0,0,0,.09-.56,1.06,1.06,0,0,0-.13-.47c0-.08-.06-.15,0-.15s.08-.1.1-.22A1.13,1.13,0,0,1,4.38,23c.13-.18.15-.48,0-.57s0-.12,0-.24a2.58,2.58,0,0,0,.14-.39c0-.15.15-.32.43-.59s.39-.4.35-.56a1.63,1.63,0,0,1,.17-.93.19.19,0,0,0,.1-.17.67.67,0,0,1,.15-.29A.7.7,0,0,0,6,19a2.37,2.37,0,0,1,.23-.38,2.23,2.23,0,0,0,.28-.48,1.17,1.17,0,0,1,.15-.27A2,2,0,0,0,7,17.1a.32.32,0,0,1,.23-.29Zm-.42,2.28s0,0-.08.08a8.25,8.25,0,0,0-.25,1.91,1.84,1.84,0,0,1-.1.53c0,.05,0,.07,0,.07s.09.38,0,.47a34.1,34.1,0,0,0-.15,4.71v2.36l.2.17c.19.18.28.21.33.13a9.08,9.08,0,0,0-.15-1.76c-.07,0-.07-.3,0-.34a.4.4,0,0,0,.1-.21A1.46,1.46,0,0,1,7,26.75c.18-.2.25-.31.21-.35s-.15,0-.33.22a1.27,1.27,0,0,1-.35.28,1.89,1.89,0,0,1,.06-1,.1.1,0,0,0,.07-.09A5.61,5.61,0,0,1,7.32,25c.57-.64.72-.85.58-.85a2.07,2.07,0,0,0-.35.3,1.58,1.58,0,0,1-.35.31.84.84,0,0,0-.34.36s-.08.09-.18.14l-.18.09V25a1.48,1.48,0,0,1,.6-1.2,1.47,1.47,0,0,0,.31-.38.17.17,0,0,1,.07-.12,1.47,1.47,0,0,0,.41-.68c0-.17-.18-.15-.27,0l-.16.25-.27.31c-.09.11-.19.2-.23.2s-.11.07-.15.15a.23.23,0,0,1-.2.16c-.13,0-.13,0-.09-.43a1.28,1.28,0,0,1,.19-.64.92.92,0,0,0,.15-.31s0-.08.06-.08.06,0,.06-.09a.7.7,0,0,1,.2-.29c.38-.37.54-.63.51-.84s0-.19-.07-.08a.63.63,0,0,1-.17.2.24.24,0,0,0-.11.16.85.85,0,0,1-.24.32,1,1,0,0,0-.24.31c0,.07-.23.16-.29.11a.16.16,0,0,1,0-.13,1.85,1.85,0,0,0,.1-.64c0-.56.12-.86.3-.93a.15.15,0,0,0,.09-.13c0-.11-.07-.12-.17,0s-.17,0-.11-.49a1.56,1.56,0,0,0,0-.53c0-.05,0-.07,0-.07Zm47,.16-.06,0s0,1.13,0,2.5,0,2.52-.06,2.57a.72.72,0,0,0,0,.52c0,.06,0,.09,0,.12s-.07.19-.06.41,0,.65,0,1V27l-.27-.22a1.72,1.72,0,0,1-.39-.48c-.13-.29-.41-.64-.5-.64s-.06.3,0,.41a1.18,1.18,0,0,1,.21.32,1.4,1.4,0,0,0,.2.3.24.24,0,0,1,.09.16.09.09,0,0,0,.08.08,1.13,1.13,0,0,1,.37.25c.2.18.27.27.22.31a7,7,0,0,0,0,1.83.24.24,0,0,1,.06.16.65.65,0,0,0,.06.24.23.23,0,0,0,.15.12c.07,0,.09-.1.09-.48a1.19,1.19,0,0,0-.06-.52.22.22,0,0,1-.06-.16c0-.11,0-.17.17-.46s.09-.32,0-.32-.08,0-.06-.06a.06.06,0,0,0,0-.09c-.08-.05-.08-.52,0-.52s.06,0,.06-.08a1.89,1.89,0,0,1,.34-.46c.37-.43.46-.69.13-.39a2.23,2.23,0,0,0-.27.28c-.14.18-.19.12-.21-.24s.07-.74.19-.74.12-.11.18-.24a2.77,2.77,0,0,1,.34-.47,1.6,1.6,0,0,0,.28-.36,1.46,1.46,0,0,1,.17-.27.4.4,0,0,0,.08-.35c0-.21-.14-.27-.14-.07s0,.12-.06.12-.09.07-.12.16a3.33,3.33,0,0,1-.86,1,2.31,2.31,0,0,1,0-1,13.4,13.4,0,0,1,.63-1.26c.21-.38.29-.84.13-.71a3.2,3.2,0,0,0-.32.54,4.56,4.56,0,0,1-.35.64l-.13.18,0-.21A3.82,3.82,0,0,1,54.11,22a2.9,2.9,0,0,0,.21-.7c0-.07,0,0-.18.08l-.18.18v-.27c0-.15,0-.4,0-.56s0-.3-.05-.32a1.66,1.66,0,0,1-.06-.58c0-.32,0-.54-.06-.54Zm-.89,1.11a.1.1,0,0,0,0,.07.53.53,0,0,0,.13.26c.16.16.17.17.17,0a.55.55,0,0,0-.15-.26.62.62,0,0,0-.12-.12Zm-47.16.38h0a.12.12,0,0,0,0,.12l.06.18a.13.13,0,0,0,.12.09c.07,0,.09,0,.06-.14s-.13-.26-.19-.26Zm-.54,1.13c-.09,0-.1,0-.07.26a1.53,1.53,0,0,0,.34.81,1.25,1.25,0,0,1,.19.35,2.31,2.31,0,0,0,.17.41c0,.09.13.17.18.17s.17-.18.09-.24a1.33,1.33,0,0,1-.23-.46,5.54,5.54,0,0,0-.26-.58c-.13-.28-.26-.56-.28-.62a.15.15,0,0,0-.13-.1Zm5.68.64c.07,0,.1.24.15.92a2.6,2.6,0,0,0,.1.66,3.88,3.88,0,0,1,0,1.4,1.3,1.3,0,0,0,0,1c.1.11.11.19.07.63a2,2,0,0,1-.09.56A1.65,1.65,0,0,0,11,28c0,.23-.07.3-.2.35s-.15.07-.13.46c0,.6,0,.92-.23,1a.2.2,0,0,0-.14.2.31.31,0,0,1-.05.19.18.18,0,0,0,0,.11c0,.26-.11.47-.23.47a.66.66,0,0,0-.32.21.55.55,0,0,0-.21.49.73.73,0,0,1-.24.57,1.26,1.26,0,0,0-.25.36s-.05.09-.11.12a.39.39,0,0,0-.16.2,2,2,0,0,1-.29.41c-.44.49-.51.59-.56.8a.45.45,0,0,1-.13.26.77.77,0,0,0-.13.31c0,.28-.27.37-.34.15a5,5,0,0,1,0-1.28A1.41,1.41,0,0,0,7.38,33a.67.67,0,0,1,.09-.32.33.33,0,0,0,.06-.21c0-.24.16-.61.27-.61s.09,0,.09-.05.09-.08.19-.11.21-.09.22-.13-.19-.1-.35,0-.3,0-.2-.15a.89.89,0,0,0,.11-.31,1,1,0,0,1,.64-.68c.33-.16,1-.47,1-.5s0,0,0-.08-.08,0-.11,0a.23.23,0,0,1-.18.07A.28.28,0,0,0,9,30a.18.18,0,0,1-.14.06.77.77,0,0,0-.27.09c-.27.14-.4.12-.36,0a.88.88,0,0,1,.12-.26.57.57,0,0,0,.08-.24A1.76,1.76,0,0,1,9.07,29a1,1,0,0,0,.25-.1l.53-.28a1.07,1.07,0,0,0,.35-.24c0-.06-.27,0-.49.1-.38.19-.79.32-.79.24a2.75,2.75,0,0,1,.1-.36,2.22,2.22,0,0,1,1.06-1.15,2.29,2.29,0,0,0,.48-.29c.14-.13.14-.13,0-.16a.21.21,0,0,0-.2.11.31.31,0,0,1-.17.13.89.89,0,0,0-.31.12c-.34.18-.4.16-.35-.11a1.37,1.37,0,0,1,.18-.44.73.73,0,0,0,.15-.3.92.92,0,0,1,.45-.44c.15-.06.09-.2-.08-.18s-.14,0-.1-.15a.41.41,0,0,1,.09-.2,1.51,1.51,0,0,0,.19-.62c0-.09,0-.18.06-.2a.26.26,0,0,0,.06-.19c0-.19-.15-.16-.17.05a.7.7,0,0,1-.1.23,1.44,1.44,0,0,0-.15.43,1.84,1.84,0,0,1-.13.39,3.36,3.36,0,0,0-.15.41c-.06.19-.13.35-.16.35s0,.05,0,.12a.86.86,0,0,1-.05.23c0,.06-.3.6-.59,1.2s-.55,1.14-.59,1.21a6.27,6.27,0,0,0-.53,1.2,1.34,1.34,0,0,1-.15.42,1.11,1.11,0,0,0-.1.35c0,.2-.08.3-.19.3s0-.1,0-.23-.14-.44-.3-.44a.41.41,0,0,1-.18-.07c-.11-.06-.11-.08,0-.34a1.49,1.49,0,0,0,.15-.34c0-.1.37-.49.4-.42a.85.85,0,0,0,.1.18c.08.1.09.05.08-.36s0-.48.07-.52A1.67,1.67,0,0,0,8,28.2c.09-.2.17-.31.17-.26a.11.11,0,0,0,.1.11c.06,0,.09-.07.09-.27a.57.57,0,0,0-.06-.31c-.08,0-.08-.25,0-.28a1,1,0,0,0,.12-.41,2.1,2.1,0,0,1,.12-.5.56.56,0,0,0,.06-.2s0-.09.06-.09.06,0,.06.09a.09.09,0,0,0,.09.09.08.08,0,0,0,.09-.08c0-.1-.15-.29-.2-.24s0-.09,0-.24a.58.58,0,0,1,.18-.49A1.32,1.32,0,0,0,9,24.88a2.49,2.49,0,0,1,.31-.34,1.42,1.42,0,0,0,.3-.37.07.07,0,0,1,.07-.06.6.6,0,0,0,.35-.38.23.23,0,0,1,.12-.16.51.51,0,0,0,.16-.26c0-.1.09-.2.15-.21a.5.5,0,0,0,.18-.27.81.81,0,0,1,.15-.3l0,0Zm41.49,0c-.1,0,0,.56.18.73a.7.7,0,0,1,.15.24,1.31,1.31,0,0,0,.29.36c.27.28.43.34.48.2a.93.93,0,0,0-.18-.36c-.11-.16-.25-.38-.32-.5a.57.57,0,0,0-.41-.35.15.15,0,0,1-.1-.15.2.2,0,0,0-.07-.16Zm-47.45,1s0,0-.06.07a1.69,1.69,0,0,0,.2.84.84.84,0,0,1,.11.21.86.86,0,0,0,.4.4.31.31,0,0,0,.16,0c.07,0,.06-.25,0-.29a.18.18,0,0,1-.06-.13,1.64,1.64,0,0,0-.26-.44,4,4,0,0,1-.33-.51c0-.11-.1-.17-.15-.16Zm44.39.11h0s.06.06.09.13a4.22,4.22,0,0,0,.46.93.18.18,0,0,1,0,.14A.17.17,0,0,0,50,25a.25.25,0,0,1,.16.16c0,.07.05.12.07.12s.07.12.09.26c.06.34.13.41.43.41s.3,0,.54.29.28.33.28.5a.53.53,0,0,0,0,.27,4.49,4.49,0,0,1,.25,1.25.52.52,0,0,0,.18.43.62.62,0,0,1,.19.28,1.9,1.9,0,0,0,.21.51,4,4,0,0,1,.21.48,2,2,0,0,0,.37.43c.21.21.36.4.35.46s-.12.15-.25.21a.39.39,0,0,0-.26.31c0,.28,0,.61.19.63a.8.8,0,0,1,.3.16l.17.13-.07,1.06c-.08,1.08-.1,1.14-.35,1.15s-.14,0-.17-.26a5.85,5.85,0,0,1,0-.73c0-.3,0-.47,0-.47s-.07-.14-.1-.3a.79.79,0,0,0-.09-.34.23.23,0,0,1-.06-.17.83.83,0,0,0-.13-.33c-.07-.12-.1-.23-.07-.25a1.62,1.62,0,0,0,.1-.6c0-.5,0-.56-.05-.45a1.11,1.11,0,0,0-.13.29,1,1,0,0,1-.07.24c-.05.08-.37-.64-.37-.83s0-.18-.07-.2a1,1,0,0,1-.06-.43c0-.25,0-.38-.06-.36a.21.21,0,0,0-.06.15.28.28,0,0,1-.09.19c-.07.06-.09.06-.09,0a.67.67,0,0,0-.11-.24,1.75,1.75,0,0,1-.24-1.24,2.12,2.12,0,0,0,0-.48c0,.08-.06.14-.09.14S51,27.91,51,28s-.06.24-.09.24-.12-.14-.38-.73a1.56,1.56,0,0,1-.1-.56c0-.19,0-.34-.06-.34s-.06,0-.06.08a.26.26,0,0,1-.1.16c-.18.15-.07.49.47,1.56a4.18,4.18,0,0,1,.29.65c0,.14-.25,0-.63-.28a1.51,1.51,0,0,0-.47-.29.18.18,0,0,1-.14-.06.11.11,0,0,0-.21.05c0,.17.51.61.7.61a.74.74,0,0,1,.37.18.59.59,0,0,0,.4.19c.17,0,.21,0,.33.25a1.3,1.3,0,0,1,.14.33.56.56,0,0,0,.12.23,1.23,1.23,0,0,1,.19.38,1.24,1.24,0,0,0,.14.32,1.28,1.28,0,0,1,.15.36,3,3,0,0,0,.15.43,2.35,2.35,0,0,1,.15.57,1.89,1.89,0,0,0,.13.49,9.82,9.82,0,0,1,.21,1.63,1.91,1.91,0,0,1,0,.62c-.07.2-.24.29-.24.12a6.62,6.62,0,0,0-.75-1.15,1,1,0,0,1-.2-.28,4,4,0,0,0-.22-.37.66.66,0,0,1-.1-.41c0-.25,0-.38-.31-.58a2.71,2.71,0,0,1-.79-1c-.19-.4-.24-.85-.1-.9s.06,0,0,0a.09.09,0,0,1-.08-.09,1.66,1.66,0,0,0-.26-.41,1.41,1.41,0,0,1-.34-.65,1.79,1.79,0,0,0-.13-.4,1.75,1.75,0,0,1-.09-.5c0-.35,0-.46.05-.59s.14-.49,0-.54A1.93,1.93,0,0,1,49,27c-.15-.27-.16-.34-.15-1a3.68,3.68,0,0,1,0-.82,1.51,1.51,0,0,0,.1-.46c.06-.56.22-1.09.34-1.09Zm3,.26c-.18,0-.16.14,0,.46a1,1,0,0,1,.15.29.08.08,0,0,0,.07.08.8.8,0,0,1,.41.4.14.14,0,0,0,.09.12.14.14,0,0,1,.09.11.31.31,0,0,0,.07.14c.19.19.14-.13-.07-.47,0-.05-.11-.19-.16-.3a5.26,5.26,0,0,0-.33-.53C52.45,24,52.36,23.87,52.25,23.88Zm-2.68,1.28,0,.25a1,1,0,0,0,.16.63,1,1,0,0,1,.19.48c0,.09,0,.13.12.13s.16-.1,0-.34a2.11,2.11,0,0,1-.18-.45,3.12,3.12,0,0,0-.18-.49ZM5,25.26s-.08,0,0,.16a1.75,1.75,0,0,0,.12.32A.66.66,0,0,1,5.1,26a.88.88,0,0,0,.14.28,1.28,1.28,0,0,1,.18.29.16.16,0,0,0,.12.11s.11.08.15.18.26.24.26,0a2.71,2.71,0,0,0-.58-1.07,1.43,1.43,0,0,1-.26-.38c0-.11-.11-.17-.16-.17ZM49.87,29.8s0,0,0,.07a.6.6,0,0,0,.35.35.68.68,0,0,1,.27.15.61.61,0,0,0,.31.16.77.77,0,0,1,.31.11c.12.07.21.09.25.06s-.19-.3-.5-.45c-.11-.05-.2-.11-.2-.14s-.12-.08-.26-.13a2.69,2.69,0,0,1-.36-.13A.47.47,0,0,0,49.87,29.8ZM4,30.8s0,0,.07.08a1.49,1.49,0,0,1,.14.29,2.89,2.89,0,0,0,.85,1.28,6.23,6.23,0,0,1,.65.76.5.5,0,0,0,.1.19.58.58,0,0,1,.12.3.6.6,0,0,0,.2.35l.18.15-.15.31a2.3,2.3,0,0,0-.19.66c-.06.61-.19.82-.32.49a.46.46,0,0,0-.11-.18.38.38,0,0,1-.1-.23A.78.78,0,0,0,5.33,35a1.21,1.21,0,0,1,0-.48c.05-.43,0-.6-.21-.54s-.21-.07-.3-.48a2.35,2.35,0,0,0-.15-.55,2.61,2.61,0,0,1-.12-.29.13.13,0,0,0-.13-.1c-.08,0-.09,0-.06.28s.07.32.09.38a2.55,2.55,0,0,1,.19.6,1.6,1.6,0,0,0,.13.35,2.51,2.51,0,0,1,.16.49c0,.11,0,.22.08.23A.22.22,0,0,1,5,35a5,5,0,0,0,.48,1.14,3.12,3.12,0,0,1,.19.49,1,1,0,0,0,.13.3.44.44,0,0,1,.08.17c0,.11,0,.13-.07.09a.52.52,0,0,1-.2-.14,4.07,4.07,0,0,0-.94-.66.47.47,0,0,1-.21-.16c-.17-.18-.24-.19-.24,0a2.39,2.39,0,0,0,.82.79,3.33,3.33,0,0,1,.87.62s0,0,.08,0a.21.21,0,0,1,.15.13,3.07,3.07,0,0,1,.32.83.25.25,0,0,0,.12.2.27.27,0,0,1,.12.16,12.5,12.5,0,0,0,.78,1.6,2.52,2.52,0,0,1,.38.62,9.45,9.45,0,0,0,.62,1.06c.18.27.36.31.48.12s0-.21-.29-.63c-.58-.85-.61-.91-.59-1.39V40L8,40.13c-.15.2-.22.16-.46-.21a1,1,0,0,1-.14-.56A.78.78,0,0,1,7.47,39a.25.25,0,0,0,.06-.18.42.42,0,0,1,.12-.26,3,3,0,0,0,.5-.95c0-.09,0-.12-.2-.13s-.23,0-.26.16a2.14,2.14,0,0,1-.14.4c-.06.13-.15.35-.2.5a.7.7,0,0,1-.15.29s-.14-.13-.24-.3a1.13,1.13,0,0,1-.15-.8c0-.3.05-.49.1-.5A.17.17,0,0,0,7,37.07a2.13,2.13,0,0,1,.16-.47,2,2,0,0,0,.19-.6c0-.25,0-.26-.11-.24s-.33.31-.42.79a3,3,0,0,1-.13.5c0,.07-.08.2-.11.3l-.06.17-.11-.14A1.58,1.58,0,0,1,6.2,37c0-.16-.1-.29-.13-.29s-.07-.59,0-.64a.91.91,0,0,0,.1-.35c0-.17,0-.4.06-.5s0-.34.06-.53a1.55,1.55,0,0,1,.09-.38c.1-.06.48.42.48.6a.79.79,0,0,0,.46.59c.15.07.27.16.27.2a1.07,1.07,0,0,0,.18.28.72.72,0,0,1,.18.3.74.74,0,0,0,.12.27.66.66,0,0,1,.09.53c0,.34,0,.35.12.41s.16.1.16.15.06.1.15.12c.33.09.58,1,.33,1.22a.3.3,0,0,0,0,.49c.13.08.16.15.16.35a.75.75,0,0,0,.05.32,3.5,3.5,0,0,1,.07.87,5.33,5.33,0,0,0,.2,1.93.37.37,0,0,1,.1.21,1.94,1.94,0,0,0,.22.63.87.87,0,0,1,.08.23,1.86,1.86,0,0,0,.19.3,1.25,1.25,0,0,1,.18.35.5.5,0,0,0,.12.23.59.59,0,0,1,.12.26.19.19,0,0,0,.1.15.17.17,0,0,1,.07.2c0,.14-.16.23-.25.14a.34.34,0,0,1,0-.18c0-.07,0-.15-.08-.16a.66.66,0,0,1-.15-.32,1.29,1.29,0,0,0-.2-.44.56.56,0,0,1-.12-.23.14.14,0,0,0-.09-.11A.17.17,0,0,1,9.59,44a.68.68,0,0,0-.18-.31.66.66,0,0,1-.18-.3,5.36,5.36,0,0,0-1.17-1.16.62.62,0,0,1-.23-.13c-.23-.22-.8-.73-1-.88a.6.6,0,0,0-.22-.14A.06.06,0,0,1,6.56,41a1.94,1.94,0,0,0-.48-.57,2.31,2.31,0,0,1-.69-1c0-.21-.08-.27-.25-.34s-.36-.23-.37-.65a.88.88,0,0,0-.08-.4.11.11,0,0,1-.07-.1.7.7,0,0,0-.18-.29.85.85,0,0,1-.18-.28,1,1,0,0,0-.09-.27A3.86,3.86,0,0,1,4,36.4c-.08-.46-.08-.54,0-.69s.12-.38,0-.72-.16-.4-.19-1.22,0-.94.06-1.09.12-.34.14-1.07A2.92,2.92,0,0,1,4,30.8Zm46.69.51c-.28,0-.23.19.15.55s.35.31.6.28a.46.46,0,0,1,.37,0c.11.08.33.13.33.07S52.06,32,52,32a1.7,1.7,0,0,1-.41-.27,2.11,2.11,0,0,0-.5-.31.37.37,0,0,1-.19-.09A.33.33,0,0,0,50.69,31.31ZM51.54,33c-.15,0-.15,0,.05.19a1,1,0,0,0,.38.22.35.35,0,0,1,.21.08c.06.1.22.06.2,0A1.6,1.6,0,0,0,51.54,33Zm4.75.17c-.1,0-.38.3-.55.61a4.93,4.93,0,0,0-.6,1.4,2.77,2.77,0,0,1-.3.73l-.18.27,0-.36c0-.2-.06-.58-.08-.83s-.06-.47-.12-.47-.18.36-.13.56a8.07,8.07,0,0,1,.08.91c0,.67,0,.82-.08,1a1.17,1.17,0,0,1-.15.28,1.7,1.7,0,0,0-.11.23c-.09.22-.28.42-.33.34a2.37,2.37,0,0,1-.05-.5,1.76,1.76,0,0,0-.06-.47s-.05-.15-.05-.31-.12-.69-.22-.72-.13.49-.1,1.29c0,.61.05.7.15.76s.12.11.09.38a1.6,1.6,0,0,1-.17.56,5.1,5.1,0,0,0-.44.88c-.06.21-.14.11-.18-.21,0-.17,0-.64,0-1,0-1-.06-1.39-.2-1.42s-.1.07-.1,1.18,0,1.2.12,1.36a1.19,1.19,0,0,1,.15.4.49.49,0,0,1-.11.47.85.85,0,0,0-.16.44.37.37,0,0,1-.08.25.58.58,0,0,0-.16.26l-.13.33-.15.49a2.5,2.5,0,0,1-.15.45c0,.05-.06.18-.09.29s0,.2.08.2.36-.25.41-.58a1.59,1.59,0,0,1,.12-.44,1.65,1.65,0,0,0,.15-.42c.08-.35.12-.4.46-.57s.36-.27.08-.22-.24,0-.1-.26,0-.13,0-.19-.1-.17,0-.17a.34.34,0,0,0,.19-.13.48.48,0,0,1,.26-.12.68.68,0,0,0,.31-.11,4.17,4.17,0,0,1,.44-.24c.37-.17.43-.22.39-.33s-.07-.09-.78.27c-.39.2-.48.07-.21-.32a.66.66,0,0,0,.11-.26c0-.06.11-.15.26-.22l.52-.27a1.15,1.15,0,0,1,.35-.15,2.24,2.24,0,0,0,1-.75c.1-.16.1-.16,0-.16a.55.55,0,0,0-.3.17,1.55,1.55,0,0,1-.74.46,1,1,0,0,0-.29.13.28.28,0,0,1-.19.09c-.11,0-.11,0,0-.32a1.54,1.54,0,0,1,.44-.67A1.57,1.57,0,0,1,54.9,37c.2,0,.7-.34.7-.48s.12-.12.26-.2.36-.32.21-.38a.67.67,0,0,0-.36.15,1.4,1.4,0,0,1-.34.18,1.14,1.14,0,0,0-.34.25,1.66,1.66,0,0,1-.34.24c-.1,0-.06-.22.06-.33a.37.37,0,0,0,.12-.24,1.67,1.67,0,0,1,.44-.53l.44-.41h-.19c-.22,0-.22-.07,0-.42a.78.78,0,0,0,.14-.33.62.62,0,0,1,.12-.27A.5.5,0,0,0,56,34a.18.18,0,0,1,.07-.15,1.72,1.72,0,0,0,.3-.67s0,0,0,0ZM4.1,34.72c-.1,0-.1,0,0,.21s.1.15.15.15a.15.15,0,0,1,.12.09c0,.13.22.11.22,0S4.24,34.72,4.1,34.72Zm45.61,2.9a2.89,2.89,0,0,1,.44.84s.06.1.14.14.16.12.19.45a1.07,1.07,0,0,0,.08.39s.08.12.13.27a1.29,1.29,0,0,1,0,.68,1.27,1.27,0,0,1-.14.45s0,.09,0,.2.06.17,0,.24a1.17,1.17,0,0,0-.08.49c0,.36,0,.41-.19.55a.6.6,0,0,1-.26.15.29.29,0,0,0-.16.11.43.43,0,0,1-.18.15c-.1,0-.14.14-.09.27s.21,0,.53-.31.33-.3.35-.19a.38.38,0,0,0,.08.18.38.38,0,0,1,.05.21.37.37,0,0,0,.07.23.46.46,0,0,1,0,.27c0,.2,0,.2-.3.18a1.37,1.37,0,0,0-.43,0,.74.74,0,0,0-.35.59.72.72,0,0,0,.39.47.2.2,0,0,1,0,.34c-.05.05-.1.11-.1.15a1.85,1.85,0,0,1-.36.43,2.28,2.28,0,0,0-.36.41c0,.18-.53.47-.84.47h-.24l0-.28a1.67,1.67,0,0,1,1.05-1.27c.19,0,.38-.21.23-.21a1.49,1.49,0,0,0-.31.12c-.4.22-.51.12-.32-.26a.85.85,0,0,0,.09-.25,1.1,1.1,0,0,1,.51-.72,1.65,1.65,0,0,0,.34-.25c.07-.08.06-.09,0-.09a.29.29,0,0,0-.2.09c-.1.12-.3.11-.3,0s0-.29.07-.53a1.29,1.29,0,0,1,.59-1,.79.79,0,0,0,.25-.19c0-.07-.23-.06-.28,0s-.33.09-.33,0a5.62,5.62,0,0,1,.18-1,2.9,2.9,0,0,0,.09-.62c0-.48,0-.57-.06-.6a.14.14,0,0,1-.09-.12c0-.05,0-.08-.06-.08s-.09.12-.07.31,0,.11-.05.11a1.47,1.47,0,0,0-.08.47,9.58,9.58,0,0,1-.23,1.77.61.61,0,0,0-.09.26c0,.14,0,.27,0,.29s0,.3-.06.64a4.29,4.29,0,0,1-.09.66,1.91,1.91,0,0,0-.13.35.73.73,0,0,1-.11.29,1.09,1.09,0,0,0-.15.36,1.37,1.37,0,0,1-.19.43.24.24,0,0,0-.09.15,5,5,0,0,1-.53,1c-.17.25-.18.25-.63.31a2.15,2.15,0,0,0-.48.09.59.59,0,0,1-.53,0,2.12,2.12,0,0,1,.1-1.37.56.56,0,0,0,.27-.8c-.07-.12-.09-.2,0-.23a1.11,1.11,0,0,0,.15-.42,1,1,0,0,1,.12-.38s.06-.08.08-.18a.54.54,0,0,1,.28-.33.68.68,0,0,0,.35-.76,1,1,0,0,1,.14-.67,1.53,1.53,0,0,0,.15-.3,1.87,1.87,0,0,1,.15-.3,1.66,1.66,0,0,0,.12-.2.25.25,0,0,1,.21-.17c.23,0,.4-.21.4-.52a1,1,0,0,1,.05-.37,3.38,3.38,0,0,0,.22-.73c0-.11.07-.2.1-.2a.06.06,0,0,0,0-.06,1.45,1.45,0,0,1,.19-.31,1.1,1.1,0,0,0,.18-.32,1.59,1.59,0,0,1,.41-.58Zm-44.77.16a.13.13,0,0,0-.14.12c0,.05,0,.1.12.12a.46.46,0,0,1,.21.19c.06.08.14.15.18.15a1.26,1.26,0,0,1,.41.24c.33.24.54.31.54.16s-.2-.29-.46-.44a5.24,5.24,0,0,1-.67-.46A.31.31,0,0,0,4.94,37.78Zm46.75,1.5c-.13,0-.15.63,0,.81a.17.17,0,0,0,.11.07,1.74,1.74,0,0,0-.06-.86Zm-46,0s0,.07,0,.2a.31.31,0,0,0,.24.25,1.06,1.06,0,0,0,.27.07,1.59,1.59,0,0,1,.34.21c.32.24.35.25.45.12S7,40,6.91,40a.61.61,0,0,1-.22-.15.53.53,0,0,0-.26-.13c-.1,0-.2-.08-.21-.13a.13.13,0,0,0-.1-.08.83.83,0,0,1-.24-.13q-.13-.1-.18-.09Zm46.2,1.18c-.08,0-.07.39,0,.47s.17.08.13-.15-.07-.32-.15-.32Zm-4.12,2.8h0c-.1,0-.1.59,0,.79a2.29,2.29,0,0,1,.14.44,1.16,1.16,0,0,0,.14.38.08.08,0,0,0,.13,0,1.94,1.94,0,0,0-.14-1,.2.2,0,0,1-.07-.17c0-.08,0-.16-.06-.18a.22.22,0,0,1-.06-.16C47.84,43.31,47.82,43.27,47.78,43.27Zm-.22.61s0,0,0,.09,0,.14.06.14.08-.07,0-.19Zm-.52.55s0,0-.09.1-.07.15,0,.2a.35.35,0,0,1,0,.4c-.06.1,0,.15.09.31a.67.67,0,0,1,.17.3.19.19,0,0,0,0,.15.53.53,0,0,1,.11.23c0,.2,0,.2.07-.07a3,3,0,0,0-.18-1.13.21.21,0,0,1,0-.15.59.59,0,0,0-.07-.25c0-.06,0-.09-.07-.09Zm2,3.12c-.1,0-.45.24-.45.32s0,.05.08.05.42-.29.4-.36Zm-9.63.66s0,0,0,0,0,.06,0,.06a.07.07,0,0,0-.07.07,1.24,1.24,0,0,1-.18.33,1.25,1.25,0,0,0-.19.36.6.6,0,0,1-.15.26.72.72,0,0,0-.15.25,1.1,1.1,0,0,1-.18.32.91.91,0,0,0-.18.33s0,.08-.06.08-.12.12-.21.26a1.77,1.77,0,0,1-.76.73c-.25.12-.28.15-.29.38a.72.72,0,0,1-.3.53,1.09,1.09,0,0,1-.35.28,1.23,1.23,0,0,0-.35.22.64.64,0,0,0-.32.42.82.82,0,0,1-.32.46,1.73,1.73,0,0,1-.33.24,1.46,1.46,0,0,0-.32.19.87.87,0,0,1-.67.2c-.32,0-.42,0-.54.15a.49.49,0,0,0-.15.25c0,.14-.17.26-.49.36a3.69,3.69,0,0,0-.48.19,2,2,0,0,1-.57.14.81.81,0,0,0-.38.12,6.87,6.87,0,0,1-1.92.07c-1.85,0-2.77.07-2.77.21s-.06.06-.14.06a1.41,1.41,0,0,0-.44.15,1.45,1.45,0,0,1-.45.15,1,1,0,0,1-.46-.19c-.07-.07.39-.28.77-.34a3.71,3.71,0,0,0,.58-.16.81.81,0,0,1,.3-.1.52.52,0,0,0,.28-.12,1.3,1.3,0,0,1,.41-.16c.43-.06.65-.32,1.18-1.38a7.4,7.4,0,0,1,.59-1,.34.34,0,0,0,.11-.17,1.23,1.23,0,0,1,.3-.36,1.42,1.42,0,0,0,.3-.35s0,0,.08,0,.11-.06.16-.13.11-.12.28-.09a.47.47,0,0,0,.56-.29c.22-.37.88-.67,1-.46s.56,0,.73-.34A.58.58,0,0,1,33.4,50a1.45,1.45,0,0,0,.36-.14.51.51,0,0,1,.42,0,.63.63,0,0,0,.24.09.4.4,0,0,0,.39-.15.81.81,0,0,1,.27-.18.16.16,0,0,0,.13-.06c.06-.1.3-.06.42.06s.72.15,1.07-.15a.64.64,0,0,1,.3-.15c.06,0,.11,0,.11,0a1,1,0,0,1,.4-.14A1,1,0,0,0,37.9,49s.07,0,.16,0a1.7,1.7,0,0,0,1.07-.5c.16-.16.26-.24.32-.25Zm-18.66.27a1.2,1.2,0,0,1,.24.15,1.74,1.74,0,0,0,.49.25,1.91,1.91,0,0,1,.35.15,3.16,3.16,0,0,0,.45.11,1.65,1.65,0,0,1,.45.11.89.89,0,0,0,.4.09c.8.08.89.11,1.13.36a.57.57,0,0,0,.78.13.66.66,0,0,1,.47,0,1.59,1.59,0,0,1,.39.09,2,2,0,0,0,.52.13,1.12,1.12,0,0,1,.84.4c.32.29.4.33.62.33s.26,0,.27-.06.42-.15.75,0a3.85,3.85,0,0,0,.49.19c.09,0,.17.06.17.09s.08.07.17.09a.58.58,0,0,1,.28.15c.1.11.09.14-.36.58s-.68.56-.65.16a1.14,1.14,0,0,0-.13-.58,1.81,1.81,0,0,1-.16-.4c0-.09-.12-.07-.16,0a.2.2,0,0,0,0,.17,1.31,1.31,0,0,1,.14.42.9.9,0,0,0,.13.38.39.39,0,0,1,.05.23.65.65,0,0,1-.48.55c-.19,0-.28,0-.34-.2a.8.8,0,0,0-.16-.3.55.55,0,0,1-.11-.22.14.14,0,0,0-.09-.11c-.09,0-.07.1.05.25s0,.29-.1.21a1.68,1.68,0,0,0-.38-.16c-.34-.11-.57-.29-.57-.44a.76.76,0,0,0-.12-.29,1.46,1.46,0,0,1-.15-.43c0-.26-.28-.57-.43-.57s-.12.21,0,.27a.35.35,0,0,1,.06.23,1.36,1.36,0,0,0,.13.45c.07.15.12.27.1.29a1.26,1.26,0,0,1-.63-.19.19.19,0,0,0-.13-.08c-.11,0-.36-.31-.53-.64s-.21-.33-.25-.33-.11.07,0,.15a.78.78,0,0,1,.1.3l.05.24-.13-.11c-.07-.06-.3-.21-.51-.34a1.23,1.23,0,0,1-.47-.4c0-.1-.09-.14-.11-.1s-.15.1-.32,0l-.24-.12a.65.65,0,0,0-.24-.06.6.6,0,0,1-.28-.1c-.08-.05-.17-.08-.19-.06s0,.07.13.11.16.1.16.14a.77.77,0,0,0,.32.21,2.62,2.62,0,0,1,.44.25,1.31,1.31,0,0,0,.36.21,3.87,3.87,0,0,1,.48.27,6.65,6.65,0,0,0,1.42.67.28.28,0,0,1,.19.09.26.26,0,0,0,.18.09.81.81,0,0,1,.3.15,1.18,1.18,0,0,0,.4.18.52.52,0,0,1,.27.13.24.24,0,0,0,.15.09.55.55,0,0,1,.22.11,1.59,1.59,0,0,0,.37.18,1.21,1.21,0,0,1,.35.21c.14.15.12.27-.1.75a.65.65,0,0,1-.1.2l-.5-.22a.87.87,0,0,0-.28-.08.39.39,0,0,1-.2-.12.42.42,0,0,0-.32-.12,2,2,0,0,1-.83-.23.53.53,0,0,0-.23-.08c-.06,0-.1,0-.1-.06s0-.06.09-.06.09,0,.09-.05a.94.94,0,0,1,.48-.19,1,1,0,0,0,.27-.09l.31-.12c.21-.08,0-.11-.29,0l-.51.1c-.15,0-.26.06-.26.09s-.05.06-.12.06a.6.6,0,0,0-.27.13c-.14.1-.19.11-.3.06a3.46,3.46,0,0,0-.4-.14l-.34-.11a1.08,1.08,0,0,0-.29-.12c-.12,0-.21-.1-.19-.13a1.49,1.49,0,0,1,.38-.12,1.37,1.37,0,0,0,.4-.13.48.48,0,0,1,.2,0c.08,0,.14,0,.14-.06S24.93,52,25,52s.11,0,.1-.07-.75,0-1.24.2c-.32.14-.38.14-.38,0a.54.54,0,0,0-.38-.37,1.78,1.78,0,0,1-.72-.72.77.77,0,0,0-.35-.52,3.88,3.88,0,0,1-.78-.93,2.25,2.25,0,0,0-.21-.35,1,1,0,0,1-.17-.35.18.18,0,0,0-.06-.13c-.07,0-.09-.27,0-.27Zm22.5.76s-.09,0-.16.16a2.7,2.7,0,0,0-.17.35,1.92,1.92,0,0,1-.12.33c-.17.42-.22.57-.18.63a.11.11,0,0,0,.21-.06.55.55,0,0,1,.06-.22,3.91,3.91,0,0,0,.25-.6,1,1,0,0,1,.12-.28c.09-.18.1-.23,0-.29Zm-5.7.44a3.87,3.87,0,0,0-1,.5.7.7,0,0,1-.21.11,1.1,1.1,0,0,0-.29.16.51.51,0,0,1-.36.12c-.11,0-.16,0-.22.12a1.09,1.09,0,0,1-.66.45c-.14,0-.15,0-.07-.38,0-.13,0-.24,0-.26s-.3.1-.3.22a.61.61,0,0,1-.12.28.61.61,0,0,0-.12.31c0,.29-.92,1-1.29,1-.11,0-.11,0,0-.26s.17-.32.22-.4a2.59,2.59,0,0,0,.31-.78c0-.15-.17-.15-.23,0a2.46,2.46,0,0,1-.21.35.73.73,0,0,0-.16.3,1.05,1.05,0,0,1-.11.31,2.31,2.31,0,0,0-.16.41c0,.11-.08.22-.13.23a.16.16,0,0,0-.08.12s-.08.12-.17.15a1.52,1.52,0,0,0-.26.14,1.31,1.31,0,0,1-.52.21,1.49,1.49,0,0,1,.17-.6s0,0,0-.09a2.16,2.16,0,0,1,.18-.47c.22-.47.22-.5,0-.54s-.17,0-.19.07a.93.93,0,0,1-.11.19,1.05,1.05,0,0,0-.12.31,1.57,1.57,0,0,1-.13.4.88.88,0,0,0-.08.27,1.68,1.68,0,0,1-.5.87c-.23.2-.27.22-.52.19s-.27,0-.32.13a3.17,3.17,0,0,1-1.35.89c-.22.11-.29.23-.15.29s.89-.17,1.28-.58a.66.66,0,0,1,.32-.23,2.53,2.53,0,0,0,.87-.43,16,16,0,0,1,1.49-.81,4.77,4.77,0,0,0,.67-.38,1.16,1.16,0,0,1,.25-.14,3.25,3.25,0,0,0,.47-.21,2.21,2.21,0,0,1,1.3-.25c.81,0,1.06-.08,1-.18a5,5,0,0,0-.78,0,2.8,2.8,0,0,1-.71,0,5.51,5.51,0,0,1,.65-.36,5.63,5.63,0,0,0,.49-.29,4.07,4.07,0,0,1,.49-.3l.45-.26.36-.2a1.17,1.17,0,0,0,.27-.21.53.53,0,0,1,.21-.16s.1-.06.15-.12.06-.13-.06-.13Zm8.51.4a.19.19,0,0,0-.17.05.74.74,0,0,1-.28,0c-.32,0-.29.1,0,.15a2,2,0,0,1,.44.12c.19.1.38.12.38,0s-.08-.25-.16-.25a.15.15,0,0,1-.12-.08S46.16,50.08,46.1,50.08Zm-18.38.83c-.09,0-.08.16,0,.34s.13.31.19.5a1.9,1.9,0,0,0,.16.41c.12.15.16,0,.07-.32a1.92,1.92,0,0,0-.44-.93ZM33,53.12a1.74,1.74,0,0,0-.61.05s0,.07.14.07a1.68,1.68,0,0,1,.72.24.47.47,0,0,0,.3.1c.3,0,.46,0,.57-.11a1.49,1.49,0,0,1,.51-.11c.45,0,.5,0,.44-.15s-.17-.07-.31-.07-.28,0-.3.06a1.36,1.36,0,0,1-.8,0,2.17,2.17,0,0,0-.66-.08Zm-8.31.16a1.6,1.6,0,0,1,.62.17.8.8,0,0,0,.37.12,2.49,2.49,0,0,1,.84.22,1.16,1.16,0,0,0,.38.11c.14,0,.27.06.28.09a1.63,1.63,0,0,0,.49.15c.5.11.6.21.42.4a.38.38,0,0,1-.5,0c-.06,0-.09,0-.15,0s-.11.1-.28,0a1,1,0,0,0-.38-.15c-.13,0-.23-.06-.23-.09s-.09,0-.2-.07a1.65,1.65,0,0,1-.48-.22,1.12,1.12,0,0,0-.36-.19.39.39,0,0,1-.2-.09.48.48,0,0,0-.2-.09,1.07,1.07,0,0,1-.5-.33S24.6,53.27,24.65,53.28Zm6.71.54q-.12,0-.12,0s.08.09.19.13l.38.16a1.77,1.77,0,0,0,.55.11l.39,0,.15,0c.12-.05.11-.05,0-.13A5.47,5.47,0,0,0,31.36,53.82Zm-.91.45c-.08,0-.12,0-.12.08s.07.07.16.09a1.66,1.66,0,0,1,.33.16.56.56,0,0,0,.27.12.47.47,0,0,1,.21.06c.11.07.16.07.21,0s0-.08-.07-.1-.63-.26-.83-.36a.41.41,0,0,0-.16,0Z"/></g><g id="g856"><path id="path2" class="cls-4" d="M15,42.22V14.48l.43-.21,29.16,28c0,2.51-14.06.73-14.19,2.84L30.25,48l-.37.17a6.08,6.08,0,0,0-4-2.21,61.16,61.16,0,0,0-7.35-.6c-2.13,0-3.55-.58-3.55-3.1Z"/><path id="path4" class="cls-5" d="M15,42.22V14.48l.43-.21,29.16,28c0,2.51-14.06.73-14.19,2.84L30.25,48l-.37.17a6.08,6.08,0,0,0-4-2.21,61.16,61.16,0,0,0-7.35-.6c-2.13,0-3.55-.58-3.55-3.1Z"/><path id="path134" d="M15.43,42V14.27H45V42c0,2.51-1.41,3.1-3.54,3.1a63.58,63.58,0,0,0-7.36.6,5.79,5.79,0,0,0-3.82,2.21,6.08,6.08,0,0,0-4-2.21,63.36,63.36,0,0,0-7.35-.6c-2.13,0-3.55-.58-3.55-3.1Z"/><g class="cls-6"><path id="path136-4" class="cls-7" d="M15.43,42V14.27H45V42c0,2.51-1.41,3.1-3.54,3.1a63.58,63.58,0,0,0-7.36.6,5.79,5.79,0,0,0-3.82,2.21,6.08,6.08,0,0,0-4-2.21,63.36,63.36,0,0,0-7.35-.6c-2.13,0-3.55-.58-3.55-3.1Z"/></g><g class="cls-6"><path id="rect3977" d="M26.41,14V25.78h-11v7.64h11v14.5h7.64V33.42H45.23V25.78H34.05V14Z"/></g><path id="path136" class="cls-8" d="M15.43,42V14.27H45V42c0,2.51-1.41,3.1-3.54,3.1a63.58,63.58,0,0,0-7.36.6,5.79,5.79,0,0,0-3.82,2.21,6.08,6.08,0,0,0-4-2.21,63.36,63.36,0,0,0-7.35-.6c-2.13,0-3.55-.58-3.55-3.1Z"/></g></g></g></svg>