<svg id="Слой_1" data-name="Слой 1" xmlns="http://www.w3.org/2000/svg" viewBox="0 0 60 60"><defs><style>.cls-1{fill:#fff;}</style></defs><circle class="cls-1" cx="30" cy="30" r="26.31"/><circle cx="30" cy="30" r="22.76"/><circle class="cls-1" cx="30" cy="30" r="4.55"/><g id="d"><g id="c"><g id="b"><g id="a"><path class="cls-1" d="M30,7.24l.85,13.7L30,27.72l-.85-6.78Z"/><circle class="cls-1" cx="32.97" cy="7.44" r="1"/></g><g id="a-2" data-name="a"><path class="cls-1" d="M30,52.76l-.85-13.7L30,32.28l.85,6.78Z"/><circle class="cls-1" cx="27.03" cy="52.56" r="1"/></g></g><g id="b-2" data-name="b"><g id="a-3" data-name="a"><path class="cls-1" d="M35.89,8,33.17,21.47,30.59,27.8,31.52,21Z"/><circle class="cls-1" cx="38.71" cy="8.98" r="1"/></g><g id="a-4" data-name="a"><path class="cls-1" d="M24.11,52l2.72-13.45,2.58-6.33L28.48,39Z"/><circle class="cls-1" cx="21.29" cy="51.02" r="1"/></g></g></g><g id="c-2" data-name="c"><g id="b-3" data-name="b"><g id="a-5" data-name="a"><path class="cls-1" d="M41.38,10.29,35.27,22.58,31.14,28l2.65-6.3Z"/><circle class="cls-1" cx="43.85" cy="11.95" r="1"/></g><g id="a-6" data-name="a"><path class="cls-1" d="M18.62,49.71l6.11-12.29L28.86,32l-2.65,6.3Z"/><circle class="cls-1" cx="16.15" cy="48.05" r="1"/></g></g><g id="b-4" data-name="b"><g id="a-7" data-name="a"><path class="cls-1" d="M46.09,13.91,37,24.2l-5.4,4.19L35.8,23Z"/><circle class="cls-1" cx="48.05" cy="16.15" r="1"/></g><g id="a-8" data-name="a"><path class="cls-1" d="M13.91,46.09,23,35.8l5.4-4.19L24.2,37Z"/><circle class="cls-1" cx="11.95" cy="43.85" r="1"/></g></g></g></g><g id="d-2" data-name="d"><g id="c-3" data-name="c"><g id="b-5" data-name="b"><g id="a-9" data-name="a"><path class="cls-1" d="M49.71,18.62,38.28,26.21,32,28.86l5.44-4.13Z"/><circle class="cls-1" cx="51.02" cy="21.29" r="1"/></g><g id="a-10" data-name="a"><path class="cls-1" d="M10.29,41.38l11.43-7.59L28,31.14l-5.44,4.13Z"/><circle class="cls-1" cx="8.98" cy="38.71" r="1"/></g></g><g id="b-6" data-name="b"><g id="a-11" data-name="a"><path class="cls-1" d="M52,24.11,39,28.48l-6.77.93,6.33-2.58Z"/><circle class="cls-1" cx="52.56" cy="27.03" r="1"/></g><g id="a-12" data-name="a"><path class="cls-1" d="M8,35.89l13-4.37,6.77-.93-6.33,2.58Z"/><circle class="cls-1" cx="7.44" cy="32.97" r="1"/></g></g></g><g id="c-4" data-name="c"><g id="b-7" data-name="b"><g id="a-13" data-name="a"><path class="cls-1" d="M52.76,30l-13.7.85L32.28,30l6.78-.85Z"/><circle class="cls-1" cx="52.56" cy="32.97" r="1"/></g><g id="a-14" data-name="a"><path class="cls-1" d="M7.24,30l13.7-.85,6.78.85-6.78.85Z"/><circle class="cls-1" cx="7.44" cy="27.03" r="1"/></g></g><g id="b-8" data-name="b"><g id="a-15" data-name="a"><path class="cls-1" d="M52,35.89,38.53,33.17,32.2,30.59l6.77.93Z"/><circle class="cls-1" cx="51.02" cy="38.71" r="1"/></g><g id="a-16" data-name="a"><path class="cls-1" d="M8,24.11l13.45,2.72,6.33,2.58L21,28.48Z"/><circle class="cls-1" cx="8.98" cy="21.29" r="1"/></g></g></g></g><g id="d-3" data-name="d"><g id="c-5" data-name="c"><g id="b-9" data-name="b"><g id="a-17" data-name="a"><path class="cls-1" d="M49.71,41.38,37.42,35.27,32,31.14l6.3,2.65Z"/><circle class="cls-1" cx="48.05" cy="43.85" r="1"/></g><g id="a-18" data-name="a"><path class="cls-1" d="M10.29,18.62l12.29,6.11L28,28.86l-6.3-2.65Z"/><circle class="cls-1" cx="11.95" cy="16.15" r="1"/></g></g><g id="b-10" data-name="b"><g id="a-19" data-name="a"><path class="cls-1" d="M46.09,46.09,35.8,37l-4.19-5.4L37,35.8Z"/><circle class="cls-1" cx="43.85" cy="48.05" r="1"/></g><g id="a-20" data-name="a"><path class="cls-1" d="M13.91,13.91,24.2,23l4.19,5.4L23,24.2Z"/><circle class="cls-1" cx="16.15" cy="11.95" r="1"/></g></g></g><g id="c-6" data-name="c"><g id="b-11" data-name="b"><g id="a-21" data-name="a"><path class="cls-1" d="M41.38,49.71,33.79,38.28,31.14,32l4.13,5.44Z"/><circle class="cls-1" cx="38.71" cy="51.02" r="1"/></g><g id="a-22" data-name="a"><path class="cls-1" d="M18.62,10.29l7.59,11.43L28.86,28l-4.13-5.44Z"/><circle class="cls-1" cx="21.29" cy="8.98" r="1"/></g></g><g id="b-12" data-name="b"><g id="a-23" data-name="a"><path class="cls-1" d="M35.89,52,31.52,39l-.93-6.77,2.58,6.33Z"/><circle class="cls-1" cx="32.97" cy="52.56" r="1"/></g><g id="a-24" data-name="a"><path class="cls-1" d="M24.11,8l4.37,13,.93,6.77-2.58-6.33Z"/><circle class="cls-1" cx="27.03" cy="7.44" r="1"/></g></g></g></g></svg>