<svg id="Слой_1" data-name="Слой 1" xmlns="http://www.w3.org/2000/svg" viewBox="0 0 60 60"><defs><style>.cls-1{fill:#fff;}</style></defs><g id="b2"><path id="b" class="cls-1" d="M2.14,19.47,9.57,8.33l1.86,1.24L4,20.71Zm2.79,1.86,7.42-11.14,1.86,1.24L6.78,22.57Zm2.78,1.86,7.43-11.14L17,13.28,9.57,24.43Z"/><path id="b-2" data-name="b" class="cls-1" d="M43,46.72l7.43-11.15,1.86,1.24L44.86,48Zm2.79,1.85,7.43-11.14,1.85,1.24L47.65,49.81Zm2.78,1.86L56,39.29l1.86,1.24L50.43,51.67Z"/></g><path class="cls-1" d="M45.79,40.53l9.28,6.19"/><path class="cls-1" d="M18.86,22.57A13.39,13.39,0,0,1,41.14,37.43Z"/><path d="M18.86,22.57A13.39,13.39,0,1,0,41.14,37.43,6.7,6.7,0,1,0,30,30Z"/><circle class="cls-1" cx="24.43" cy="26.29" r="6.7"/><g id="b2-2" data-name="b2"><path id="b-3" data-name="b" class="cls-1" d="M9.57,51.67,2.14,40.53,4,39.29l7.43,11.14Zm2.78-1.86L4.93,38.67l1.85-1.24,7.43,11.14ZM15.14,48,7.71,36.81l1.86-1.24L17,46.72Z"/><path id="b-4" data-name="b" class="cls-1" d="M50.43,24.43,43,13.28l1.86-1.23,7.43,11.14Zm2.79-1.86L45.79,11.43l1.86-1.24,7.42,11.14ZM56,20.71,48.57,9.57l1.86-1.24,7.43,11.14Z"/></g><path class="cls-1" d="M8.18,44.55,11,42.69M45.79,19.47,49,17.31m2.78-1.86,2.79-1.86"/></svg>