<svg id="Слой_1" data-name="Слой 1" xmlns="http://www.w3.org/2000/svg" viewBox="0 0 60 60"><defs><style>.cls-1{fill:#fff;}.cls-1,.cls-2,.cls-3{fill-rule:evenodd;}.cls-3{fill:#e8e6eb;}</style></defs><g id="g3633"><path id="path3360" class="cls-1" d="M26,4.2a21.78,21.78,0,0,1,1.65,4.2,14.14,14.14,0,0,1,2.54.17,7.65,7.65,0,0,0,2.54.17,12.51,12.51,0,0,1,1.76-4.63c-.41.27-1.27.38-1.6.88-.51-.45-.91-.17-1.16.31.09-.38,0-.7-.52-.73.29-.55-.16-.83-.63-.58,0-.48-.4-.49-.43-.74-.06.3-.4.15-.35.87-.38-.31-.75-.11-.61.43-.47,0-.6.38-.55.86-.32-.74-.92-.52-1.13-.26-.37-.73-.66-.27-1.51-1Z"/><path id="path3358" class="cls-1" d="M33.5,8c-.54.92-.77,1-3.13.62-1.87-.18-3.55-.71-3.63,1A1.88,1.88,0,0,1,28.65,11l-1.14,1c-.81.12-2.08,1.2-2.92.2-.24.94.63,1.21,1.54,1.17.63-.06.83-.23,2-.47l.31.34c1.79.15,2.71,2.7-.19,4.2-.11.35.08.77.35.82-.84,1.19-2.22,2.68-2.72,1.69a1,1,0,0,0,.19,1.37,3.06,3.06,0,0,0-.64,2.1c-1.91-.3-3.17-.63-2.74-2.41,2,.09,2.58-2.36,2.29-3.61-1.19-5-7.6-8.95-12.26-9.08a6,6,0,0,0,2,3.22,6.67,6.67,0,0,0-4.18-.88c.18,1.07.76,2.31,3.19,4.33A15,15,0,0,1,9.84,12.1c-.25.34-.39,1.74,1.11,2.75a6.27,6.27,0,0,0-3.54.35,8.2,8.2,0,0,0,4,3.22,8.32,8.32,0,0,1-4.27-2,2.62,2.62,0,0,0,1.64,2.7A5.88,5.88,0,0,0,6,20.29a7.33,7.33,0,0,0,4.54,2.37,11.1,11.1,0,0,1-4.15-.35c0,.42-.33,2.09,4.12,1.81-1.58.75-4,2.32-4.37,3.69,1.55.69,4.32.12,5.75-.32C7.63,30.07,7,30.33,6.19,30.16c1,2.17,3.49.7,5.63-.51-2.63,3.51-3.05,5.3-3,7.79,2.12-.26,5.18-3.28,6.81-5.86-1.89,3.88-3,7-5.08,7.93,2.35.93,4.36-2,5.78-5.14-.54,2-.77,6.17-.08,7.19,2.13-1.44,3.73-4.63,4.81-8.29a36.65,36.65,0,0,1-1.3,5.41c1.37.26,2.06-2.19,2.52-3.62a1.45,1.45,0,0,0,.23.26c1.72-1.25,2.27-4.15,2.39-5.29a2.63,2.63,0,0,0,2.67-.42c.34.48.36,1.23.46,1.33-1.71-1.39-3.54,0-3.62,2.31a4.46,4.46,0,0,1-2,3,.65.65,0,0,0,.5.14,4.2,4.2,0,0,1-.81,1.07.9.9,0,0,0,.33.09,3.07,3.07,0,0,1-1.24,1.16c.11.11.18.15.53.24a3.4,3.4,0,0,1-1.33,1,3.53,3.53,0,0,0,2.23.58h0a3.42,3.42,0,0,1-1.55,1.43.61.61,0,0,0,.58.16,4.14,4.14,0,0,1-1.58,1.13.53.53,0,0,0,.48.14A2.88,2.88,0,0,1,19,44.43c.15.29.46.25.73.26-.21.45-.87.6-1.54.75.51.14.85.41.55.34a1.18,1.18,0,0,1-.84.44c-.45.06-2.05-.51-2.7-.29a1.22,1.22,0,0,0-1.09-.62,1.13,1.13,0,0,0-1.21.92c-.1-.07-.49-.12-.43.34.14.27.15.49,1,.82a1,1,0,0,0,.52.09,1.55,1.55,0,0,0,.9-.39h0a7.28,7.28,0,0,1,1.16.26c-.68,0-.91.43-1.3.7a2.87,2.87,0,0,1-.44-.08h0l-.26,0a1.29,1.29,0,0,0-1,1.19.6.6,0,0,0,.08.35v.11a.25.25,0,0,0,.05.41,1.62,1.62,0,0,0,1.15,0,1.1,1.1,0,0,0,1-1h0a4.57,4.57,0,0,0,1.6-.56.19.19,0,0,1,0,.13,1.52,1.52,0,0,0-.77,1H16a.8.8,0,0,0-.89.91,1,1,0,0,0,.36.81c0,.24,0,.45.24.53.87.14,1.08-.31,1.25-.3a.51.51,0,0,1,0-.26.69.69,0,0,0,.48-.72.8.8,0,0,0-.14-.62h0A11.21,11.21,0,0,0,19,48.31a3.29,3.29,0,0,0,1.32-.06v.12c-.32.3-.1,1,.32,1a.31.31,0,0,0,0,.19c.27.17.77,0,1.15.14.2,0,.29-.16.24-.43h0a1,1,0,0,0,.47-.93,1.06,1.06,0,0,0-1-1.06h0c-.59-.06-1.16.37-1-.56,1.62-1.91,3.83-4.81,4.43-5.16a.82.82,0,0,1-.11-.23,2.23,2.23,0,0,0,2.1,1.25,3.13,3.13,0,0,1-.43-1.49,1,1,0,0,0,.69.36,5.66,5.66,0,0,1,1.59-5.25,12.33,12.33,0,0,1-1.56,6,1.46,1.46,0,0,0,1.53-.81c.14,1.78-1.55,4.07-2.87,3C25,46.15,27,47,28.22,46a2.61,2.61,0,0,1-2,2c-.94.25-1.92-.14-1.29-1.65a1.81,1.81,0,0,0-2.07,1.93,1.89,1.89,0,0,0,.93,1.65c-2.68,2,0,4.3,2.23,3.86a5.09,5.09,0,0,0,3.39-2.72,6,6,0,0,0,1,5.7c2-3.13,1.15-5.23,1.1-5.57,1.58,2.43,3.13,2.6,4.05,2.54,1.57,0,3.79-2.44,1-4C38,49,38.09,46.16,36.06,46c.42,1.14-.47,1.82-1.44,1.73a2.43,2.43,0,0,1-2.22-1.92c1.92.93,2.81-.89,2.15-1.88-1.63,1.36-2.41-.82-2.63-2.11a1.69,1.69,0,0,0,1.49.32c-1.34-1.71-1.65-4-1.77-6.17a9.63,9.63,0,0,1,1.78,4.94c.21-.11.4-.13.78-.89,0,1.29-.12,1.47-.56,2a1.91,1.91,0,0,0,2.11-1h0a50.74,50.74,0,0,0,4.36,5.3c.31.33.42.67-.16.78-1.88-.69-2.08,1.27-1.3,1.54a1,1,0,0,0,0,.56C39,49.28,39.76,49,40,49s.1-.26.09-.44a.48.48,0,0,0,.41-.27A1.24,1.24,0,0,0,41.65,48L43,49.38c.07,0-.07.19.12.21-.15.93.2,1,.5,1.27-.06.89,1.27.38,1.4.43a.24.24,0,0,0,.13-.28c.15-.16.08-.25,0-.36a1,1,0,0,0-.8-1.7A9.81,9.81,0,0,0,43,47.73a19.4,19.4,0,0,1,2.72,1c.16,1,1.06.61,1.73.64.21-.29.1-.38,0-.48.88-1.14-1-2.07-1.76-1.4a3.48,3.48,0,0,0-1.3-.68,2.28,2.28,0,0,1,1.39-.37.91.91,0,0,0,1.13.06.4.4,0,0,0,.6.2,2.61,2.61,0,0,0,.36-1.24.42.42,0,0,0-.4-.26,1,1,0,0,0-1.74.06,8.54,8.54,0,0,0-2.8.6c-.33.09-.65-.26-.93-.47.26-.1.48-.22.47-.43a1.63,1.63,0,0,1-1.27-.5l.12-.33A2.3,2.3,0,0,1,40.12,43a.71.71,0,0,0,.28-.34,2.46,2.46,0,0,1-1.35-.83,1,1,0,0,0,.37-.35,6,6,0,0,1-2-1.84v0a3.78,3.78,0,0,0,2.71-.39,2.76,2.76,0,0,1-1.78-1.19,2.64,2.64,0,0,0,.43-.09,2.71,2.71,0,0,1-1.17-1.19.57.57,0,0,0,.47-.17,1.71,1.71,0,0,1-.88-.86,1,1,0,0,0,.58-.08c-2-.88-1.68-5.44-3.78-5.46a3,3,0,0,0-1.58.53,5,5,0,0,1,.63-1.12,2.3,2.3,0,0,0,2.36,0c.15,1.83.74,3.8,2,4.79a3.08,3.08,0,0,0,.64-.46c.23,1.7.87,3.94,2.29,3.75a14.72,14.72,0,0,1-.72-4.92c.6,4.81,2.08,7.61,3.3,8.45.56-.74,1-4.25.71-6.36C44.87,37,46.2,39,47.31,39a4.94,4.94,0,0,0,1.41-.52c-1.75-.71-2.94-3.93-4-5.93,2,3.15,4.4,4.57,5.53,4.79A11.5,11.5,0,0,0,48,29.87c4.48,2.37,5.44.84,5.7,0-2,.71-4.75-1.89-6.58-2.72l0-.07c2.68,1.22,5.3,1.64,6.94.61a7.89,7.89,0,0,0-4.22-3.49c2.9.32,3.85-.67,3.91-1.75a6.48,6.48,0,0,1-3.3.21c2.78-.56,3.28-1.74,3.25-1.86a7.09,7.09,0,0,0-3.27-1.29c3.35-1.2,2.29-2.34,2.16-2.69a7.21,7.21,0,0,1-3.17,1.64,6.76,6.76,0,0,0,2.83-3.19,5.36,5.36,0,0,0-3.05-.18c.65-.72,1.5-1.94.72-3a9.29,9.29,0,0,1-2.2,2.2,6.76,6.76,0,0,0,1.67-3.71,5.88,5.88,0,0,0-3.14.87,5.2,5.2,0,0,0,1.27-2.89,13.76,13.76,0,0,0-12,8.32c-.72,1.68-.16,4.54,2.09,4.22.36,1.44-.6,2.32-2.67,2.26,0-.49.11-1.44-.49-2a.72.72,0,0,0,.71-.51c-1.36-.31-1.14-.76-.88-3.17a.49.49,0,0,0,.53-.11c-.56-.52-.37-1.47-.09-4.48.06-1.31-.21-2-.5-2.19.17-.09.29-.23.2-.56.62-.11.36-.87.1-1.12-.13.34-.66.47-1.17.09A.86.86,0,0,0,33.5,8ZM36,40.27l.06.07L36,40.28Zm-12.81.1a8.66,8.66,0,0,0,.06,1.26,1.54,1.54,0,0,0,1-.17l-.07,0a1.46,1.46,0,0,1-.93.14l-.08-.92a1,1,0,0,1,0-.34Zm-.15,0-.11,0Zm13.22.11a1.72,1.72,0,0,0,1.25.3l0-.08s0,.06,0,.09a1.59,1.59,0,0,1-1.26-.31ZM20.35,48.24Zm11.87.51a4.25,4.25,0,0,0,4.06,1.1,1.19,1.19,0,0,1-1.51,1.37,3.73,3.73,0,0,1-2.55-2.47ZM28.35,49a4.91,4.91,0,0,1-2.61,2.46c-.93.24-1.8-.22-1.46-1.43a4,4,0,0,0,4.07-1Z"/><path id="path3362" class="cls-2" d="M19.07,26.77a1.85,1.85,0,0,1-.56-1.59c-.75-.57-.55-.79-.68-1,.26.46.52.76.78.8a7.46,7.46,0,0,0,1.49.91c-3-1.66-2.2-3.69-2.16-4.27a1.76,1.76,0,0,1-1.08-.26A2.34,2.34,0,0,1,18.3,19.4a2.35,2.35,0,0,1-.35.11,1,1,0,0,1,0-1.14,1.6,1.6,0,0,1,1.22,0A2.35,2.35,0,0,1,20.66,17,2.16,2.16,0,0,1,21,19a1.79,1.79,0,0,1,.94.69,1,1,0,0,1-.25.54,1,1,0,1,0,0-2c.23-1.75-2-2.8-3-.64-1.79-.48-2.28.92-1.6,2a2.08,2.08,0,0,0-.3,3.35,2.76,2.76,0,0,0,1.49,2.61C18.59,26.53,18.81,26.54,19.07,26.77Z"/><path id="path3364" class="cls-2" d="M41.35,17l.24-.46c1.61-.25,2.59.83,2,2.11a1.66,1.66,0,0,1-.2,2.86c.94-.69.42-.91.26-.89a1.32,1.32,0,0,0,.2-.13,2.52,2.52,0,0,0-1.24-1.88,1.44,1.44,0,0,0,.36-1.35,1.89,1.89,0,0,0-1.38.12Z"/><path id="path3366" class="cls-2" d="M39.11,20.14a1.78,1.78,0,0,1,.6-1c-.14.11-.3.23-.48.39a1.88,1.88,0,0,1-1-1.11A1.57,1.57,0,0,1,39.51,18a2.13,2.13,0,0,1,.31-1.9,2.13,2.13,0,0,1,1.49.82l.23-.41a1.41,1.41,0,0,0-1.62-1c-.64.07-1.37.62-1.08,1.92C36.92,18.23,37.74,20.07,39.11,20.14Z"/><path id="path3368" class="cls-2" d="M34.92,23.44a8.2,8.2,0,0,1-.36,1.71c2.61-.39,6.49-1.07,6-3.95a2.3,2.3,0,0,1-1.42.42,2.92,2.92,0,0,1,0-1.41,2.4,2.4,0,0,1-1.47.93c2.37,1.06-1,2.93-2.41,2.3Z"/><path id="path3370" class="cls-3" d="M25.47,24.51a17.85,17.85,0,0,0,.58,2.73A6.74,6.74,0,0,1,25.47,24.51Z"/><path id="path3372" class="cls-2" d="M33.26,23.93c-.64,2.51,2.15,2.27.19-.3,1.91,1.16.66,2.9.56,3.29C33.72,25.58,32.54,25.24,33.26,23.93Z"/><path id="path3374" class="cls-1" d="M20.65,17.07l-.94,2.78A1.86,1.86,0,0,1,19,19.3,2.4,2.4,0,0,1,20.65,17.07Z"/><path id="path3376" class="cls-2" d="M21.4,22.48l-1.7-2.63a4.31,4.31,0,0,0,.95-.09A3,3,0,0,1,21.4,22.48Z"/><path id="path3378" class="cls-1" d="M20.92,19a1.35,1.35,0,0,1,.93.68l-1.2.11A5.25,5.25,0,0,0,20.92,19Z"/><path id="path3380" class="cls-1" d="M18,19.5c-.23-.32-.23-1,0-1.12l1,.92A6.94,6.94,0,0,0,18,19.5Z"/><path id="path3382" class="cls-1" d="M16.89,21.31l2.81-1.45c.05,0-.4-.47-.75-.56A2.25,2.25,0,0,0,16.89,21.31Z"/><path id="path3384" class="cls-2" d="M19.22,21.31c-1.45,4.15,4.79,4.79,6.45,4.91l-.2-1c-3-.13-5.83-.8-5.41-3.06A2,2,0,0,1,19.22,21.31Z"/><path id="path3386" class="cls-2" d="M19.23,21.3a5,5,0,0,1-1.28.31c-1.2,5,6.59,5.42,8.08,5.61a4,4,0,0,1-.36-1C21.72,26,18.06,24.47,19.23,21.3Z"/><path id="path3388" class="cls-2" d="M39.83,16.14a24,24,0,0,1,1.24,3,3.72,3.72,0,0,1,.75-.87A2.32,2.32,0,0,0,39.83,16.14Z"/><path id="path3390" class="cls-1" d="M39.83,16.13a23.78,23.78,0,0,1,1.24,3L40,19A2.39,2.39,0,0,1,39.83,16.13Z"/><path id="path3392" class="cls-2" d="M38.2,18.38a1.51,1.51,0,0,1,1.34-.33A5.65,5.65,0,0,0,40,19Z"/><path id="path3395" class="cls-2" d="M42.9,17.29l-1.09,1,.71.37A1.38,1.38,0,0,0,42.9,17.29Z"/><path id="path3397" class="cls-2" d="M41.82,18.24c-.18,0-.78.87-.74.86l2.7,1.38A2.77,2.77,0,0,0,41.82,18.24Z"/><path id="path3399" class="cls-2" d="M41.07,19.09l-2,2.52a2.38,2.38,0,0,0,2.18-1.3Z"/><path id="path3401" class="cls-1" d="M42.9,17.29a1.83,1.83,0,0,0-1.36.11,4.68,4.68,0,0,1,.28.85Z"/><path id="path3403" class="cls-1" d="M41.07,19.1l2.72,1.38c-.5.41-2.07,0-2.5-.16Z"/><path id="path3405" class="cls-1" d="M41.07,19.1,40,19c-1.19.49-1,2.51-.89,2.66Z"/><path id="path3407" class="cls-1" d="M40,19l-1.8-.58a1.87,1.87,0,0,0,1,1.08A2.18,2.18,0,0,1,40,19Z"/><path id="path3409" class="cls-1" d="M41.33,20.32a2.44,2.44,0,0,1-.8.87c.63,2.91-3.55,3.64-6,4a3.52,3.52,0,0,1-.26,1C34.73,26.18,43.32,26,41.33,20.32Z"/><path id="path3411" class="cls-2" d="M41.38,20.36c1.16,4.23-2.63,5.44-7.08,5.84-.11.27-.21.55-.32.85,6.05-.43,9.21-2.38,8.38-6.45A6.7,6.7,0,0,1,41.38,20.36Z"/><path id="path3413" class="cls-1" d="M13.16,50a2.1,2.1,0,0,0,1.41,0c.17.17-.05.82.46,1.3-.29.13-1.9-.37-1.87-1.27Z"/><path id="path3415" class="cls-1" d="M12.47,46.55c.2.64.77.71,1,.84,0,.25-.63.23-.65,1.11C12.38,48.46,11.78,47.45,12.47,46.55Z"/><path id="path3417" class="cls-1" d="M15.71,51.87A1.71,1.71,0,0,0,17,51.55a1.71,1.71,0,0,0,.78.77C17.58,52.9,15.67,52.77,15.71,51.87Z"/><path id="path3419" class="cls-1" d="M21.77,49.71c-.05-.09-.95,0-1.11-.13-.12.14-.15.6-.49.78C20.39,50.75,21.9,50.62,21.77,49.71Z"/><path id="path3422" class="cls-2" d="M23.49,41.68l.37-.07c-.53.64-1.41,1.75-2.3,2.69s-1.7,1.87-1.39,2.71c-.62-.62-.07-1.22.76-2.2S22.86,42.5,23.49,41.68Zm-1.12,6.8c0,.44-.36.85-1.24.81,1-1.09-1-1.16-.53-1.6C21.92,46.86,22.47,48.15,22.37,48.48Zm-.94,1c.28.06.46-.3.53-.12C22.08,49.68,21.43,49.75,21.43,49.44Zm-6.69-3.75c-.2,0-.14.8-1.33.77a.2.2,0,0,0-.2.11c-.15.27.34.83.79.8a1.26,1.26,0,0,0,.91-.53c.09-.05.72-.4.67-.25-.74.36-.56.59.62.68a4.69,4.69,0,0,0,1.65-.89A13.39,13.39,0,0,1,15.09,46a.53.53,0,0,0-.34-.31Zm-1.33,4.16a.33.33,0,0,1-.11.15,1.39,1.39,0,0,0,.84,0,1.48,1.48,0,0,1-.73-.2ZM19,46.47c-1,.49-1.71,2.28-4.22,2a.47.47,0,0,1-.33.33c-.52,0-1.13.12-1.12.45s.62.64,1,.59a1,1,0,0,0,.85-.84h0a.07.07,0,0,1,.08,0A5.4,5.4,0,0,0,19,46.47Zm.45.05c-.11.67-2.31,2.69-2.41,3.35a.85.85,0,0,0-.63-.14c.2,1-.64,1.32-.86,1.14,0,.46.66.65,1.09.57a1,1,0,0,0,.63-1.34c.07-.84,1.17-1.08,1.63-2.15.4,0,.46-.63,1-.75C19.73,46.87,19.32,47.3,19.42,46.52Zm-6.48,0a1.24,1.24,0,0,0,.54.81,1.9,1.9,0,0,1-.73-.38C13,47,12.81,46.45,12.94,46.52Zm5.25-1.08a7,7,0,0,0,1.9.11C18.89,46,18.35,45.83,18.19,45.44Zm1.52-.75a.58.58,0,0,1-.19.27,2.06,2.06,0,0,0,1.56-.6A3.21,3.21,0,0,1,19.71,44.69Zm.82-1.33a2.15,2.15,0,0,1-.31.36,2.61,2.61,0,0,0,1.85-.63A3.93,3.93,0,0,1,20.53,43.36Zm1.12-1.28c-.08.1-.37.37-.47.46a3.1,3.1,0,0,0,2-.79A3.86,3.86,0,0,1,21.65,42.08Zm1.55-1.42a1.83,1.83,0,0,1-.42,1.14,4.91,4.91,0,0,0,.5-.17C23.26,41.33,23.23,41,23.2,40.66Z"/><path id="path3424" class="cls-1" d="M38.63,49.16c.48.12,1.06-.19,1.34-.2a1,1,0,0,0,.71.72A1.33,1.33,0,0,1,38.63,49.16Z"/><path id="path3426" class="cls-1" d="M44,51.33a3.41,3.41,0,0,1-.7.56c.59.55,1.81-.06,1.76-.59C44.92,51.09,44.57,51.54,44,51.33Z"/><path id="path3428" class="cls-1" d="M46.3,49.43a2.62,2.62,0,0,1-.16,1.13c.34.24,1.22-.32,1.31-1.15C47.36,49.21,47,49.56,46.3,49.43Z"/><path id="path3430" class="cls-1" d="M47.92,45.51c-.26.06-.11.92-.4,1.2a2.08,2.08,0,0,1,.58.73A1.22,1.22,0,0,0,47.92,45.51Z"/><path id="path3432" class="cls-2" d="M39.24,49.08a2.44,2.44,0,0,1,.66-.18C40.07,48.33,39.69,48.66,39.24,49.08Zm-.38-.45c.53,0,1.26.08,1.44-.62a1,1,0,0,0,1.48-1s-.27,1.19-2,.44c-.33,0-.8.16-.77.39S39.66,48.33,38.86,48.63ZM43.31,48c.42.43.7.83.6,1.16.26-.38.29-.15.35,0A.88.88,0,0,1,44,50.65c.37.1.4.43,0,.55,0,.35.94-.09,1,0,.07,0,.09-.13.11-.24a.33.33,0,0,0,0-.38A1,1,0,0,0,44.39,49,10.42,10.42,0,0,0,43.31,48Zm0-1.08c.64.41,1.51.73,2.33,1.26.83-.82,1.43.54.25.63.3.55,1.56.51,1.52.07.79-1.48-1.34-1.85-1.76-1.31a6.44,6.44,0,0,0-2.15-.94c1.83.78,2.14,1,1.82,1.07a13.38,13.38,0,0,1-2-.78Zm.56-1.14c.5-.22,1.59-.19,1.88-.45a.91.91,0,0,1,1.66-.07c.2,0,.35,0,.38.2-.19.42-.07,1.43-.6,1.18.1-.07.05-.15,0-.22-.22.22-.22,0-.23-.14-.33.4-.5.33-.75.28.06,0,.09-.09.08-.2,1-.38.13-1.54-.67-.46C45.38,46,44.31,45.78,43.9,45.82ZM36,40.28l0,.12a55.36,55.36,0,0,1,5,5.88A3.07,3.07,0,0,0,40.23,45c1.58.89,2.37.1,2.27-.07a.52.52,0,0,1-.28,0c-1.47.75-2.55-.5-3.2-1.32a3.29,3.29,0,0,0,2.21.83,1.67,1.67,0,0,0,.12-.31.66.66,0,0,1-.21-.08c-1,.37-2.19-.38-3.13-1.65a3.05,3.05,0,0,0,2.14.58c.09-.1.22-.2.24-.34a.4.4,0,0,1-.22,0,2.58,2.58,0,0,1-2.9-1.14,2.14,2.14,0,0,0,1.8.37c.15-.11.3-.22.34-.35A2.61,2.61,0,0,1,36.84,41a1.84,1.84,0,0,0,.71-.19A1.76,1.76,0,0,1,36,40.28Z"/><path id="path3434" class="cls-2" d="M25.14,12.76c1.74.93,3.75-1.2,5.16,0,.15,0,.17-.1.15-.2-1.64-1.47-3.39.69-5.31.24Z"/><path id="path3436" class="cls-2" d="M24.5,39.54l-.14.14a4.9,4.9,0,0,1-1,2,3.19,3.19,0,0,0,1.45-.39A2.39,2.39,0,0,1,24.5,39.54Z"/><path id="path3438" class="cls-2" d="M25,38.52c.24.48.7-.31.93-.52-.3,1-.88,2.09.39,3.07-.65.07-.83.35-.23,1C24.91,41.48,24.24,40.52,25,38.52Z"/><path id="path3440" class="cls-2" d="M26,38c-.4,2.06.27,2.86.94,3a5.78,5.78,0,0,1,1.86-5,30.12,30.12,0,0,0-.6-4.49c0,.69.5,2.58.17,3.9S27,38.11,26,38Z"/><path id="path3442" class="cls-2" d="M21.88,40.07A3.51,3.51,0,0,0,24.77,39,2.46,2.46,0,0,1,22,40.36C22.47,40.27,22.48,40.18,21.88,40.07Z"/><path id="path3444" class="cls-2" d="M21.74,38.89a1.52,1.52,0,0,1-.29.34A3.79,3.79,0,0,0,25,37.82a3,3,0,0,0,2.33-1.27,3.06,3.06,0,0,1-2.2.89A3.23,3.23,0,0,1,21.74,38.89Z"/><path id="path3446" class="cls-2" d="M22.45,37.49a1.16,1.16,0,0,1-.25.38c.62.13,1.48-.12,2.94-1.33a3.24,3.24,0,0,0,2.45-1.39,3.65,3.65,0,0,1-2.33,1A3.45,3.45,0,0,1,22.45,37.49Z"/><path id="path3448" class="cls-2" d="M22.93,36.34l-.26.41c.5,0,1.16,0,2.57-1.3A4.7,4.7,0,0,0,28.14,33c-.7.87-1.35,1.8-2.78,1.93C25,35.76,24,36.1,22.93,36.34Z"/><path id="path3450" class="cls-2" d="M34.79,38.05A4.66,4.66,0,0,1,34.2,40a4.45,4.45,0,0,1,0,.73A3.18,3.18,0,0,0,34.79,38.05Z"/><path id="path3452" class="cls-2" d="M35.53,38.41A2.57,2.57,0,0,1,33.85,42c.54.22,2.14-.51,2.37-2.69l1.32,1.48a1.62,1.62,0,0,0-.13-1.19A2.87,2.87,0,0,1,35.53,38.41Z"/><path id="path3454" class="cls-2" d="M36.38,38.86a4,4,0,0,0,3.19.23,2.55,2.55,0,0,0,.56.17,3.73,3.73,0,0,1-2.7.4C38.93,39.46,36.66,39.29,36.38,38.86Z"/><path id="path3456" class="cls-2" d="M33.91,36.35a2.93,2.93,0,0,0,1.75.57,3,3,0,0,0,2.72,1.15.86.86,0,0,0,.22.34,5.39,5.39,0,0,1-2.85-1A6.85,6.85,0,0,1,33.91,36.35Z"/><path id="path3458" class="cls-2" d="M33.64,35a3.18,3.18,0,0,0,1.69.72,3.64,3.64,0,0,0,2.31,1.13l.2.35A5.89,5.89,0,0,1,35.55,36,3.62,3.62,0,0,1,33.64,35Z"/><path id="path3460" class="cls-2" d="M33.75,33.84a2.68,2.68,0,0,0,1.82.82,3.2,3.2,0,0,0,1.65,1.1.88.88,0,0,0,.16.29c-.65,0-1.54-.91-1.65-1.06C34.86,34.87,33.87,34.43,33.75,33.84Z"/><path id="path3462" class="cls-2" d="M28.57,31.2a.86.86,0,0,0,.37-.28,1,1,0,0,0,.6.32c-.42,0-.47.18-.27.52a25.9,25.9,0,0,1,.27,3.45,6,6,0,0,0,.39,2.4C29,36.85,29.53,32.2,28.57,31.2Z"/><path id="path3464" class="cls-2" d="M30.09,31.29a3.35,3.35,0,0,0,1.62-.45l.22.26A26.92,26.92,0,0,0,31,36.29a16.73,16.73,0,0,0,0-2.74,4,4,0,0,1-.09-1.27C31.19,31.28,30.44,31.52,30.09,31.29Z"/><path id="path3466" class="cls-2" d="M32.13,31.21l.06.06c-.86,1.88,0,6.18-1.85,8.34l0-.83C31.71,37.85,31.36,33.11,32.13,31.21Z"/><path id="path3468" class="cls-2" d="M29,35.84c0,3.07.49,3.65-1.6,6.2,1-.81,2.07-3.3,1.93-1.87a4.74,4.74,0,0,0,.54-1.3A6.11,6.11,0,0,1,29,35.84Z"/><path id="path3470" class="cls-2" d="M30.72,39.22l-.39.47.11,4.06C30.49,42.06,30.57,40.51,30.72,39.22Z"/><path id="path3472" class="cls-2" d="M31.65,36.28a12.91,12.91,0,0,1-.34,1.8c.28,3.25,1.17,3.56,1.9,3.85A11,11,0,0,1,31.65,36.28Z"/><path id="path3474" class="cls-2" d="M29.3,40.53C28.92,41.39,29,43,28,44.11a2.74,2.74,0,0,0,1.25-2.41l.09.91c-.3,1.86-1.14,2.36-1.73,2.47.09,0,1,.17,1.87-1.71a1.88,1.88,0,0,1-1.08,1.7,1.88,1.88,0,0,0,1.37-.87A10.24,10.24,0,0,1,29.3,40.53Z"/><path id="path3476" class="cls-2" d="M29.71,43.32a3.78,3.78,0,0,0,.72,1.73l0,.78a13.27,13.27,0,0,0,1.13-3.64c0-.26,0-.57.24-.37a.05.05,0,0,0,.08,0c-.27-.19-.56-1.09-.77-1.39a6.84,6.84,0,0,1-.72,4.44,4.91,4.91,0,0,1-.72-1.54Z"/><path id="path3478" class="cls-2" d="M34,44.92c-1.08.55-2-.78-2.45-1.61l.2-1.14s.08-.06.12,0c.18,1.25,1,2.7,2.13,2.76Z"/><path id="path3480" class="cls-2" d="M31.34,43.74l-.11.34a2.41,2.41,0,0,0,1.54,1.48C31.52,44.94,31.43,44.34,31.34,43.74Z"/><path id="path3482" class="cls-2" d="M30.14,45.32l.33.57.26-.56c-.05,1.51-.15,3.33-.19,5C30.4,48.65,30.21,46.9,30.14,45.32Z"/><path id="path3484" class="cls-2" d="M31.11,44.38a1.23,1.23,0,0,1-.09.22c1.11,4.13-.2,6.33-.49,6.66a10,10,0,0,1-.93-3.87,8.81,8.81,0,0,0,.88,4v.68c1.1-1.36,1.76-3.25.91-7.35a2,2,0,0,1-.29-.39Z"/><path id="path3486" class="cls-2" d="M30.12,51.75a1.33,1.33,0,0,0,.37.43,2.59,2.59,0,0,0,.4-.54c-.21,1.1-.3,2.17-.45,3.25C30.34,53.82,30.27,52.65,30.12,51.75Z"/><path id="path3488" class="cls-2" d="M32.08,51.93a2.16,2.16,0,0,1-.34-1.57.26.26,0,0,0-.19-.24,3.13,3.13,0,0,1-.25.75,6.57,6.57,0,0,1-.87,5c-1.13-1.52-.92-3.16-.94-4.57-.33,2.85.36,4.1.93,4.75v.69a6.52,6.52,0,0,0,1.09-5.6,6.07,6.07,0,0,0,.56.8Z"/><path id="path3490" class="cls-2" d="M26,44.73c.21,2.07,2.84,1.44,3.9-.13l-.1-.28C28.8,45.61,26.68,46.75,26,44.73Z"/><path id="path3492" class="cls-2" d="M29.65,45.49c-1,2-2.13,3.42-3.73,3.56a3.86,3.86,0,0,0,2.62-1.18c.26-.46.6-.62.27,0a2.36,2.36,0,0,1-.46.56c.26-.1.79-.92.9-1a8.42,8.42,0,0,1,.4-1.94Z"/><path id="path3494" class="cls-2" d="M29.25,47.5c0,.22,0,.45,0,.64-1.51,1.56-2.83,2-4.22,1.72C26.14,49.89,27.48,50,29.25,47.5Z"/><path id="path3496" class="cls-2" d="M24.33,48.4a1.63,1.63,0,0,1,.38-2c-1.19,0-2.48,2.2-.27,3.32a1.84,1.84,0,0,1-.8-2.43c.24-.39.59-.5.34-.07A1,1,0,0,0,24.33,48.4Z"/><path id="path3498" class="cls-2" d="M31.47,44.89a2.58,2.58,0,0,0,.87.9A2.87,2.87,0,0,0,36,48.58C35.1,49.21,32.25,49.06,31.47,44.89Z"/><path id="path3500" class="cls-2" d="M31.8,47.44v.24a3.49,3.49,0,0,0,3.34,1.73A3.65,3.65,0,0,1,31.8,47.44Z"/><path id="path3502" class="cls-2" d="M36.35,46.17c1.39,1,1,2.45-.48,3.08C37,48.49,37.57,47.52,36.35,46.17Z"/><path id="path3504" class="cls-2" d="M34.73,49.67c1.32.24,3.54-.79,2.35-3.09A2,2,0,0,1,34.73,49.67Z"/><path id="path3506" class="cls-2" d="M31.81,48.82a3.55,3.55,0,0,1-.06.43,6.23,6.23,0,0,0,2.49,3A6.44,6.44,0,0,1,31.81,48.82Z"/><path id="path3508" class="cls-2" d="M33.65,53.05c.24.1.43,0,.62.09,1.72.6,3.85-.42,3.22-2.5,1.12,1.09-1,4.25-3.84,2.41Z"/><path id="path3510" class="cls-2" d="M36.68,50c1.31,1.29,0,3.08-1.78,2.47C36.75,52.75,37.43,51.22,36.68,50Z"/><path id="path3512" class="cls-2" d="M24,50c-1.78,1.17-.8,2.63,0,3-.32-.24-.65-1.05.33-.59a1.87,1.87,0,0,0,.88.13C23.42,51.93,23.83,51,24,50Z"/><path id="path3514" class="cls-2" d="M29.23,48.38a9.15,9.15,0,0,0,.2,1.48,6.78,6.78,0,0,1-2,2.46,6.45,6.45,0,0,0,1.76-2.47c-1.45,2.26-2.46,2.61-3.5,2.67A4.58,4.58,0,0,0,29.23,48.38Z"/><path id="path3516" class="cls-2" d="M29.45,50a1.21,1.21,0,0,0,.19.5c-1.83,3.54-4.28,3.43-5.12,3.14,1.59.17,1-.12.52-.21C26.92,53.44,28.58,52.16,29.45,50Z"/><path id="path3518" class="cls-2" d="M27.94,30.5a1.89,1.89,0,0,0,.49-.54.82.82,0,0,0,.26.27c-.35.11-.47.62-.66.62A1.64,1.64,0,0,0,27.94,30.5Z"/><path id="path3520" class="cls-2" d="M28.71,30.23a1.7,1.7,0,0,0,1.71-.29,2.28,2.28,0,0,0,.22.21A1.93,1.93,0,0,1,28.71,30.23Z"/><path id="path3522" class="cls-2" d="M30.93,30.23a1.6,1.6,0,0,0,1.21-.12l.2.24A1.81,1.81,0,0,1,30.93,30.23Z"/><path id="path3524" class="cls-2" d="M32.45,29.25c.12.07.33.28.54.4a6.3,6.3,0,0,0-.46.74C31.84,29.79,32.32,29.17,32.45,29.25Z"/><path id="path3526" class="cls-2" d="M27.46,29.41l.23.33a1.88,1.88,0,0,0,.7-.92.35.35,0,0,1-.17-.17A1.44,1.44,0,0,1,27.46,29.41Z"/><path id="path3528" class="cls-2" d="M28.42,28.84l-.05.09a3.9,3.9,0,0,0,3.87,0l-.17-.35A3.09,3.09,0,0,1,28.42,28.84Z"/><path id="path3530" class="cls-2" d="M32.37,28.84c.49-.09.32-.7.77-.88a1.44,1.44,0,0,0,2.51,0l.09.62a2,2,0,0,1-2.21.35,1.85,1.85,0,0,0-.11.76,1.61,1.61,0,0,1-1.05-.83Z"/><path id="path3532" class="cls-2" d="M33.87,26.78a4.18,4.18,0,0,1,0,1.45,1.23,1.23,0,0,1-.75-.58.11.11,0,0,0,.08,0c0-.23.46-.33.65-.82Z"/><path id="path3534" class="cls-2" d="M30.63,27.79l0,.06a3.16,3.16,0,0,0,2.57-.26L33,27.32A2.48,2.48,0,0,1,30.63,27.79Z"/><path id="path3536" class="cls-2" d="M30.3,27.6a1.25,1.25,0,0,0,.3.18c-.78.71-1.9.52-3-.07a.21.21,0,0,0,0-.11C28.87,28.31,29.78,28.11,30.3,27.6Z"/><path id="path3538" class="cls-2" d="M27.51,27.6c.27.43-.43.57-.43,1.22l-.27-.35C26.8,28.05,27.36,28.12,27.51,27.6Z"/><path id="path3540" class="cls-2" d="M26.75,28.34l-.54-.81c-.56-.73,1.3-.87,1.1-2.24a2.19,2.19,0,0,0,.35.27c-.07,1.11-1,1.08-1.05,1.83a.37.37,0,0,1-.21-.31l-.11.09C26.05,27.46,26.4,27.62,26.75,28.34Z"/><path id="path3542" class="cls-2" d="M27.25,26.86a1.76,1.76,0,0,0,1.59-.49,2.23,2.23,0,0,0,.27.26A2.13,2.13,0,0,1,27.25,26.86Z"/><path id="path3545" class="cls-2" d="M29.14,26.64l-.06.05a2.91,2.91,0,0,0,2.83,0,1.24,1.24,0,0,1-.26-.19A2.51,2.51,0,0,1,29.14,26.64Z"/><path id="path3547" class="cls-2" d="M31.93,26.74l-.05.06a2.54,2.54,0,0,0,2-.07.89.89,0,0,0-.15-.29A1.94,1.94,0,0,1,31.93,26.74Z"/><path id="path3549" class="cls-2" d="M27.76,25.63a2.31,2.31,0,0,0,2.52-.33,1.08,1.08,0,0,0,.29.25C29.87,26.17,28.07,26.09,27.76,25.63Z"/><path id="path3551" class="cls-2" d="M30.6,25.56l-.05.05a2.63,2.63,0,0,0,2.48,0,2.34,2.34,0,0,0-.13-.35,2.17,2.17,0,0,1-2.3.3Z"/><path id="path3553" class="cls-2" d="M25.38,24.37l.12.07c.13-.19.24-.23.29-.16s0,.21.09.33c.44-.35,1.44-.58,1.56-1.09.19.51.81.53,1.32,1.42-.12-.68-.81-.86-1.1-1.32s-.11-1,.11-1.76c-.47.64-.1,1.55-.87,2C26.41,24.08,25.48,24,25.38,24.37Z"/><path id="path3555" class="cls-2" d="M29.43,21.15l0,.61c-.8.31-.18,2.32-.5,2.75-.12-1.71-.83-2.32.47-3.36Z"/><path id="path3557" class="cls-2" d="M30.08,22.61h.1c.1,1.12,1.28,1.23,1.48,2.33-.25-.77-.92-1-1.28-1.4-.2.86-1.24,1.12-1.5,1.6C28.81,24.74,30.31,24.18,30.08,22.61Z"/><path id="path3559" class="cls-2" d="M31.86,21.53c-.62,1,.61,1.61-.05,3.23.34-2.12-1.14-2-.2-3.49.32.32,1.44.64,1.54,1.17C32.78,21.91,32.2,21.87,31.86,21.53Z"/><path id="path3561" class="cls-2" d="M33.14,22.58c.12.38.22.53.31.77-.33,1.11-1.67,1.49-1.74,1.89C31.48,24.73,33.15,24.44,33.14,22.58Z"/><path id="path3563" class="cls-2" d="M34.41,21.45c-.21,0-.41,0-.64-.24a2,2,0,0,1-.07.79c.43.25.72,2.59.9,2.7-.09-1-.05-2.33-.66-3.06l0-.12a.37.37,0,0,0,.44-.07Z"/><path id="path3565" class="cls-2" d="M26.23,23.28a6.58,6.58,0,0,1,1.32-1.73,9.26,9.26,0,0,0,1.95-1.11l.41-1.07c-.91,1.34-2,2.25-3.54,1.94.09.05.14.18.78.21A6,6,0,0,0,26.23,23.28Z"/><path id="path3567" class="cls-2" d="M26,20.33c.81.4,1.81.61,3.52-1.82a2.25,2.25,0,0,0,1-.66C29.48,20.5,26.36,22.11,26,20.33Z"/><path id="path3569" class="cls-2" d="M29.65,21.85C31,16.93,34.91,14,31.49,11.38,34,15.68,30,17.5,29.65,21.85Z"/><path id="path3571" class="cls-2" d="M28.7,17.59c.07,1.3,1.7.34,2.09-.51C30.13,17.53,29.48,17.93,28.7,17.59Z"/><path id="path3573" class="cls-2" d="M31.16,15.59c.15-.22.17,0,.43,0a2.64,2.64,0,0,1-2.16,1.62A3.2,3.2,0,0,0,31.16,15.59Z"/><path id="path3575" class="cls-2" d="M30.76,13.51l.13.13a.76.76,0,0,0,.53-.17.26.26,0,0,1-.13.27,4.32,4.32,0,0,1-.12,1.83c.15-.15.28.07.42.06a2.84,2.84,0,0,0,0-2.66c0,.31-.31.62-.82.54Z"/><path id="path3577" class="cls-2" d="M28.63,13.12c1-.41,1.55.3,2,.37.7,1,0,1.94-.5,2.5C30.44,15.45,30.9,13.29,28.63,13.12Z"/><path id="path3579" class="cls-2" d="M29.52,22.43c1.07.5,1.58-.73,2.09-1.2a3.68,3.68,0,0,1-.2-1.57C30.47,20.17,30.5,22,29.52,22.43Z"/><path id="path3581" class="cls-2" d="M33.2,13.75c-.09,0-.1.39-.22.38-.07,2.48-2.33,3.86-2.86,7.45.33-.39.57-1.9,1.41-3.29S33.29,16,33.2,13.75Z"/><path id="path3583" class="cls-2" d="M32,18.44c-.9,2.42.89,2.44,1,3.23C31.23,21.05,31.1,19.7,32,18.44Z"/><path id="path3585" class="cls-2" d="M32.38,11.49c3,1.94.42,5.86-.7,6.92C32.12,17.42,34.82,14.69,32.38,11.49Z"/><path id="path3587" class="cls-2" d="M33.38,10.42c.31.56.8,1.44.07,1.27,1.27,2.82-.12,4.27-.82,5.84-1.47,3.84,1,2.31.68,5,.83-1-.25-2.37-.2-2.86a19.79,19.79,0,0,1,.53-3.14,1.84,1.84,0,0,0,.77,1c-.57-2,1.21-5.93-1-7.11Z"/><path id="path3589" class="cls-2" d="M33.68,17a1.68,1.68,0,0,0,.47.56c.12.78-1,3.26.68,3.45C33.48,21.71,32.75,19.79,33.68,17Z"/><path id="path3591" class="cls-2" d="M33,9.64c.28,0,.95.49,1.58,0,.43.59-.37,1.08-1.21.65C33.1,10.14,33.79,10.07,33,9.64Z"/><path id="path3593" class="cls-2" d="M28,9.85A2.45,2.45,0,0,1,28.71,11a1.88,1.88,0,0,1,.53.07A2.82,2.82,0,0,0,28,9.85Z"/><path id="path3595" class="cls-2" d="M30.68,9c2.6.69,2.36-.51,2.82-.69C34,9.09,32.7,10.05,30.68,9Z"/><path id="path3597" class="cls-2" d="M27.51,9.55a.84.84,0,0,0-.37,0c.23-1.86,2.29-.68,3.41,0C29.14,8.87,27.38,8,27.51,9.55Z"/><path id="path3599" class="cls-2" d="M27.51,9.55c-.11-2.11,2.94.31,4.35.39-1,.11-4.22-2-4.2-.35Z"/><path id="path3601" class="cls-2" d="M27.71,9.62l.26.09c0-.18.09-.39.19-.41.6-.12,0,.19.13.29l.37.24c0-.09,0-.2,0-.32,0-.48,1.39.3,2.36.61.11.29-.53.65-1,.55a1.43,1.43,0,0,0,1.85-.41c.75.06.92-.07,1.08-.25a8.44,8.44,0,0,1-2.26-.24c-1.32-.37-2.92-1.49-3-.15Z"/><path id="path3603" class="cls-2" d="M28.9,9.38a.87.87,0,0,1,.45.1.51.51,0,0,0,.38.82,1,1,0,0,0,.43.22C29.78,10.6,28.49,10.2,28.9,9.38Z"/><path id="path3665" class="cls-1" d="M25.5,12c-1.45-2.77,2.73-3.26,3.15-1a5.32,5.32,0,0,1,2,.53c1.78,1.29.7,2,.34,2-.83,0-1-.78-2.2-.48-.29.11-.31.26-.44.26-.72-.19.61-1.63,2-.59.12.09.4-.09.16-.36-1-1-2.61-.44-3-.35A1.29,1.29,0,0,0,25.5,12Z"/><path id="path3605" class="cls-2" d="M29.63,9.72c.19.14,1.1.29,1.13.38C30.46,10.79,29.5,10.58,29.63,9.72Z"/><path id="path3607" class="cls-2" d="M35.8,28.52s0,0,0,.05a2,2,0,0,0,.8.2l.76,4.45c-.06-1.16-.14-2.35-.17-3.46a7,7,0,0,1-.21-1,1.47,1.47,0,0,0,.29-.05c.48,2.81,1.65,3.38,1.87,3.6a5.81,5.81,0,0,1-1.72-3.66c.41-.23.6-.51.73-.55a.92.92,0,0,0,0-.54,1.93,1.93,0,0,1-1.63.8c-.06,0,0,.07,0,.07C36.81,28.87,36.15,28.6,35.8,28.52Z"/><path id="path3609" class="cls-2" d="M37.41,33.7l0,.68a2.68,2.68,0,0,0,1.37-1.64c.23,2.28.26,4.49,1.59,4.95a13,13,0,0,1-.74-4.95,2.05,2.05,0,0,1-.24.26,4.18,4.18,0,0,1-1-.86A2.16,2.16,0,0,1,37.41,33.7Z"/><path id="path3611" class="cls-2" d="M38.4,28.19a1.68,1.68,0,0,0,.6.09l.24,3.31Z"/><path id="path3613" class="cls-2" d="M40,28l.11-.08a3.93,3.93,0,0,0,1.17,1.56L42.68,39,40.61,29.4a4.76,4.76,0,0,1-1.21,3.51l-.08-.63A4.48,4.48,0,0,0,40,28Z"/><path id="path3615" class="cls-2" d="M42.16,30.16a3.36,3.36,0,0,0,.74.32c.87,2.9,1.2,8.61.06,10.68l-.1-.78c-2-1.52-2.49-5.77-2.89-8.15l.06-.12c.38,2.18.84,6.36,2.79,8.06.35-1.12,1.11-4.32-.25-9.67A3.7,3.7,0,0,0,42.16,30.16Z"/><path id="path3617" class="cls-2" d="M40.94,27.07a2.91,2.91,0,0,0,.54-.08l1.9,2.84Z"/><path id="path3619" class="cls-2" d="M43,30.5a8.17,8.17,0,0,0,1,.25c0,.09,2.78,7.21,4.71,7.76C46.2,39,45,34.66,43.35,32.1,43.23,31.56,43.11,31,43,30.5Z"/><path id="path3621" class="cls-2" d="M42.66,26.21s0,.08-.09.1a4.88,4.88,0,0,1,1,3.76l.46.6a6.13,6.13,0,0,0-.33-3.25l5.61,8.15-5-7.93,1,.14A4.67,4.67,0,0,1,42.66,26.21Z"/><path id="path3623" class="cls-2" d="M46,27.8a2.24,2.24,0,0,0,.55-.05c1.11,1.81,4,5.1,3.64,9.58l-.35-.68c-2.66-.62-4.51-4-5.45-5.32,1.56,2.06,3.32,4.73,5.38,5.16C50,33.14,47.46,29.87,46,27.8Z"/><path id="path3625" class="cls-2" d="M46.62,27.74l.09.17c2.46,1.31,5.22,3.9,6.93,2-1.77.71-4.64-1.79-6.53-2.73l.09.41A2,2,0,0,1,46.62,27.74Z"/><path id="path3627" class="cls-2" d="M43.13,24.68a.44.44,0,0,1,0,.17l3.06,1.9-2.8-2.23a.72.72,0,0,1-.25.16Z"/><path id="path3629" class="cls-2" d="M46.94,26.47a4,4,0,0,1,.15.62c3.66,1.7,5.86,1.28,6.92.61l-.57-.2C51.83,28.56,47.93,27.12,46.94,26.47Z"/><path id="path3631" class="cls-2" d="M44,23.57a.42.42,0,0,1,0,.15c1.56.82,2.64,2.34,2.6,3.39l.53.44a4.41,4.41,0,0,0-1.47-3.06L53.1,27.4,45.88,24a4.21,4.21,0,0,0,2.79-1.27l1.71-.06c1.45-.23,3.11-1.07,3.27-1.86l-.54.07c-.7,1.54-3.45,1.49-4.88,1.54C47.57,23.67,45.47,23.76,44,23.57Z"/><path id="path3633" class="cls-2" d="M48.2,23.23a2.55,2.55,0,0,1-.59.35,12.51,12.51,0,0,1,2.17.64c1.92.2,3.83-.1,3.91-1.73C52.88,23.79,50.57,23.55,48.2,23.23Z"/><path id="path3635" class="cls-2" d="M44,22.09a4.08,4.08,0,0,1,.1.45l3.94-.1C46.71,22.32,45.33,22.22,44,22.09Z"/><path id="path3637" class="cls-2" d="M45.91,20.5A10.47,10.47,0,0,1,48,21.74l-.52-.48c1.69-.14,3.4-.27,5.3-.38l-6,0Z"/><path id="path3639" class="cls-2" d="M44.64,20.64a2.5,2.5,0,0,1-.09.25l1.31-.38c2-1.42,2.07-2.12,2.32-2.89l3-1.87-3.42,1.7a8.18,8.18,0,0,0-2.89.42,7,7,0,0,1,3.18-.21l-.37.22A4.93,4.93,0,0,1,44.64,20.64Z"/><path id="path3641" class="cls-2" d="M44.63,19.35a1.89,1.89,0,0,1,.09.34c.94-.5,1.82-1.07,2.7-1.64C46.49,18.51,45.56,19,44.63,19.35Z"/><path id="path3643" class="cls-2" d="M47.17,19.55a19.41,19.41,0,0,1,3.24,0c.26-.14,2.94-.92,2.29-2.34-.77,1.55-3.63,2.08-3.86,2.21C48.39,19.44,47.28,19.48,47.17,19.55Z"/><path id="path3645" class="cls-2" d="M51.59,15.55l.6-.26a4.3,4.3,0,0,1-1.13,1.78A5,5,0,0,1,47.58,19a1.3,1.3,0,0,0,.1-.15C49.15,18.44,51.16,17,51.59,15.55Z"/><path id="path3647" class="cls-2" d="M45.29,17.11l-.17.27a15.44,15.44,0,0,1,4-2.28c1-1.07,1.25-2.13.83-2.74.06,2-3.08,3.45-4.7,4.75Z"/><path id="path3649" class="cls-2" d="M44.2,17.86l-.06.51a4.48,4.48,0,0,0,1.75-4l-.45.46-1.95,1.58a2.74,2.74,0,0,1,.3.28l1.65-1.81A3.89,3.89,0,0,1,44.2,17.86Z"/><path id="path3651" class="cls-2" d="M45.9,15.52l-.11.42a9.23,9.23,0,0,0,1.87-1.58,7,7,0,0,0,1.69-3.71l-.6.48C48.84,13.19,46.53,15.18,45.9,15.52Z"/><path id="path3653" class="cls-2" d="M45.22,14.36a5.3,5.3,0,0,1,.69,0l2.75-3.15Z"/><path id="path3655" class="cls-2" d="M43.2,12.58l-.34.39a3.34,3.34,0,0,1-1,3.08l0,.07.08,0a4.9,4.9,0,0,1,2.82-1.7,7,7,0,0,0-1.74.55,3.79,3.79,0,0,0,.15-2.36Z"/><path id="path3657" class="cls-2" d="M43.33,13.61v.25a12.73,12.73,0,0,0,2.87-2.34,5.24,5.24,0,0,0,1.28-2.9L47,9c-.1,2.14-2.86,4-3.62,4.59Z"/><path id="path3659" class="cls-2" d="M41.1,13.33a12.22,12.22,0,0,1,2.11-.77l3.45-3.21c-.92.67-2.86,2.35-3.77,3C42.57,12.62,42.26,12.61,41.1,13.33Z"/><path id="path3661" class="cls-2" d="M46.85,9.05c-8.73,1.52-13.58,12.05-7.74,11.1l-.33-.08a1.24,1.24,0,0,1-1.35-1.56,1.57,1.57,0,0,1,1-1.15,1.8,1.8,0,0,1,.53-1.76,3.67,3.67,0,0,1,.8-1.2c.91-3.32,5.54-5,7.12-5.35Z"/><path id="path3663" class="cls-2" d="M42.78,13A4.94,4.94,0,0,0,40,14.82s0,.12-.38.33l0,.06c.38-.16,1.39,0,.44.24a1.51,1.51,0,0,1,1.53,1.06c2-.31,2.52,1.17,2,2.14a1.72,1.72,0,0,1-.24,2.92c.44,1,.68,2.29-.68,2.8,0,.88-.12,2.25-2.21,2.23a1.67,1.67,0,0,1-2.24,1.07.32.32,0,0,1,0,.07c0,.07.52.21.52.17.43.05.48.33,0,.21A3.13,3.13,0,0,1,38.2,28h0a.2.2,0,0,1,0,.13A2,2,0,0,0,40.74,27a2.24,2.24,0,0,0,2.37-2.37,2.13,2.13,0,0,0,.73-2.94,2,2,0,0,0,.2-3.16c.6-2-1.21-2.58-2.17-2.44a1.8,1.8,0,0,0-.76-.77L42.82,13l-2.07,2.14a2.18,2.18,0,0,0-.82-.09C40.37,14,42.1,13.14,42.78,13Z"/><path id="path3667" class="cls-2" d="M26.88,10.52c.26.38.7-.11,1.42.65l.09,0A1.39,1.39,0,0,0,27.13,10c.28.24.07.26.06.41s0,.31-.31.1Z"/><path id="path3669" class="cls-2" d="M25.73,11.71a1.31,1.31,0,0,1,1.8.23c1.72-.5,2.94,0,3.11.65.11-.19-.38-1.23-2.34-1.06-1.68-1.17-2.63-.11-2.57.18Z"/><path id="path3671" class="cls-2" d="M28.35,13.18c-.3,0,.63-1.11,2.16-.06.55.22.81-.06.71-.51a2.45,2.45,0,0,0-.33-.77c.76.57.86,1.28.34,1.57C30.42,13.81,29.85,12.38,28.35,13.18Z"/><path id="path3673" class="cls-2" d="M27.09,28.88l.34.49-.1-.06a2,2,0,0,1-1.93.07l0,0a2.5,2.5,0,0,1-2.14-.46,1.1,1.1,0,0,0,.51.72l-1,4.53.5-4.25a4.36,4.36,0,0,1-2.44,2.9l.08-.46c1-.5,1.81-1.45,2.21-3.49a3.4,3.4,0,0,1-1.19,0l-1,3.35.46-3.47a6.62,6.62,0,0,1-1.12-1v-.06c.1.15.21-.3.19-.44A2.21,2.21,0,0,0,23.2,28.3a1.52,1.52,0,0,1-.05.38h.05s.06-.11.09-.19a.39.39,0,0,1-.06-.11l0,0c.55,1,1.94.53,2.11.61a1.09,1.09,0,0,0,0,.33l0,0a.46.46,0,0,0,0-.24l-.05-.1,0,0a1.32,1.32,0,0,0,1.67-.12Z"/><path id="path3675" class="cls-2" d="M23.88,29.68a4.82,4.82,0,0,0,1,.35c-.17,2.12-1.25,4.55-2.38,5.27l0-.6A5.74,5.74,0,0,1,22,32l.09-.09a7,7,0,0,0,.5,2.77,5.94,5.94,0,0,0,1.89-4.35c0-.16,0-.26-.12-.31A3,3,0,0,1,23.88,29.68Z"/><path id="path3677" class="cls-2" d="M19.77,38.67c1.23.33,2-2,2.51-3.63a5,5,0,0,1-.54-2.8l-.11.1C21.5,34.82,21.48,37.56,19.77,38.67Z"/><path id="path3679" class="cls-2" d="M20.36,27.87l.07.08a5.57,5.57,0,0,0,.06,3.82C20.05,31.13,19.69,30.1,20.36,27.87Z"/><path id="path3681" class="cls-2" d="M19.69,28.91l-.23.38L16.85,39.86l2.76-8.8a4.27,4.27,0,0,0,1,1.88c-1,3.59-2.62,6.8-4,7.64l.13-.43c-.59-1.78-.12-5.52.89-9.28-.64,2.06-2,6.57-1.13,9.85l-.26.81C19,39.67,20.61,35,21.21,32.61a1.44,1.44,0,0,1-.48.24C19.87,32.08,19.46,30.84,19.69,28.91Z"/><path id="path3683" class="cls-2" d="M18.05,26a5.08,5.08,0,0,0,.64,1c.1.17.22.23.36,0l.12-.18a1.24,1.24,0,0,0,1.24.39l-.68,1.58a4.32,4.32,0,0,1-2.91,2.24l.33-.6c1.37-.13,2.34-1.48,2.86-2.73A3.11,3.11,0,0,1,19,27.26l-1.62,2.81,1.07-2.84C18.62,26.79,18.05,26.44,18.05,26Z"/><path id="path3685" class="cls-2" d="M17.4,30.87a5.29,5.29,0,0,1-.6.21C15,35,14.06,38.53,10.92,39.63c2.85.54,4.76-4,5.45-5.38A20.58,20.58,0,0,0,17.4,30.87Z"/><path id="path3687" class="cls-2" d="M17.8,26.06a4.82,4.82,0,0,0-.72,4.45l.05-.08A5.35,5.35,0,0,1,17.8,26.06Z"/><path id="path3689" class="cls-2" d="M16.63,28.31a7.55,7.55,0,0,0,0,1.7c-2.13,3.77-5.69,7.26-7.75,7.4,2.62-3.51,5.24-7.14,7.86-10.71a2.71,2.71,0,0,0,.51-.3,2.74,2.74,0,0,0-.46,1L9.55,36.67c2.41-.2,6.36-5.9,7-7.44a2.68,2.68,0,0,1,.13-.92Z"/><path id="path3691" class="cls-2" d="M9.29,36.81l.17-.21c-.21-3.57,3.83-7.8,4.91-9.14C14.19,27.85,9.05,32.37,9.29,36.81Z"/><path id="path3693" class="cls-2" d="M6.36,30.43C7,31.37,8,32,11.8,29.65c.76-.84,1.52-1.71,2.28-2.43H13.9c-1.29.54-4.6,4-7.54,3.22Z"/><path id="path3695" class="cls-2" d="M16.28,23.74a3.63,3.63,0,0,0-2.57,3l-.4.23c2.56.86,4.52-1.08,4.91-1.44a2.83,2.83,0,0,1-1.15-1.08l-.34.16c-.83.69-1.83,1.35-2.79,2l3-1.53a2.85,2.85,0,0,0,.79.65,4.83,4.83,0,0,1-3.92,1A3.58,3.58,0,0,1,16.28,23.74Z"/><path id="path3697" class="cls-2" d="M13.39,26.26a3.71,3.71,0,0,0-.12.72,12.91,12.91,0,0,1-2.73.75c-.06,0-.33.12-.43-.07a.5.5,0,0,0-.38-.08c0-.07-.16,0-.17-.1a9.6,9.6,0,0,0,3.83-1.22Z"/><path id="path3699" class="cls-2" d="M10.61,24.43c-.66.32-3.39,1.77-3.86,3.15a6.1,6.1,0,0,0,2.93,0s-.14,0-.15-.09a6,6,0,0,1-2.5,0l.24-.12c.08-1.18,2.89-2.65,3.34-2.95Z"/><path id="path3701" class="cls-2" d="M7.43,27.34c4.44-1.65,6.59-3,9-3.77v.08c-.19.12-1.74.49-2.35,1.37L7.43,27.34Z"/><path id="path3703" class="cls-2" d="M15.62,23.81c-.31.13-.6.24-.93.41a5.26,5.26,0,0,1-2.3-.87l.12-.05a5.37,5.37,0,0,0,.79.43c.42.15.53,0,.11-.18A3.45,3.45,0,0,1,12.3,23a3.72,3.72,0,0,1,1.83-1.5c-.65.42-1.41.8-1.6,1.44,1-.15,2.08-.32,3.4-.61a5.28,5.28,0,0,0,.39.6l0,0-.2-.24L12.55,23A6.19,6.19,0,0,0,15.62,23.81Z"/><path id="path3705" class="cls-2" d="M6.53,22.46c.41,1.37,3.84,1,5.86.88l.11,0a1.77,1.77,0,0,1-.4-.34c-.84-.18-4.67.63-5.57-.5Z"/><path id="path3707" class="cls-2" d="M13,21.71l0,0a4.8,4.8,0,0,0-.72.66c-3.18,0-5.18-1.25-5.74-2a5.28,5.28,0,0,1,2.82-1,5.31,5.31,0,0,0-2.43,1H6.73c1.48,1.64,5.41,2.38,6.26,1.26Z"/><path id="path3709" class="cls-2" d="M7.16,20.5c2.11.29,4.17.55,6.33.89a2.81,2.81,0,0,1,1.64-.48,4,4,0,0,0-1,0c-2.41,0-4.69-.27-7-.44Z"/><path id="path3711" class="cls-2" d="M16.2,20.18a1.77,1.77,0,0,0-.38.83,3.89,3.89,0,0,1-2.77-2.35c1.39-1,2.23-.61,3.39-.64-2.46-.11-3.1.53-3.21.66a25.18,25.18,0,0,0,3.55.81,1.57,1.57,0,0,0-.39.38c-.76-.31-2.17-.74-3.18-1.14a3.55,3.55,0,0,0,2.07,1.94c.24.07.51.19.6-.12a.9.9,0,0,1,.32-.37Z"/><path id="path3713" class="cls-2" d="M7.38,17.13a6.14,6.14,0,0,0,5.22,1.54,1.31,1.31,0,0,0,.36.54,10.86,10.86,0,0,0-2.48-.16c-1.36-.41-2.6-.9-3.1-1.92Z"/><path id="path3715" class="cls-2" d="M13.68,17.77a.46.46,0,0,0,.16.07,4.89,4.89,0,0,0-1.2.65c-1.56-.48-3.77-1.63-4.57-3.08a6.49,6.49,0,0,1,3.55,0c-1,0-2.31-.22-2.94.19l-.48-.17C8.39,16.05,11.71,18.94,13.68,17.77Z"/><path id="path3717" class="cls-2" d="M8.85,15.68c2,.7,3.86,1.38,5.44,2a3.54,3.54,0,0,1,1.45,0,1.87,1.87,0,0,1-.32-.36l0,0,.2.26c-2.69-.91-4.67-1.41-6.73-2Z"/><path id="path3719" class="cls-2" d="M15.08,16.47a2.15,2.15,0,0,1-.31-1c-.75.35-4.15-1.12-4.95-3C9.87,14.13,12.77,15.4,15.08,16.47Z"/><path id="path3721" class="cls-2" d="M17,17.48a1.08,1.08,0,0,1-.32.32.14.14,0,0,1-.18,0,3.06,3.06,0,0,1-1.41-2.37,5.43,5.43,0,0,1,4,1,7.46,7.46,0,0,0-3.8-.87C15.28,16.25,15.83,17.63,17,17.48Z"/><path id="path3723" class="cls-2" d="M15.48,15.64l2.12,1.55a2.2,2.2,0,0,1,.83.14,1.59,1.59,0,0,1,.08-.22C17.34,16.62,16.48,16.13,15.48,15.64Z"/><path id="path3725" class="cls-2" d="M10.68,10.69l.57.34c-.08,1.29,2.2,3.79,4.74,4a4.58,4.58,0,0,0-1.21.18A13.66,13.66,0,0,1,12.11,13c-.14,0-.25-.33-.49-.22a3.93,3.93,0,0,1-.94-2.05Z"/><path id="path3727" class="cls-2" d="M14.38,11.69A6.52,6.52,0,0,0,11.29,11c2.29,1.66,3.54,2.7,5.22,4a10.66,10.66,0,0,1,2.26.74,3,3,0,0,1-.22-.61,1.06,1.06,0,0,0,.12.51c-1-.28-5.11-3.21-7.13-4.51.76-.24,1.83.2,2.84.51Z"/><path id="path3729" class="cls-2" d="M15.56,11.77a5.63,5.63,0,0,1-2.19-3,12.14,12.14,0,0,1,4.81,2,8.94,8.94,0,0,0-4.12-1.5c-.09,1.06.88,1.76,1.5,2.47Z"/><path id="path3731" class="cls-2" d="M14.14,9.33l-.05,0A47.91,47.91,0,0,1,18,12.73c.35.29.3.61.34.92.13-.15,0-.65.23-.7s1.23.45,1.29.37C17.56,12.3,16,10.67,14.14,9.33Z"/><path id="path3733" class="cls-2" d="M19,15.49a3.36,3.36,0,0,1-.34-2.18,4.15,4.15,0,0,1,3.51,3.43c-.44-1.69-2.05-3.22-3.15-3,.67.62,1.5,1.9,2,2.44a2.31,2.31,0,0,0-.65.09,1.64,1.64,0,0,0-.82.11,4.34,4.34,0,0,1-.46-.69c.3.42.74.36,1.19.23-.46-.83-.91-1.42-1.37-2.13C18.74,13.94,19,14.83,19,15.49Z"/><path id="path3735" class="cls-2" d="M20.22,12.34c5,3.34,5.42,8.83,1.86,7.93C26.35,19.75,21.34,13.41,20.22,12.34Z"/><path id="path3737" class="cls-2" d="M20.45,16.27c.42-.17,1.53-.15,1.58,1.56l-.37.27A1.55,1.55,0,0,0,20.45,16.27Z"/><path id="path3739" class="cls-2" d="M21.66,18.13l.38-.28c1.84.7.94,2.68-.34,2.36A1,1,0,0,0,21.66,18.13Z"/><path id="path3741" class="cls-2" d="M27.57,5.29c.25.43-.44,1.74.75,1.54a1.3,1.3,0,0,0,.94.12,1.1,1.1,0,0,0,.82-1c-.68-1,.08-1.15.17-1.21a.58.58,0,0,1,.07,1.09.21.21,0,0,0,.21,0c0,1.25.88,1.34,1.5,1.14,1.21.33.62-1.08,1.2-2.13C32.57,6,33,7.05,32,6.91c.25-.59-.4-1-.08-1.69-.49.42.33,1.2,0,1.61s-.66,0-.66-.08c-.14-.43.83-.94.25-1.72a.89.89,0,0,1,0,.88c-.11.27-.52.51-.33,1a.79.79,0,0,1-.53-1c.12-.39.32-1-.43-1.26a.66.66,0,0,0-.34,1.15c.23.25-.2,1-.72,1,.24-.37,0-.44-.41-1,0,.31.71.74.29,1a.52.52,0,0,1-.65,0c-.24-.27.34-.59.23-1.11-.15.76-.37.72-.34,1.08-.28.08-.57.18-.66-.35,0-.72,0-1.17-.11-1.09Z"/><path id="path3743" class="cls-2" d="M32.45,8.24v.08c-1.45.09-2.93-.18-4.36-.22V8c1.44,0,2.59.29,4.35.2Z"/><path id="path3745" class="cls-2" d="M30.21,8.49v.06a10.06,10.06,0,0,0,2.37.19V8.68A7.68,7.68,0,0,1,30.21,8.49Z"/><path id="path3747" class="cls-2" d="M28.21,7.29c-.23.08-.12.41,0,.41a3.57,3.57,0,0,0,.8,0,.27.27,0,0,0,0-.45A2.51,2.51,0,0,0,28.21,7.29Zm-.05,0a2.85,2.85,0,0,1,1.11,0,.27.27,0,0,1,0,.5,8.35,8.35,0,0,1-1.11,0A.3.3,0,0,1,28.16,7.25Z"/><path id="path3749" class="cls-2" d="M29.81,7.66c.6.08,1.11.12,1-.35C30.62,7.32,29.46,7.06,29.81,7.66Zm0,.06a.33.33,0,0,1,0-.5,5,5,0,0,1,1,0c.32.13.29.41,0,.54a4.76,4.76,0,0,1-1.08-.09Z"/><path id="path3751" class="cls-2" d="M31.43,7.74c.59.13,1.09.24,1-.24C32.26,7.49,31.13,7.12,31.43,7.74Zm0,.06a.32.32,0,0,1,.06-.49,3.42,3.42,0,0,1,1,.13c.31.16.26.44,0,.54a2,2,0,0,1-1.06-.18Z"/><path id="path3753" class="cls-2" d="M20.65,17.07l-.94,2.78a4.61,4.61,0,0,0,.94-.08A2.75,2.75,0,0,0,20.65,17.07Z"/><path id="path3755" class="cls-1" d="M21.41,22.48l-1.7-2.63a6.72,6.72,0,0,0-.49,1.45A2.55,2.55,0,0,0,21.41,22.48Z"/><path id="path3757" class="cls-2" d="M21.13,20.45c.6-.22.71-.58.72-.79l-1.2.1A4.72,4.72,0,0,1,21.13,20.45Z"/><path id="path3759" class="cls-2" d="M19.14,18.45A1.63,1.63,0,0,0,18,18.38l1,.92A5.15,5.15,0,0,1,19.14,18.45Z"/><path id="path3761" class="cls-2" d="M16.88,21.31l2.81-1.45a10.67,10.67,0,0,1-.47,1.44,2.86,2.86,0,0,1-2.34,0Z"/></g></svg>