<svg id="Слой_1" data-name="Слой 1" xmlns="http://www.w3.org/2000/svg" viewBox="0 0 60 60"><defs><style>.cls-1,.cls-2,.cls-3,.cls-4,.cls-6{fill:#fff;}.cls-1,.cls-2{stroke:#fff;stroke-linecap:round;stroke-linejoin:round;fill-rule:evenodd;}.cls-1{stroke-width:0.15px;}.cls-2{stroke-width:0.15px;}.cls-4,.cls-6{stroke:#010101;}.cls-4{stroke-width:0.13px;}.cls-5{fill:#010101;}.cls-6{stroke-width:0.13px;}</style></defs><path class="cls-1" d="M50.66,46.32c-8-.24-44.5-23-44.76-26.68l2-3.37c3.63,5.27,41,27.45,44.65,26.67l-1.91,3.38"/><path class="cls-1" d="M7.5,15.82C6.78,17.74,17,24.08,29.37,31.58s23,12.13,23.75,11.47a6.83,6.83,0,0,0,.36-.67c-.15.23-.51.3-1.07.13-3.33-1-12-4.95-22.79-11.47S9.5,18.5,8,15.94a1.51,1.51,0,0,1-.15-.75h0l-.31.54,0,.09Zm43.35,30.6c-.13.25-.39.26-.86.21-3-.33-12-4.73-22.73-11.14C14.81,28,4.52,21.24,5.64,19.47l.3-.54L6,19c-1,3,20.3,15.19,21.55,16C39.88,42.55,50.27,47,51.19,45.85l-.34.58h0Z"/><path class="cls-1" d="M30.07,21.84c8-.06,17.82-1.09,23.48-3.35l-1.22-2C49,18.36,39.09,19.58,30,19.76c-10.74-.1-18.33-1.1-22.13-3.65L6.72,18.22c7,3,14.15,3.59,23.35,3.62"/><path class="cls-1" d="M53.88,18.54c-.19.31-3.89,1.58-9.33,2.52A97.31,97.31,0,0,1,30,22.11a101.86,101.86,0,0,1-13.89-.88A40.15,40.15,0,0,1,6.4,18.65l.27-.55a42,42,0,0,0,9.57,2.54A101.73,101.73,0,0,0,30,21.52a96.72,96.72,0,0,0,14.4-1.07c5.58-.9,8.63-2.06,9.06-2.59l.39.68Zm-1.07-2c-.6.48-3.62,1.55-8.92,2.4a96.38,96.38,0,0,1-13.78,1A92.92,92.92,0,0,1,16.79,19,37,37,0,0,1,7.5,16.69c.11-.17.21-.35.32-.53.8.41,3.57,1.53,9,2.3a95.33,95.33,0,0,0,13.26.83,96.06,96.06,0,0,0,13.68-1c5.33-.74,8.2-2.1,8.63-2.44l.39.64Z"/><path class="cls-1" d="M3.88,31.45c4.91,2.64,15.8,4,26.11,4.06,9.39,0,21.62-1.45,26.2-3.88L56.06,29c-1.43,2.24-14.54,4.38-26.17,4.29s-22.43-1.88-26-4.2l0,2.37"/><path class="cls-1" d="M56.44,31.07v.63c-.69.82-5,2.06-10.41,2.94a107.46,107.46,0,0,1-16.16,1.1,101.79,101.79,0,0,1-15.33-1.05c-6.21-.91-10.18-2.49-11-3V31c2.39,1.6,8.88,2.76,11,3.12a102.23,102.23,0,0,0,15.25,1A107.92,107.92,0,0,0,46,34.06c3.87-.57,9.4-2,10.49-3Zm0-2.24v.63c-.69.82-5,2.06-10.4,2.94a107.67,107.67,0,0,1-16.16,1.1,101.93,101.93,0,0,1-15.34-1c-6.21-.91-10.18-2.49-11-3v-.74c2.39,1.59,8.88,2.76,11.06,3.12a102.13,102.13,0,0,0,15.25,1A106.34,106.34,0,0,0,46,31.81c3.88-.56,9.4-2,10.49-3Z"/><path class="cls-1" d="M30,45.87A89.79,89.79,0,0,1,7,42.29l1.49,2.33c3.61,1.52,13,3.78,21.61,3.53s16.07-.91,21.35-3.48L53,42.25c-3.6,1.7-15.84,3.6-23,3.62"/><path class="cls-2" d="M52,44.12c-.22.35-.45.69-.69,1a59.78,59.78,0,0,1-8.07,2.07A72.49,72.49,0,0,1,30,48.42c-10-.15-18.17-2.1-22-3.77l-.31-.54,0-.08.53.21A70.9,70.9,0,0,0,30,47.84a74.84,74.84,0,0,0,13-1.2c5.74-1.15,8.07-2,8.78-2.41l.18-.11Zm1.32-2.18,0,0-.52.86a55.88,55.88,0,0,1-10.19,2.27A80.64,80.64,0,0,1,30.1,46.15,85.68,85.68,0,0,1,6.81,42.67l-.29-.56A98.48,98.48,0,0,0,30.1,45.57,87.92,87.92,0,0,0,42.54,44.5,65,65,0,0,0,52.7,42.24l0-.05.66-.25Z"/><path class="cls-1" d="M53.46,29.36a25.17,25.17,0,0,1-6.82,17,24.58,24.58,0,0,1-16.77,7c-7.48.14-14.54-4.74-16.43-6.89A25,25,0,0,1,6.63,29.77c.46-8.1,3.64-13.74,8.25-17.61A24.65,24.65,0,0,1,30.73,6.54a24.31,24.31,0,0,1,17.55,8.79c3.12,3.77,4.47,7.85,5.18,14ZM29.93,4A26.2,26.2,0,0,1,56.12,30,26.14,26.14,0,1,1,29.93,4"/><path class="cls-1" d="M30,3.86A26.12,26.12,0,1,1,3.89,30,26.17,26.17,0,0,1,30,3.86ZM4.46,30A25.55,25.55,0,1,0,30,4.44,25.65,25.65,0,0,0,4.46,30Z"/><path class="cls-1" d="M30,6A23.93,23.93,0,1,1,6.1,30,24,24,0,0,1,30,6ZM6.68,30A23.35,23.35,0,1,0,30,6.61,23.44,23.44,0,0,0,6.68,30Z"/><path class="cls-1" d="M31.08,3.76H28.84V56.24h2.25Z"/><path class="cls-1" d="M30.85,3.46h.57V56.54h-.57V3.46Zm-2.22,0h.58V56.54h-.58V3.46Z"/><path class="cls-1" d="M56.14,31V29.05l-1.58-1.47-9-2.37L32.66,23.89l-15.56.79L6,27.32,3.79,29v1.94l5.66-2.54,13.46-2.11H35.83l9.5,1.06,6.59,1.58Z"/><path class="cls-1" d="M30,25.94a90.11,90.11,0,0,1,16.9,1.51c4.9,1,8.35,2.2,9.53,3.58v.68c-1.42-1.72-6-3-9.63-3.69A89.84,89.84,0,0,0,30,26.53a92.86,92.86,0,0,0-17.14,1.53c-3.72.74-8.69,2.2-9.31,3.65V31c.34-1,4-2.5,9.23-3.54A93.86,93.86,0,0,1,30,25.94Zm0-2.24a90.27,90.27,0,0,1,16.9,1.51c4.89,1,8.34,2.2,9.52,3.58v.68c-1.42-1.71-6.06-3-9.64-3.69A89.81,89.81,0,0,0,30,24.29,92.63,92.63,0,0,0,12.9,25.82c-3.59.68-8.76,2.2-9.34,3.65v-.71c.34-1,4.12-2.54,9.23-3.54A94,94,0,0,1,30,23.7Z"/><path class="cls-1" d="M29.89,12.27c9.72,0,18.2,1.36,22.08,3.35l1.41,2.44C50,16.25,40.86,14.36,29.9,14.64c-8.93.06-18.47,1-23.25,3.54l1.68-2.83c3.93-2,13.2-3.07,21.56-3.08"/><path class="cls-1" d="M30,14.29a88.52,88.52,0,0,1,15.16,1.07c4,.74,7.75,1.84,8.29,2.44l.42.74c-1.31-.86-4.59-1.81-8.79-2.61a84.89,84.89,0,0,0-15.09-1,88.36,88.36,0,0,0-15.29,1c-4.41.83-7.48,2-8.23,2.57l.41-.78a27.27,27.27,0,0,1,7.71-2.36A90.19,90.19,0,0,1,30,14.29Zm0-2.24a86.83,86.83,0,0,1,14.62,1c3.22.63,6.41,1.61,7.58,2.48l.61,1c-1-1.16-5-2.26-8.44-2.87a92.41,92.41,0,0,0-14.37-1,86.61,86.61,0,0,0-14.71,1.08C11.5,14.44,9,15.29,8,16l.54-.82a26.56,26.56,0,0,1,6.68-2A88.8,88.8,0,0,1,30,12.05Z"/><path class="cls-1" d="M43,40.84a67.88,67.88,0,0,0-13-1C13.81,40,8.58,43.18,7.94,44.13l-1.21-2c4.12-3,12.94-4.66,23.37-4.49a82.6,82.6,0,0,1,14,1.21l-1.12,2"/><path class="cls-2" d="M29.92,39.57a79.43,79.43,0,0,1,13.19,1l-.31.55a69.21,69.21,0,0,0-12.87-1,62.17,62.17,0,0,0-17.29,2C11,42.66,8.23,43.73,8,44.61l-.31-.5c.09-.53,1.76-1.61,4.86-2.48a62.62,62.62,0,0,1,17.42-2.06Zm.2-2.27A81,81,0,0,1,44.3,38.54L44,39.1a73.44,73.44,0,0,0-13.82-1.2A66.33,66.33,0,0,0,12,40c-1.87.54-5.09,1.72-5.2,2.65l-.31-.55c.07-.84,2.86-1.94,5.37-2.67A66.8,66.8,0,0,1,30.12,37.3Z"/><path class="cls-1" d="M53.13,42.45l-2,3-5.59-5L31.08,30.75l-16.35-9L6.24,18.87l1.81-3.35.61-.34,5.28,1.32,17.41,9,10,6.33,8.44,6.07,3.43,4Z"/><path class="cls-1" d="M5.93,19c1.49-1,12.44,3.87,23.89,10.77S52.15,44.47,51.17,45.94l-.33.51-.14.12s.19-.23,0-.77c-.49-1.6-8.23-7.78-21.07-15.54-12.53-7.46-23-12-24-10.68L5.93,19Zm47.6,23.46c.94-1.86-9.21-9.51-21.8-16.95C18.85,18.16,9.57,13.86,7.88,15.14l-.38.69s0-.05.1-.11a1.61,1.61,0,0,1,1.05-.25c2.91,0,11.25,3.88,23,10.58,5.12,3,21.64,13.58,21.58,16.56,0,.26,0,.31-.07.44l.42-.64Z"/><path class="cls-3" d="M14.36,32.86a15.66,15.66,0,0,0,31.32,0h0V12L14.36,12V32.86Z"/><path d="M14.94,32.89h0a14.85,14.85,0,0,0,4.43,10.55A15,15,0,0,0,45,32.91h0V12.65H15l0,20.25M39,18.71V33h0a10.37,10.37,0,0,1-.06,1.12,8.75,8.75,0,0,1-2.57,5.2A9,9,0,0,1,30,41.91a9.07,9.07,0,0,1-8.93-9V18.68l17.92,0Z"/><g id="castle3"><g id="castle"><path class="cls-3" d="M16.89,17.93A1.82,1.82,0,0,1,18,16.13,1.8,1.8,0,0,1,19.08,18l-2.19,0"/><path class="cls-4" d="M16,16.16l-.18,1.67h1.09A1.5,1.5,0,0,1,18,16.22a1.62,1.62,0,0,1,1.08,1.61h1.1L20,16.15Z"/><path class="cls-4" d="M15.74,17.84h4.47a.18.18,0,0,1,.17.2c0,.12-.07.21-.17.21H15.74a.19.19,0,0,1-.17-.21A.19.19,0,0,1,15.74,17.84Z"/><path class="cls-4" d="M17.37,17.83a1.15,1.15,0,0,1,.6-1.12,1.15,1.15,0,0,1,.62,1.12H17.37"/><path class="cls-4" d="M15.84,15.46h4.28a.18.18,0,0,1,.17.19.18.18,0,0,1-.17.18H15.84a.18.18,0,0,1-.17-.18A.18.18,0,0,1,15.84,15.46Z"/><path class="cls-4" d="M15.93,15.83H20a.2.2,0,0,1,0,.38h-4.1a.19.19,0,0,1,0-.38Z"/><path class="cls-4" d="M17.25,13h.33v.23h.23V13h.33v.23h.24V13h.33v.53a.13.13,0,0,1-.14.13H17.4a.15.15,0,0,1-.15-.13V13Z"/><path class="cls-4" d="M18.47,13.75l.07,1.7H17.41l.07-1.7h1"/><path id="cp1" class="cls-4" d="M17.09,14.54l0,.92H16l0-.92Z"/><path id="cp1-2" data-name="cp1" class="cls-4" d="M19.88,14.54l0,.92H18.83l0-.92Z"/><path id="cp2" class="cls-4" d="M15.86,13.87h.32v.23h.23v-.24h.32v.24H17v-.24h.32v.53a.14.14,0,0,1-.14.14H16a.15.15,0,0,1-.15-.14v-.52h0Z"/><path id="cp2-2" data-name="cp2" class="cls-4" d="M18.66,13.87H19v.23h.23v-.24h.32v.24h.23v-.24h.33v.53a.14.14,0,0,1-.14.14H18.81a.15.15,0,0,1-.15-.14v-.52h0Z"/><path class="cls-5" d="M17.87,14.29a.12.12,0,1,1,.23,0v.4h-.23v-.4"/><path id="cp3" class="cls-5" d="M16.46,14.88a.11.11,0,1,1,.22,0v.31h-.22v-.31"/><path id="cp3-2" data-name="cp3" class="cls-5" d="M19.27,14.88a.11.11,0,1,1,.22,0v.31h-.22v-.31"/></g><g id="castle-2" data-name="castle"><path class="cls-3" d="M16.89,30.15A1.82,1.82,0,0,1,18,28.35a1.8,1.8,0,0,1,1.12,1.82l-2.19,0"/><path class="cls-4" d="M16,28.37l-.18,1.68h1.09A1.5,1.5,0,0,1,18,28.44a1.62,1.62,0,0,1,1.08,1.61h1.1L20,28.36Z"/><path class="cls-4" d="M15.74,30.05h4.47a.19.19,0,0,1,.17.21c0,.12-.07.21-.17.21H15.74a.19.19,0,0,1-.17-.21A.2.2,0,0,1,15.74,30.05Z"/><path class="cls-4" d="M17.37,30.05a1.14,1.14,0,0,1,.6-1.12,1.15,1.15,0,0,1,.62,1.12H17.37"/><path class="cls-4" d="M15.84,27.68h4.28a.18.18,0,0,1,.17.18.18.18,0,0,1-.17.19H15.84a.18.18,0,0,1-.17-.19A.18.18,0,0,1,15.84,27.68Z"/><path class="cls-4" d="M15.93,28.05H20a.18.18,0,0,1,.15.19.17.17,0,0,1-.15.18h-4.1a.17.17,0,0,1-.16-.18A.18.18,0,0,1,15.93,28.05Z"/><path class="cls-4" d="M17.25,25.26h.33v.23h.23v-.24h.33v.23h.24v-.24h.33v.54a.13.13,0,0,1-.14.13H17.4a.15.15,0,0,1-.15-.14v-.52Z"/><path class="cls-4" d="M18.47,26l.07,1.7H17.41L17.48,26h1"/><path id="cp1-3" data-name="cp1" class="cls-4" d="M17.09,26.76l0,.91H16l0-.92Z"/><path id="cp1-4" data-name="cp1" class="cls-4" d="M19.88,26.76l0,.91H18.83l0-.92Z"/><path id="cp2-3" data-name="cp2" class="cls-4" d="M15.86,26.09h.32v.23h.23v-.23h.32v.23H17v-.23h.32v.53a.14.14,0,0,1-.14.14H16a.15.15,0,0,1-.15-.14v-.53Z"/><path id="cp2-4" data-name="cp2" class="cls-4" d="M18.66,26.09H19v.23h.23v-.23h.32v.23h.23v-.23h.33v.53a.14.14,0,0,1-.14.14H18.81a.15.15,0,0,1-.15-.14v-.53Z"/><path class="cls-5" d="M17.87,26.51a.12.12,0,1,1,.23,0v.4h-.23v-.4"/><path id="cp3-3" data-name="cp3" class="cls-5" d="M16.46,27.1a.11.11,0,1,1,.22,0v.31h-.22V27.1"/><path id="cp3-4" data-name="cp3" class="cls-5" d="M19.27,27.1a.11.11,0,1,1,.22,0v.31h-.22V27.1"/></g><g id="castle-3" data-name="castle"><path class="cls-3" d="M21.65,42.87a1.83,1.83,0,0,1-.52-2,1.79,1.79,0,0,1,2.07.5l-1.55,1.54"/><path class="cls-6" d="M19.76,42.25l1.06,1.31.77-.78a1.48,1.48,0,0,1-.38-1.89,1.6,1.6,0,0,1,1.9.37l.77-.78-1.33-1-2.79,2.82Z"/><path class="cls-6" d="M20.78,43.61l3.15-3.17a.21.21,0,0,1,.29.29L21.07,43.9a.21.21,0,0,1-.29-.29Z"/><path class="cls-6" d="M21.92,42.46a1.17,1.17,0,0,1-.38-1.22,1.18,1.18,0,0,1,1.24.35l-.86.87"/><path class="cls-6" d="M19.16,41.87l3-3a.19.19,0,0,1,.26.26l-3,3a.18.18,0,0,1-.26-.26Z"/><path class="cls-6" d="M19.49,42.07l2.88-2.91a.19.19,0,0,1,.27.27l-2.89,2.9a.19.19,0,0,1-.26-.26Z"/><path class="cls-6" d="M18.44,39.16l.23-.23.16.17.16-.17-.16-.17.23-.23.17.16.17-.16-.17-.17.23-.23.38.37a.13.13,0,0,1,0,.2l-.82.82a.13.13,0,0,1-.2,0l-.37-.37Z"/><path class="cls-6" d="M19.8,38.8,21.06,40l-.8.8L19.1,39.5l.7-.7"/><path id="cp1-5" data-name="cp1" class="cls-6" d="M19.38,40.34l.68.62-.77.77-.63-.67.72-.72Z"/><path id="cp1-6" data-name="cp1" class="cls-6" d="M21.35,38.35,22,39l-.77.78-.63-.67.72-.73Z"/><path id="cp2-5" data-name="cp2" class="cls-6" d="M18.05,40.74l.22-.23.17.17.16-.17-.17-.16.23-.23.17.16.16-.16L18.82,40l.23-.23.38.38a.13.13,0,0,1,0,.19l-.81.81a.15.15,0,0,1-.2,0l-.37-.37Z"/><path id="cp2-6" data-name="cp2" class="cls-6" d="M20,38.75l.22-.22.17.16.16-.16-.17-.17.23-.23.17.17.16-.17L20.8,38l.22-.23.38.37a.14.14,0,0,1,0,.2l-.8.8a.15.15,0,0,1-.21,0L20,38.75Z"/><path class="cls-5" d="M19.76,39.61c-.13-.11,0-.28.16-.17l.28.29-.16.16-.28-.28"/><path id="cp3-5" data-name="cp3" class="cls-5" d="M19.18,41a.11.11,0,1,1,.16-.16l.22.23-.16.15L19.18,41"/><path id="cp3-6" data-name="cp3" class="cls-5" d="M21.16,39a.11.11,0,1,1,.15-.16l.23.22-.16.16L21.16,39"/></g></g><g id="castle-4" data-name="castle"><path class="cls-3" d="M29,17.93A1.82,1.82,0,0,1,30,16.13,1.8,1.8,0,0,1,31.14,18l-2.19,0"/><path class="cls-4" d="M28.06,16.16l-.18,1.67H29A1.5,1.5,0,0,1,30,16.22a1.63,1.63,0,0,1,1.08,1.61h1.1L32,16.15Z"/><path class="cls-4" d="M27.8,17.84h4.47a.18.18,0,0,1,.17.2c0,.12-.07.21-.17.21H27.8a.19.19,0,0,1-.17-.21A.19.19,0,0,1,27.8,17.84Z"/><path class="cls-4" d="M29.43,17.83a1.14,1.14,0,0,1,.6-1.12,1.17,1.17,0,0,1,.62,1.12H29.43"/><path class="cls-4" d="M27.9,15.46h4.28a.18.18,0,0,1,.17.19.18.18,0,0,1-.17.18H27.9a.18.18,0,0,1-.17-.18A.18.18,0,0,1,27.9,15.46Z"/><path class="cls-4" d="M28,15.83h4.09a.19.19,0,0,1,0,.38H28a.19.19,0,0,1,0-.38Z"/><path class="cls-4" d="M29.31,13h.32v.23h.24V13h.33v.23h.24V13h.33v.53a.13.13,0,0,1-.14.13H29.46a.14.14,0,0,1-.15-.13V13Z"/><path class="cls-4" d="M30.53,13.75l.07,1.7H29.47l.07-1.7h1"/><path id="cp1-7" data-name="cp1" class="cls-4" d="M29.14,14.54l0,.92H28.09l0-.92Z"/><path id="cp1-8" data-name="cp1" class="cls-4" d="M31.94,14.54l0,.92H30.89l0-.92Z"/><path id="cp2-7" data-name="cp2" class="cls-4" d="M27.92,13.87h.32v.23h.23v-.24h.32v.24H29v-.24h.33v.53a.14.14,0,0,1-.14.14H28.07a.15.15,0,0,1-.15-.14v-.52h0Z"/><path id="cp2-8" data-name="cp2" class="cls-4" d="M30.72,13.87H31v.23h.23v-.24h.32v.24h.23v-.24h.33v.53a.14.14,0,0,1-.14.14H30.87a.15.15,0,0,1-.15-.14v-.52h0Z"/><path class="cls-5" d="M29.93,14.29a.11.11,0,1,1,.22,0v.4h-.22v-.4"/><path id="cp3-7" data-name="cp3" class="cls-5" d="M28.52,14.88a.11.11,0,1,1,.22,0v.31h-.22v-.31"/><path id="cp3-8" data-name="cp3" class="cls-5" d="M31.33,14.88c0-.16.22-.17.21,0v.31h-.21v-.31"/></g><g id="castle3-2" data-name="castle3"><g id="castle-5" data-name="castle"><path class="cls-3" d="M43.11,17.93A1.81,1.81,0,0,0,42,16.13,1.81,1.81,0,0,0,40.92,18l2.19,0"/><path class="cls-4" d="M44,16.16l.18,1.67H43.09A1.5,1.5,0,0,0,42,16.22a1.6,1.6,0,0,0-1.08,1.61h-1.1l.2-1.68Z"/><path class="cls-4" d="M44.26,17.84H39.79a.19.19,0,0,0-.18.2.19.19,0,0,0,.18.21h4.47a.19.19,0,0,0,.17-.21A.19.19,0,0,0,44.26,17.84Z"/><path class="cls-4" d="M42.63,17.83a1.15,1.15,0,0,0-.6-1.12,1.15,1.15,0,0,0-.62,1.12h1.22"/><path class="cls-4" d="M44.16,15.46H39.88a.18.18,0,0,0-.17.19.18.18,0,0,0,.17.18h4.28a.17.17,0,0,0,.16-.18A.17.17,0,0,0,44.16,15.46Z"/><path class="cls-4" d="M44.07,15.83H40a.2.2,0,0,0,0,.38h4.1a.19.19,0,0,0,0-.38Z"/><path class="cls-4" d="M42.75,13h-.33v.23h-.23V13h-.33v.23h-.24V13h-.33v.53a.13.13,0,0,0,.14.13H42.6a.15.15,0,0,0,.15-.13V13Z"/><path class="cls-4" d="M41.53,13.75l-.07,1.7h1.13l-.08-1.7h-1"/><path id="cp1-9" data-name="cp1" class="cls-4" d="M42.91,14.54l0,.92H44l0-.92Z"/><path id="cp1-10" data-name="cp1" class="cls-4" d="M40.11,14.54l0,.92h1.09l0-.92Z"/><path id="cp2-9" data-name="cp2" class="cls-4" d="M44.14,13.87h-.32v.23h-.23v-.24h-.33v.24H43v-.24h-.32v.53a.14.14,0,0,0,.14.14H44a.15.15,0,0,0,.15-.14v-.52h0Z"/><path id="cp2-10" data-name="cp2" class="cls-4" d="M41.34,13.87H41v.23h-.23v-.24h-.32v.24h-.24v-.24h-.32v.53a.14.14,0,0,0,.14.14h1.14a.15.15,0,0,0,.15-.14v-.52h0Z"/><path class="cls-5" d="M42.13,14.29a.12.12,0,1,0-.23,0v.4h.23v-.4"/><path id="cp3-9" data-name="cp3" class="cls-5" d="M43.54,14.88a.11.11,0,1,0-.22,0v.31h.22v-.31"/><path id="cp3-10" data-name="cp3" class="cls-5" d="M40.73,14.88a.11.11,0,1,0-.22,0v.31h.22v-.31"/></g><g id="castle-6" data-name="castle"><path class="cls-3" d="M43.11,30.15A1.81,1.81,0,0,0,42,28.35a1.81,1.81,0,0,0-1.11,1.82l2.19,0"/><path class="cls-4" d="M44,28.37l.18,1.68H43.09A1.5,1.5,0,0,0,42,28.44a1.6,1.6,0,0,0-1.08,1.61h-1.1l.2-1.69Z"/><path class="cls-4" d="M44.26,30.05H39.79a.2.2,0,0,0-.18.21.19.19,0,0,0,.18.21h4.47a.19.19,0,0,0,.17-.21A.2.2,0,0,0,44.26,30.05Z"/><path class="cls-4" d="M42.63,30.05a1.14,1.14,0,0,0-.6-1.12,1.15,1.15,0,0,0-.62,1.12h1.22"/><path class="cls-4" d="M44.16,27.68H39.88a.18.18,0,0,0-.17.18.18.18,0,0,0,.17.19h4.28a.17.17,0,0,0,.16-.19A.17.17,0,0,0,44.16,27.68Z"/><path class="cls-4" d="M44.07,28.05H40a.18.18,0,0,0-.15.19.17.17,0,0,0,.15.18h4.1a.17.17,0,0,0,.16-.18A.18.18,0,0,0,44.07,28.05Z"/><path class="cls-4" d="M42.75,25.26h-.33v.23h-.23v-.24h-.33v.23h-.24v-.24h-.33v.54a.13.13,0,0,0,.14.13H42.6a.15.15,0,0,0,.15-.14v-.52Z"/><path class="cls-4" d="M41.53,26l-.07,1.7h1.13L42.51,26h-1"/><path id="cp1-11" data-name="cp1" class="cls-4" d="M42.91,26.76l0,.91H44l0-.92Z"/><path id="cp1-12" data-name="cp1" class="cls-4" d="M40.11,26.76l0,.91h1.09l0-.92Z"/><path id="cp2-11" data-name="cp2" class="cls-4" d="M44.14,26.09h-.32v.23h-.23v-.23h-.33v.23H43v-.23h-.32v.53a.14.14,0,0,0,.14.14H44a.15.15,0,0,0,.15-.14v-.53Z"/><path id="cp2-12" data-name="cp2" class="cls-4" d="M41.34,26.09H41v.23h-.23v-.23h-.32v.23h-.24v-.23h-.32v.53a.14.14,0,0,0,.14.14h1.14a.15.15,0,0,0,.15-.14v-.53Z"/><path class="cls-5" d="M42.13,26.51a.12.12,0,1,0-.23,0v.4h.23v-.4"/><path id="cp3-11" data-name="cp3" class="cls-5" d="M43.54,27.1a.11.11,0,1,0-.22,0v.31h.22V27.1"/><path id="cp3-12" data-name="cp3" class="cls-5" d="M40.73,27.1a.11.11,0,1,0-.22,0v.31h.22V27.1"/></g><g id="castle-7" data-name="castle"><path class="cls-3" d="M38.35,42.87a1.83,1.83,0,0,0,.52-2,1.81,1.81,0,0,0-2.08.5l1.56,1.54"/><path class="cls-6" d="M40.24,42.25l-1.06,1.31-.78-.78a1.48,1.48,0,0,0,.39-1.89,1.61,1.61,0,0,0-1.9.37l-.77-.78,1.33-1,2.79,2.82Z"/><path class="cls-6" d="M39.22,43.61l-3.15-3.17a.21.21,0,0,0-.29.29l3.15,3.17a.21.21,0,0,0,.29-.29Z"/><path class="cls-6" d="M38.08,42.46a1.17,1.17,0,0,0,.38-1.22,1.18,1.18,0,0,0-1.24.35l.86.87"/><path class="cls-6" d="M40.84,41.87l-3-3a.19.19,0,0,0-.26.26l3,3a.18.18,0,0,0,.26-.26Z"/><path class="cls-6" d="M40.51,42.07l-2.88-2.91a.19.19,0,0,0-.27.27l2.89,2.9a.16.16,0,0,0,.24,0A.17.17,0,0,0,40.51,42.07Z"/><path class="cls-6" d="M41.56,39.16l-.23-.23-.16.17L41,38.93l.17-.17-.23-.23-.17.16-.17-.16.17-.17-.23-.23-.38.37a.13.13,0,0,0,0,.2l.82.82a.13.13,0,0,0,.2,0l.37-.37Z"/><path class="cls-6" d="M40.2,38.8,38.94,40l.8.8L40.9,39.5l-.7-.7"/><path id="cp1-13" data-name="cp1" class="cls-6" d="M40.62,40.34l-.68.62.77.77.63-.67-.72-.72Z"/><path id="cp1-14" data-name="cp1" class="cls-6" d="M38.64,38.35,38,39l.77.78.63-.67-.73-.73Z"/><path id="cp2-13" data-name="cp2" class="cls-6" d="M42,40.74l-.22-.23-.17.17-.16-.17.17-.16-.23-.23-.17.16L41,40.12l.17-.17L41,39.72l-.38.38a.13.13,0,0,0,0,.19l.81.81a.15.15,0,0,0,.2,0l.37-.37Z"/><path id="cp2-14" data-name="cp2" class="cls-6" d="M40,38.75l-.22-.22-.17.16-.16-.16.17-.17-.23-.23-.17.17L39,38.13,39.2,38,39,37.74l-.37.37a.14.14,0,0,0,0,.2l.8.8a.15.15,0,0,0,.21,0l.37-.37Z"/><path class="cls-5" d="M40.24,39.61c.13-.11,0-.28-.16-.17l-.28.29.16.16.28-.28"/><path id="cp3-13" data-name="cp3" class="cls-5" d="M40.82,41a.11.11,0,1,0-.16-.16l-.22.23.15.15.23-.22"/><path id="cp3-14" data-name="cp3" class="cls-5" d="M38.84,39a.11.11,0,1,0-.15-.16l-.23.22.16.16.22-.22"/></g></g><g id="quina"><path d="M28.08,30.59h0a2.2,2.2,0,0,0,.59,1.5,1.87,1.87,0,0,0,2.8,0,2.22,2.22,0,0,0,.58-1.5V27.75h-4v2.84"/><circle class="cls-3" cx="28.99" cy="28.83" r="0.39"/><circle class="cls-3" cx="31.19" cy="28.83" r="0.39"/><circle class="cls-3" cx="30.09" cy="29.88" r="0.39"/><circle class="cls-3" cx="28.99" cy="30.99" r="0.39"/><circle class="cls-3" cx="31.18" cy="30.98" r="0.39"/></g><g id="quina-2" data-name="quina"><path d="M28.08,23.73h0a2.22,2.22,0,0,0,.59,1.5,1.87,1.87,0,0,0,2.8,0,2.22,2.22,0,0,0,.58-1.5V20.89h-4v2.84"/><circle class="cls-3" cx="28.99" cy="21.97" r="0.39"/><circle class="cls-3" cx="31.19" cy="21.97" r="0.39"/><circle class="cls-3" cx="30.09" cy="23.02" r="0.39"/><circle class="cls-3" cx="28.99" cy="24.13" r="0.39"/><circle class="cls-3" cx="31.18" cy="24.12" r="0.39"/></g><g id="quina-3" data-name="quina"><path d="M22.6,30.59h0a2.19,2.19,0,0,0,.58,1.5,1.87,1.87,0,0,0,2.8,0,2.17,2.17,0,0,0,.58-1.5V27.75H22.61v2.84"/><circle class="cls-3" cx="23.51" cy="28.83" r="0.39"/><circle class="cls-3" cx="25.7" cy="28.83" r="0.39"/><circle class="cls-3" cx="24.6" cy="29.88" r="0.39"/><circle class="cls-3" cx="23.51" cy="30.99" r="0.39"/><circle class="cls-3" cx="25.7" cy="30.98" r="0.39"/></g><g id="quina-4" data-name="quina"><path d="M33.56,30.59h0a2.19,2.19,0,0,0,.58,1.5,1.87,1.87,0,0,0,2.8,0,2.17,2.17,0,0,0,.58-1.5V27.75h-4v2.84"/><circle class="cls-3" cx="34.46" cy="28.83" r="0.39"/><circle class="cls-3" cx="36.66" cy="28.83" r="0.39"/><circle class="cls-3" cx="35.56" cy="29.88" r="0.39"/><circle class="cls-3" cx="34.46" cy="30.99" r="0.39"/><circle class="cls-3" cx="36.66" cy="30.98" r="0.39"/></g><g id="quina-5" data-name="quina"><path d="M28.08,37.39h0a2.18,2.18,0,0,0,.59,1.5,1.89,1.89,0,0,0,1.4.63,1.94,1.94,0,0,0,1.4-.62,2.26,2.26,0,0,0,.58-1.51V34.55h-4v2.84"/><circle class="cls-3" cx="28.99" cy="35.63" r="0.39"/><circle class="cls-3" cx="31.19" cy="35.63" r="0.39"/><circle class="cls-3" cx="30.09" cy="36.69" r="0.39"/><circle class="cls-3" cx="28.99" cy="37.79" r="0.39"/><circle class="cls-3" cx="31.18" cy="37.79" r="0.39"/></g></svg>