<svg id="Слой_1" data-name="Слой 1" xmlns="http://www.w3.org/2000/svg" viewBox="0 0 60 60"><defs><style>.cls-1{fill:#fff;}</style></defs><path class="cls-1" d="M31.69,20.5a29.36,29.36,0,0,0,4,15.8,15.52,15.52,0,0,1-3.73,19.93,5.69,5.69,0,0,0-1.92,2,5.69,5.69,0,0,0-1.92-2A15.52,15.52,0,0,1,24.35,36.3a29.36,29.36,0,0,0,4-15.8L27.86,7.73A8.48,8.48,0,0,1,30,1.79a8.48,8.48,0,0,1,2.14,5.94Zm-.28,32.39a12.69,12.69,0,0,0,1.8-15.17A32.55,32.55,0,0,1,30,30.07a32.55,32.55,0,0,1-3.21,7.65,12.69,12.69,0,0,0,1.8,15.17V44.11h2.82Z"/><path id="a" class="cls-1" d="M37.84,19.47A17.67,17.67,0,0,1,46.93,6V46.93H30l-1.41-2.82a6.36,6.36,0,0,1,4.95-6.2L37.67,37a2.82,2.82,0,0,0-1.24-5.5h0Zm1.69,9.69a5.65,5.65,0,0,1-1.24,10.58l-4.13.93a3.52,3.52,0,0,0-2.75,3.44h12.7V11.88a14.82,14.82,0,0,0-3.47,7.91Zm2.32,3.66h2.82v2.82H41.85Z"/><path id="a-2" data-name="a" class="cls-1" d="M22.16,19.47A17.67,17.67,0,0,0,13.07,6V46.93H30l1.41-2.82a6.36,6.36,0,0,0-4.95-6.2L22.33,37a2.82,2.82,0,0,1,1.24-5.5h0Zm-1.69,9.69a5.65,5.65,0,0,0,1.24,10.58l4.13.93a3.52,3.52,0,0,1,2.75,3.44H15.89V11.88a14.82,14.82,0,0,1,3.47,7.91Zm-2.32,3.66H15.33v2.82h2.82Z"/></svg>