<svg id="Слой_1" data-name="Слой 1" xmlns="http://www.w3.org/2000/svg" viewBox="0 0 60 60"><defs><style>.cls-1,.cls-11,.cls-12,.cls-14,.cls-2,.cls-5,.cls-6,.cls-8,.cls-9{stroke:#fff;}.cls-1,.cls-12,.cls-2,.cls-6,.cls-9{stroke-linecap:square;}.cls-1,.cls-15,.cls-5{stroke-miterlimit:75.59;stroke-width:0.51px;}.cls-2,.cls-4{stroke-miterlimit:77;stroke-width:0.51px;}.cls-3{fill:#fff;}.cls-10,.cls-13,.cls-15,.cls-4,.cls-7{fill:none;stroke:#000;}.cls-6,.cls-7{stroke-miterlimit:77;stroke-width:0.51px;}.cls-8{stroke-miterlimit:77;stroke-width:0.51px;}.cls-10,.cls-9{stroke-miterlimit:77;stroke-width:0.51px;}.cls-11{stroke-miterlimit:77;stroke-width:0.51px;}.cls-12,.cls-13{stroke-miterlimit:77;stroke-width:0.51px;}.cls-14{stroke-miterlimit:77;stroke-width:0.51px;}</style></defs><path class="cls-1" d="M28.26,37.53l2.55,3.81c-10.48,7.59-4.09,12.07-11.51,14.5,4.62-4.51-.61-5.2,3.28-14.6"/><path class="cls-2" d="M23.44,34.09l-.89,4.5C9.78,36.54,11.13,44.24,4.16,40.7c6.45.08,3.39-4.17,12.79-8.06"/><path class="cls-3" d="M23.44,34.09l-2-.36,0,.08a26.82,26.82,0,0,0-10.57,5.24,13.48,13.48,0,0,1-3.2,2,4.63,4.63,0,0,1-2.21.27c5.54,2,5.17-4.59,17.08-2.68Z"/><path class="cls-4" d="M21.39,33.57c-10.83,2.65-11.86,9-17.23,7.13"/><path class="cls-5" d="M30,30l-3.6-3.6L10.22,49.78,33.6,33.6,30,30,10.22,49.78"/><path class="cls-6" d="M22.47,28.26l-3.81,2.55C11.07,20.33,6.59,26.72,4.16,19.3c4.51,4.62,5.25-.61,14.64,3.29"/><path class="cls-3" d="M22.47,28.26,21.3,26.58l0,.07a26.76,26.76,0,0,0-11.18-3.77A13.4,13.4,0,0,1,6.44,22a4.85,4.85,0,0,1-1.76-1.38c2.53,5.31,6.91.42,14,10.19Z"/><path class="cls-7" d="M21.39,26.43c-9.53-5.78-14.77-2-17.23-7.13"/><path class="cls-8" d="M30,30V24.91L2,30l28,5.09V30H2"/><path class="cls-3" d="M30,30v0H2l28,5.09"/><path class="cls-9" d="M25.91,23.44l-4.5-.89C23.46,9.78,15.76,11.13,19.3,4.16c-.08,6.45,4.38,3.91,8.28,13.31"/><path class="cls-3" d="M25.91,23.44l.36-2-.08,0A26.82,26.82,0,0,0,21,10.88,13.48,13.48,0,0,1,19,7.68a4.63,4.63,0,0,1-.27-2.21c-2,5.54,4.59,5.17,2.68,17.08Z"/><path class="cls-10" d="M26.43,21.39c-2.65-10.83-9-11.86-7.13-17.23"/><path class="cls-11" d="M30,30l3.6-3.6L10.22,10.22,26.4,33.6,30,30,10.22,10.22"/><path class="cls-3" d="M30,30l-3.6,3.6L30,30,10.22,10.22,26.4,33.6"/><path class="cls-6" d="M31.74,22.47l-2.55-3.81C39.67,11.07,33.28,6.59,40.7,4.16c-4.62,4.51.59,5.25-3.3,14.65"/><path class="cls-3" d="M31.74,22.47l1.68-1.17-.07,0a26.76,26.76,0,0,0,3.77-11.18A13.4,13.4,0,0,1,38,6.44a4.85,4.85,0,0,1,1.38-1.76c-5.31,2.53-.42,6.91-10.19,14Z"/><path class="cls-7" d="M33.57,21.39c5.78-9.53,2-14.77,7.13-17.23"/><path class="cls-8" d="M30,30h5.09L30,2,24.91,30H30V2"/><path class="cls-3" d="M30,30h0V2L24.91,30"/><path class="cls-12" d="M36.56,25.91l.89-4.5c12.77,2.05,11.42-5.65,18.39-2.11-6.45-.08-3.58,4.19-13,8.08"/><path class="cls-3" d="M36.56,25.91l2,.36,0-.08A26.82,26.82,0,0,0,49.12,21,13.48,13.48,0,0,1,52.32,19a4.63,4.63,0,0,1,2.21-.27c-5.54-2-5.17,4.59-17.08,2.68Z"/><path class="cls-13" d="M38.61,26.43c10.83-2.65,11.86-9,17.23-7.13"/><path class="cls-14" d="M30,30l3.6,3.6L49.78,10.22,26.4,26.4,30,30,49.78,10.22"/><path class="cls-3" d="M30,30l-3.6-3.6L30,30,49.78,10.22,26.4,26.4"/><path class="cls-6" d="M37.53,31.74l3.81-2.55c7.59,10.48,12.07,4.09,14.5,11.51-4.51-4.62-5.35.55-14.75-3.34"/><path class="cls-3" d="M37.53,31.74l1.17,1.68,0-.07a26.76,26.76,0,0,0,11.18,3.77,13.4,13.4,0,0,1,3.64.88,4.85,4.85,0,0,1,1.76,1.38c-2.53-5.31-6.91-.42-14-10.19Z"/><path class="cls-7" d="M38.61,33.57c9.53,5.78,14.77,2,17.23,7.13"/><path class="cls-8" d="M30,30v5.09L58,30,30,24.91V30H58"/><path class="cls-3" d="M30,30v0H58L30,24.91"/><path class="cls-9" d="M34.09,36.56l4.5.89c-2.05,12.77,5.65,11.42,2.11,18.39.08-6.45-4.17-3.46-8.06-12.86"/><path class="cls-3" d="M34.09,36.56l-.36,2,.08,0a26.82,26.82,0,0,0,5.24,10.57,13.48,13.48,0,0,1,2,3.2,4.63,4.63,0,0,1,.27,2.21c2-5.54-4.59-5.17-2.68-17.08Z"/><path class="cls-10" d="M33.57,38.61c2.65,10.83,9,11.86,7.13,17.23"/><path class="cls-11" d="M30,30l-3.6,3.6L49.78,49.78,33.6,26.4,30,30,49.78,49.78"/><path class="cls-3" d="M30,30l3.6-3.6L30,30,49.78,49.78,33.6,26.4"/><path class="cls-3" d="M28.26,37.53,26.58,38.7l.07,0a26.76,26.76,0,0,0-3.77,11.18A13.4,13.4,0,0,1,22,53.56a4.85,4.85,0,0,1-1.38,1.76c5.31-2.53.42-6.91,10.19-14Z"/><path class="cls-15" d="M26.43,38.61c-5.78,9.53-2,14.77-7.13,17.23"/><path class="cls-5" d="M30,30H24.91L30,58l5.09-28H30V58"/><path class="cls-3" d="M30,30h0V58l5.09-28"/><path class="cls-3" d="M30,30l3.6,3.6L30,30,10.22,49.78,33.6,33.6"/><circle class="cls-5" cx="30" cy="30" r="9.32"/><path class="cls-3" d="M36.87,26.27c-.6.68-.94-.51-3.06-.51S31.36,27,31,26.78,32.8,25,33.47,24.91a6.09,6.09,0,0,1,3.4,1.36M34.41,27a1,1,0,0,1-.51,1.61c-.59,0-1.7-1-1.19-1.69"/><path class="cls-3" d="M31.61,27.8c.09-1,.93-1.19,2.29-1.19s2,1,2.46,1.27c-.6,0-1.11-.85-2.46-.85s-1.36,0-2.29.85m.25.17c.34-.51.77.51,1.7.51a3.1,3.1,0,0,0,2-.68c.6-.42-.84,1-1.78,1s-2.2-.51-2-.85"/><path class="cls-3" d="M25.25,27a.85.85,0,0,0,0,1.61C24.41,28,25.08,27.12,25.25,27Z"/><path class="cls-3" d="M34.75,27c.17.17.84,1,0,1.61A.85.85,0,0,0,34.75,27Z"/><path class="cls-3" d="M28.64,30.59c-.76.17-.5,1.27-1.18,1.36a1.19,1.19,0,0,0-.93.76,3.8,3.8,0,0,1,2-.59c.68,0,.85.42,1.44.42s.76-.42,1.44-.42a3.8,3.8,0,0,1,2,.59,1.19,1.19,0,0,0-.93-.76c-.68-.09-.42-1.19-1.18-1.36,0,.34.25.26.33.77s-.76.42-.93,0c.17.67-.34.67-.76.67s-.93,0-.76-.67c-.17.42-.93.42-.93,0S28.64,30.93,28.64,30.59Z"/><path class="cls-3" d="M26,33.47c-.68.51-.85.77-.94,1.36.21-.35.31-.5.46-.71l-.12,0,.14,0,.46-.62Z"/><path class="cls-3" d="M25.56,34.09h0a1.27,1.27,0,0,0,.34,0l-.33,0Z"/><path class="cls-3" d="M25.89,34.14a8.1,8.1,0,0,1,1.32.34,24.41,24.41,0,0,1,5.58,0,8.1,8.1,0,0,1,1.32-.34c-.93,0-2.18-.67-2.75-.67s-.85.17-1.36.17-.68-.17-1.36-.17S26.82,34.14,25.89,34.14Z"/><path class="cls-3" d="M34.11,34.14a1.27,1.27,0,0,0,.34,0h0l-.33,0Z"/><path class="cls-3" d="M34.44,34.09l.14,0-.12,0c.15.21.25.36.46.71-.09-.59-.26-.85-.94-1.36l.46.62Z"/><path class="cls-3" d="M34.46,34.12h0a3.44,3.44,0,0,1-1.66.37,7.74,7.74,0,0,1-5.58,0,3.44,3.44,0,0,1-1.66-.37h0c2.66,1.15,2.37,1.56,4.46,1.56s1.8-.41,4.46-1.56Z"/><path class="cls-3" d="M25.55,34.11h0l-.13,0Z"/><path class="cls-3" d="M34.45,34.11l.13,0-.13,0Z"/><path class="cls-3" d="M23.13,26.27c.6.68.94-.51,3.06-.51s2.45,1.27,2.79,1S27.2,25,26.53,24.91a6.09,6.09,0,0,0-3.4,1.36m2.46.76a1,1,0,0,0,.51,1.61c.59,0,1.7-1,1.19-1.69"/><path class="cls-3" d="M28.39,27.8c-.09-1-.93-1.19-2.29-1.19s-2,1-2.46,1.27c.6,0,1.11-.85,2.46-.85s1.36,0,2.29.85m-.25.17c-.34-.51-.77.51-1.7.51a3.1,3.1,0,0,1-2-.68c-.6-.42.84,1,1.78,1s2.2-.51,1.95-.85"/><path class="cls-3" d="M30,36.44c-.42,0-1.53.26,0,.26s.42-.26,0-.26"/></svg>