<svg id="Слой_1" data-name="Слой 1" xmlns="http://www.w3.org/2000/svg" xmlns:xlink="http://www.w3.org/1999/xlink" viewBox="0 0 283.46 283.46"><defs><style>.cls-1,.cls-17{fill:none;}.cls-2{clip-path:url(#clip-path);}.cls-3{clip-path:url(#clip-path-2);}.cls-4,.cls-7{fill:#e83f4f;}.cls-5{fill:#fff;}.cls-6{fill:#3eb497;}.cls-10,.cls-11,.cls-12,.cls-13,.cls-14,.cls-15,.cls-6,.cls-7,.cls-8,.cls-9{fill-rule:evenodd;}.cls-8{fill:#28b3a3;}.cls-9{fill:#e74b94;}.cls-10{fill:#90307d;}.cls-11{fill:#9b5ba1;}.cls-12{fill:#eab30b;}.cls-13{fill:#00b6d4;}.cls-14{fill:#78716c;}.cls-15{fill:#4ab05e;}.cls-16{clip-path:url(#clip-path-3);}.cls-17{stroke:#70236d;stroke-miterlimit:10;stroke-width:2.45px;}.cls-18{fill:#f3f4f5;}.cls-19{fill:#d9d9d9;}.cls-20{fill:#70236e;}.cls-21{fill:#a6529a;}</style><clipPath id="clip-path"><path class="cls-1" d="M-137.1,341.86c-.1-.71-.21-1.43-.31-2.14a6.64,6.64,0,0,0-1.26-2.75,3.72,3.72,0,0,0-1.34-1.13c.07-.27.09-.55.18-.91v-.3c.11-.51.11-1,.21-1.43V333c0-.21.11-.41.11-.61,0-.41.1-.82.1-1.22a12.68,12.68,0,0,0-.21-2.86c-.31-1.12-.52-2.34-.94-3.46a9,9,0,0,0-1.57-3.16c-.42-.61-1-1.22-1.37-1.83a8.46,8.46,0,0,0-.94-1.12l-.63-.82-.63-.81a4.84,4.84,0,0,0-1.05-1,12,12,0,0,0-1.36-1l-.63-.41-.42-.2a11.9,11.9,0,0,1-1.68-1.12l-.73-.51c-.52-.3-.94-.61-1.47-.92a16.83,16.83,0,0,0-3-1.32c-.52-.2-1.15-.51-1.68-.71l-.63-.31c-1-.41-2-.81-3-1.12l-.84-.3a4.23,4.23,0,0,0-2-.34,15.2,15.2,0,0,0,.14-1.91,10.8,10.8,0,0,0-.21-2.64,17.21,17.21,0,0,0-.74-3.16,18.54,18.54,0,0,0-.84-2.24,11.23,11.23,0,0,0-1-1.94c-.32-.51-.63-1-1-1.52a2.06,2.06,0,0,0-.42-.62,9.76,9.76,0,0,0-.94-1.22,16.07,16.07,0,0,0-1.26-1.32,23.2,23.2,0,0,0-1.68-1.63l-.84-.71a17.06,17.06,0,0,0-1.57-1.33c-.42-.3-.94-.61-1.47-.92l-.42-.2-2.2-1.12-.31-.2a3.55,3.55,0,0,0-1-.41c-.63-.2-1.25-.51-1.78-.71a26.27,26.27,0,0,0-4.72-1.23,18,18,0,0,0-6.18.21,12,12,0,0,0-4.83,2.42l-.1-.49a1.49,1.49,0,0,0-.21-.71,6.18,6.18,0,0,0-.53-1.22c-.1-.31-.21-.51-.31-.82-.11-.1-.11-.2-.11-.4l-.1-.51a3.57,3.57,0,0,0-.31-.92l-.53-1.32-.1-.41a12.64,12.64,0,0,0-1.26-2.65l-.11-.2-.63-.92a8.17,8.17,0,0,1-.84-1.12,1.8,1.8,0,0,0-.31-.51l-.21-.41a9.5,9.5,0,0,0-1.78-2.24c-.32-.3-.63-.71-.95-1l-.94-1.12-.21-.2-.31-.31-.11-.1a2.82,2.82,0,0,0-.63-.51l-.63-.41c-.21-.1-.52-.3-.73-.4s-.32-.21-.53-.31-.41-.3-.62-.41l-.32-.2c-.31-.2-.63-.31-.94-.51a7.59,7.59,0,0,0-1.58-.71l-.52-.21-1.57-.61-.95-.3a7.42,7.42,0,0,0-1.67-.41l-1.16-.2a9.77,9.77,0,0,0-1.05-.31,25.86,25.86,0,0,0-3.88-.61h-.62l-.42-.1a1.39,1.39,0,0,0-.63-.1h-1.89a5.36,5.36,0,0,0-1.26.1h-.42l-.94.1a9.51,9.51,0,0,0-1.68.2l-.63.11-.63.2a5.51,5.51,0,0,1-1.26.2,7.22,7.22,0,0,0-2.09.61l-.32.21c-.21.1-.31.2-.52.3s-.32.1-.63.21a10,10,0,0,0-2.83,1.32,7.5,7.5,0,0,0-1.16.82c-.31.3-.84.71-1.25,1.12a9.4,9.4,0,0,0-.83.78l-.12-.27a5.15,5.15,0,0,1-.31-.72c-.21-.3-.42-.71-.63-1a2.66,2.66,0,0,1-.53-.61l-.21-.3-.21-.51a1.81,1.81,0,0,0-.52-.72l-.73-1-.21-.31-.95-1a8.93,8.93,0,0,0-1.05-.91l-.21-.11a6.89,6.89,0,0,0-.83-.61c-.42-.2-.74-.51-1.16-.71-.1-.1-.31-.2-.42-.41l-.31-.2a11.09,11.09,0,0,0-2.31-1.43c-.73-.3-1.47-.81-2.31-1.22l-.21-.1c-.1-.1-.2-.1-.41-.1l-.21-.11c-.21-.1-.53-.2-.74-.3s-.42-.1-.63-.2l-.73-.21c-.21,0-.32-.1-.53-.1l-.62-.2-.32-.11c-.31-.1-.63-.1-.94-.2a8.54,8.54,0,0,0-1.58-.2l-.52-.11a8.29,8.29,0,0,1-1.57-.1h-1a7.69,7.69,0,0,0-1.57.21,3.22,3.22,0,0,1-1.05.2,3.38,3.38,0,0,1-1,.1l-1.78.31a10.83,10.83,0,0,0-1.78.51c-.21.1-.32.1-.53.2a.39.39,0,0,0-.31.1,5.14,5.14,0,0,0-.53.1c-.2.11-.41.11-.62.31l-.95.41c-.31.2-.73.3-1.05.51l-.31.2c-.21.1-.53.31-.74.41a10.34,10.34,0,0,0-1.36.81c-.1.1-.31.21-.42.31l-.42.41c-.31.2-.63.4-1.05.71a20,20,0,0,0-1.57,1.32l-.21.31c-.1.1-.21.3-.31.41a3,3,0,0,1-.53.4,8.9,8.9,0,0,0-1.88,2l-.74,1-.84,1.22a3.9,3.9,0,0,0-.52.92l-.53.91a2.45,2.45,0,0,1-.42.72l-.21.3-.31.61c-.1.21-.21.51-.31.72s-.32.71-.42,1l-.32.4a3.19,3.19,0,0,0-.42.82c-.1.2-.1.51-.21.71s0,.1-.1.2c-.11.41-.21.72-.32,1.13l-.1.2c-.11.1-.11.3-.21.41-.11.3-.11.61-.21.91a15,15,0,0,0-.42,2.14,24.31,24.31,0,0,1-.42,2.65,10.81,10.81,0,0,0-.31,2.65,9.14,9.14,0,0,1-.11,1.73v1.73l-.1.71c0,.31-.11.72-.11,1a4.66,4.66,0,0,0,.11,1.23.9.9,0,0,0,.1.5v.31a6.72,6.72,0,0,1,.11,1.43v2a20.87,20.87,0,0,0,.41,2.45,5.36,5.36,0,0,1,.11,1.32v.51c.1.82.21,1.63.31,2.45l.11.61c.1.51.21,1.32.84,1.52h.06l-.17.11c-1.05.71-2.09,1.42-3,2.14-.63.5-1.47,1-2.2,1.63l-1.15.81c-1.26.92-2.83,2-4.3,3.26l-2.73,2.34a39.23,39.23,0,0,0-4.09,3.77,40.5,40.5,0,0,1-3.77,3.46,33.91,33.91,0,0,0-4,3.67c-.94.92-1.78,1.83-2.72,2.85-1.26,1.43-2.52,2.85-3.57,4.18A25.72,25.72,0,0,0-330,341.55a26.82,26.82,0,0,0-.42,10,13.26,13.26,0,0,0,.63,2.85c.21.91.53,1.73.74,2.65s.42,1.73.63,2.64c.42,1.53.84,3.06,1.36,4.79.31.92.63,1.73.94,2.55l.63,1.53c.63,1.52,1.16,3.26,1.89,5a45.91,45.91,0,0,0,1.78,4.27c.42.92.95,1.84,1.37,2.75.31.62.73,1.33,1,1.94l.95,1.83c.42.82.84,1.53,1.36,2.45.74,1.32,1.78,3,2.73,4.48.94,1.73,1.78,3.46,2.72,5.3l.74,1.42c1.57,3.06,3.35,6.32,5.66,10.09l.42.61a87.18,87.18,0,0,0,6.29,9,11.4,11.4,0,0,0,1.05,1.22l.63.82c.31.4.63.71.94,1.12s.95,1,1.37,1.63a19.1,19.1,0,0,0,2.09,2,2.57,2.57,0,0,0,.63.51c.84.72,1.57,1.53,2.62,2.35l.84.71h0a4.92,4.92,0,0,0-.31,2.44,21.71,21.71,0,0,0,.21,2.45c.1.92.21,1.83.31,2.65.11.51.11,1.12.21,1.73s.11,1.12.21,1.63v1.42l.11,1.74a11.23,11.23,0,0,1,.1,1.83c.11,1.22.11,2.34.11,3.56v4.59l.1,2.85v.2a58.33,58.33,0,0,1-.1,6.11,20.65,20.65,0,0,0-.11,2.55v6.62a20,20,0,0,1-.21,2.65,25.43,25.43,0,0,0-.21,2.85v1.83a14,14,0,0,1-.1,1.94l-.11.92a5,5,0,0,0-.1,1.22c-.11,1.32-.21,2.75-.32,4.18-.21,1.93-.42,3.66-.63,5.39-.1.92-.21,1.73-.31,2.55s-.21,1.63-.32,2.44l-.1.62c-.11.61-.11,1.22-.21,1.83v1.12a3.59,3.59,0,0,1-.11,1c-.1.71-.31,1.53-.41,2.34s-.32,1.53-.53,2.34a17.88,17.88,0,0,0-.21,2V508c-.1.91-.21,1.83-.31,2.75l-.21,1.73c-.11.4-.11.81-.21,1.22l-.21.71a17.85,17.85,0,0,0-.42,2.55,15,15,0,0,0-.21,1.63c-.11.71-.21,1.32-.32,2.65a5.73,5.73,0,0,1-.42,2.34,10,10,0,0,0-.62,2.55,10.37,10.37,0,0,0-.21,1.83,19.38,19.38,0,0,1-.42,2.55,76,76,0,0,0-1.79,9.88,6.79,6.79,0,0,0-.1,1.42,5.85,5.85,0,0,1-.11,1.33c-.1.4-.21.81-.31,1.22a17.42,17.42,0,0,0-.42,2.34c0,.41-.1.82-.1,1.32v.82a23,23,0,0,1-.42,2.55c-.11.71-.32,1.42-.42,2.14a7,7,0,0,0-.11,1.52c0,.31-.1.72-.1,1s-.11.71-.11,1a5.21,5.21,0,0,0-.21,1.32c-.21,1.53-.42,3.47-.73,5.4l-.11.72c-.21,1.63-.42,3.36-.73,5.5v.4c-.11,1.73-.32,3.47-.42,5.2v1.22l-.11.71a3.21,3.21,0,0,0-.1,1v1.83a8.63,8.63,0,0,1-.11,1.63c-.1,1.33-.2,2.75-.31,4.08l-.1,1.12a28.36,28.36,0,0,0-.11,3v1.53c0,.31,0,.41.11.51a13.94,13.94,0,0,1,.1,2v3a18.1,18.1,0,0,0,.31,2.14v.21a6,6,0,0,0,.35,1.25v0a.26.26,0,0,0,.1.21c.07.15.12.3.19.45.21.41.53.51.74.41a.56.56,0,0,0,.2-.37c6,1.7,33.62,3.15,62.23,3.93s58.21.88,68.23-.09l-8.92-.55c3.82-.18,7.61-.37,11.32-.59,0,.17.07.35.11.52s.07.17.1.25c.59-.14.92-.29.94-.45a27.66,27.66,0,0,0,.32-3.77v-3.57c0-1.22-.11-2.34-.11-3.46a19.91,19.91,0,0,1-.1-2.44v-2.65a21.69,21.69,0,0,0,0-2.55v-5c0-2.65,0-5.4-.11-8.15v-.71c0-.92-.1-1.83-.1-3-.1-1.33-.21-2.65-.21-3.87v-2.86c0-2.64-.1-5.29-.21-7.84s-.1-4.89-.21-7.64v-.71c0-.41-.1-.71-.1-1.12V545c-.11-.71-.11-1.53-.21-2.24l-.21-1.94-.21-2.14a7.08,7.08,0,0,1-.11-1.52c0-.61-.1-1.33-.1-1.94v-.92a27.52,27.52,0,0,0-.21-2.85c-.11-1.53-.21-3-.42-4.58,0-.51-.11-1-.11-1.63-.1-1.43-.21-3-.31-4.38l-.21-2.55c-.21-1.63-.32-3-.53-4.48-.1-1-.21-2-.41-3s-.11-1.74-.21-3c-.21-3.46-.53-7-.95-10.59a10.08,10.08,0,0,1-.1-1.63v-2.75a15.88,15.88,0,0,0-.21-2l-.32-3-.31-3.36-.11-1.13c-.1-.91-.1-1.62-.21-2.54-.1-1.33-.21-3-.31-4.58-.11-.51-.11-1.13-.21-1.63l-.21-1.74c-.11-1.12-.21-2.34-.21-3.46-.11-1.93-.21-3.87-.42-5.91l-.1-.91a8.13,8.13,0,0,1-.11-1.63V447.08c.11-1.43.11-2.86.21-4.38l.31-3.26c.11-1,.21-1.94.42-3,.11-.81.21-1.63.32-2.44l.21-.92.42-1.93c.21-.82.31-1.63.52-2.45a21.53,21.53,0,0,1,.95-3.05c.1-.51.41-.92.52-1.43h0c.11-.2.31-.51.42-.71l.21-.31c.1-.2.31-.41.42-.61a4.85,4.85,0,0,0,.52-1.32,2.69,2.69,0,0,1,.42-.72l.11-.3a4.92,4.92,0,0,0,.52-1.33l.11-.3a.77.77,0,0,0-.08-.88,10.08,10.08,0,0,1,.92-1.67l.31-.41.63-1.12c.42-.81.84-1.52,1.36-2.34,1.16-1.73,2.52-3.56,3.78-5.4,1.57-2.14,3.35-4.27,5.24-6.41a76.87,76.87,0,0,0,5-6.42c.53-.71.95-1.43,1.47-2.14a24.36,24.36,0,0,0,1.36-2.24c.53-.92,1-1.94,1.47-2.85l.95-2.14c.31-.71.62-1.43.94-2.14.42-1,.73-2,1.15-3.06.42-1.32.74-2.75.95-3.76.1-.51.21-1,.31-1.53l.21-.92c.21-1.32.53-2.75.84-4.48l.42-2,.63-4c.31-2.55.63-5.09.73-7.54.11-.91.32-2.75.53-4.07.1-.61.21-1.22.31-1.63A30.83,30.83,0,0,0-137.1,341.86Z"/></clipPath><clipPath id="clip-path-2"><rect class="cls-1" x="-464.12" y="235.13" width="428.7" height="429.5"/></clipPath><clipPath id="clip-path-3"><path class="cls-1" d="M565.72,106.27,565.6,105a19.24,19.24,0,0,0-.5-3.36c.1.33.15.59.18.73l0-.2a107.76,107.76,0,0,0-13.7-39.31c-1.66-2.86-2.37-4-4-6.39s-5.39-7.29-7.43-9.66a116.87,116.87,0,0,0-13.21-12.93,119.27,119.27,0,0,0-16.07-11c-1.57-.86-7.89-4-9.5-4.7l-1.36-.6a104,104,0,0,0-14.41-4.85l-2.48-.62a47.55,47.55,0,0,0-4.94-1.07l-3.08-.5A76.91,76.91,0,0,0,464,9.41c-2.43-.12-4.07-.17-5.65-.17s-3.23,0-5.66.17a76.62,76.62,0,0,0-11.1,1.14l-3.08.5a46.91,46.91,0,0,0-4.93,1.07l-2.47.61a104.22,104.22,0,0,0-14.43,4.86l-1.37.6c-1.61.69-7.93,3.84-9.5,4.7a119.27,119.27,0,0,0-16.07,11A113.43,113.43,0,0,0,369.07,56.5c-1.62,2.4-2.33,3.53-4,6.39a106.18,106.18,0,0,0-12.59,32.92,107.49,107.49,0,0,0,6.3,63.25c1.28,3,4.59,9.63,6.22,12.41,1.15,2,4.23,6.69,5.57,8.56l.71,1a8.08,8.08,0,0,0,6.63,3.55,8.69,8.69,0,0,0,5.52-2.12c.61-.49,1.21-.95,1.77-1.36l1.77-1.33a4.87,4.87,0,0,0,0,.66l-2,4.36c-.46,1-1.42,3.26-1.8,4.44A9.35,9.35,0,0,0,383,195c-.64.7-1.31,1.43-1.53,1.69-.54.61-6,6.49-7.65,8.27A8.84,8.84,0,0,0,371.1,211a10.27,10.27,0,0,0,1.27,4.58,15.76,15.76,0,0,0,9.12,8.08,8.74,8.74,0,0,0,2.91.52c3.81,0,5.68-2.08,8.76-5.52l.14-.15c.77-.87,1.53-1.71,1.72-1.91.38-.4,1.61-1.8,1.86-2.08.63-.71,1.22-1.38,1.41-1.58l.52-.57c.29.55.55,1,.72,1.27,2,3.19,4.86,4,9.64,5.45.3.09.95.29,1.45.46.78.25,1.95.58,2.79.78l1.61.41,1.56.45c.49.14,1.48.39,2.19.57l.43.11a33.86,33.86,0,0,1,2.5,4.29c.69,1.4,3.82,8.64,4.29,9.88a7.76,7.76,0,0,0,7.4,5.65,9,9,0,0,0,4.66-1.45c.45-.24,2.81-1.46,5.47-2.81,6.74-3.44,8.84-4.58,10-5.32A19.85,19.85,0,0,0,458.1,229a10,10,0,0,0,2.13-2.41,8.59,8.59,0,0,0,1,1.3,14.28,14.28,0,0,0,4.24,3.2,76.45,76.45,0,0,0,7.94,4.23c2.5,1.24,5.81,2.89,7.35,3.67,3.29,1.65,4.65,2.1,6.34,2.1h3l2.19-2.06c1.38-1.29,1.8-2.35,3.36-6.31,2.94-7.43,4.69-10.39,5.45-11.48.11,0,3.4-1,3.4-1,3.16-.91,4.09-1.2,8.29-2.54l6.17-2,1.82-3.34c.87,1,1.87,2.07,2.57,2.83l1.69,1.89c.73.83,1.84,2.06,2.46,2.73s1,1.15,1.14,1.27a8.07,8.07,0,0,0,10.21,2.25l1.44-.73a15.26,15.26,0,0,0,4-2.85s4.13-4.45,4.13-8.76c0-3-1.74-5.15-3.37-6.88-2-2.14-2.41-2.55-4.29-4.6-1-1.1-2.15-2.34-2.55-2.76l-1.86-2a9.38,9.38,0,0,0,0-7.29c-.49-1.29-1.25-3-2-4.52a19.52,19.52,0,0,0-1.81-3.09l0-.09c.44.35,1,.73,1.57,1.14.36.23.73.49.91.61a7.76,7.76,0,0,0,4.63,1.52c4.44,0,6.34-2.89,9-6.88,9.22-14,15.58-34.41,16.89-46.49A104.29,104.29,0,0,0,565.72,106.27Z"/></clipPath></defs><g class="cls-2"><g class="cls-3"><path class="cls-4" d="M-194.72,603.33l201.1,7.9V234.83l-166.8,2.8Z"/></g></g><path class="cls-5" d="M264.22,127.68l-2.3-4.44a21.68,21.68,0,0,0-2-3.16l.24-.22A17.65,17.65,0,0,0,264.51,102L263,97.22l-4.77-1.52a17.7,17.7,0,0,0-5.36-.83,18.47,18.47,0,0,0-2.59.21,17.63,17.63,0,0,0,1.39-14l-1.51-4.76-2.34-.75a17.7,17.7,0,0,0-.22-10l-1.52-4.77-4.76-1.51a17.75,17.75,0,0,0-5.36-.83,17.51,17.51,0,0,0-8.9,2.42L223,59.68a17.54,17.54,0,0,0-3.72-.75,17.67,17.67,0,0,0,1.47-14.1l-1.05-3.32a22.56,22.56,0,0,0-16.86-28.23l-4.89-1.07-3.69,3.37A22,22,0,0,0,192,17.91L189.51,14l-5-.23h-.81a17.74,17.74,0,0,0-15.33,8.85,17.09,17.09,0,0,0-1.54,3.48,21.29,21.29,0,0,0-3.84-.56,17.65,17.65,0,0,0-17.39-14.41h-.8l-5,.23-2.69,4.22c-.13.19-.24.4-.36.6A17.76,17.76,0,0,0,125.36,21a17.72,17.72,0,0,0-10.68-3.59l-.8,0-5,.22-2.69,4.22a17.82,17.82,0,0,0-1.35,2.55A22.64,22.64,0,0,0,93.17,25l-4.76,1.51-1.52,4.77a24.35,24.35,0,0,0-.76,3.2,17.67,17.67,0,0,0-9.09.43L72.27,36.4l-1.51,4.77a17.59,17.59,0,0,0,1.83,14.67L71.5,57.55a16.36,16.36,0,0,0-1.06,1.92,17.6,17.6,0,0,0-10,.21L56.4,61a17.47,17.47,0,0,0-8.89-2.42,17.7,17.7,0,0,0-5.36.83l-4.77,1.51-1.51,4.77a17.61,17.61,0,0,0-.22,10l-2.34.75L31.8,81.13a17.63,17.63,0,0,0,1.38,14,18.47,18.47,0,0,0-2.59-.21,17.75,17.75,0,0,0-5.36.83l-4.76,1.52L19,102a17.63,17.63,0,0,0,4.36,17.88c.07.08.16.14.23.22a21.63,21.63,0,0,0-2,3.16l-2.31,4.44,2.3,4.44a23.11,23.11,0,0,0,2.93,4.32,17.61,17.61,0,0,0-3.3,16.71l1.51,4.77,4.77,1.51a17.64,17.64,0,0,0,13.33-1.08l4.16,1.32a22.61,22.61,0,0,0,6.83,1.06h0a22.4,22.4,0,0,0,15.95-6.61c.41-.41.79-.83,1.16-1.26a11.67,11.67,0,0,0,1.46.1,12.17,12.17,0,0,0,8.77-3.87c1.92-1.26,9.17-3.47,17.06-3.47,3.9,0,7.23.58,9.13,1.59,6,3.19,8,13.15,5.87,29.6a71.54,71.54,0,0,1-1.89,9.43h-8a27.5,27.5,0,0,0-15.16,4.89l-.82.54-.75.64c-.52.44-1,.88-1.48,1.33a16.83,16.83,0,0,0-13.93-7.4h-2l-1.54.31A17.07,17.07,0,0,0,52.24,200l-.31,1.54v13.63a27.46,27.46,0,0,0,6.62,17.66l.4.48.43.45c5.88,6,13.05,9.24,20.71,9.24h1a25.4,25.4,0,0,0,7-1.09l1.17-.33,1.11-.51.77-.37c.61.27,1.23.52,1.85.74v5.92a24.78,24.78,0,0,0,6.08,16.06l.42.5.47.46c5.23,5.26,11.55,8,18.29,8h.88a21.55,21.55,0,0,0,4.41-.47l.71.16,1.54.31h2a16.47,16.47,0,0,0,10.89-4.07,23.62,23.62,0,0,0,13.27,4.07h7.36l1.53-.31a18.28,18.28,0,0,0,2.2-.59,23.66,23.66,0,0,0,6.43.9h7.36l1.53-.31a17.07,17.07,0,0,0,13.43-13.43l.31-1.53v-5.26L191,249.22a19,19,0,0,0,1.07-6.34v-.74c0-.16,0-.32,0-.48a16,16,0,0,0,6.36,1.31h2l1.53-.31a17.12,17.12,0,0,0,8.57-4.46h.68l1.53-.31a17.07,17.07,0,0,0,11.62-8.48,17.08,17.08,0,0,0,8.48-11.61l.31-1.54v-3.54l-.31-1.55a17.08,17.08,0,0,0-8.48-11.61,17.1,17.1,0,0,0-11.62-8.48l-1.54-.31h-3.53l-1.54.31a16.68,16.68,0,0,0-3.72,1.2,16.85,16.85,0,0,0-12.85-6h-.21a16.93,16.93,0,0,0-6.57,1.34,18.5,18.5,0,0,0-2.84-.83l-1.55-.31h-3.54l-.54.11a70.66,70.66,0,0,1-2-9.74c-2.12-16.45-.14-26.41,5.86-29.6,1.91-1,5.23-1.59,9.13-1.59,7.89,0,15.14,2.21,17.06,3.47a12.19,12.19,0,0,0,8.77,3.87,11.67,11.67,0,0,0,1.46-.1c.37.43.76.85,1.16,1.26a22.42,22.42,0,0,0,15.95,6.61h0a22.62,22.62,0,0,0,6.84-1.06l4.15-1.32a17.58,17.58,0,0,0,8,1.91h0a17.75,17.75,0,0,0,5.36-.83l4.76-1.51,1.52-4.77a17.66,17.66,0,0,0-3.3-16.71,23.07,23.07,0,0,0,2.92-4.32Z"/><path class="cls-6" d="M114.48,200.69A88.45,88.45,0,0,0,120.74,178c2.48-19.33,0-33.55-10.91-39.35s-33.14-1.25-37.56,3.59S63,133.58,84,131.65a23.12,23.12,0,0,0-13.4-2.9c-8.15.55-19,1.24-14.84-4s23.2-2.83,30-1.1A45.3,45.3,0,0,1,68,112.8c-7.87-8-3.18-10.77,5.11-5.25s16.85,13,25.13,14.36c0,0-9.39-5.39-14-13.53s-3-13.4,7.87-3.46,12.57,14.64,23.62,14.5-4.7-10.77-9.94-17.26-3.32-12-1-16.29c0,0,7,10.08,13,13.67s21.13,17.81,21.68,54.82c.25,16.95.74,33.43,1.19,46.33Z"/><path class="cls-7" d="M169,200.69A88,88,0,0,1,162.72,178c-2.48-19.33,0-33.55,10.91-39.35s33.14-1.25,37.56,3.59,9.26-8.7-11.73-10.63a23.07,23.07,0,0,1,13.39-2.9c8.15.55,19.06,1.24,14.85-4s-23.2-2.83-30-1.1a45.3,45.3,0,0,0,17.74-10.84c7.87-8,3.18-10.77-5.11-5.25s-16.84,13-25.13,14.36c0,0,9.39-5.39,14-13.53s3-13.4-7.87-3.46-12.57,14.64-23.61,14.5,4.69-10.77,9.94-17.26,3.31-12,1-16.29c0,0-7,10.08-13,13.67s-21.13,17.81-21.68,54.82c-.25,16.95-.74,33.43-1.19,46.33Z"/><path class="cls-8" d="M44.6,101.17a12.92,12.92,0,0,1,16.56,15l-10.29-8.68,8.68,10.29A12.92,12.92,0,0,1,44.6,101.17"/><path class="cls-9" d="M59.52,84.35a12.91,12.91,0,0,1,16.56,15L65.79,90.61l8.68,10.29A12.92,12.92,0,0,1,59.52,84.35"/><path class="cls-10" d="M81.48,79.79A12.92,12.92,0,0,1,98,94.74L87.74,86.06l8.69,10.29a12.91,12.91,0,0,1-15-16.56"/><path class="cls-11" d="M47.85,150.47a12.91,12.91,0,0,0,16.56-14.95l-10.29,8.69,8.68-10.29a12.92,12.92,0,0,0-14.95,16.55"/><path class="cls-12" d="M30.11,127.68a12.91,12.91,0,0,0,22.28,1.13L39,127.68l13.42-1.14a12.92,12.92,0,0,0-22.28,1.14"/><path class="cls-12" d="M124.25,68.33a12.92,12.92,0,0,0-16.56,15L118,74.59l-8.68,10.3a12.92,12.92,0,0,0,15-16.56"/><path class="cls-9" d="M30.37,150.23a8.05,8.05,0,0,0,10.32-9.32l-6.42,5.41,5.42-6.41a8.05,8.05,0,0,0-9.32,10.32"/><path class="cls-8" d="M28.15,104.9a8.06,8.06,0,0,1,10.33,9.33l-6.42-5.42,5.41,6.42a8.06,8.06,0,0,1-9.32-10.33"/><path class="cls-13" d="M41,84.05a8.06,8.06,0,0,1,10.33,9.32L44.9,88l5.42,6.42A8.06,8.06,0,0,1,41,84.05"/><path class="cls-8" d="M63.39,68.88A8.05,8.05,0,0,1,73.71,78.2l-6.42-5.42,5.42,6.42a8.05,8.05,0,0,1-9.32-10.32"/><path class="cls-7" d="M94.36,58.74a11.6,11.6,0,0,1,6.17,19.06L96.42,66.43l2.14,11.9a11.6,11.6,0,0,1-4.2-19.59"/><path class="cls-14" d="M117.65,56.31a8.05,8.05,0,0,0-10.32,9.32l6.42-5.41-5.42,6.41a8,8,0,0,0,9.32-10.32"/><path class="cls-11" d="M79.63,62.75a8.06,8.06,0,0,1,7.56,11.67l-4.8-6.89L86,75.13a8,8,0,0,1-6.33-12.38"/><path class="cls-12" d="M45.07,68.58A8.05,8.05,0,0,1,55.39,77.9L49,72.49l5.42,6.42a8.06,8.06,0,0,1-9.32-10.33"/><path class="cls-13" d="M129.43,86.72A8.06,8.06,0,0,0,119.1,96l6.42-5.42L120.11,97a8.05,8.05,0,0,0,9.32-10.32"/><path class="cls-7" d="M238.86,101.17a12.92,12.92,0,0,0-16.56,15l10.3-8.68-8.69,10.29a12.92,12.92,0,0,0,15-16.56"/><path class="cls-10" d="M223.94,84.35a12.91,12.91,0,0,0-16.55,15l10.29-8.69L209,100.9a12.91,12.91,0,0,0,14.95-16.55"/><path class="cls-8" d="M202,79.79a12.92,12.92,0,0,0-16.56,14.95l10.29-8.68L187,96.35a12.92,12.92,0,0,0,15-16.56"/><path class="cls-12" d="M235.61,150.47a12.91,12.91,0,0,1-16.56-14.95l10.3,8.69-8.69-10.29a12.92,12.92,0,0,1,15,16.55"/><path class="cls-8" d="M253.35,127.68a12.91,12.91,0,0,1-22.28,1.13l13.42-1.13-13.42-1.14a12.92,12.92,0,0,1,22.28,1.14"/><path class="cls-7" d="M159.22,68.33a12.92,12.92,0,0,1,16.55,15l-10.29-8.69,8.69,10.3a12.91,12.91,0,0,1-14.95-16.56"/><path class="cls-7" d="M253.1,150.23a8.06,8.06,0,0,1-10.33-9.32l6.42,5.41-5.41-6.41a8.05,8.05,0,0,1,9.32,10.32"/><path class="cls-13" d="M255.31,104.9A8.06,8.06,0,0,0,245,114.23l6.42-5.42L246,115.23a8.06,8.06,0,0,0,9.32-10.33"/><path class="cls-9" d="M242.47,84.05a8.05,8.05,0,0,0-10.32,9.32L238.56,88l-5.41,6.42a8.06,8.06,0,0,0,9.32-10.33"/><path class="cls-14" d="M220.08,68.88a8.06,8.06,0,0,0-10.33,9.32l6.42-5.42-5.41,6.42a8.05,8.05,0,0,0,9.32-10.32"/><path class="cls-10" d="M189.1,58.74a11.6,11.6,0,0,0-6.16,19.06L187,66.43l-2.13,11.9a11.6,11.6,0,0,0,4.19-19.59"/><path class="cls-9" d="M165.81,56.31a8,8,0,0,1,10.32,9.32l-6.41-5.41,5.41,6.41a8,8,0,0,1-9.32-10.32"/><path class="cls-9" d="M203.84,62.75a8,8,0,0,0-7.56,11.67l4.8-6.89-3.57,7.6a8.05,8.05,0,0,0,6.33-12.38"/><path class="cls-15" d="M238.4,68.58a8.06,8.06,0,0,0-10.33,9.32l6.42-5.41-5.41,6.42a8.06,8.06,0,0,0,9.32-10.33"/><path class="cls-11" d="M154,86.72A8.05,8.05,0,0,1,164.36,96l-6.42-5.42L163.36,97A8.05,8.05,0,0,1,154,86.72"/><path class="cls-10" d="M150.85,96.93a12.91,12.91,0,0,0-16.56,14.94l10.29-8.68-8.68,10.29a12.92,12.92,0,0,0,14.95-16.55"/><path class="cls-14" d="M131.32,73.44a12.92,12.92,0,0,1,16.55,15l-10.29-8.68L146.26,90a12.91,12.91,0,0,1-14.94-16.56"/><path class="cls-10" d="M159.87,53.14a12.92,12.92,0,0,0-16.55,15l10.29-8.69-8.68,10.3a12.91,12.91,0,0,0,14.94-16.56"/><path class="cls-7" d="M121.62,46a12.91,12.91,0,0,1,16.56,14.95l-10.29-8.69,8.68,10.29A12.92,12.92,0,0,1,121.62,46"/><path class="cls-15" d="M149.44,36.75a8.06,8.06,0,0,0-7.56,11.68l4.8-6.89-3.57,7.6a8.06,8.06,0,0,0,6.33-12.39"/><path class="cls-15" d="M96.09,34.18a12.91,12.91,0,0,1,16.56,15l-10.29-8.69L111,50.73a12.92,12.92,0,0,1-15-16.55"/><path class="cls-13" d="M114.32,27.09a8.06,8.06,0,0,1,7.56,11.67l-4.8-6.89,3.57,7.6a8,8,0,0,1-6.33-12.38"/><path class="cls-8" d="M80,44.09a8.05,8.05,0,0,1,10.32,9.32L83.87,48l5.41,6.42A8.05,8.05,0,0,1,80,44.09"/><path class="cls-7" d="M157.74,35.7a12.92,12.92,0,0,1,16.55,14.95L164,42l8.69,10.3A12.91,12.91,0,0,1,157.74,35.7"/><path class="cls-8" d="M195.5,39.05A12.92,12.92,0,0,0,179,54l10.29-8.68-8.69,10.29A12.91,12.91,0,0,0,195.5,39.05"/><path class="cls-14" d="M184.08,23.37a8.05,8.05,0,0,0-7.56,11.68l4.79-6.89-3.57,7.6a8.06,8.06,0,0,0,6.34-12.39"/><path class="cls-11" d="M138,25.77a8.05,8.05,0,0,0-7.56,11.68l4.79-6.9-3.57,7.61A8.06,8.06,0,0,0,138,25.77"/><path class="cls-14" d="M145.25,20.74a8.05,8.05,0,0,1,7.56,11.67L148,25.52l3.57,7.6a8.05,8.05,0,0,1-6.33-12.38"/><path class="cls-7" d="M211.54,47.75a8.05,8.05,0,0,0-10.32,9.32l6.42-5.41-5.42,6.41a8,8,0,0,0,9.32-10.32"/><path class="cls-12" d="M200.76,22.7a12.92,12.92,0,0,1,6.86,21.23l-4.57-12.67,2.37,13.26a12.92,12.92,0,0,1-4.66-21.82"/><path class="cls-4" d="M223.34,213.07a7.37,7.37,0,0,0-5.86-5.86l-.6-.12h-.09V207l-.12-.6a7.36,7.36,0,0,0-5.86-5.86l-.6-.12h-1.63l-.6.12a7.34,7.34,0,0,0-5.85,5.86l-.12.6v.09h-.1l-.6.12a8.31,8.31,0,0,0-2,.7l-2.14-5.2c-1.81-5.92-5.55-6.82-7.65-6.82h-.21a7.53,7.53,0,0,0-4.16,1.3l-.77.52-.59.72a6.57,6.57,0,0,0-.83,1.29,7.41,7.41,0,0,0-5-3.51l-.61-.12h-1.63l-.6.12a7.45,7.45,0,0,0-3.73,1.94,13.65,13.65,0,0,0-7.52-2.26h-.74a14.06,14.06,0,0,0-7.38,2.2,7.47,7.47,0,0,0-3.88-2.08l-.6-.12H131.94l-.61.13a8,8,0,0,0-3.12,1.33,12.09,12.09,0,0,0-5.8-1.46H112.1l-.6.12c-.22,0-.43.1-.64.16l-.65-.16-.6-.12h-8.29a18,18,0,0,0-9.86,3.31l-.32.21-.3.25c-5.71,4.86-7.14,10.11-7.28,13.86l-.17.17A7.72,7.72,0,0,0,80.14,217l-.63,1.21v.15a6.66,6.66,0,0,1-1.59-.79c-1.48-1.24-1.48-2.07-1.48-2.44v-11.9c-.37-5.05-4-7.35-7.24-7.35h-1l-.6.12a7.36,7.36,0,0,0-5.86,5.86l-.12.6v12.67A17.74,17.74,0,0,0,66,226.64l.16.18.17.18c4.08,4.19,8.72,6.32,13.79,6.32h1a16.39,16.39,0,0,0,4.39-.71l.46-.13.43-.2a15.2,15.2,0,0,0,4.44-3,18,18,0,0,0,11.3,4.07h.57v14a15,15,0,0,0,3.82,9.84l.16.2.18.18c3.42,3.44,7.28,5.19,11.45,5.19h.88a12.87,12.87,0,0,0,4.16-.74l.34-.12.23-.11a7.89,7.89,0,0,0,2.28.85l.6.12h1c3.15,0,6.61-2.13,7.2-6.9l.05-.38V247a7,7,0,0,0,1.77,1.64,16.16,16.16,0,0,0,2.37,6.71l.15.24.16.23c4.21,5.69,9.1,6.89,12.45,6.89h6.41l.6-.12a7.58,7.58,0,0,0,3.54-1.75,14,14,0,0,0,7,1.87h6.4l.6-.12a7.36,7.36,0,0,0,5.86-5.86l.12-.6v-2.42l-.45-1.11a7.38,7.38,0,0,0-2.25-3,9.72,9.72,0,0,0,2.7-6.72v-.74a11.24,11.24,0,0,0-.8-4l-.15-.4-.2-.38a12.7,12.7,0,0,0-3.5-4.13l.23,0,.64-.16.65.16.6.12H182l1.62-.61c2.14-.82,3.18-2.24,4.36-5a9.19,9.19,0,0,1,3.83,1.84c1.58,1.79,3.56,3.81,6.59,3.81h1l.6-.12a7.35,7.35,0,0,0,5.78-5.56,7.92,7.92,0,0,0,2.17.79l.6.12h1.63l.6-.12a7.36,7.36,0,0,0,5.86-5.86l.12-.6v-.09h.09l.6-.12a7.37,7.37,0,0,0,5.86-5.86l.12-.6v-1.63ZM162,233.29l-.18.1-.18.12-.55.4a11.92,11.92,0,0,0-1.33-1,13.28,13.28,0,0,0,2.28.39Zm-44.47,13.35v-.32c0-.08,0-.12,0-.13a2.51,2.51,0,0,1,.67-.5l.17-.05A6.44,6.44,0,0,0,117.48,246.64Zm32.06-22.23.15.3.18.28a19.08,19.08,0,0,0,6.14,6.3,12.37,12.37,0,0,0-2.82-.32h-.88a15.67,15.67,0,0,0-7.88,2.32l-.18.1-.15.1a11.11,11.11,0,0,0-4.92-2.33,12.73,12.73,0,0,0,2.57-2.85c1-1.45,2.18-3.92,4.22-10.63l.05-.18a24.6,24.6,0,0,1,1.2-3.47v1.11"/><path class="cls-5" d="M68.77,202.07h.41c.64,0,1,.54,1.07,1.62v11.45q0,4.23,4,7.42a10.49,10.49,0,0,0,5.86,2.08h.2l.07.07.07-.07h.47a4.45,4.45,0,0,0,4.38-2.56,7.93,7.93,0,0,0,.34-2.22,1.27,1.27,0,0,1,1.14-.81l.07-.07c.81.23,1.21.59,1.21,1.08v.68c0,2.62-1.43,4.6-4.31,5.93a10.46,10.46,0,0,1-2.69.47h-1q-5,0-9.36-4.45a11.65,11.65,0,0,1-3-7.55V203.08A1.19,1.19,0,0,1,68.77,202.07Z"/><path class="cls-5" d="M101.32,202.07H109a1.19,1.19,0,0,1,1,1v.4c0,.64-.54,1-1.61,1.08h-5.53l-1.08-.07c-2.66,0-5.09,1.22-7.28,3.64a10,10,0,0,0-2.29,6v1q0,4.23,4,7.42a10.49,10.49,0,0,0,5.86,2.08h.2l.07.07.07-.07h.47a4.29,4.29,0,0,0,4.52-3l.13-.94V220a3.85,3.85,0,0,0-2.63-3.84l-1.55-.27a4.24,4.24,0,0,0-4.11,2.7,6.19,6.19,0,0,0-.34,2.09c-.33.54-.67.81-1,.81h-.4a1.2,1.2,0,0,1-1-1v-.61q0-4,4.31-6a9.94,9.94,0,0,1,2.56-.47,6.6,6.6,0,0,1,6.07,3.71,7.24,7.24,0,0,1,.6,2.69v1c0,2.62-1.43,4.6-4.31,5.93a10.46,10.46,0,0,1-2.69.47h-1q-5,0-9.37-4.45a11.69,11.69,0,0,1-3-7.55v-1q0-5.4,5.12-9.77A12,12,0,0,1,101.32,202.07Z"/><path class="cls-5" d="M112.71,202.07h9.7q3.77,0,5.8,4a9.15,9.15,0,0,1,.61,3.1,8.71,8.71,0,0,1-1.35,4.58,6.12,6.12,0,0,1,3,2.16,6,6,0,0,1,1.55,4v.67q0,3.68-4,6a7.68,7.68,0,0,1-2.49.54H112.71a1.19,1.19,0,0,1-1-1v-23A1.19,1.19,0,0,1,112.71,202.07Zm1.48,2.42v14.22h.07q2.1-3.19,7.21-4.92a16.56,16.56,0,0,1,3-.4h.07a5.59,5.59,0,0,0,1.75-4.18,4.4,4.4,0,0,0-3-4.51,12.51,12.51,0,0,0-2.7-.21Zm.07,20.15h11.12c1.73,0,3-1,3.91-3a3.35,3.35,0,0,0,.2-1.15V220q0-2.6-3-3.9a3.12,3.12,0,0,0-1.14-.21h-.88q-4.74,0-8.56,4.59A10.84,10.84,0,0,0,114.26,224.64Z"/><path class="cls-5" d="M132.57,202.07H150.7a1.19,1.19,0,0,1,1,1v.4q0,.95-1.41,1.08-7.19,0-10.25,11.32-2.24,7.4-3.37,8.9c-1,1.57-2.15,2.36-3.37,2.36h-.87a1.19,1.19,0,0,1-1-1v-.41q0-1.08,1.95-1.08c.71-.22,1.47-1.34,2.29-3.37q2.46-7.89,3.78-11.05a17.64,17.64,0,0,1,4-5.66H132.71c-.86-.14-1.28-.5-1.28-1.08v-.4C131.43,202.56,131.81,202.23,132.57,202.07Z"/><path class="cls-5" d="M163.17,202.07h.74q4.62,0,8.09,5.46a14.83,14.83,0,0,1,1.68,6.53v1.08a13.64,13.64,0,0,1-3.57,9.1,14.64,14.64,0,0,0,2.9.54c.45.35.67.66.67.94v.41a1.19,1.19,0,0,1-1,1H172a10,10,0,0,1-4.12-1.22,7.33,7.33,0,0,1-4,1.22h-.74q-4.62,0-8.09-5.46a14.84,14.84,0,0,1-1.68-6.54v-1.08a13.23,13.23,0,0,1,4.44-9.9A8.76,8.76,0,0,1,163.17,202.07Zm-7.28,12v1.08a10.69,10.69,0,0,0,3.44,7.89,6.22,6.22,0,0,0,3.77,1.61H164a6.84,6.84,0,0,0,1.88-.4v-.07a13.92,13.92,0,0,1-3.57-9.7c0-.56.38-.92,1.15-1.08h.2c.81,0,1.21.76,1.21,2.29a11.14,11.14,0,0,0,2.56,6.54l.61.54a10.68,10.68,0,0,0,2.56-4,13.19,13.19,0,0,0,.61-3.57v-1.08a10.7,10.7,0,0,0-3.44-7.88,6.27,6.27,0,0,0-3.77-1.62h-.88q-2.88,0-5.39,3.51A11.3,11.3,0,0,0,155.89,214.06Z"/><path class="cls-5" d="M176.38,202.27h.4a1.19,1.19,0,0,1,1,1v22.85a1.19,1.19,0,0,1-1,1h-.4a1.2,1.2,0,0,1-1-1V203.28A1.2,1.2,0,0,1,176.38,202.27Z"/><path class="cls-5" d="M189.31,202.07h.21c.7,0,1.31.9,1.82,2.69q7.68,18.69,8.49,21v.41a1.2,1.2,0,0,1-1,1h-.41c-.3,0-1.06-.7-2.29-2.09a15.44,15.44,0,0,0-10.24-3.78h-.34c-1.21,0-1.82.09-1.82.27q-1.93,5.27-2.29,5.4l-.54.2h-.4a1.18,1.18,0,0,1-1-1v-.34q0-.24,6.8-17.86a55.84,55.84,0,0,1,2.29-5.59A1.38,1.38,0,0,1,189.31,202.07Zm-4.51,16.71h1a17.91,17.91,0,0,1,9.64,2.7v-.07l-5.93-14.69q-.35.43-3,7.75Z"/><path class="cls-5" d="M209.19,206.6h.41a1.19,1.19,0,0,1,1,1v5.66h5.66a1.19,1.19,0,0,1,1,1v.41a1.19,1.19,0,0,1-1,1h-5.66v5.66a1.19,1.19,0,0,1-1,1h-.41a1.2,1.2,0,0,1-1-1V215.7h-5.66a1.19,1.19,0,0,1-1-1v-.41a1.19,1.19,0,0,1,1-1h5.66v-5.66A1.2,1.2,0,0,1,209.19,206.6Z"/><path class="cls-5" d="M109.82,231.22h.4q1,0,1.08,1.62v7.21q3.26-2.84,5.53-3c.57,0,1,.41,1.14,1.22v.06c0,.76-.65,1.25-2,1.49-3.15,1.46-4.72,3.61-4.72,6.47v.8q0,4.49,5.06,6.61a8.06,8.06,0,0,0,2,.34h.67a3,3,0,0,0,3-1.82c.13-1.49.4-2.23.81-2.23,0-.06.2-.13.6-.2.81.19,1.22.55,1.22,1.08v.67c0,2-1.13,3.51-3.37,4.59a7,7,0,0,1-2.16.4h-.88q-3.72,0-7.07-3.37a9,9,0,0,1-2.36-5.86v-15.1A1.19,1.19,0,0,1,109.82,231.22Z"/><path class="cls-5" d="M127.54,237.08c.73,0,1.16.5,1.28,1.49v1.68q3.42-3.17,7-3.17h.87a5.51,5.51,0,0,1,5.12,3.17,5.42,5.42,0,0,1,.41,1.82v.67c0,.5-.41.86-1.22,1.08q-1.14-.3-1.14-.87l-.27-1.62a3.1,3.1,0,0,0-3-1.75h-.67a7.51,7.51,0,0,0-5.73,3,6.64,6.64,0,0,0-1.35,4v8.56c-.12,1-.48,1.48-1.07,1.48h-.41a1.19,1.19,0,0,1-1-1V238.16C126.33,237.65,126.73,237.29,127.54,237.08Z"/><path class="cls-5" d="M152.31,237.15h.88a5.53,5.53,0,0,1,5.12,3.17,5.32,5.32,0,0,1,.4,1.82v.74c0,2.08-2,4-6,5.66a13.41,13.41,0,0,0-3.5,2.49,3.39,3.39,0,0,0-.94,1.69,7.07,7.07,0,0,0,3.9,1.41l.81-.06h3.91c1,0,1.59.29,1.82.87v.61a1.19,1.19,0,0,1-1,1h-5.8q-4.25,0-7.48-4.38a9.49,9.49,0,0,1-1.55-4.85v-1q0-4.6,4.65-7.75A9.76,9.76,0,0,1,152.31,237.15Zm-6.94,9.44v.6a6.15,6.15,0,0,0,1.08,3.44q1.56-2.82,7.21-5.32c1.7-.89,2.56-1.72,2.56-2.5v-.4c0-1.46-.83-2.36-2.5-2.7l-.6-.07h-.68a7.45,7.45,0,0,0-5.72,3A6.64,6.64,0,0,0,145.37,246.59Z"/><path class="cls-5" d="M169.83,237.15h.88a5.52,5.52,0,0,1,5.12,3.17,5.32,5.32,0,0,1,.4,1.82v.74c0,2.08-2,4-6,5.66a13.58,13.58,0,0,0-3.5,2.49,3.39,3.39,0,0,0-.94,1.69,7.07,7.07,0,0,0,3.91,1.41l.8-.06h3.91c1,0,1.59.29,1.82.87v.61a1.19,1.19,0,0,1-1,1h-5.79c-2.83,0-5.33-1.46-7.48-4.38a9.39,9.39,0,0,1-1.55-4.85v-1q0-4.6,4.65-7.75A9.69,9.69,0,0,1,169.83,237.15Zm-6.94,9.44v.6a6.15,6.15,0,0,0,1.08,3.44q1.56-2.82,7.21-5.32c1.71-.89,2.56-1.72,2.56-2.5v-.4q0-2.19-2.49-2.7l-.61-.07H170a7.46,7.46,0,0,0-5.73,3A6.64,6.64,0,0,0,162.89,246.59Z"/><g class="cls-16"><rect class="cls-17" x="275.61" y="203.68" width="52.95" height="52.95" rx="21.62" transform="translate(678.44 179.3) rotate(135)"/><rect class="cls-17" x="253.19" y="147.57" width="52.95" height="52.95" rx="21.62" transform="translate(600.49 99.37) rotate(135)"/><rect class="cls-17" x="297.24" y="123.53" width="118.27" height="118.27" rx="14.55" transform="translate(-24.78 305.49) rotate(-45)"/><rect class="cls-18" x="261.07" y="209.5" width="52.95" height="52.95" rx="21.62" transform="translate(657.73 199.51) rotate(135)"/><rect class="cls-19" x="238.65" y="153.39" width="52.95" height="52.95" rx="21.62" transform="translate(579.78 119.58) rotate(135)"/><rect class="cls-20" x="282.7" y="129.34" width="118.27" height="118.27" rx="39.9" transform="translate(716.82 80.04) rotate(135)"/><rect class="cls-21" x="270.15" y="17.59" width="71.57" height="71.57" rx="29.22" transform="translate(560.01 -125.21) rotate(135)"/></g></svg>